%TF.GenerationSoftware,KiCad,Pcbnew,8.0.6*%
%TF.CreationDate,2024-11-01T17:42:55+02:00*%
%TF.ProjectId,gps_tracer,6770735f-7472-4616-9365-722e6b696361,rev?*%
%TF.SameCoordinates,Original*%
%TF.FileFunction,Legend,Top*%
%TF.FilePolarity,Positive*%
%FSLAX46Y46*%
G04 Gerber Fmt 4.6, Leading zero omitted, Abs format (unit mm)*
G04 Created by KiCad (PCBNEW 8.0.6) date 2024-11-01 17:42:55*
%MOMM*%
%LPD*%
G01*
G04 APERTURE LIST*
%ADD10C,0.150000*%
%ADD11C,0.200000*%
%ADD12C,0.300000*%
%ADD13C,0.254000*%
%ADD14C,0.100000*%
%ADD15C,0.120000*%
G04 APERTURE END LIST*
D10*
X50800000Y-58600000D02*
X53610000Y-58600000D01*
X51768207Y-57582390D02*
X51692017Y-57544295D01*
X51692017Y-57544295D02*
X51577731Y-57544295D01*
X51577731Y-57544295D02*
X51463445Y-57582390D01*
X51463445Y-57582390D02*
X51387255Y-57658580D01*
X51387255Y-57658580D02*
X51349160Y-57734771D01*
X51349160Y-57734771D02*
X51311064Y-57887152D01*
X51311064Y-57887152D02*
X51311064Y-58001438D01*
X51311064Y-58001438D02*
X51349160Y-58153819D01*
X51349160Y-58153819D02*
X51387255Y-58230009D01*
X51387255Y-58230009D02*
X51463445Y-58306200D01*
X51463445Y-58306200D02*
X51577731Y-58344295D01*
X51577731Y-58344295D02*
X51653922Y-58344295D01*
X51653922Y-58344295D02*
X51768207Y-58306200D01*
X51768207Y-58306200D02*
X51806303Y-58268104D01*
X51806303Y-58268104D02*
X51806303Y-58001438D01*
X51806303Y-58001438D02*
X51653922Y-58001438D01*
X52149160Y-58344295D02*
X52149160Y-57544295D01*
X52149160Y-57544295D02*
X52606303Y-58344295D01*
X52606303Y-58344295D02*
X52606303Y-57544295D01*
X52987255Y-58344295D02*
X52987255Y-57544295D01*
X52987255Y-57544295D02*
X53177731Y-57544295D01*
X53177731Y-57544295D02*
X53292017Y-57582390D01*
X53292017Y-57582390D02*
X53368207Y-57658580D01*
X53368207Y-57658580D02*
X53406302Y-57734771D01*
X53406302Y-57734771D02*
X53444398Y-57887152D01*
X53444398Y-57887152D02*
X53444398Y-58001438D01*
X53444398Y-58001438D02*
X53406302Y-58153819D01*
X53406302Y-58153819D02*
X53368207Y-58230009D01*
X53368207Y-58230009D02*
X53292017Y-58306200D01*
X53292017Y-58306200D02*
X53177731Y-58344295D01*
X53177731Y-58344295D02*
X52987255Y-58344295D01*
X52365826Y-56675247D02*
X52480112Y-56713342D01*
X52480112Y-56713342D02*
X52518207Y-56751438D01*
X52518207Y-56751438D02*
X52556303Y-56827628D01*
X52556303Y-56827628D02*
X52556303Y-56941914D01*
X52556303Y-56941914D02*
X52518207Y-57018104D01*
X52518207Y-57018104D02*
X52480112Y-57056200D01*
X52480112Y-57056200D02*
X52403922Y-57094295D01*
X52403922Y-57094295D02*
X52099160Y-57094295D01*
X52099160Y-57094295D02*
X52099160Y-56294295D01*
X52099160Y-56294295D02*
X52365826Y-56294295D01*
X52365826Y-56294295D02*
X52442017Y-56332390D01*
X52442017Y-56332390D02*
X52480112Y-56370485D01*
X52480112Y-56370485D02*
X52518207Y-56446676D01*
X52518207Y-56446676D02*
X52518207Y-56522866D01*
X52518207Y-56522866D02*
X52480112Y-56599057D01*
X52480112Y-56599057D02*
X52442017Y-56637152D01*
X52442017Y-56637152D02*
X52365826Y-56675247D01*
X52365826Y-56675247D02*
X52099160Y-56675247D01*
X50850000Y-57350000D02*
X53660000Y-57350000D01*
X53680000Y-50950000D02*
X53660000Y-58600000D01*
X50785000Y-53570000D02*
X53595000Y-53570000D01*
X51162969Y-52534295D02*
X51658207Y-52534295D01*
X51658207Y-52534295D02*
X51391541Y-52839057D01*
X51391541Y-52839057D02*
X51505826Y-52839057D01*
X51505826Y-52839057D02*
X51582017Y-52877152D01*
X51582017Y-52877152D02*
X51620112Y-52915247D01*
X51620112Y-52915247D02*
X51658207Y-52991438D01*
X51658207Y-52991438D02*
X51658207Y-53181914D01*
X51658207Y-53181914D02*
X51620112Y-53258104D01*
X51620112Y-53258104D02*
X51582017Y-53296200D01*
X51582017Y-53296200D02*
X51505826Y-53334295D01*
X51505826Y-53334295D02*
X51277255Y-53334295D01*
X51277255Y-53334295D02*
X51201064Y-53296200D01*
X51201064Y-53296200D02*
X51162969Y-53258104D01*
X52001065Y-53258104D02*
X52039160Y-53296200D01*
X52039160Y-53296200D02*
X52001065Y-53334295D01*
X52001065Y-53334295D02*
X51962969Y-53296200D01*
X51962969Y-53296200D02*
X52001065Y-53258104D01*
X52001065Y-53258104D02*
X52001065Y-53334295D01*
X52305826Y-52534295D02*
X52801064Y-52534295D01*
X52801064Y-52534295D02*
X52534398Y-52839057D01*
X52534398Y-52839057D02*
X52648683Y-52839057D01*
X52648683Y-52839057D02*
X52724874Y-52877152D01*
X52724874Y-52877152D02*
X52762969Y-52915247D01*
X52762969Y-52915247D02*
X52801064Y-52991438D01*
X52801064Y-52991438D02*
X52801064Y-53181914D01*
X52801064Y-53181914D02*
X52762969Y-53258104D01*
X52762969Y-53258104D02*
X52724874Y-53296200D01*
X52724874Y-53296200D02*
X52648683Y-53334295D01*
X52648683Y-53334295D02*
X52420112Y-53334295D01*
X52420112Y-53334295D02*
X52343921Y-53296200D01*
X52343921Y-53296200D02*
X52305826Y-53258104D01*
X53029636Y-52534295D02*
X53296303Y-53334295D01*
X53296303Y-53334295D02*
X53562969Y-52534295D01*
X53680000Y-50950000D02*
X50750000Y-50950000D01*
X51171064Y-54566200D02*
X51285350Y-54604295D01*
X51285350Y-54604295D02*
X51475826Y-54604295D01*
X51475826Y-54604295D02*
X51552017Y-54566200D01*
X51552017Y-54566200D02*
X51590112Y-54528104D01*
X51590112Y-54528104D02*
X51628207Y-54451914D01*
X51628207Y-54451914D02*
X51628207Y-54375723D01*
X51628207Y-54375723D02*
X51590112Y-54299533D01*
X51590112Y-54299533D02*
X51552017Y-54261438D01*
X51552017Y-54261438D02*
X51475826Y-54223342D01*
X51475826Y-54223342D02*
X51323445Y-54185247D01*
X51323445Y-54185247D02*
X51247255Y-54147152D01*
X51247255Y-54147152D02*
X51209160Y-54109057D01*
X51209160Y-54109057D02*
X51171064Y-54032866D01*
X51171064Y-54032866D02*
X51171064Y-53956676D01*
X51171064Y-53956676D02*
X51209160Y-53880485D01*
X51209160Y-53880485D02*
X51247255Y-53842390D01*
X51247255Y-53842390D02*
X51323445Y-53804295D01*
X51323445Y-53804295D02*
X51513922Y-53804295D01*
X51513922Y-53804295D02*
X51628207Y-53842390D01*
X51971065Y-54604295D02*
X51971065Y-53804295D01*
X51971065Y-53804295D02*
X52161541Y-53804295D01*
X52161541Y-53804295D02*
X52275827Y-53842390D01*
X52275827Y-53842390D02*
X52352017Y-53918580D01*
X52352017Y-53918580D02*
X52390112Y-53994771D01*
X52390112Y-53994771D02*
X52428208Y-54147152D01*
X52428208Y-54147152D02*
X52428208Y-54261438D01*
X52428208Y-54261438D02*
X52390112Y-54413819D01*
X52390112Y-54413819D02*
X52352017Y-54490009D01*
X52352017Y-54490009D02*
X52275827Y-54566200D01*
X52275827Y-54566200D02*
X52161541Y-54604295D01*
X52161541Y-54604295D02*
X51971065Y-54604295D01*
X52732969Y-54375723D02*
X53113922Y-54375723D01*
X52656779Y-54604295D02*
X52923446Y-53804295D01*
X52923446Y-53804295D02*
X53190112Y-54604295D01*
X50805000Y-52270000D02*
X53615000Y-52270000D01*
X53680000Y-56070000D02*
X50760000Y-56070000D01*
X51568207Y-51252390D02*
X51492017Y-51214295D01*
X51492017Y-51214295D02*
X51377731Y-51214295D01*
X51377731Y-51214295D02*
X51263445Y-51252390D01*
X51263445Y-51252390D02*
X51187255Y-51328580D01*
X51187255Y-51328580D02*
X51149160Y-51404771D01*
X51149160Y-51404771D02*
X51111064Y-51557152D01*
X51111064Y-51557152D02*
X51111064Y-51671438D01*
X51111064Y-51671438D02*
X51149160Y-51823819D01*
X51149160Y-51823819D02*
X51187255Y-51900009D01*
X51187255Y-51900009D02*
X51263445Y-51976200D01*
X51263445Y-51976200D02*
X51377731Y-52014295D01*
X51377731Y-52014295D02*
X51453922Y-52014295D01*
X51453922Y-52014295D02*
X51568207Y-51976200D01*
X51568207Y-51976200D02*
X51606303Y-51938104D01*
X51606303Y-51938104D02*
X51606303Y-51671438D01*
X51606303Y-51671438D02*
X51453922Y-51671438D01*
X51949160Y-52014295D02*
X51949160Y-51214295D01*
X51949160Y-51214295D02*
X52406303Y-52014295D01*
X52406303Y-52014295D02*
X52406303Y-51214295D01*
X52787255Y-52014295D02*
X52787255Y-51214295D01*
X52787255Y-51214295D02*
X52977731Y-51214295D01*
X52977731Y-51214295D02*
X53092017Y-51252390D01*
X53092017Y-51252390D02*
X53168207Y-51328580D01*
X53168207Y-51328580D02*
X53206302Y-51404771D01*
X53206302Y-51404771D02*
X53244398Y-51557152D01*
X53244398Y-51557152D02*
X53244398Y-51671438D01*
X53244398Y-51671438D02*
X53206302Y-51823819D01*
X53206302Y-51823819D02*
X53168207Y-51900009D01*
X53168207Y-51900009D02*
X53092017Y-51976200D01*
X53092017Y-51976200D02*
X52977731Y-52014295D01*
X52977731Y-52014295D02*
X52787255Y-52014295D01*
X50750000Y-50950000D02*
X50760000Y-58600000D01*
X50760000Y-54850000D02*
X53570000Y-54850000D01*
X51211064Y-55806200D02*
X51325350Y-55844295D01*
X51325350Y-55844295D02*
X51515826Y-55844295D01*
X51515826Y-55844295D02*
X51592017Y-55806200D01*
X51592017Y-55806200D02*
X51630112Y-55768104D01*
X51630112Y-55768104D02*
X51668207Y-55691914D01*
X51668207Y-55691914D02*
X51668207Y-55615723D01*
X51668207Y-55615723D02*
X51630112Y-55539533D01*
X51630112Y-55539533D02*
X51592017Y-55501438D01*
X51592017Y-55501438D02*
X51515826Y-55463342D01*
X51515826Y-55463342D02*
X51363445Y-55425247D01*
X51363445Y-55425247D02*
X51287255Y-55387152D01*
X51287255Y-55387152D02*
X51249160Y-55349057D01*
X51249160Y-55349057D02*
X51211064Y-55272866D01*
X51211064Y-55272866D02*
X51211064Y-55196676D01*
X51211064Y-55196676D02*
X51249160Y-55120485D01*
X51249160Y-55120485D02*
X51287255Y-55082390D01*
X51287255Y-55082390D02*
X51363445Y-55044295D01*
X51363445Y-55044295D02*
X51553922Y-55044295D01*
X51553922Y-55044295D02*
X51668207Y-55082390D01*
X52468208Y-55768104D02*
X52430112Y-55806200D01*
X52430112Y-55806200D02*
X52315827Y-55844295D01*
X52315827Y-55844295D02*
X52239636Y-55844295D01*
X52239636Y-55844295D02*
X52125350Y-55806200D01*
X52125350Y-55806200D02*
X52049160Y-55730009D01*
X52049160Y-55730009D02*
X52011065Y-55653819D01*
X52011065Y-55653819D02*
X51972969Y-55501438D01*
X51972969Y-55501438D02*
X51972969Y-55387152D01*
X51972969Y-55387152D02*
X52011065Y-55234771D01*
X52011065Y-55234771D02*
X52049160Y-55158580D01*
X52049160Y-55158580D02*
X52125350Y-55082390D01*
X52125350Y-55082390D02*
X52239636Y-55044295D01*
X52239636Y-55044295D02*
X52315827Y-55044295D01*
X52315827Y-55044295D02*
X52430112Y-55082390D01*
X52430112Y-55082390D02*
X52468208Y-55120485D01*
X53192017Y-55844295D02*
X52811065Y-55844295D01*
X52811065Y-55844295D02*
X52811065Y-55044295D01*
D11*
X61208553Y-70655000D02*
G75*
G02*
X60501447Y-70655000I-353553J0D01*
G01*
X60501447Y-70655000D02*
G75*
G02*
X61208553Y-70655000I353553J0D01*
G01*
X60855000Y-65305000D02*
X60355000Y-67055000D01*
X60855000Y-70655000D02*
X66205000Y-70655000D01*
X60855000Y-70655000D02*
X60855000Y-65305000D01*
X66205000Y-70655000D02*
X64455000Y-71155000D01*
X66205000Y-70655000D02*
X64455000Y-70155000D01*
X60855000Y-65305000D02*
X61355000Y-67055000D01*
X69859047Y-65048409D02*
X70001904Y-65096028D01*
X70001904Y-65096028D02*
X70049523Y-65143647D01*
X70049523Y-65143647D02*
X70097142Y-65238885D01*
X70097142Y-65238885D02*
X70097142Y-65381742D01*
X70097142Y-65381742D02*
X70049523Y-65476980D01*
X70049523Y-65476980D02*
X70001904Y-65524600D01*
X70001904Y-65524600D02*
X69906666Y-65572219D01*
X69906666Y-65572219D02*
X69525714Y-65572219D01*
X69525714Y-65572219D02*
X69525714Y-64572219D01*
X69525714Y-64572219D02*
X69859047Y-64572219D01*
X69859047Y-64572219D02*
X69954285Y-64619838D01*
X69954285Y-64619838D02*
X70001904Y-64667457D01*
X70001904Y-64667457D02*
X70049523Y-64762695D01*
X70049523Y-64762695D02*
X70049523Y-64857933D01*
X70049523Y-64857933D02*
X70001904Y-64953171D01*
X70001904Y-64953171D02*
X69954285Y-65000790D01*
X69954285Y-65000790D02*
X69859047Y-65048409D01*
X69859047Y-65048409D02*
X69525714Y-65048409D01*
X70525714Y-65572219D02*
X70525714Y-64572219D01*
X70525714Y-64572219D02*
X70859047Y-65286504D01*
X70859047Y-65286504D02*
X71192380Y-64572219D01*
X71192380Y-64572219D02*
X71192380Y-65572219D01*
X71668571Y-65048409D02*
X72001904Y-65048409D01*
X72144761Y-65572219D02*
X71668571Y-65572219D01*
X71668571Y-65572219D02*
X71668571Y-64572219D01*
X71668571Y-64572219D02*
X72144761Y-64572219D01*
X72525714Y-64667457D02*
X72573333Y-64619838D01*
X72573333Y-64619838D02*
X72668571Y-64572219D01*
X72668571Y-64572219D02*
X72906666Y-64572219D01*
X72906666Y-64572219D02*
X73001904Y-64619838D01*
X73001904Y-64619838D02*
X73049523Y-64667457D01*
X73049523Y-64667457D02*
X73097142Y-64762695D01*
X73097142Y-64762695D02*
X73097142Y-64857933D01*
X73097142Y-64857933D02*
X73049523Y-65000790D01*
X73049523Y-65000790D02*
X72478095Y-65572219D01*
X72478095Y-65572219D02*
X73097142Y-65572219D01*
X73668571Y-65000790D02*
X73573333Y-64953171D01*
X73573333Y-64953171D02*
X73525714Y-64905552D01*
X73525714Y-64905552D02*
X73478095Y-64810314D01*
X73478095Y-64810314D02*
X73478095Y-64762695D01*
X73478095Y-64762695D02*
X73525714Y-64667457D01*
X73525714Y-64667457D02*
X73573333Y-64619838D01*
X73573333Y-64619838D02*
X73668571Y-64572219D01*
X73668571Y-64572219D02*
X73859047Y-64572219D01*
X73859047Y-64572219D02*
X73954285Y-64619838D01*
X73954285Y-64619838D02*
X74001904Y-64667457D01*
X74001904Y-64667457D02*
X74049523Y-64762695D01*
X74049523Y-64762695D02*
X74049523Y-64810314D01*
X74049523Y-64810314D02*
X74001904Y-64905552D01*
X74001904Y-64905552D02*
X73954285Y-64953171D01*
X73954285Y-64953171D02*
X73859047Y-65000790D01*
X73859047Y-65000790D02*
X73668571Y-65000790D01*
X73668571Y-65000790D02*
X73573333Y-65048409D01*
X73573333Y-65048409D02*
X73525714Y-65096028D01*
X73525714Y-65096028D02*
X73478095Y-65191266D01*
X73478095Y-65191266D02*
X73478095Y-65381742D01*
X73478095Y-65381742D02*
X73525714Y-65476980D01*
X73525714Y-65476980D02*
X73573333Y-65524600D01*
X73573333Y-65524600D02*
X73668571Y-65572219D01*
X73668571Y-65572219D02*
X73859047Y-65572219D01*
X73859047Y-65572219D02*
X73954285Y-65524600D01*
X73954285Y-65524600D02*
X74001904Y-65476980D01*
X74001904Y-65476980D02*
X74049523Y-65381742D01*
X74049523Y-65381742D02*
X74049523Y-65191266D01*
X74049523Y-65191266D02*
X74001904Y-65096028D01*
X74001904Y-65096028D02*
X73954285Y-65048409D01*
X73954285Y-65048409D02*
X73859047Y-65000790D01*
X74668571Y-64572219D02*
X74763809Y-64572219D01*
X74763809Y-64572219D02*
X74859047Y-64619838D01*
X74859047Y-64619838D02*
X74906666Y-64667457D01*
X74906666Y-64667457D02*
X74954285Y-64762695D01*
X74954285Y-64762695D02*
X75001904Y-64953171D01*
X75001904Y-64953171D02*
X75001904Y-65191266D01*
X75001904Y-65191266D02*
X74954285Y-65381742D01*
X74954285Y-65381742D02*
X74906666Y-65476980D01*
X74906666Y-65476980D02*
X74859047Y-65524600D01*
X74859047Y-65524600D02*
X74763809Y-65572219D01*
X74763809Y-65572219D02*
X74668571Y-65572219D01*
X74668571Y-65572219D02*
X74573333Y-65524600D01*
X74573333Y-65524600D02*
X74525714Y-65476980D01*
X74525714Y-65476980D02*
X74478095Y-65381742D01*
X74478095Y-65381742D02*
X74430476Y-65191266D01*
X74430476Y-65191266D02*
X74430476Y-64953171D01*
X74430476Y-64953171D02*
X74478095Y-64762695D01*
X74478095Y-64762695D02*
X74525714Y-64667457D01*
X74525714Y-64667457D02*
X74573333Y-64619838D01*
X74573333Y-64619838D02*
X74668571Y-64572219D01*
D10*
X74359160Y-63364295D02*
X74359160Y-62564295D01*
X74359160Y-62564295D02*
X74816303Y-63364295D01*
X74816303Y-63364295D02*
X74816303Y-62564295D01*
D11*
X73264285Y-40202219D02*
X72692857Y-40202219D01*
X72978571Y-40202219D02*
X72978571Y-39202219D01*
X72978571Y-39202219D02*
X72883333Y-39345076D01*
X72883333Y-39345076D02*
X72788095Y-39440314D01*
X72788095Y-39440314D02*
X72692857Y-39487933D01*
X73883333Y-39202219D02*
X73978571Y-39202219D01*
X73978571Y-39202219D02*
X74073809Y-39249838D01*
X74073809Y-39249838D02*
X74121428Y-39297457D01*
X74121428Y-39297457D02*
X74169047Y-39392695D01*
X74169047Y-39392695D02*
X74216666Y-39583171D01*
X74216666Y-39583171D02*
X74216666Y-39821266D01*
X74216666Y-39821266D02*
X74169047Y-40011742D01*
X74169047Y-40011742D02*
X74121428Y-40106980D01*
X74121428Y-40106980D02*
X74073809Y-40154600D01*
X74073809Y-40154600D02*
X73978571Y-40202219D01*
X73978571Y-40202219D02*
X73883333Y-40202219D01*
X73883333Y-40202219D02*
X73788095Y-40154600D01*
X73788095Y-40154600D02*
X73740476Y-40106980D01*
X73740476Y-40106980D02*
X73692857Y-40011742D01*
X73692857Y-40011742D02*
X73645238Y-39821266D01*
X73645238Y-39821266D02*
X73645238Y-39583171D01*
X73645238Y-39583171D02*
X73692857Y-39392695D01*
X73692857Y-39392695D02*
X73740476Y-39297457D01*
X73740476Y-39297457D02*
X73788095Y-39249838D01*
X73788095Y-39249838D02*
X73883333Y-39202219D01*
X74645238Y-40106980D02*
X74692857Y-40154600D01*
X74692857Y-40154600D02*
X74645238Y-40202219D01*
X74645238Y-40202219D02*
X74597619Y-40154600D01*
X74597619Y-40154600D02*
X74645238Y-40106980D01*
X74645238Y-40106980D02*
X74645238Y-40202219D01*
X75073809Y-39297457D02*
X75121428Y-39249838D01*
X75121428Y-39249838D02*
X75216666Y-39202219D01*
X75216666Y-39202219D02*
X75454761Y-39202219D01*
X75454761Y-39202219D02*
X75549999Y-39249838D01*
X75549999Y-39249838D02*
X75597618Y-39297457D01*
X75597618Y-39297457D02*
X75645237Y-39392695D01*
X75645237Y-39392695D02*
X75645237Y-39487933D01*
X75645237Y-39487933D02*
X75597618Y-39630790D01*
X75597618Y-39630790D02*
X75026190Y-40202219D01*
X75026190Y-40202219D02*
X75645237Y-40202219D01*
X76264285Y-39202219D02*
X76359523Y-39202219D01*
X76359523Y-39202219D02*
X76454761Y-39249838D01*
X76454761Y-39249838D02*
X76502380Y-39297457D01*
X76502380Y-39297457D02*
X76549999Y-39392695D01*
X76549999Y-39392695D02*
X76597618Y-39583171D01*
X76597618Y-39583171D02*
X76597618Y-39821266D01*
X76597618Y-39821266D02*
X76549999Y-40011742D01*
X76549999Y-40011742D02*
X76502380Y-40106980D01*
X76502380Y-40106980D02*
X76454761Y-40154600D01*
X76454761Y-40154600D02*
X76359523Y-40202219D01*
X76359523Y-40202219D02*
X76264285Y-40202219D01*
X76264285Y-40202219D02*
X76169047Y-40154600D01*
X76169047Y-40154600D02*
X76121428Y-40106980D01*
X76121428Y-40106980D02*
X76073809Y-40011742D01*
X76073809Y-40011742D02*
X76026190Y-39821266D01*
X76026190Y-39821266D02*
X76026190Y-39583171D01*
X76026190Y-39583171D02*
X76073809Y-39392695D01*
X76073809Y-39392695D02*
X76121428Y-39297457D01*
X76121428Y-39297457D02*
X76169047Y-39249838D01*
X76169047Y-39249838D02*
X76264285Y-39202219D01*
X76978571Y-39297457D02*
X77026190Y-39249838D01*
X77026190Y-39249838D02*
X77121428Y-39202219D01*
X77121428Y-39202219D02*
X77359523Y-39202219D01*
X77359523Y-39202219D02*
X77454761Y-39249838D01*
X77454761Y-39249838D02*
X77502380Y-39297457D01*
X77502380Y-39297457D02*
X77549999Y-39392695D01*
X77549999Y-39392695D02*
X77549999Y-39487933D01*
X77549999Y-39487933D02*
X77502380Y-39630790D01*
X77502380Y-39630790D02*
X76930952Y-40202219D01*
X76930952Y-40202219D02*
X77549999Y-40202219D01*
X78407142Y-39535552D02*
X78407142Y-40202219D01*
X78169047Y-39154600D02*
X77930952Y-39868885D01*
X77930952Y-39868885D02*
X78549999Y-39868885D01*
X79597619Y-39535552D02*
X79835714Y-40202219D01*
X79835714Y-40202219D02*
X80073809Y-39535552D01*
X80883333Y-39535552D02*
X80883333Y-40202219D01*
X80645238Y-39154600D02*
X80407143Y-39868885D01*
X80407143Y-39868885D02*
X81026190Y-39868885D01*
X81407143Y-40106980D02*
X81454762Y-40154600D01*
X81454762Y-40154600D02*
X81407143Y-40202219D01*
X81407143Y-40202219D02*
X81359524Y-40154600D01*
X81359524Y-40154600D02*
X81407143Y-40106980D01*
X81407143Y-40106980D02*
X81407143Y-40202219D01*
X82407142Y-40202219D02*
X81835714Y-40202219D01*
X82121428Y-40202219D02*
X82121428Y-39202219D01*
X82121428Y-39202219D02*
X82026190Y-39345076D01*
X82026190Y-39345076D02*
X81930952Y-39440314D01*
X81930952Y-39440314D02*
X81835714Y-39487933D01*
X61583006Y-68922742D02*
X62383006Y-68922742D01*
X62383006Y-68922742D02*
X61583006Y-70122742D01*
X61583006Y-70122742D02*
X62383006Y-70122742D01*
D12*
X51384510Y-40819400D02*
X52527368Y-40819400D01*
X51955939Y-41390828D02*
X51955939Y-40247971D01*
D10*
X73059160Y-63334295D02*
X73059160Y-62534295D01*
X73059160Y-62534295D02*
X73363922Y-62534295D01*
X73363922Y-62534295D02*
X73440112Y-62572390D01*
X73440112Y-62572390D02*
X73478207Y-62610485D01*
X73478207Y-62610485D02*
X73516303Y-62686676D01*
X73516303Y-62686676D02*
X73516303Y-62800961D01*
X73516303Y-62800961D02*
X73478207Y-62877152D01*
X73478207Y-62877152D02*
X73440112Y-62915247D01*
X73440112Y-62915247D02*
X73363922Y-62953342D01*
X73363922Y-62953342D02*
X73059160Y-62953342D01*
D11*
X65533006Y-68747742D02*
X66333006Y-69947742D01*
X66333006Y-68747742D02*
X65533006Y-69947742D01*
D12*
X51444510Y-46369400D02*
X52587368Y-46369400D01*
D11*
X62100863Y-65376314D02*
X62100863Y-65947742D01*
X61700863Y-64747742D02*
X62100863Y-65376314D01*
X62100863Y-65376314D02*
X62500863Y-64747742D01*
D13*
X67981037Y-46980118D02*
X67981037Y-45710118D01*
X69311514Y-46859165D02*
X69251038Y-46919642D01*
X69251038Y-46919642D02*
X69069609Y-46980118D01*
X69069609Y-46980118D02*
X68948657Y-46980118D01*
X68948657Y-46980118D02*
X68767228Y-46919642D01*
X68767228Y-46919642D02*
X68646276Y-46798689D01*
X68646276Y-46798689D02*
X68585799Y-46677737D01*
X68585799Y-46677737D02*
X68525323Y-46435832D01*
X68525323Y-46435832D02*
X68525323Y-46254403D01*
X68525323Y-46254403D02*
X68585799Y-46012499D01*
X68585799Y-46012499D02*
X68646276Y-45891546D01*
X68646276Y-45891546D02*
X68767228Y-45770594D01*
X68767228Y-45770594D02*
X68948657Y-45710118D01*
X68948657Y-45710118D02*
X69069609Y-45710118D01*
X69069609Y-45710118D02*
X69251038Y-45770594D01*
X69251038Y-45770594D02*
X69311514Y-45831070D01*
X70521038Y-46980118D02*
X69795323Y-46980118D01*
X70158180Y-46980118D02*
X70158180Y-45710118D01*
X70158180Y-45710118D02*
X70037228Y-45891546D01*
X70037228Y-45891546D02*
X69916276Y-46012499D01*
X69916276Y-46012499D02*
X69795323Y-46072975D01*
D10*
X50407142Y-61054819D02*
X50073809Y-60578628D01*
X49835714Y-61054819D02*
X49835714Y-60054819D01*
X49835714Y-60054819D02*
X50216666Y-60054819D01*
X50216666Y-60054819D02*
X50311904Y-60102438D01*
X50311904Y-60102438D02*
X50359523Y-60150057D01*
X50359523Y-60150057D02*
X50407142Y-60245295D01*
X50407142Y-60245295D02*
X50407142Y-60388152D01*
X50407142Y-60388152D02*
X50359523Y-60483390D01*
X50359523Y-60483390D02*
X50311904Y-60531009D01*
X50311904Y-60531009D02*
X50216666Y-60578628D01*
X50216666Y-60578628D02*
X49835714Y-60578628D01*
X50740476Y-60054819D02*
X51359523Y-60054819D01*
X51359523Y-60054819D02*
X51026190Y-60435771D01*
X51026190Y-60435771D02*
X51169047Y-60435771D01*
X51169047Y-60435771D02*
X51264285Y-60483390D01*
X51264285Y-60483390D02*
X51311904Y-60531009D01*
X51311904Y-60531009D02*
X51359523Y-60626247D01*
X51359523Y-60626247D02*
X51359523Y-60864342D01*
X51359523Y-60864342D02*
X51311904Y-60959580D01*
X51311904Y-60959580D02*
X51264285Y-61007200D01*
X51264285Y-61007200D02*
X51169047Y-61054819D01*
X51169047Y-61054819D02*
X50883333Y-61054819D01*
X50883333Y-61054819D02*
X50788095Y-61007200D01*
X50788095Y-61007200D02*
X50740476Y-60959580D01*
X51740476Y-60150057D02*
X51788095Y-60102438D01*
X51788095Y-60102438D02*
X51883333Y-60054819D01*
X51883333Y-60054819D02*
X52121428Y-60054819D01*
X52121428Y-60054819D02*
X52216666Y-60102438D01*
X52216666Y-60102438D02*
X52264285Y-60150057D01*
X52264285Y-60150057D02*
X52311904Y-60245295D01*
X52311904Y-60245295D02*
X52311904Y-60340533D01*
X52311904Y-60340533D02*
X52264285Y-60483390D01*
X52264285Y-60483390D02*
X51692857Y-61054819D01*
X51692857Y-61054819D02*
X52311904Y-61054819D01*
X57157142Y-59004819D02*
X56823809Y-58528628D01*
X56585714Y-59004819D02*
X56585714Y-58004819D01*
X56585714Y-58004819D02*
X56966666Y-58004819D01*
X56966666Y-58004819D02*
X57061904Y-58052438D01*
X57061904Y-58052438D02*
X57109523Y-58100057D01*
X57109523Y-58100057D02*
X57157142Y-58195295D01*
X57157142Y-58195295D02*
X57157142Y-58338152D01*
X57157142Y-58338152D02*
X57109523Y-58433390D01*
X57109523Y-58433390D02*
X57061904Y-58481009D01*
X57061904Y-58481009D02*
X56966666Y-58528628D01*
X56966666Y-58528628D02*
X56585714Y-58528628D01*
X57538095Y-58100057D02*
X57585714Y-58052438D01*
X57585714Y-58052438D02*
X57680952Y-58004819D01*
X57680952Y-58004819D02*
X57919047Y-58004819D01*
X57919047Y-58004819D02*
X58014285Y-58052438D01*
X58014285Y-58052438D02*
X58061904Y-58100057D01*
X58061904Y-58100057D02*
X58109523Y-58195295D01*
X58109523Y-58195295D02*
X58109523Y-58290533D01*
X58109523Y-58290533D02*
X58061904Y-58433390D01*
X58061904Y-58433390D02*
X57490476Y-59004819D01*
X57490476Y-59004819D02*
X58109523Y-59004819D01*
X58442857Y-58004819D02*
X59061904Y-58004819D01*
X59061904Y-58004819D02*
X58728571Y-58385771D01*
X58728571Y-58385771D02*
X58871428Y-58385771D01*
X58871428Y-58385771D02*
X58966666Y-58433390D01*
X58966666Y-58433390D02*
X59014285Y-58481009D01*
X59014285Y-58481009D02*
X59061904Y-58576247D01*
X59061904Y-58576247D02*
X59061904Y-58814342D01*
X59061904Y-58814342D02*
X59014285Y-58909580D01*
X59014285Y-58909580D02*
X58966666Y-58957200D01*
X58966666Y-58957200D02*
X58871428Y-59004819D01*
X58871428Y-59004819D02*
X58585714Y-59004819D01*
X58585714Y-59004819D02*
X58490476Y-58957200D01*
X58490476Y-58957200D02*
X58442857Y-58909580D01*
X54909580Y-62992857D02*
X54957200Y-63040476D01*
X54957200Y-63040476D02*
X55004819Y-63183333D01*
X55004819Y-63183333D02*
X55004819Y-63278571D01*
X55004819Y-63278571D02*
X54957200Y-63421428D01*
X54957200Y-63421428D02*
X54861961Y-63516666D01*
X54861961Y-63516666D02*
X54766723Y-63564285D01*
X54766723Y-63564285D02*
X54576247Y-63611904D01*
X54576247Y-63611904D02*
X54433390Y-63611904D01*
X54433390Y-63611904D02*
X54242914Y-63564285D01*
X54242914Y-63564285D02*
X54147676Y-63516666D01*
X54147676Y-63516666D02*
X54052438Y-63421428D01*
X54052438Y-63421428D02*
X54004819Y-63278571D01*
X54004819Y-63278571D02*
X54004819Y-63183333D01*
X54004819Y-63183333D02*
X54052438Y-63040476D01*
X54052438Y-63040476D02*
X54100057Y-62992857D01*
X55004819Y-62040476D02*
X55004819Y-62611904D01*
X55004819Y-62326190D02*
X54004819Y-62326190D01*
X54004819Y-62326190D02*
X54147676Y-62421428D01*
X54147676Y-62421428D02*
X54242914Y-62516666D01*
X54242914Y-62516666D02*
X54290533Y-62611904D01*
X54004819Y-61135714D02*
X54004819Y-61611904D01*
X54004819Y-61611904D02*
X54481009Y-61659523D01*
X54481009Y-61659523D02*
X54433390Y-61611904D01*
X54433390Y-61611904D02*
X54385771Y-61516666D01*
X54385771Y-61516666D02*
X54385771Y-61278571D01*
X54385771Y-61278571D02*
X54433390Y-61183333D01*
X54433390Y-61183333D02*
X54481009Y-61135714D01*
X54481009Y-61135714D02*
X54576247Y-61088095D01*
X54576247Y-61088095D02*
X54814342Y-61088095D01*
X54814342Y-61088095D02*
X54909580Y-61135714D01*
X54909580Y-61135714D02*
X54957200Y-61183333D01*
X54957200Y-61183333D02*
X55004819Y-61278571D01*
X55004819Y-61278571D02*
X55004819Y-61516666D01*
X55004819Y-61516666D02*
X54957200Y-61611904D01*
X54957200Y-61611904D02*
X54909580Y-61659523D01*
X52747142Y-65874819D02*
X52413809Y-65398628D01*
X52175714Y-65874819D02*
X52175714Y-64874819D01*
X52175714Y-64874819D02*
X52556666Y-64874819D01*
X52556666Y-64874819D02*
X52651904Y-64922438D01*
X52651904Y-64922438D02*
X52699523Y-64970057D01*
X52699523Y-64970057D02*
X52747142Y-65065295D01*
X52747142Y-65065295D02*
X52747142Y-65208152D01*
X52747142Y-65208152D02*
X52699523Y-65303390D01*
X52699523Y-65303390D02*
X52651904Y-65351009D01*
X52651904Y-65351009D02*
X52556666Y-65398628D01*
X52556666Y-65398628D02*
X52175714Y-65398628D01*
X53699523Y-65874819D02*
X53128095Y-65874819D01*
X53413809Y-65874819D02*
X53413809Y-64874819D01*
X53413809Y-64874819D02*
X53318571Y-65017676D01*
X53318571Y-65017676D02*
X53223333Y-65112914D01*
X53223333Y-65112914D02*
X53128095Y-65160533D01*
X54604285Y-64874819D02*
X54128095Y-64874819D01*
X54128095Y-64874819D02*
X54080476Y-65351009D01*
X54080476Y-65351009D02*
X54128095Y-65303390D01*
X54128095Y-65303390D02*
X54223333Y-65255771D01*
X54223333Y-65255771D02*
X54461428Y-65255771D01*
X54461428Y-65255771D02*
X54556666Y-65303390D01*
X54556666Y-65303390D02*
X54604285Y-65351009D01*
X54604285Y-65351009D02*
X54651904Y-65446247D01*
X54651904Y-65446247D02*
X54651904Y-65684342D01*
X54651904Y-65684342D02*
X54604285Y-65779580D01*
X54604285Y-65779580D02*
X54556666Y-65827200D01*
X54556666Y-65827200D02*
X54461428Y-65874819D01*
X54461428Y-65874819D02*
X54223333Y-65874819D01*
X54223333Y-65874819D02*
X54128095Y-65827200D01*
X54128095Y-65827200D02*
X54080476Y-65779580D01*
X57277142Y-66779580D02*
X57229523Y-66827200D01*
X57229523Y-66827200D02*
X57086666Y-66874819D01*
X57086666Y-66874819D02*
X56991428Y-66874819D01*
X56991428Y-66874819D02*
X56848571Y-66827200D01*
X56848571Y-66827200D02*
X56753333Y-66731961D01*
X56753333Y-66731961D02*
X56705714Y-66636723D01*
X56705714Y-66636723D02*
X56658095Y-66446247D01*
X56658095Y-66446247D02*
X56658095Y-66303390D01*
X56658095Y-66303390D02*
X56705714Y-66112914D01*
X56705714Y-66112914D02*
X56753333Y-66017676D01*
X56753333Y-66017676D02*
X56848571Y-65922438D01*
X56848571Y-65922438D02*
X56991428Y-65874819D01*
X56991428Y-65874819D02*
X57086666Y-65874819D01*
X57086666Y-65874819D02*
X57229523Y-65922438D01*
X57229523Y-65922438D02*
X57277142Y-65970057D01*
X57658095Y-65970057D02*
X57705714Y-65922438D01*
X57705714Y-65922438D02*
X57800952Y-65874819D01*
X57800952Y-65874819D02*
X58039047Y-65874819D01*
X58039047Y-65874819D02*
X58134285Y-65922438D01*
X58134285Y-65922438D02*
X58181904Y-65970057D01*
X58181904Y-65970057D02*
X58229523Y-66065295D01*
X58229523Y-66065295D02*
X58229523Y-66160533D01*
X58229523Y-66160533D02*
X58181904Y-66303390D01*
X58181904Y-66303390D02*
X57610476Y-66874819D01*
X57610476Y-66874819D02*
X58229523Y-66874819D01*
X58848571Y-65874819D02*
X58943809Y-65874819D01*
X58943809Y-65874819D02*
X59039047Y-65922438D01*
X59039047Y-65922438D02*
X59086666Y-65970057D01*
X59086666Y-65970057D02*
X59134285Y-66065295D01*
X59134285Y-66065295D02*
X59181904Y-66255771D01*
X59181904Y-66255771D02*
X59181904Y-66493866D01*
X59181904Y-66493866D02*
X59134285Y-66684342D01*
X59134285Y-66684342D02*
X59086666Y-66779580D01*
X59086666Y-66779580D02*
X59039047Y-66827200D01*
X59039047Y-66827200D02*
X58943809Y-66874819D01*
X58943809Y-66874819D02*
X58848571Y-66874819D01*
X58848571Y-66874819D02*
X58753333Y-66827200D01*
X58753333Y-66827200D02*
X58705714Y-66779580D01*
X58705714Y-66779580D02*
X58658095Y-66684342D01*
X58658095Y-66684342D02*
X58610476Y-66493866D01*
X58610476Y-66493866D02*
X58610476Y-66255771D01*
X58610476Y-66255771D02*
X58658095Y-66065295D01*
X58658095Y-66065295D02*
X58705714Y-65970057D01*
X58705714Y-65970057D02*
X58753333Y-65922438D01*
X58753333Y-65922438D02*
X58848571Y-65874819D01*
X64537142Y-60184819D02*
X64203809Y-59708628D01*
X63965714Y-60184819D02*
X63965714Y-59184819D01*
X63965714Y-59184819D02*
X64346666Y-59184819D01*
X64346666Y-59184819D02*
X64441904Y-59232438D01*
X64441904Y-59232438D02*
X64489523Y-59280057D01*
X64489523Y-59280057D02*
X64537142Y-59375295D01*
X64537142Y-59375295D02*
X64537142Y-59518152D01*
X64537142Y-59518152D02*
X64489523Y-59613390D01*
X64489523Y-59613390D02*
X64441904Y-59661009D01*
X64441904Y-59661009D02*
X64346666Y-59708628D01*
X64346666Y-59708628D02*
X63965714Y-59708628D01*
X64918095Y-59280057D02*
X64965714Y-59232438D01*
X64965714Y-59232438D02*
X65060952Y-59184819D01*
X65060952Y-59184819D02*
X65299047Y-59184819D01*
X65299047Y-59184819D02*
X65394285Y-59232438D01*
X65394285Y-59232438D02*
X65441904Y-59280057D01*
X65441904Y-59280057D02*
X65489523Y-59375295D01*
X65489523Y-59375295D02*
X65489523Y-59470533D01*
X65489523Y-59470533D02*
X65441904Y-59613390D01*
X65441904Y-59613390D02*
X64870476Y-60184819D01*
X64870476Y-60184819D02*
X65489523Y-60184819D01*
X65822857Y-59184819D02*
X66489523Y-59184819D01*
X66489523Y-59184819D02*
X66060952Y-60184819D01*
X109800361Y-42995757D02*
X109705123Y-42948138D01*
X109705123Y-42948138D02*
X109609885Y-42852900D01*
X109609885Y-42852900D02*
X109467028Y-42710042D01*
X109467028Y-42710042D02*
X109371790Y-42662423D01*
X109371790Y-42662423D02*
X109276552Y-42662423D01*
X109324171Y-42900519D02*
X109228933Y-42852900D01*
X109228933Y-42852900D02*
X109133695Y-42757661D01*
X109133695Y-42757661D02*
X109086076Y-42567185D01*
X109086076Y-42567185D02*
X109086076Y-42233852D01*
X109086076Y-42233852D02*
X109133695Y-42043376D01*
X109133695Y-42043376D02*
X109228933Y-41948138D01*
X109228933Y-41948138D02*
X109324171Y-41900519D01*
X109324171Y-41900519D02*
X109514647Y-41900519D01*
X109514647Y-41900519D02*
X109609885Y-41948138D01*
X109609885Y-41948138D02*
X109705123Y-42043376D01*
X109705123Y-42043376D02*
X109752742Y-42233852D01*
X109752742Y-42233852D02*
X109752742Y-42567185D01*
X109752742Y-42567185D02*
X109705123Y-42757661D01*
X109705123Y-42757661D02*
X109609885Y-42852900D01*
X109609885Y-42852900D02*
X109514647Y-42900519D01*
X109514647Y-42900519D02*
X109324171Y-42900519D01*
X110705123Y-42900519D02*
X110133695Y-42900519D01*
X110419409Y-42900519D02*
X110419409Y-41900519D01*
X110419409Y-41900519D02*
X110324171Y-42043376D01*
X110324171Y-42043376D02*
X110228933Y-42138614D01*
X110228933Y-42138614D02*
X110133695Y-42186233D01*
X104760733Y-67110780D02*
X104713114Y-67158400D01*
X104713114Y-67158400D02*
X104570257Y-67206019D01*
X104570257Y-67206019D02*
X104475019Y-67206019D01*
X104475019Y-67206019D02*
X104332162Y-67158400D01*
X104332162Y-67158400D02*
X104236924Y-67063161D01*
X104236924Y-67063161D02*
X104189305Y-66967923D01*
X104189305Y-66967923D02*
X104141686Y-66777447D01*
X104141686Y-66777447D02*
X104141686Y-66634590D01*
X104141686Y-66634590D02*
X104189305Y-66444114D01*
X104189305Y-66444114D02*
X104236924Y-66348876D01*
X104236924Y-66348876D02*
X104332162Y-66253638D01*
X104332162Y-66253638D02*
X104475019Y-66206019D01*
X104475019Y-66206019D02*
X104570257Y-66206019D01*
X104570257Y-66206019D02*
X104713114Y-66253638D01*
X104713114Y-66253638D02*
X104760733Y-66301257D01*
X105617876Y-66539352D02*
X105617876Y-67206019D01*
X105379781Y-66158400D02*
X105141686Y-66872685D01*
X105141686Y-66872685D02*
X105760733Y-66872685D01*
X83837542Y-74724419D02*
X83504209Y-74248228D01*
X83266114Y-74724419D02*
X83266114Y-73724419D01*
X83266114Y-73724419D02*
X83647066Y-73724419D01*
X83647066Y-73724419D02*
X83742304Y-73772038D01*
X83742304Y-73772038D02*
X83789923Y-73819657D01*
X83789923Y-73819657D02*
X83837542Y-73914895D01*
X83837542Y-73914895D02*
X83837542Y-74057752D01*
X83837542Y-74057752D02*
X83789923Y-74152990D01*
X83789923Y-74152990D02*
X83742304Y-74200609D01*
X83742304Y-74200609D02*
X83647066Y-74248228D01*
X83647066Y-74248228D02*
X83266114Y-74248228D01*
X84218495Y-73819657D02*
X84266114Y-73772038D01*
X84266114Y-73772038D02*
X84361352Y-73724419D01*
X84361352Y-73724419D02*
X84599447Y-73724419D01*
X84599447Y-73724419D02*
X84694685Y-73772038D01*
X84694685Y-73772038D02*
X84742304Y-73819657D01*
X84742304Y-73819657D02*
X84789923Y-73914895D01*
X84789923Y-73914895D02*
X84789923Y-74010133D01*
X84789923Y-74010133D02*
X84742304Y-74152990D01*
X84742304Y-74152990D02*
X84170876Y-74724419D01*
X84170876Y-74724419D02*
X84789923Y-74724419D01*
X85408971Y-73724419D02*
X85504209Y-73724419D01*
X85504209Y-73724419D02*
X85599447Y-73772038D01*
X85599447Y-73772038D02*
X85647066Y-73819657D01*
X85647066Y-73819657D02*
X85694685Y-73914895D01*
X85694685Y-73914895D02*
X85742304Y-74105371D01*
X85742304Y-74105371D02*
X85742304Y-74343466D01*
X85742304Y-74343466D02*
X85694685Y-74533942D01*
X85694685Y-74533942D02*
X85647066Y-74629180D01*
X85647066Y-74629180D02*
X85599447Y-74676800D01*
X85599447Y-74676800D02*
X85504209Y-74724419D01*
X85504209Y-74724419D02*
X85408971Y-74724419D01*
X85408971Y-74724419D02*
X85313733Y-74676800D01*
X85313733Y-74676800D02*
X85266114Y-74629180D01*
X85266114Y-74629180D02*
X85218495Y-74533942D01*
X85218495Y-74533942D02*
X85170876Y-74343466D01*
X85170876Y-74343466D02*
X85170876Y-74105371D01*
X85170876Y-74105371D02*
X85218495Y-73914895D01*
X85218495Y-73914895D02*
X85266114Y-73819657D01*
X85266114Y-73819657D02*
X85313733Y-73772038D01*
X85313733Y-73772038D02*
X85408971Y-73724419D01*
X54097142Y-74694580D02*
X54049523Y-74742200D01*
X54049523Y-74742200D02*
X53906666Y-74789819D01*
X53906666Y-74789819D02*
X53811428Y-74789819D01*
X53811428Y-74789819D02*
X53668571Y-74742200D01*
X53668571Y-74742200D02*
X53573333Y-74646961D01*
X53573333Y-74646961D02*
X53525714Y-74551723D01*
X53525714Y-74551723D02*
X53478095Y-74361247D01*
X53478095Y-74361247D02*
X53478095Y-74218390D01*
X53478095Y-74218390D02*
X53525714Y-74027914D01*
X53525714Y-74027914D02*
X53573333Y-73932676D01*
X53573333Y-73932676D02*
X53668571Y-73837438D01*
X53668571Y-73837438D02*
X53811428Y-73789819D01*
X53811428Y-73789819D02*
X53906666Y-73789819D01*
X53906666Y-73789819D02*
X54049523Y-73837438D01*
X54049523Y-73837438D02*
X54097142Y-73885057D01*
X54478095Y-73885057D02*
X54525714Y-73837438D01*
X54525714Y-73837438D02*
X54620952Y-73789819D01*
X54620952Y-73789819D02*
X54859047Y-73789819D01*
X54859047Y-73789819D02*
X54954285Y-73837438D01*
X54954285Y-73837438D02*
X55001904Y-73885057D01*
X55001904Y-73885057D02*
X55049523Y-73980295D01*
X55049523Y-73980295D02*
X55049523Y-74075533D01*
X55049523Y-74075533D02*
X55001904Y-74218390D01*
X55001904Y-74218390D02*
X54430476Y-74789819D01*
X54430476Y-74789819D02*
X55049523Y-74789819D01*
X55954285Y-73789819D02*
X55478095Y-73789819D01*
X55478095Y-73789819D02*
X55430476Y-74266009D01*
X55430476Y-74266009D02*
X55478095Y-74218390D01*
X55478095Y-74218390D02*
X55573333Y-74170771D01*
X55573333Y-74170771D02*
X55811428Y-74170771D01*
X55811428Y-74170771D02*
X55906666Y-74218390D01*
X55906666Y-74218390D02*
X55954285Y-74266009D01*
X55954285Y-74266009D02*
X56001904Y-74361247D01*
X56001904Y-74361247D02*
X56001904Y-74599342D01*
X56001904Y-74599342D02*
X55954285Y-74694580D01*
X55954285Y-74694580D02*
X55906666Y-74742200D01*
X55906666Y-74742200D02*
X55811428Y-74789819D01*
X55811428Y-74789819D02*
X55573333Y-74789819D01*
X55573333Y-74789819D02*
X55478095Y-74742200D01*
X55478095Y-74742200D02*
X55430476Y-74694580D01*
X54936905Y-70384819D02*
X54936905Y-71194342D01*
X54936905Y-71194342D02*
X54984524Y-71289580D01*
X54984524Y-71289580D02*
X55032143Y-71337200D01*
X55032143Y-71337200D02*
X55127381Y-71384819D01*
X55127381Y-71384819D02*
X55317857Y-71384819D01*
X55317857Y-71384819D02*
X55413095Y-71337200D01*
X55413095Y-71337200D02*
X55460714Y-71289580D01*
X55460714Y-71289580D02*
X55508333Y-71194342D01*
X55508333Y-71194342D02*
X55508333Y-70384819D01*
X56508333Y-71384819D02*
X55936905Y-71384819D01*
X56222619Y-71384819D02*
X56222619Y-70384819D01*
X56222619Y-70384819D02*
X56127381Y-70527676D01*
X56127381Y-70527676D02*
X56032143Y-70622914D01*
X56032143Y-70622914D02*
X55936905Y-70670533D01*
X56889286Y-70480057D02*
X56936905Y-70432438D01*
X56936905Y-70432438D02*
X57032143Y-70384819D01*
X57032143Y-70384819D02*
X57270238Y-70384819D01*
X57270238Y-70384819D02*
X57365476Y-70432438D01*
X57365476Y-70432438D02*
X57413095Y-70480057D01*
X57413095Y-70480057D02*
X57460714Y-70575295D01*
X57460714Y-70575295D02*
X57460714Y-70670533D01*
X57460714Y-70670533D02*
X57413095Y-70813390D01*
X57413095Y-70813390D02*
X56841667Y-71384819D01*
X56841667Y-71384819D02*
X57460714Y-71384819D01*
D11*
X59169048Y-72672219D02*
X59169048Y-71672219D01*
X59169048Y-71672219D02*
X59502381Y-72386504D01*
X59502381Y-72386504D02*
X59835714Y-71672219D01*
X59835714Y-71672219D02*
X59835714Y-72672219D01*
X60311905Y-72672219D02*
X60311905Y-71672219D01*
X60311905Y-71672219D02*
X60692857Y-71672219D01*
X60692857Y-71672219D02*
X60788095Y-71719838D01*
X60788095Y-71719838D02*
X60835714Y-71767457D01*
X60835714Y-71767457D02*
X60883333Y-71862695D01*
X60883333Y-71862695D02*
X60883333Y-72005552D01*
X60883333Y-72005552D02*
X60835714Y-72100790D01*
X60835714Y-72100790D02*
X60788095Y-72148409D01*
X60788095Y-72148409D02*
X60692857Y-72196028D01*
X60692857Y-72196028D02*
X60311905Y-72196028D01*
X61311905Y-71672219D02*
X61311905Y-72481742D01*
X61311905Y-72481742D02*
X61359524Y-72576980D01*
X61359524Y-72576980D02*
X61407143Y-72624600D01*
X61407143Y-72624600D02*
X61502381Y-72672219D01*
X61502381Y-72672219D02*
X61692857Y-72672219D01*
X61692857Y-72672219D02*
X61788095Y-72624600D01*
X61788095Y-72624600D02*
X61835714Y-72576980D01*
X61835714Y-72576980D02*
X61883333Y-72481742D01*
X61883333Y-72481742D02*
X61883333Y-71672219D01*
X62359524Y-72291266D02*
X63121429Y-72291266D01*
X64026190Y-71672219D02*
X63835714Y-71672219D01*
X63835714Y-71672219D02*
X63740476Y-71719838D01*
X63740476Y-71719838D02*
X63692857Y-71767457D01*
X63692857Y-71767457D02*
X63597619Y-71910314D01*
X63597619Y-71910314D02*
X63550000Y-72100790D01*
X63550000Y-72100790D02*
X63550000Y-72481742D01*
X63550000Y-72481742D02*
X63597619Y-72576980D01*
X63597619Y-72576980D02*
X63645238Y-72624600D01*
X63645238Y-72624600D02*
X63740476Y-72672219D01*
X63740476Y-72672219D02*
X63930952Y-72672219D01*
X63930952Y-72672219D02*
X64026190Y-72624600D01*
X64026190Y-72624600D02*
X64073809Y-72576980D01*
X64073809Y-72576980D02*
X64121428Y-72481742D01*
X64121428Y-72481742D02*
X64121428Y-72243647D01*
X64121428Y-72243647D02*
X64073809Y-72148409D01*
X64073809Y-72148409D02*
X64026190Y-72100790D01*
X64026190Y-72100790D02*
X63930952Y-72053171D01*
X63930952Y-72053171D02*
X63740476Y-72053171D01*
X63740476Y-72053171D02*
X63645238Y-72100790D01*
X63645238Y-72100790D02*
X63597619Y-72148409D01*
X63597619Y-72148409D02*
X63550000Y-72243647D01*
X64740476Y-71672219D02*
X64835714Y-71672219D01*
X64835714Y-71672219D02*
X64930952Y-71719838D01*
X64930952Y-71719838D02*
X64978571Y-71767457D01*
X64978571Y-71767457D02*
X65026190Y-71862695D01*
X65026190Y-71862695D02*
X65073809Y-72053171D01*
X65073809Y-72053171D02*
X65073809Y-72291266D01*
X65073809Y-72291266D02*
X65026190Y-72481742D01*
X65026190Y-72481742D02*
X64978571Y-72576980D01*
X64978571Y-72576980D02*
X64930952Y-72624600D01*
X64930952Y-72624600D02*
X64835714Y-72672219D01*
X64835714Y-72672219D02*
X64740476Y-72672219D01*
X64740476Y-72672219D02*
X64645238Y-72624600D01*
X64645238Y-72624600D02*
X64597619Y-72576980D01*
X64597619Y-72576980D02*
X64550000Y-72481742D01*
X64550000Y-72481742D02*
X64502381Y-72291266D01*
X64502381Y-72291266D02*
X64502381Y-72053171D01*
X64502381Y-72053171D02*
X64550000Y-71862695D01*
X64550000Y-71862695D02*
X64597619Y-71767457D01*
X64597619Y-71767457D02*
X64645238Y-71719838D01*
X64645238Y-71719838D02*
X64740476Y-71672219D01*
X65978571Y-71672219D02*
X65502381Y-71672219D01*
X65502381Y-71672219D02*
X65454762Y-72148409D01*
X65454762Y-72148409D02*
X65502381Y-72100790D01*
X65502381Y-72100790D02*
X65597619Y-72053171D01*
X65597619Y-72053171D02*
X65835714Y-72053171D01*
X65835714Y-72053171D02*
X65930952Y-72100790D01*
X65930952Y-72100790D02*
X65978571Y-72148409D01*
X65978571Y-72148409D02*
X66026190Y-72243647D01*
X66026190Y-72243647D02*
X66026190Y-72481742D01*
X66026190Y-72481742D02*
X65978571Y-72576980D01*
X65978571Y-72576980D02*
X65930952Y-72624600D01*
X65930952Y-72624600D02*
X65835714Y-72672219D01*
X65835714Y-72672219D02*
X65597619Y-72672219D01*
X65597619Y-72672219D02*
X65502381Y-72624600D01*
X65502381Y-72624600D02*
X65454762Y-72576980D01*
X66645238Y-71672219D02*
X66740476Y-71672219D01*
X66740476Y-71672219D02*
X66835714Y-71719838D01*
X66835714Y-71719838D02*
X66883333Y-71767457D01*
X66883333Y-71767457D02*
X66930952Y-71862695D01*
X66930952Y-71862695D02*
X66978571Y-72053171D01*
X66978571Y-72053171D02*
X66978571Y-72291266D01*
X66978571Y-72291266D02*
X66930952Y-72481742D01*
X66930952Y-72481742D02*
X66883333Y-72576980D01*
X66883333Y-72576980D02*
X66835714Y-72624600D01*
X66835714Y-72624600D02*
X66740476Y-72672219D01*
X66740476Y-72672219D02*
X66645238Y-72672219D01*
X66645238Y-72672219D02*
X66550000Y-72624600D01*
X66550000Y-72624600D02*
X66502381Y-72576980D01*
X66502381Y-72576980D02*
X66454762Y-72481742D01*
X66454762Y-72481742D02*
X66407143Y-72291266D01*
X66407143Y-72291266D02*
X66407143Y-72053171D01*
X66407143Y-72053171D02*
X66454762Y-71862695D01*
X66454762Y-71862695D02*
X66502381Y-71767457D01*
X66502381Y-71767457D02*
X66550000Y-71719838D01*
X66550000Y-71719838D02*
X66645238Y-71672219D01*
D10*
X103558095Y-59464819D02*
X103558095Y-60274342D01*
X103558095Y-60274342D02*
X103605714Y-60369580D01*
X103605714Y-60369580D02*
X103653333Y-60417200D01*
X103653333Y-60417200D02*
X103748571Y-60464819D01*
X103748571Y-60464819D02*
X103939047Y-60464819D01*
X103939047Y-60464819D02*
X104034285Y-60417200D01*
X104034285Y-60417200D02*
X104081904Y-60369580D01*
X104081904Y-60369580D02*
X104129523Y-60274342D01*
X104129523Y-60274342D02*
X104129523Y-59464819D01*
X104558095Y-59560057D02*
X104605714Y-59512438D01*
X104605714Y-59512438D02*
X104700952Y-59464819D01*
X104700952Y-59464819D02*
X104939047Y-59464819D01*
X104939047Y-59464819D02*
X105034285Y-59512438D01*
X105034285Y-59512438D02*
X105081904Y-59560057D01*
X105081904Y-59560057D02*
X105129523Y-59655295D01*
X105129523Y-59655295D02*
X105129523Y-59750533D01*
X105129523Y-59750533D02*
X105081904Y-59893390D01*
X105081904Y-59893390D02*
X104510476Y-60464819D01*
X104510476Y-60464819D02*
X105129523Y-60464819D01*
X101353333Y-64364819D02*
X101020000Y-63888628D01*
X100781905Y-64364819D02*
X100781905Y-63364819D01*
X100781905Y-63364819D02*
X101162857Y-63364819D01*
X101162857Y-63364819D02*
X101258095Y-63412438D01*
X101258095Y-63412438D02*
X101305714Y-63460057D01*
X101305714Y-63460057D02*
X101353333Y-63555295D01*
X101353333Y-63555295D02*
X101353333Y-63698152D01*
X101353333Y-63698152D02*
X101305714Y-63793390D01*
X101305714Y-63793390D02*
X101258095Y-63841009D01*
X101258095Y-63841009D02*
X101162857Y-63888628D01*
X101162857Y-63888628D02*
X100781905Y-63888628D01*
X101924762Y-63793390D02*
X101829524Y-63745771D01*
X101829524Y-63745771D02*
X101781905Y-63698152D01*
X101781905Y-63698152D02*
X101734286Y-63602914D01*
X101734286Y-63602914D02*
X101734286Y-63555295D01*
X101734286Y-63555295D02*
X101781905Y-63460057D01*
X101781905Y-63460057D02*
X101829524Y-63412438D01*
X101829524Y-63412438D02*
X101924762Y-63364819D01*
X101924762Y-63364819D02*
X102115238Y-63364819D01*
X102115238Y-63364819D02*
X102210476Y-63412438D01*
X102210476Y-63412438D02*
X102258095Y-63460057D01*
X102258095Y-63460057D02*
X102305714Y-63555295D01*
X102305714Y-63555295D02*
X102305714Y-63602914D01*
X102305714Y-63602914D02*
X102258095Y-63698152D01*
X102258095Y-63698152D02*
X102210476Y-63745771D01*
X102210476Y-63745771D02*
X102115238Y-63793390D01*
X102115238Y-63793390D02*
X101924762Y-63793390D01*
X101924762Y-63793390D02*
X101829524Y-63841009D01*
X101829524Y-63841009D02*
X101781905Y-63888628D01*
X101781905Y-63888628D02*
X101734286Y-63983866D01*
X101734286Y-63983866D02*
X101734286Y-64174342D01*
X101734286Y-64174342D02*
X101781905Y-64269580D01*
X101781905Y-64269580D02*
X101829524Y-64317200D01*
X101829524Y-64317200D02*
X101924762Y-64364819D01*
X101924762Y-64364819D02*
X102115238Y-64364819D01*
X102115238Y-64364819D02*
X102210476Y-64317200D01*
X102210476Y-64317200D02*
X102258095Y-64269580D01*
X102258095Y-64269580D02*
X102305714Y-64174342D01*
X102305714Y-64174342D02*
X102305714Y-63983866D01*
X102305714Y-63983866D02*
X102258095Y-63888628D01*
X102258095Y-63888628D02*
X102210476Y-63841009D01*
X102210476Y-63841009D02*
X102115238Y-63793390D01*
X77609580Y-74142857D02*
X77657200Y-74190476D01*
X77657200Y-74190476D02*
X77704819Y-74333333D01*
X77704819Y-74333333D02*
X77704819Y-74428571D01*
X77704819Y-74428571D02*
X77657200Y-74571428D01*
X77657200Y-74571428D02*
X77561961Y-74666666D01*
X77561961Y-74666666D02*
X77466723Y-74714285D01*
X77466723Y-74714285D02*
X77276247Y-74761904D01*
X77276247Y-74761904D02*
X77133390Y-74761904D01*
X77133390Y-74761904D02*
X76942914Y-74714285D01*
X76942914Y-74714285D02*
X76847676Y-74666666D01*
X76847676Y-74666666D02*
X76752438Y-74571428D01*
X76752438Y-74571428D02*
X76704819Y-74428571D01*
X76704819Y-74428571D02*
X76704819Y-74333333D01*
X76704819Y-74333333D02*
X76752438Y-74190476D01*
X76752438Y-74190476D02*
X76800057Y-74142857D01*
X76800057Y-73761904D02*
X76752438Y-73714285D01*
X76752438Y-73714285D02*
X76704819Y-73619047D01*
X76704819Y-73619047D02*
X76704819Y-73380952D01*
X76704819Y-73380952D02*
X76752438Y-73285714D01*
X76752438Y-73285714D02*
X76800057Y-73238095D01*
X76800057Y-73238095D02*
X76895295Y-73190476D01*
X76895295Y-73190476D02*
X76990533Y-73190476D01*
X76990533Y-73190476D02*
X77133390Y-73238095D01*
X77133390Y-73238095D02*
X77704819Y-73809523D01*
X77704819Y-73809523D02*
X77704819Y-73190476D01*
X77704819Y-72238095D02*
X77704819Y-72809523D01*
X77704819Y-72523809D02*
X76704819Y-72523809D01*
X76704819Y-72523809D02*
X76847676Y-72619047D01*
X76847676Y-72619047D02*
X76942914Y-72714285D01*
X76942914Y-72714285D02*
X76990533Y-72809523D01*
X51791905Y-49554819D02*
X51791905Y-48554819D01*
X51791905Y-48554819D02*
X52030000Y-48554819D01*
X52030000Y-48554819D02*
X52172857Y-48602438D01*
X52172857Y-48602438D02*
X52268095Y-48697676D01*
X52268095Y-48697676D02*
X52315714Y-48792914D01*
X52315714Y-48792914D02*
X52363333Y-48983390D01*
X52363333Y-48983390D02*
X52363333Y-49126247D01*
X52363333Y-49126247D02*
X52315714Y-49316723D01*
X52315714Y-49316723D02*
X52268095Y-49411961D01*
X52268095Y-49411961D02*
X52172857Y-49507200D01*
X52172857Y-49507200D02*
X52030000Y-49554819D01*
X52030000Y-49554819D02*
X51791905Y-49554819D01*
X52696667Y-48554819D02*
X53363333Y-48554819D01*
X53363333Y-48554819D02*
X52934762Y-49554819D01*
X73656742Y-43234780D02*
X73609123Y-43282400D01*
X73609123Y-43282400D02*
X73466266Y-43330019D01*
X73466266Y-43330019D02*
X73371028Y-43330019D01*
X73371028Y-43330019D02*
X73228171Y-43282400D01*
X73228171Y-43282400D02*
X73132933Y-43187161D01*
X73132933Y-43187161D02*
X73085314Y-43091923D01*
X73085314Y-43091923D02*
X73037695Y-42901447D01*
X73037695Y-42901447D02*
X73037695Y-42758590D01*
X73037695Y-42758590D02*
X73085314Y-42568114D01*
X73085314Y-42568114D02*
X73132933Y-42472876D01*
X73132933Y-42472876D02*
X73228171Y-42377638D01*
X73228171Y-42377638D02*
X73371028Y-42330019D01*
X73371028Y-42330019D02*
X73466266Y-42330019D01*
X73466266Y-42330019D02*
X73609123Y-42377638D01*
X73609123Y-42377638D02*
X73656742Y-42425257D01*
X74609123Y-43330019D02*
X74037695Y-43330019D01*
X74323409Y-43330019D02*
X74323409Y-42330019D01*
X74323409Y-42330019D02*
X74228171Y-42472876D01*
X74228171Y-42472876D02*
X74132933Y-42568114D01*
X74132933Y-42568114D02*
X74037695Y-42615733D01*
X75085314Y-43330019D02*
X75275790Y-43330019D01*
X75275790Y-43330019D02*
X75371028Y-43282400D01*
X75371028Y-43282400D02*
X75418647Y-43234780D01*
X75418647Y-43234780D02*
X75513885Y-43091923D01*
X75513885Y-43091923D02*
X75561504Y-42901447D01*
X75561504Y-42901447D02*
X75561504Y-42520495D01*
X75561504Y-42520495D02*
X75513885Y-42425257D01*
X75513885Y-42425257D02*
X75466266Y-42377638D01*
X75466266Y-42377638D02*
X75371028Y-42330019D01*
X75371028Y-42330019D02*
X75180552Y-42330019D01*
X75180552Y-42330019D02*
X75085314Y-42377638D01*
X75085314Y-42377638D02*
X75037695Y-42425257D01*
X75037695Y-42425257D02*
X74990076Y-42520495D01*
X74990076Y-42520495D02*
X74990076Y-42758590D01*
X74990076Y-42758590D02*
X75037695Y-42853828D01*
X75037695Y-42853828D02*
X75085314Y-42901447D01*
X75085314Y-42901447D02*
X75180552Y-42949066D01*
X75180552Y-42949066D02*
X75371028Y-42949066D01*
X75371028Y-42949066D02*
X75466266Y-42901447D01*
X75466266Y-42901447D02*
X75513885Y-42853828D01*
X75513885Y-42853828D02*
X75561504Y-42758590D01*
X71223095Y-72729819D02*
X71223095Y-73539342D01*
X71223095Y-73539342D02*
X71270714Y-73634580D01*
X71270714Y-73634580D02*
X71318333Y-73682200D01*
X71318333Y-73682200D02*
X71413571Y-73729819D01*
X71413571Y-73729819D02*
X71604047Y-73729819D01*
X71604047Y-73729819D02*
X71699285Y-73682200D01*
X71699285Y-73682200D02*
X71746904Y-73634580D01*
X71746904Y-73634580D02*
X71794523Y-73539342D01*
X71794523Y-73539342D02*
X71794523Y-72729819D01*
X72746904Y-72729819D02*
X72270714Y-72729819D01*
X72270714Y-72729819D02*
X72223095Y-73206009D01*
X72223095Y-73206009D02*
X72270714Y-73158390D01*
X72270714Y-73158390D02*
X72365952Y-73110771D01*
X72365952Y-73110771D02*
X72604047Y-73110771D01*
X72604047Y-73110771D02*
X72699285Y-73158390D01*
X72699285Y-73158390D02*
X72746904Y-73206009D01*
X72746904Y-73206009D02*
X72794523Y-73301247D01*
X72794523Y-73301247D02*
X72794523Y-73539342D01*
X72794523Y-73539342D02*
X72746904Y-73634580D01*
X72746904Y-73634580D02*
X72699285Y-73682200D01*
X72699285Y-73682200D02*
X72604047Y-73729819D01*
X72604047Y-73729819D02*
X72365952Y-73729819D01*
X72365952Y-73729819D02*
X72270714Y-73682200D01*
X72270714Y-73682200D02*
X72223095Y-73634580D01*
X71581542Y-67161580D02*
X71533923Y-67209200D01*
X71533923Y-67209200D02*
X71391066Y-67256819D01*
X71391066Y-67256819D02*
X71295828Y-67256819D01*
X71295828Y-67256819D02*
X71152971Y-67209200D01*
X71152971Y-67209200D02*
X71057733Y-67113961D01*
X71057733Y-67113961D02*
X71010114Y-67018723D01*
X71010114Y-67018723D02*
X70962495Y-66828247D01*
X70962495Y-66828247D02*
X70962495Y-66685390D01*
X70962495Y-66685390D02*
X71010114Y-66494914D01*
X71010114Y-66494914D02*
X71057733Y-66399676D01*
X71057733Y-66399676D02*
X71152971Y-66304438D01*
X71152971Y-66304438D02*
X71295828Y-66256819D01*
X71295828Y-66256819D02*
X71391066Y-66256819D01*
X71391066Y-66256819D02*
X71533923Y-66304438D01*
X71533923Y-66304438D02*
X71581542Y-66352057D01*
X72533923Y-67256819D02*
X71962495Y-67256819D01*
X72248209Y-67256819D02*
X72248209Y-66256819D01*
X72248209Y-66256819D02*
X72152971Y-66399676D01*
X72152971Y-66399676D02*
X72057733Y-66494914D01*
X72057733Y-66494914D02*
X71962495Y-66542533D01*
X72867257Y-66256819D02*
X73486304Y-66256819D01*
X73486304Y-66256819D02*
X73152971Y-66637771D01*
X73152971Y-66637771D02*
X73295828Y-66637771D01*
X73295828Y-66637771D02*
X73391066Y-66685390D01*
X73391066Y-66685390D02*
X73438685Y-66733009D01*
X73438685Y-66733009D02*
X73486304Y-66828247D01*
X73486304Y-66828247D02*
X73486304Y-67066342D01*
X73486304Y-67066342D02*
X73438685Y-67161580D01*
X73438685Y-67161580D02*
X73391066Y-67209200D01*
X73391066Y-67209200D02*
X73295828Y-67256819D01*
X73295828Y-67256819D02*
X73010114Y-67256819D01*
X73010114Y-67256819D02*
X72914876Y-67209200D01*
X72914876Y-67209200D02*
X72867257Y-67161580D01*
X53757142Y-43504819D02*
X53423809Y-43028628D01*
X53185714Y-43504819D02*
X53185714Y-42504819D01*
X53185714Y-42504819D02*
X53566666Y-42504819D01*
X53566666Y-42504819D02*
X53661904Y-42552438D01*
X53661904Y-42552438D02*
X53709523Y-42600057D01*
X53709523Y-42600057D02*
X53757142Y-42695295D01*
X53757142Y-42695295D02*
X53757142Y-42838152D01*
X53757142Y-42838152D02*
X53709523Y-42933390D01*
X53709523Y-42933390D02*
X53661904Y-42981009D01*
X53661904Y-42981009D02*
X53566666Y-43028628D01*
X53566666Y-43028628D02*
X53185714Y-43028628D01*
X54138095Y-42600057D02*
X54185714Y-42552438D01*
X54185714Y-42552438D02*
X54280952Y-42504819D01*
X54280952Y-42504819D02*
X54519047Y-42504819D01*
X54519047Y-42504819D02*
X54614285Y-42552438D01*
X54614285Y-42552438D02*
X54661904Y-42600057D01*
X54661904Y-42600057D02*
X54709523Y-42695295D01*
X54709523Y-42695295D02*
X54709523Y-42790533D01*
X54709523Y-42790533D02*
X54661904Y-42933390D01*
X54661904Y-42933390D02*
X54090476Y-43504819D01*
X54090476Y-43504819D02*
X54709523Y-43504819D01*
X55566666Y-42504819D02*
X55376190Y-42504819D01*
X55376190Y-42504819D02*
X55280952Y-42552438D01*
X55280952Y-42552438D02*
X55233333Y-42600057D01*
X55233333Y-42600057D02*
X55138095Y-42742914D01*
X55138095Y-42742914D02*
X55090476Y-42933390D01*
X55090476Y-42933390D02*
X55090476Y-43314342D01*
X55090476Y-43314342D02*
X55138095Y-43409580D01*
X55138095Y-43409580D02*
X55185714Y-43457200D01*
X55185714Y-43457200D02*
X55280952Y-43504819D01*
X55280952Y-43504819D02*
X55471428Y-43504819D01*
X55471428Y-43504819D02*
X55566666Y-43457200D01*
X55566666Y-43457200D02*
X55614285Y-43409580D01*
X55614285Y-43409580D02*
X55661904Y-43314342D01*
X55661904Y-43314342D02*
X55661904Y-43076247D01*
X55661904Y-43076247D02*
X55614285Y-42981009D01*
X55614285Y-42981009D02*
X55566666Y-42933390D01*
X55566666Y-42933390D02*
X55471428Y-42885771D01*
X55471428Y-42885771D02*
X55280952Y-42885771D01*
X55280952Y-42885771D02*
X55185714Y-42933390D01*
X55185714Y-42933390D02*
X55138095Y-42981009D01*
X55138095Y-42981009D02*
X55090476Y-43076247D01*
X93186666Y-63244819D02*
X93186666Y-63959104D01*
X93186666Y-63959104D02*
X93139047Y-64101961D01*
X93139047Y-64101961D02*
X93043809Y-64197200D01*
X93043809Y-64197200D02*
X92900952Y-64244819D01*
X92900952Y-64244819D02*
X92805714Y-64244819D01*
X93662857Y-64244819D02*
X93662857Y-63244819D01*
X93662857Y-63244819D02*
X94043809Y-63244819D01*
X94043809Y-63244819D02*
X94139047Y-63292438D01*
X94139047Y-63292438D02*
X94186666Y-63340057D01*
X94186666Y-63340057D02*
X94234285Y-63435295D01*
X94234285Y-63435295D02*
X94234285Y-63578152D01*
X94234285Y-63578152D02*
X94186666Y-63673390D01*
X94186666Y-63673390D02*
X94139047Y-63721009D01*
X94139047Y-63721009D02*
X94043809Y-63768628D01*
X94043809Y-63768628D02*
X93662857Y-63768628D01*
X95091428Y-63244819D02*
X94900952Y-63244819D01*
X94900952Y-63244819D02*
X94805714Y-63292438D01*
X94805714Y-63292438D02*
X94758095Y-63340057D01*
X94758095Y-63340057D02*
X94662857Y-63482914D01*
X94662857Y-63482914D02*
X94615238Y-63673390D01*
X94615238Y-63673390D02*
X94615238Y-64054342D01*
X94615238Y-64054342D02*
X94662857Y-64149580D01*
X94662857Y-64149580D02*
X94710476Y-64197200D01*
X94710476Y-64197200D02*
X94805714Y-64244819D01*
X94805714Y-64244819D02*
X94996190Y-64244819D01*
X94996190Y-64244819D02*
X95091428Y-64197200D01*
X95091428Y-64197200D02*
X95139047Y-64149580D01*
X95139047Y-64149580D02*
X95186666Y-64054342D01*
X95186666Y-64054342D02*
X95186666Y-63816247D01*
X95186666Y-63816247D02*
X95139047Y-63721009D01*
X95139047Y-63721009D02*
X95091428Y-63673390D01*
X95091428Y-63673390D02*
X94996190Y-63625771D01*
X94996190Y-63625771D02*
X94805714Y-63625771D01*
X94805714Y-63625771D02*
X94710476Y-63673390D01*
X94710476Y-63673390D02*
X94662857Y-63721009D01*
X94662857Y-63721009D02*
X94615238Y-63816247D01*
X76471905Y-59874819D02*
X76471905Y-58874819D01*
X76471905Y-58874819D02*
X76710000Y-58874819D01*
X76710000Y-58874819D02*
X76852857Y-58922438D01*
X76852857Y-58922438D02*
X76948095Y-59017676D01*
X76948095Y-59017676D02*
X76995714Y-59112914D01*
X76995714Y-59112914D02*
X77043333Y-59303390D01*
X77043333Y-59303390D02*
X77043333Y-59446247D01*
X77043333Y-59446247D02*
X76995714Y-59636723D01*
X76995714Y-59636723D02*
X76948095Y-59731961D01*
X76948095Y-59731961D02*
X76852857Y-59827200D01*
X76852857Y-59827200D02*
X76710000Y-59874819D01*
X76710000Y-59874819D02*
X76471905Y-59874819D01*
X77948095Y-58874819D02*
X77471905Y-58874819D01*
X77471905Y-58874819D02*
X77424286Y-59351009D01*
X77424286Y-59351009D02*
X77471905Y-59303390D01*
X77471905Y-59303390D02*
X77567143Y-59255771D01*
X77567143Y-59255771D02*
X77805238Y-59255771D01*
X77805238Y-59255771D02*
X77900476Y-59303390D01*
X77900476Y-59303390D02*
X77948095Y-59351009D01*
X77948095Y-59351009D02*
X77995714Y-59446247D01*
X77995714Y-59446247D02*
X77995714Y-59684342D01*
X77995714Y-59684342D02*
X77948095Y-59779580D01*
X77948095Y-59779580D02*
X77900476Y-59827200D01*
X77900476Y-59827200D02*
X77805238Y-59874819D01*
X77805238Y-59874819D02*
X77567143Y-59874819D01*
X77567143Y-59874819D02*
X77471905Y-59827200D01*
X77471905Y-59827200D02*
X77424286Y-59779580D01*
X109802705Y-62100619D02*
X109802705Y-61100619D01*
X109802705Y-61100619D02*
X110183657Y-61100619D01*
X110183657Y-61100619D02*
X110278895Y-61148238D01*
X110278895Y-61148238D02*
X110326514Y-61195857D01*
X110326514Y-61195857D02*
X110374133Y-61291095D01*
X110374133Y-61291095D02*
X110374133Y-61433952D01*
X110374133Y-61433952D02*
X110326514Y-61529190D01*
X110326514Y-61529190D02*
X110278895Y-61576809D01*
X110278895Y-61576809D02*
X110183657Y-61624428D01*
X110183657Y-61624428D02*
X109802705Y-61624428D01*
X111326514Y-62100619D02*
X110755086Y-62100619D01*
X111040800Y-62100619D02*
X111040800Y-61100619D01*
X111040800Y-61100619D02*
X110945562Y-61243476D01*
X110945562Y-61243476D02*
X110850324Y-61338714D01*
X110850324Y-61338714D02*
X110755086Y-61386333D01*
X52171905Y-67364819D02*
X52171905Y-66364819D01*
X52171905Y-66364819D02*
X52410000Y-66364819D01*
X52410000Y-66364819D02*
X52552857Y-66412438D01*
X52552857Y-66412438D02*
X52648095Y-66507676D01*
X52648095Y-66507676D02*
X52695714Y-66602914D01*
X52695714Y-66602914D02*
X52743333Y-66793390D01*
X52743333Y-66793390D02*
X52743333Y-66936247D01*
X52743333Y-66936247D02*
X52695714Y-67126723D01*
X52695714Y-67126723D02*
X52648095Y-67221961D01*
X52648095Y-67221961D02*
X52552857Y-67317200D01*
X52552857Y-67317200D02*
X52410000Y-67364819D01*
X52410000Y-67364819D02*
X52171905Y-67364819D01*
X53695714Y-67364819D02*
X53124286Y-67364819D01*
X53410000Y-67364819D02*
X53410000Y-66364819D01*
X53410000Y-66364819D02*
X53314762Y-66507676D01*
X53314762Y-66507676D02*
X53219524Y-66602914D01*
X53219524Y-66602914D02*
X53124286Y-66650533D01*
X78953333Y-49914819D02*
X78620000Y-49438628D01*
X78381905Y-49914819D02*
X78381905Y-48914819D01*
X78381905Y-48914819D02*
X78762857Y-48914819D01*
X78762857Y-48914819D02*
X78858095Y-48962438D01*
X78858095Y-48962438D02*
X78905714Y-49010057D01*
X78905714Y-49010057D02*
X78953333Y-49105295D01*
X78953333Y-49105295D02*
X78953333Y-49248152D01*
X78953333Y-49248152D02*
X78905714Y-49343390D01*
X78905714Y-49343390D02*
X78858095Y-49391009D01*
X78858095Y-49391009D02*
X78762857Y-49438628D01*
X78762857Y-49438628D02*
X78381905Y-49438628D01*
X79810476Y-48914819D02*
X79620000Y-48914819D01*
X79620000Y-48914819D02*
X79524762Y-48962438D01*
X79524762Y-48962438D02*
X79477143Y-49010057D01*
X79477143Y-49010057D02*
X79381905Y-49152914D01*
X79381905Y-49152914D02*
X79334286Y-49343390D01*
X79334286Y-49343390D02*
X79334286Y-49724342D01*
X79334286Y-49724342D02*
X79381905Y-49819580D01*
X79381905Y-49819580D02*
X79429524Y-49867200D01*
X79429524Y-49867200D02*
X79524762Y-49914819D01*
X79524762Y-49914819D02*
X79715238Y-49914819D01*
X79715238Y-49914819D02*
X79810476Y-49867200D01*
X79810476Y-49867200D02*
X79858095Y-49819580D01*
X79858095Y-49819580D02*
X79905714Y-49724342D01*
X79905714Y-49724342D02*
X79905714Y-49486247D01*
X79905714Y-49486247D02*
X79858095Y-49391009D01*
X79858095Y-49391009D02*
X79810476Y-49343390D01*
X79810476Y-49343390D02*
X79715238Y-49295771D01*
X79715238Y-49295771D02*
X79524762Y-49295771D01*
X79524762Y-49295771D02*
X79429524Y-49343390D01*
X79429524Y-49343390D02*
X79381905Y-49391009D01*
X79381905Y-49391009D02*
X79334286Y-49486247D01*
X111093333Y-56439580D02*
X111045714Y-56487200D01*
X111045714Y-56487200D02*
X110902857Y-56534819D01*
X110902857Y-56534819D02*
X110807619Y-56534819D01*
X110807619Y-56534819D02*
X110664762Y-56487200D01*
X110664762Y-56487200D02*
X110569524Y-56391961D01*
X110569524Y-56391961D02*
X110521905Y-56296723D01*
X110521905Y-56296723D02*
X110474286Y-56106247D01*
X110474286Y-56106247D02*
X110474286Y-55963390D01*
X110474286Y-55963390D02*
X110521905Y-55772914D01*
X110521905Y-55772914D02*
X110569524Y-55677676D01*
X110569524Y-55677676D02*
X110664762Y-55582438D01*
X110664762Y-55582438D02*
X110807619Y-55534819D01*
X110807619Y-55534819D02*
X110902857Y-55534819D01*
X110902857Y-55534819D02*
X111045714Y-55582438D01*
X111045714Y-55582438D02*
X111093333Y-55630057D01*
X111950476Y-55534819D02*
X111760000Y-55534819D01*
X111760000Y-55534819D02*
X111664762Y-55582438D01*
X111664762Y-55582438D02*
X111617143Y-55630057D01*
X111617143Y-55630057D02*
X111521905Y-55772914D01*
X111521905Y-55772914D02*
X111474286Y-55963390D01*
X111474286Y-55963390D02*
X111474286Y-56344342D01*
X111474286Y-56344342D02*
X111521905Y-56439580D01*
X111521905Y-56439580D02*
X111569524Y-56487200D01*
X111569524Y-56487200D02*
X111664762Y-56534819D01*
X111664762Y-56534819D02*
X111855238Y-56534819D01*
X111855238Y-56534819D02*
X111950476Y-56487200D01*
X111950476Y-56487200D02*
X111998095Y-56439580D01*
X111998095Y-56439580D02*
X112045714Y-56344342D01*
X112045714Y-56344342D02*
X112045714Y-56106247D01*
X112045714Y-56106247D02*
X111998095Y-56011009D01*
X111998095Y-56011009D02*
X111950476Y-55963390D01*
X111950476Y-55963390D02*
X111855238Y-55915771D01*
X111855238Y-55915771D02*
X111664762Y-55915771D01*
X111664762Y-55915771D02*
X111569524Y-55963390D01*
X111569524Y-55963390D02*
X111521905Y-56011009D01*
X111521905Y-56011009D02*
X111474286Y-56106247D01*
X52627142Y-68674819D02*
X52293809Y-68198628D01*
X52055714Y-68674819D02*
X52055714Y-67674819D01*
X52055714Y-67674819D02*
X52436666Y-67674819D01*
X52436666Y-67674819D02*
X52531904Y-67722438D01*
X52531904Y-67722438D02*
X52579523Y-67770057D01*
X52579523Y-67770057D02*
X52627142Y-67865295D01*
X52627142Y-67865295D02*
X52627142Y-68008152D01*
X52627142Y-68008152D02*
X52579523Y-68103390D01*
X52579523Y-68103390D02*
X52531904Y-68151009D01*
X52531904Y-68151009D02*
X52436666Y-68198628D01*
X52436666Y-68198628D02*
X52055714Y-68198628D01*
X53579523Y-68674819D02*
X53008095Y-68674819D01*
X53293809Y-68674819D02*
X53293809Y-67674819D01*
X53293809Y-67674819D02*
X53198571Y-67817676D01*
X53198571Y-67817676D02*
X53103333Y-67912914D01*
X53103333Y-67912914D02*
X53008095Y-67960533D01*
X54055714Y-68674819D02*
X54246190Y-68674819D01*
X54246190Y-68674819D02*
X54341428Y-68627200D01*
X54341428Y-68627200D02*
X54389047Y-68579580D01*
X54389047Y-68579580D02*
X54484285Y-68436723D01*
X54484285Y-68436723D02*
X54531904Y-68246247D01*
X54531904Y-68246247D02*
X54531904Y-67865295D01*
X54531904Y-67865295D02*
X54484285Y-67770057D01*
X54484285Y-67770057D02*
X54436666Y-67722438D01*
X54436666Y-67722438D02*
X54341428Y-67674819D01*
X54341428Y-67674819D02*
X54150952Y-67674819D01*
X54150952Y-67674819D02*
X54055714Y-67722438D01*
X54055714Y-67722438D02*
X54008095Y-67770057D01*
X54008095Y-67770057D02*
X53960476Y-67865295D01*
X53960476Y-67865295D02*
X53960476Y-68103390D01*
X53960476Y-68103390D02*
X54008095Y-68198628D01*
X54008095Y-68198628D02*
X54055714Y-68246247D01*
X54055714Y-68246247D02*
X54150952Y-68293866D01*
X54150952Y-68293866D02*
X54341428Y-68293866D01*
X54341428Y-68293866D02*
X54436666Y-68246247D01*
X54436666Y-68246247D02*
X54484285Y-68198628D01*
X54484285Y-68198628D02*
X54531904Y-68103390D01*
X105562495Y-47918019D02*
X105562495Y-48727542D01*
X105562495Y-48727542D02*
X105610114Y-48822780D01*
X105610114Y-48822780D02*
X105657733Y-48870400D01*
X105657733Y-48870400D02*
X105752971Y-48918019D01*
X105752971Y-48918019D02*
X105943447Y-48918019D01*
X105943447Y-48918019D02*
X106038685Y-48870400D01*
X106038685Y-48870400D02*
X106086304Y-48822780D01*
X106086304Y-48822780D02*
X106133923Y-48727542D01*
X106133923Y-48727542D02*
X106133923Y-47918019D01*
X106514876Y-47918019D02*
X107133923Y-47918019D01*
X107133923Y-47918019D02*
X106800590Y-48298971D01*
X106800590Y-48298971D02*
X106943447Y-48298971D01*
X106943447Y-48298971D02*
X107038685Y-48346590D01*
X107038685Y-48346590D02*
X107086304Y-48394209D01*
X107086304Y-48394209D02*
X107133923Y-48489447D01*
X107133923Y-48489447D02*
X107133923Y-48727542D01*
X107133923Y-48727542D02*
X107086304Y-48822780D01*
X107086304Y-48822780D02*
X107038685Y-48870400D01*
X107038685Y-48870400D02*
X106943447Y-48918019D01*
X106943447Y-48918019D02*
X106657733Y-48918019D01*
X106657733Y-48918019D02*
X106562495Y-48870400D01*
X106562495Y-48870400D02*
X106514876Y-48822780D01*
X78903533Y-54988619D02*
X78570200Y-54512428D01*
X78332105Y-54988619D02*
X78332105Y-53988619D01*
X78332105Y-53988619D02*
X78713057Y-53988619D01*
X78713057Y-53988619D02*
X78808295Y-54036238D01*
X78808295Y-54036238D02*
X78855914Y-54083857D01*
X78855914Y-54083857D02*
X78903533Y-54179095D01*
X78903533Y-54179095D02*
X78903533Y-54321952D01*
X78903533Y-54321952D02*
X78855914Y-54417190D01*
X78855914Y-54417190D02*
X78808295Y-54464809D01*
X78808295Y-54464809D02*
X78713057Y-54512428D01*
X78713057Y-54512428D02*
X78332105Y-54512428D01*
X79379724Y-54988619D02*
X79570200Y-54988619D01*
X79570200Y-54988619D02*
X79665438Y-54941000D01*
X79665438Y-54941000D02*
X79713057Y-54893380D01*
X79713057Y-54893380D02*
X79808295Y-54750523D01*
X79808295Y-54750523D02*
X79855914Y-54560047D01*
X79855914Y-54560047D02*
X79855914Y-54179095D01*
X79855914Y-54179095D02*
X79808295Y-54083857D01*
X79808295Y-54083857D02*
X79760676Y-54036238D01*
X79760676Y-54036238D02*
X79665438Y-53988619D01*
X79665438Y-53988619D02*
X79474962Y-53988619D01*
X79474962Y-53988619D02*
X79379724Y-54036238D01*
X79379724Y-54036238D02*
X79332105Y-54083857D01*
X79332105Y-54083857D02*
X79284486Y-54179095D01*
X79284486Y-54179095D02*
X79284486Y-54417190D01*
X79284486Y-54417190D02*
X79332105Y-54512428D01*
X79332105Y-54512428D02*
X79379724Y-54560047D01*
X79379724Y-54560047D02*
X79474962Y-54607666D01*
X79474962Y-54607666D02*
X79665438Y-54607666D01*
X79665438Y-54607666D02*
X79760676Y-54560047D01*
X79760676Y-54560047D02*
X79808295Y-54512428D01*
X79808295Y-54512428D02*
X79855914Y-54417190D01*
X81457142Y-56139580D02*
X81409523Y-56187200D01*
X81409523Y-56187200D02*
X81266666Y-56234819D01*
X81266666Y-56234819D02*
X81171428Y-56234819D01*
X81171428Y-56234819D02*
X81028571Y-56187200D01*
X81028571Y-56187200D02*
X80933333Y-56091961D01*
X80933333Y-56091961D02*
X80885714Y-55996723D01*
X80885714Y-55996723D02*
X80838095Y-55806247D01*
X80838095Y-55806247D02*
X80838095Y-55663390D01*
X80838095Y-55663390D02*
X80885714Y-55472914D01*
X80885714Y-55472914D02*
X80933333Y-55377676D01*
X80933333Y-55377676D02*
X81028571Y-55282438D01*
X81028571Y-55282438D02*
X81171428Y-55234819D01*
X81171428Y-55234819D02*
X81266666Y-55234819D01*
X81266666Y-55234819D02*
X81409523Y-55282438D01*
X81409523Y-55282438D02*
X81457142Y-55330057D01*
X81838095Y-55330057D02*
X81885714Y-55282438D01*
X81885714Y-55282438D02*
X81980952Y-55234819D01*
X81980952Y-55234819D02*
X82219047Y-55234819D01*
X82219047Y-55234819D02*
X82314285Y-55282438D01*
X82314285Y-55282438D02*
X82361904Y-55330057D01*
X82361904Y-55330057D02*
X82409523Y-55425295D01*
X82409523Y-55425295D02*
X82409523Y-55520533D01*
X82409523Y-55520533D02*
X82361904Y-55663390D01*
X82361904Y-55663390D02*
X81790476Y-56234819D01*
X81790476Y-56234819D02*
X82409523Y-56234819D01*
X82790476Y-55330057D02*
X82838095Y-55282438D01*
X82838095Y-55282438D02*
X82933333Y-55234819D01*
X82933333Y-55234819D02*
X83171428Y-55234819D01*
X83171428Y-55234819D02*
X83266666Y-55282438D01*
X83266666Y-55282438D02*
X83314285Y-55330057D01*
X83314285Y-55330057D02*
X83361904Y-55425295D01*
X83361904Y-55425295D02*
X83361904Y-55520533D01*
X83361904Y-55520533D02*
X83314285Y-55663390D01*
X83314285Y-55663390D02*
X82742857Y-56234819D01*
X82742857Y-56234819D02*
X83361904Y-56234819D01*
X79843333Y-68272819D02*
X79367143Y-68272819D01*
X79367143Y-68272819D02*
X79367143Y-67272819D01*
X80700476Y-68272819D02*
X80129048Y-68272819D01*
X80414762Y-68272819D02*
X80414762Y-67272819D01*
X80414762Y-67272819D02*
X80319524Y-67415676D01*
X80319524Y-67415676D02*
X80224286Y-67510914D01*
X80224286Y-67510914D02*
X80129048Y-67558533D01*
X79262580Y-58830357D02*
X79310200Y-58877976D01*
X79310200Y-58877976D02*
X79357819Y-59020833D01*
X79357819Y-59020833D02*
X79357819Y-59116071D01*
X79357819Y-59116071D02*
X79310200Y-59258928D01*
X79310200Y-59258928D02*
X79214961Y-59354166D01*
X79214961Y-59354166D02*
X79119723Y-59401785D01*
X79119723Y-59401785D02*
X78929247Y-59449404D01*
X78929247Y-59449404D02*
X78786390Y-59449404D01*
X78786390Y-59449404D02*
X78595914Y-59401785D01*
X78595914Y-59401785D02*
X78500676Y-59354166D01*
X78500676Y-59354166D02*
X78405438Y-59258928D01*
X78405438Y-59258928D02*
X78357819Y-59116071D01*
X78357819Y-59116071D02*
X78357819Y-59020833D01*
X78357819Y-59020833D02*
X78405438Y-58877976D01*
X78405438Y-58877976D02*
X78453057Y-58830357D01*
X78453057Y-58449404D02*
X78405438Y-58401785D01*
X78405438Y-58401785D02*
X78357819Y-58306547D01*
X78357819Y-58306547D02*
X78357819Y-58068452D01*
X78357819Y-58068452D02*
X78405438Y-57973214D01*
X78405438Y-57973214D02*
X78453057Y-57925595D01*
X78453057Y-57925595D02*
X78548295Y-57877976D01*
X78548295Y-57877976D02*
X78643533Y-57877976D01*
X78643533Y-57877976D02*
X78786390Y-57925595D01*
X78786390Y-57925595D02*
X79357819Y-58497023D01*
X79357819Y-58497023D02*
X79357819Y-57877976D01*
X78357819Y-57544642D02*
X78357819Y-56925595D01*
X78357819Y-56925595D02*
X78738771Y-57258928D01*
X78738771Y-57258928D02*
X78738771Y-57116071D01*
X78738771Y-57116071D02*
X78786390Y-57020833D01*
X78786390Y-57020833D02*
X78834009Y-56973214D01*
X78834009Y-56973214D02*
X78929247Y-56925595D01*
X78929247Y-56925595D02*
X79167342Y-56925595D01*
X79167342Y-56925595D02*
X79262580Y-56973214D01*
X79262580Y-56973214D02*
X79310200Y-57020833D01*
X79310200Y-57020833D02*
X79357819Y-57116071D01*
X79357819Y-57116071D02*
X79357819Y-57401785D01*
X79357819Y-57401785D02*
X79310200Y-57497023D01*
X79310200Y-57497023D02*
X79262580Y-57544642D01*
X93177142Y-66464819D02*
X92843809Y-65988628D01*
X92605714Y-66464819D02*
X92605714Y-65464819D01*
X92605714Y-65464819D02*
X92986666Y-65464819D01*
X92986666Y-65464819D02*
X93081904Y-65512438D01*
X93081904Y-65512438D02*
X93129523Y-65560057D01*
X93129523Y-65560057D02*
X93177142Y-65655295D01*
X93177142Y-65655295D02*
X93177142Y-65798152D01*
X93177142Y-65798152D02*
X93129523Y-65893390D01*
X93129523Y-65893390D02*
X93081904Y-65941009D01*
X93081904Y-65941009D02*
X92986666Y-65988628D01*
X92986666Y-65988628D02*
X92605714Y-65988628D01*
X94129523Y-66464819D02*
X93558095Y-66464819D01*
X93843809Y-66464819D02*
X93843809Y-65464819D01*
X93843809Y-65464819D02*
X93748571Y-65607676D01*
X93748571Y-65607676D02*
X93653333Y-65702914D01*
X93653333Y-65702914D02*
X93558095Y-65750533D01*
X95081904Y-66464819D02*
X94510476Y-66464819D01*
X94796190Y-66464819D02*
X94796190Y-65464819D01*
X94796190Y-65464819D02*
X94700952Y-65607676D01*
X94700952Y-65607676D02*
X94605714Y-65702914D01*
X94605714Y-65702914D02*
X94510476Y-65750533D01*
X69237142Y-40434819D02*
X68903809Y-39958628D01*
X68665714Y-40434819D02*
X68665714Y-39434819D01*
X68665714Y-39434819D02*
X69046666Y-39434819D01*
X69046666Y-39434819D02*
X69141904Y-39482438D01*
X69141904Y-39482438D02*
X69189523Y-39530057D01*
X69189523Y-39530057D02*
X69237142Y-39625295D01*
X69237142Y-39625295D02*
X69237142Y-39768152D01*
X69237142Y-39768152D02*
X69189523Y-39863390D01*
X69189523Y-39863390D02*
X69141904Y-39911009D01*
X69141904Y-39911009D02*
X69046666Y-39958628D01*
X69046666Y-39958628D02*
X68665714Y-39958628D01*
X70189523Y-40434819D02*
X69618095Y-40434819D01*
X69903809Y-40434819D02*
X69903809Y-39434819D01*
X69903809Y-39434819D02*
X69808571Y-39577676D01*
X69808571Y-39577676D02*
X69713333Y-39672914D01*
X69713333Y-39672914D02*
X69618095Y-39720533D01*
X71046666Y-39434819D02*
X70856190Y-39434819D01*
X70856190Y-39434819D02*
X70760952Y-39482438D01*
X70760952Y-39482438D02*
X70713333Y-39530057D01*
X70713333Y-39530057D02*
X70618095Y-39672914D01*
X70618095Y-39672914D02*
X70570476Y-39863390D01*
X70570476Y-39863390D02*
X70570476Y-40244342D01*
X70570476Y-40244342D02*
X70618095Y-40339580D01*
X70618095Y-40339580D02*
X70665714Y-40387200D01*
X70665714Y-40387200D02*
X70760952Y-40434819D01*
X70760952Y-40434819D02*
X70951428Y-40434819D01*
X70951428Y-40434819D02*
X71046666Y-40387200D01*
X71046666Y-40387200D02*
X71094285Y-40339580D01*
X71094285Y-40339580D02*
X71141904Y-40244342D01*
X71141904Y-40244342D02*
X71141904Y-40006247D01*
X71141904Y-40006247D02*
X71094285Y-39911009D01*
X71094285Y-39911009D02*
X71046666Y-39863390D01*
X71046666Y-39863390D02*
X70951428Y-39815771D01*
X70951428Y-39815771D02*
X70760952Y-39815771D01*
X70760952Y-39815771D02*
X70665714Y-39863390D01*
X70665714Y-39863390D02*
X70618095Y-39911009D01*
X70618095Y-39911009D02*
X70570476Y-40006247D01*
X97692333Y-70433980D02*
X97644714Y-70481600D01*
X97644714Y-70481600D02*
X97501857Y-70529219D01*
X97501857Y-70529219D02*
X97406619Y-70529219D01*
X97406619Y-70529219D02*
X97263762Y-70481600D01*
X97263762Y-70481600D02*
X97168524Y-70386361D01*
X97168524Y-70386361D02*
X97120905Y-70291123D01*
X97120905Y-70291123D02*
X97073286Y-70100647D01*
X97073286Y-70100647D02*
X97073286Y-69957790D01*
X97073286Y-69957790D02*
X97120905Y-69767314D01*
X97120905Y-69767314D02*
X97168524Y-69672076D01*
X97168524Y-69672076D02*
X97263762Y-69576838D01*
X97263762Y-69576838D02*
X97406619Y-69529219D01*
X97406619Y-69529219D02*
X97501857Y-69529219D01*
X97501857Y-69529219D02*
X97644714Y-69576838D01*
X97644714Y-69576838D02*
X97692333Y-69624457D01*
X98025667Y-69529219D02*
X98644714Y-69529219D01*
X98644714Y-69529219D02*
X98311381Y-69910171D01*
X98311381Y-69910171D02*
X98454238Y-69910171D01*
X98454238Y-69910171D02*
X98549476Y-69957790D01*
X98549476Y-69957790D02*
X98597095Y-70005409D01*
X98597095Y-70005409D02*
X98644714Y-70100647D01*
X98644714Y-70100647D02*
X98644714Y-70338742D01*
X98644714Y-70338742D02*
X98597095Y-70433980D01*
X98597095Y-70433980D02*
X98549476Y-70481600D01*
X98549476Y-70481600D02*
X98454238Y-70529219D01*
X98454238Y-70529219D02*
X98168524Y-70529219D01*
X98168524Y-70529219D02*
X98073286Y-70481600D01*
X98073286Y-70481600D02*
X98025667Y-70433980D01*
X71586542Y-68431580D02*
X71538923Y-68479200D01*
X71538923Y-68479200D02*
X71396066Y-68526819D01*
X71396066Y-68526819D02*
X71300828Y-68526819D01*
X71300828Y-68526819D02*
X71157971Y-68479200D01*
X71157971Y-68479200D02*
X71062733Y-68383961D01*
X71062733Y-68383961D02*
X71015114Y-68288723D01*
X71015114Y-68288723D02*
X70967495Y-68098247D01*
X70967495Y-68098247D02*
X70967495Y-67955390D01*
X70967495Y-67955390D02*
X71015114Y-67764914D01*
X71015114Y-67764914D02*
X71062733Y-67669676D01*
X71062733Y-67669676D02*
X71157971Y-67574438D01*
X71157971Y-67574438D02*
X71300828Y-67526819D01*
X71300828Y-67526819D02*
X71396066Y-67526819D01*
X71396066Y-67526819D02*
X71538923Y-67574438D01*
X71538923Y-67574438D02*
X71586542Y-67622057D01*
X72538923Y-68526819D02*
X71967495Y-68526819D01*
X72253209Y-68526819D02*
X72253209Y-67526819D01*
X72253209Y-67526819D02*
X72157971Y-67669676D01*
X72157971Y-67669676D02*
X72062733Y-67764914D01*
X72062733Y-67764914D02*
X71967495Y-67812533D01*
X72919876Y-67622057D02*
X72967495Y-67574438D01*
X72967495Y-67574438D02*
X73062733Y-67526819D01*
X73062733Y-67526819D02*
X73300828Y-67526819D01*
X73300828Y-67526819D02*
X73396066Y-67574438D01*
X73396066Y-67574438D02*
X73443685Y-67622057D01*
X73443685Y-67622057D02*
X73491304Y-67717295D01*
X73491304Y-67717295D02*
X73491304Y-67812533D01*
X73491304Y-67812533D02*
X73443685Y-67955390D01*
X73443685Y-67955390D02*
X72872257Y-68526819D01*
X72872257Y-68526819D02*
X73491304Y-68526819D01*
X52854761Y-38650057D02*
X52759523Y-38602438D01*
X52759523Y-38602438D02*
X52664285Y-38507200D01*
X52664285Y-38507200D02*
X52521428Y-38364342D01*
X52521428Y-38364342D02*
X52426190Y-38316723D01*
X52426190Y-38316723D02*
X52330952Y-38316723D01*
X52378571Y-38554819D02*
X52283333Y-38507200D01*
X52283333Y-38507200D02*
X52188095Y-38411961D01*
X52188095Y-38411961D02*
X52140476Y-38221485D01*
X52140476Y-38221485D02*
X52140476Y-37888152D01*
X52140476Y-37888152D02*
X52188095Y-37697676D01*
X52188095Y-37697676D02*
X52283333Y-37602438D01*
X52283333Y-37602438D02*
X52378571Y-37554819D01*
X52378571Y-37554819D02*
X52569047Y-37554819D01*
X52569047Y-37554819D02*
X52664285Y-37602438D01*
X52664285Y-37602438D02*
X52759523Y-37697676D01*
X52759523Y-37697676D02*
X52807142Y-37888152D01*
X52807142Y-37888152D02*
X52807142Y-38221485D01*
X52807142Y-38221485D02*
X52759523Y-38411961D01*
X52759523Y-38411961D02*
X52664285Y-38507200D01*
X52664285Y-38507200D02*
X52569047Y-38554819D01*
X52569047Y-38554819D02*
X52378571Y-38554819D01*
X53378571Y-37983390D02*
X53283333Y-37935771D01*
X53283333Y-37935771D02*
X53235714Y-37888152D01*
X53235714Y-37888152D02*
X53188095Y-37792914D01*
X53188095Y-37792914D02*
X53188095Y-37745295D01*
X53188095Y-37745295D02*
X53235714Y-37650057D01*
X53235714Y-37650057D02*
X53283333Y-37602438D01*
X53283333Y-37602438D02*
X53378571Y-37554819D01*
X53378571Y-37554819D02*
X53569047Y-37554819D01*
X53569047Y-37554819D02*
X53664285Y-37602438D01*
X53664285Y-37602438D02*
X53711904Y-37650057D01*
X53711904Y-37650057D02*
X53759523Y-37745295D01*
X53759523Y-37745295D02*
X53759523Y-37792914D01*
X53759523Y-37792914D02*
X53711904Y-37888152D01*
X53711904Y-37888152D02*
X53664285Y-37935771D01*
X53664285Y-37935771D02*
X53569047Y-37983390D01*
X53569047Y-37983390D02*
X53378571Y-37983390D01*
X53378571Y-37983390D02*
X53283333Y-38031009D01*
X53283333Y-38031009D02*
X53235714Y-38078628D01*
X53235714Y-38078628D02*
X53188095Y-38173866D01*
X53188095Y-38173866D02*
X53188095Y-38364342D01*
X53188095Y-38364342D02*
X53235714Y-38459580D01*
X53235714Y-38459580D02*
X53283333Y-38507200D01*
X53283333Y-38507200D02*
X53378571Y-38554819D01*
X53378571Y-38554819D02*
X53569047Y-38554819D01*
X53569047Y-38554819D02*
X53664285Y-38507200D01*
X53664285Y-38507200D02*
X53711904Y-38459580D01*
X53711904Y-38459580D02*
X53759523Y-38364342D01*
X53759523Y-38364342D02*
X53759523Y-38173866D01*
X53759523Y-38173866D02*
X53711904Y-38078628D01*
X53711904Y-38078628D02*
X53664285Y-38031009D01*
X53664285Y-38031009D02*
X53569047Y-37983390D01*
X60012342Y-45266780D02*
X59964723Y-45314400D01*
X59964723Y-45314400D02*
X59821866Y-45362019D01*
X59821866Y-45362019D02*
X59726628Y-45362019D01*
X59726628Y-45362019D02*
X59583771Y-45314400D01*
X59583771Y-45314400D02*
X59488533Y-45219161D01*
X59488533Y-45219161D02*
X59440914Y-45123923D01*
X59440914Y-45123923D02*
X59393295Y-44933447D01*
X59393295Y-44933447D02*
X59393295Y-44790590D01*
X59393295Y-44790590D02*
X59440914Y-44600114D01*
X59440914Y-44600114D02*
X59488533Y-44504876D01*
X59488533Y-44504876D02*
X59583771Y-44409638D01*
X59583771Y-44409638D02*
X59726628Y-44362019D01*
X59726628Y-44362019D02*
X59821866Y-44362019D01*
X59821866Y-44362019D02*
X59964723Y-44409638D01*
X59964723Y-44409638D02*
X60012342Y-44457257D01*
X60964723Y-45362019D02*
X60393295Y-45362019D01*
X60679009Y-45362019D02*
X60679009Y-44362019D01*
X60679009Y-44362019D02*
X60583771Y-44504876D01*
X60583771Y-44504876D02*
X60488533Y-44600114D01*
X60488533Y-44600114D02*
X60393295Y-44647733D01*
X61821866Y-44695352D02*
X61821866Y-45362019D01*
X61583771Y-44314400D02*
X61345676Y-45028685D01*
X61345676Y-45028685D02*
X61964723Y-45028685D01*
X69267142Y-38874819D02*
X68933809Y-38398628D01*
X68695714Y-38874819D02*
X68695714Y-37874819D01*
X68695714Y-37874819D02*
X69076666Y-37874819D01*
X69076666Y-37874819D02*
X69171904Y-37922438D01*
X69171904Y-37922438D02*
X69219523Y-37970057D01*
X69219523Y-37970057D02*
X69267142Y-38065295D01*
X69267142Y-38065295D02*
X69267142Y-38208152D01*
X69267142Y-38208152D02*
X69219523Y-38303390D01*
X69219523Y-38303390D02*
X69171904Y-38351009D01*
X69171904Y-38351009D02*
X69076666Y-38398628D01*
X69076666Y-38398628D02*
X68695714Y-38398628D01*
X70219523Y-38874819D02*
X69648095Y-38874819D01*
X69933809Y-38874819D02*
X69933809Y-37874819D01*
X69933809Y-37874819D02*
X69838571Y-38017676D01*
X69838571Y-38017676D02*
X69743333Y-38112914D01*
X69743333Y-38112914D02*
X69648095Y-38160533D01*
X70552857Y-37874819D02*
X71171904Y-37874819D01*
X71171904Y-37874819D02*
X70838571Y-38255771D01*
X70838571Y-38255771D02*
X70981428Y-38255771D01*
X70981428Y-38255771D02*
X71076666Y-38303390D01*
X71076666Y-38303390D02*
X71124285Y-38351009D01*
X71124285Y-38351009D02*
X71171904Y-38446247D01*
X71171904Y-38446247D02*
X71171904Y-38684342D01*
X71171904Y-38684342D02*
X71124285Y-38779580D01*
X71124285Y-38779580D02*
X71076666Y-38827200D01*
X71076666Y-38827200D02*
X70981428Y-38874819D01*
X70981428Y-38874819D02*
X70695714Y-38874819D01*
X70695714Y-38874819D02*
X70600476Y-38827200D01*
X70600476Y-38827200D02*
X70552857Y-38779580D01*
X78953333Y-51299580D02*
X78905714Y-51347200D01*
X78905714Y-51347200D02*
X78762857Y-51394819D01*
X78762857Y-51394819D02*
X78667619Y-51394819D01*
X78667619Y-51394819D02*
X78524762Y-51347200D01*
X78524762Y-51347200D02*
X78429524Y-51251961D01*
X78429524Y-51251961D02*
X78381905Y-51156723D01*
X78381905Y-51156723D02*
X78334286Y-50966247D01*
X78334286Y-50966247D02*
X78334286Y-50823390D01*
X78334286Y-50823390D02*
X78381905Y-50632914D01*
X78381905Y-50632914D02*
X78429524Y-50537676D01*
X78429524Y-50537676D02*
X78524762Y-50442438D01*
X78524762Y-50442438D02*
X78667619Y-50394819D01*
X78667619Y-50394819D02*
X78762857Y-50394819D01*
X78762857Y-50394819D02*
X78905714Y-50442438D01*
X78905714Y-50442438D02*
X78953333Y-50490057D01*
X79524762Y-50823390D02*
X79429524Y-50775771D01*
X79429524Y-50775771D02*
X79381905Y-50728152D01*
X79381905Y-50728152D02*
X79334286Y-50632914D01*
X79334286Y-50632914D02*
X79334286Y-50585295D01*
X79334286Y-50585295D02*
X79381905Y-50490057D01*
X79381905Y-50490057D02*
X79429524Y-50442438D01*
X79429524Y-50442438D02*
X79524762Y-50394819D01*
X79524762Y-50394819D02*
X79715238Y-50394819D01*
X79715238Y-50394819D02*
X79810476Y-50442438D01*
X79810476Y-50442438D02*
X79858095Y-50490057D01*
X79858095Y-50490057D02*
X79905714Y-50585295D01*
X79905714Y-50585295D02*
X79905714Y-50632914D01*
X79905714Y-50632914D02*
X79858095Y-50728152D01*
X79858095Y-50728152D02*
X79810476Y-50775771D01*
X79810476Y-50775771D02*
X79715238Y-50823390D01*
X79715238Y-50823390D02*
X79524762Y-50823390D01*
X79524762Y-50823390D02*
X79429524Y-50871009D01*
X79429524Y-50871009D02*
X79381905Y-50918628D01*
X79381905Y-50918628D02*
X79334286Y-51013866D01*
X79334286Y-51013866D02*
X79334286Y-51204342D01*
X79334286Y-51204342D02*
X79381905Y-51299580D01*
X79381905Y-51299580D02*
X79429524Y-51347200D01*
X79429524Y-51347200D02*
X79524762Y-51394819D01*
X79524762Y-51394819D02*
X79715238Y-51394819D01*
X79715238Y-51394819D02*
X79810476Y-51347200D01*
X79810476Y-51347200D02*
X79858095Y-51299580D01*
X79858095Y-51299580D02*
X79905714Y-51204342D01*
X79905714Y-51204342D02*
X79905714Y-51013866D01*
X79905714Y-51013866D02*
X79858095Y-50918628D01*
X79858095Y-50918628D02*
X79810476Y-50871009D01*
X79810476Y-50871009D02*
X79715238Y-50823390D01*
X111733333Y-43504819D02*
X111400000Y-43028628D01*
X111161905Y-43504819D02*
X111161905Y-42504819D01*
X111161905Y-42504819D02*
X111542857Y-42504819D01*
X111542857Y-42504819D02*
X111638095Y-42552438D01*
X111638095Y-42552438D02*
X111685714Y-42600057D01*
X111685714Y-42600057D02*
X111733333Y-42695295D01*
X111733333Y-42695295D02*
X111733333Y-42838152D01*
X111733333Y-42838152D02*
X111685714Y-42933390D01*
X111685714Y-42933390D02*
X111638095Y-42981009D01*
X111638095Y-42981009D02*
X111542857Y-43028628D01*
X111542857Y-43028628D02*
X111161905Y-43028628D01*
X112638095Y-42504819D02*
X112161905Y-42504819D01*
X112161905Y-42504819D02*
X112114286Y-42981009D01*
X112114286Y-42981009D02*
X112161905Y-42933390D01*
X112161905Y-42933390D02*
X112257143Y-42885771D01*
X112257143Y-42885771D02*
X112495238Y-42885771D01*
X112495238Y-42885771D02*
X112590476Y-42933390D01*
X112590476Y-42933390D02*
X112638095Y-42981009D01*
X112638095Y-42981009D02*
X112685714Y-43076247D01*
X112685714Y-43076247D02*
X112685714Y-43314342D01*
X112685714Y-43314342D02*
X112638095Y-43409580D01*
X112638095Y-43409580D02*
X112590476Y-43457200D01*
X112590476Y-43457200D02*
X112495238Y-43504819D01*
X112495238Y-43504819D02*
X112257143Y-43504819D01*
X112257143Y-43504819D02*
X112161905Y-43457200D01*
X112161905Y-43457200D02*
X112114286Y-43409580D01*
X107393333Y-56544819D02*
X107060000Y-56068628D01*
X106821905Y-56544819D02*
X106821905Y-55544819D01*
X106821905Y-55544819D02*
X107202857Y-55544819D01*
X107202857Y-55544819D02*
X107298095Y-55592438D01*
X107298095Y-55592438D02*
X107345714Y-55640057D01*
X107345714Y-55640057D02*
X107393333Y-55735295D01*
X107393333Y-55735295D02*
X107393333Y-55878152D01*
X107393333Y-55878152D02*
X107345714Y-55973390D01*
X107345714Y-55973390D02*
X107298095Y-56021009D01*
X107298095Y-56021009D02*
X107202857Y-56068628D01*
X107202857Y-56068628D02*
X106821905Y-56068628D01*
X107774286Y-55640057D02*
X107821905Y-55592438D01*
X107821905Y-55592438D02*
X107917143Y-55544819D01*
X107917143Y-55544819D02*
X108155238Y-55544819D01*
X108155238Y-55544819D02*
X108250476Y-55592438D01*
X108250476Y-55592438D02*
X108298095Y-55640057D01*
X108298095Y-55640057D02*
X108345714Y-55735295D01*
X108345714Y-55735295D02*
X108345714Y-55830533D01*
X108345714Y-55830533D02*
X108298095Y-55973390D01*
X108298095Y-55973390D02*
X107726667Y-56544819D01*
X107726667Y-56544819D02*
X108345714Y-56544819D01*
X57425695Y-52464619D02*
X57425695Y-53274142D01*
X57425695Y-53274142D02*
X57473314Y-53369380D01*
X57473314Y-53369380D02*
X57520933Y-53417000D01*
X57520933Y-53417000D02*
X57616171Y-53464619D01*
X57616171Y-53464619D02*
X57806647Y-53464619D01*
X57806647Y-53464619D02*
X57901885Y-53417000D01*
X57901885Y-53417000D02*
X57949504Y-53369380D01*
X57949504Y-53369380D02*
X57997123Y-53274142D01*
X57997123Y-53274142D02*
X57997123Y-52464619D01*
X58520933Y-53464619D02*
X58711409Y-53464619D01*
X58711409Y-53464619D02*
X58806647Y-53417000D01*
X58806647Y-53417000D02*
X58854266Y-53369380D01*
X58854266Y-53369380D02*
X58949504Y-53226523D01*
X58949504Y-53226523D02*
X58997123Y-53036047D01*
X58997123Y-53036047D02*
X58997123Y-52655095D01*
X58997123Y-52655095D02*
X58949504Y-52559857D01*
X58949504Y-52559857D02*
X58901885Y-52512238D01*
X58901885Y-52512238D02*
X58806647Y-52464619D01*
X58806647Y-52464619D02*
X58616171Y-52464619D01*
X58616171Y-52464619D02*
X58520933Y-52512238D01*
X58520933Y-52512238D02*
X58473314Y-52559857D01*
X58473314Y-52559857D02*
X58425695Y-52655095D01*
X58425695Y-52655095D02*
X58425695Y-52893190D01*
X58425695Y-52893190D02*
X58473314Y-52988428D01*
X58473314Y-52988428D02*
X58520933Y-53036047D01*
X58520933Y-53036047D02*
X58616171Y-53083666D01*
X58616171Y-53083666D02*
X58806647Y-53083666D01*
X58806647Y-53083666D02*
X58901885Y-53036047D01*
X58901885Y-53036047D02*
X58949504Y-52988428D01*
X58949504Y-52988428D02*
X58997123Y-52893190D01*
X81881742Y-42828380D02*
X81834123Y-42876000D01*
X81834123Y-42876000D02*
X81691266Y-42923619D01*
X81691266Y-42923619D02*
X81596028Y-42923619D01*
X81596028Y-42923619D02*
X81453171Y-42876000D01*
X81453171Y-42876000D02*
X81357933Y-42780761D01*
X81357933Y-42780761D02*
X81310314Y-42685523D01*
X81310314Y-42685523D02*
X81262695Y-42495047D01*
X81262695Y-42495047D02*
X81262695Y-42352190D01*
X81262695Y-42352190D02*
X81310314Y-42161714D01*
X81310314Y-42161714D02*
X81357933Y-42066476D01*
X81357933Y-42066476D02*
X81453171Y-41971238D01*
X81453171Y-41971238D02*
X81596028Y-41923619D01*
X81596028Y-41923619D02*
X81691266Y-41923619D01*
X81691266Y-41923619D02*
X81834123Y-41971238D01*
X81834123Y-41971238D02*
X81881742Y-42018857D01*
X82834123Y-42923619D02*
X82262695Y-42923619D01*
X82548409Y-42923619D02*
X82548409Y-41923619D01*
X82548409Y-41923619D02*
X82453171Y-42066476D01*
X82453171Y-42066476D02*
X82357933Y-42161714D01*
X82357933Y-42161714D02*
X82262695Y-42209333D01*
X83453171Y-41923619D02*
X83548409Y-41923619D01*
X83548409Y-41923619D02*
X83643647Y-41971238D01*
X83643647Y-41971238D02*
X83691266Y-42018857D01*
X83691266Y-42018857D02*
X83738885Y-42114095D01*
X83738885Y-42114095D02*
X83786504Y-42304571D01*
X83786504Y-42304571D02*
X83786504Y-42542666D01*
X83786504Y-42542666D02*
X83738885Y-42733142D01*
X83738885Y-42733142D02*
X83691266Y-42828380D01*
X83691266Y-42828380D02*
X83643647Y-42876000D01*
X83643647Y-42876000D02*
X83548409Y-42923619D01*
X83548409Y-42923619D02*
X83453171Y-42923619D01*
X83453171Y-42923619D02*
X83357933Y-42876000D01*
X83357933Y-42876000D02*
X83310314Y-42828380D01*
X83310314Y-42828380D02*
X83262695Y-42733142D01*
X83262695Y-42733142D02*
X83215076Y-42542666D01*
X83215076Y-42542666D02*
X83215076Y-42304571D01*
X83215076Y-42304571D02*
X83262695Y-42114095D01*
X83262695Y-42114095D02*
X83310314Y-42018857D01*
X83310314Y-42018857D02*
X83357933Y-41971238D01*
X83357933Y-41971238D02*
X83453171Y-41923619D01*
X107173733Y-43529419D02*
X106840400Y-43053228D01*
X106602305Y-43529419D02*
X106602305Y-42529419D01*
X106602305Y-42529419D02*
X106983257Y-42529419D01*
X106983257Y-42529419D02*
X107078495Y-42577038D01*
X107078495Y-42577038D02*
X107126114Y-42624657D01*
X107126114Y-42624657D02*
X107173733Y-42719895D01*
X107173733Y-42719895D02*
X107173733Y-42862752D01*
X107173733Y-42862752D02*
X107126114Y-42957990D01*
X107126114Y-42957990D02*
X107078495Y-43005609D01*
X107078495Y-43005609D02*
X106983257Y-43053228D01*
X106983257Y-43053228D02*
X106602305Y-43053228D01*
X108030876Y-42862752D02*
X108030876Y-43529419D01*
X107792781Y-42481800D02*
X107554686Y-43196085D01*
X107554686Y-43196085D02*
X108173733Y-43196085D01*
X69689742Y-43006180D02*
X69642123Y-43053800D01*
X69642123Y-43053800D02*
X69499266Y-43101419D01*
X69499266Y-43101419D02*
X69404028Y-43101419D01*
X69404028Y-43101419D02*
X69261171Y-43053800D01*
X69261171Y-43053800D02*
X69165933Y-42958561D01*
X69165933Y-42958561D02*
X69118314Y-42863323D01*
X69118314Y-42863323D02*
X69070695Y-42672847D01*
X69070695Y-42672847D02*
X69070695Y-42529990D01*
X69070695Y-42529990D02*
X69118314Y-42339514D01*
X69118314Y-42339514D02*
X69165933Y-42244276D01*
X69165933Y-42244276D02*
X69261171Y-42149038D01*
X69261171Y-42149038D02*
X69404028Y-42101419D01*
X69404028Y-42101419D02*
X69499266Y-42101419D01*
X69499266Y-42101419D02*
X69642123Y-42149038D01*
X69642123Y-42149038D02*
X69689742Y-42196657D01*
X70642123Y-43101419D02*
X70070695Y-43101419D01*
X70356409Y-43101419D02*
X70356409Y-42101419D01*
X70356409Y-42101419D02*
X70261171Y-42244276D01*
X70261171Y-42244276D02*
X70165933Y-42339514D01*
X70165933Y-42339514D02*
X70070695Y-42387133D01*
X70975457Y-42101419D02*
X71642123Y-42101419D01*
X71642123Y-42101419D02*
X71213552Y-43101419D01*
X63137142Y-49144819D02*
X62803809Y-48668628D01*
X62565714Y-49144819D02*
X62565714Y-48144819D01*
X62565714Y-48144819D02*
X62946666Y-48144819D01*
X62946666Y-48144819D02*
X63041904Y-48192438D01*
X63041904Y-48192438D02*
X63089523Y-48240057D01*
X63089523Y-48240057D02*
X63137142Y-48335295D01*
X63137142Y-48335295D02*
X63137142Y-48478152D01*
X63137142Y-48478152D02*
X63089523Y-48573390D01*
X63089523Y-48573390D02*
X63041904Y-48621009D01*
X63041904Y-48621009D02*
X62946666Y-48668628D01*
X62946666Y-48668628D02*
X62565714Y-48668628D01*
X64089523Y-49144819D02*
X63518095Y-49144819D01*
X63803809Y-49144819D02*
X63803809Y-48144819D01*
X63803809Y-48144819D02*
X63708571Y-48287676D01*
X63708571Y-48287676D02*
X63613333Y-48382914D01*
X63613333Y-48382914D02*
X63518095Y-48430533D01*
X64946666Y-48478152D02*
X64946666Y-49144819D01*
X64708571Y-48097200D02*
X64470476Y-48811485D01*
X64470476Y-48811485D02*
X65089523Y-48811485D01*
X107645295Y-67679219D02*
X107645295Y-68488742D01*
X107645295Y-68488742D02*
X107692914Y-68583980D01*
X107692914Y-68583980D02*
X107740533Y-68631600D01*
X107740533Y-68631600D02*
X107835771Y-68679219D01*
X107835771Y-68679219D02*
X108026247Y-68679219D01*
X108026247Y-68679219D02*
X108121485Y-68631600D01*
X108121485Y-68631600D02*
X108169104Y-68583980D01*
X108169104Y-68583980D02*
X108216723Y-68488742D01*
X108216723Y-68488742D02*
X108216723Y-67679219D01*
X109216723Y-68679219D02*
X108645295Y-68679219D01*
X108931009Y-68679219D02*
X108931009Y-67679219D01*
X108931009Y-67679219D02*
X108835771Y-67822076D01*
X108835771Y-67822076D02*
X108740533Y-67917314D01*
X108740533Y-67917314D02*
X108645295Y-67964933D01*
X60361905Y-58504819D02*
X60361905Y-59314342D01*
X60361905Y-59314342D02*
X60409524Y-59409580D01*
X60409524Y-59409580D02*
X60457143Y-59457200D01*
X60457143Y-59457200D02*
X60552381Y-59504819D01*
X60552381Y-59504819D02*
X60742857Y-59504819D01*
X60742857Y-59504819D02*
X60838095Y-59457200D01*
X60838095Y-59457200D02*
X60885714Y-59409580D01*
X60885714Y-59409580D02*
X60933333Y-59314342D01*
X60933333Y-59314342D02*
X60933333Y-58504819D01*
X61933333Y-59504819D02*
X61361905Y-59504819D01*
X61647619Y-59504819D02*
X61647619Y-58504819D01*
X61647619Y-58504819D02*
X61552381Y-58647676D01*
X61552381Y-58647676D02*
X61457143Y-58742914D01*
X61457143Y-58742914D02*
X61361905Y-58790533D01*
X62552381Y-58504819D02*
X62647619Y-58504819D01*
X62647619Y-58504819D02*
X62742857Y-58552438D01*
X62742857Y-58552438D02*
X62790476Y-58600057D01*
X62790476Y-58600057D02*
X62838095Y-58695295D01*
X62838095Y-58695295D02*
X62885714Y-58885771D01*
X62885714Y-58885771D02*
X62885714Y-59123866D01*
X62885714Y-59123866D02*
X62838095Y-59314342D01*
X62838095Y-59314342D02*
X62790476Y-59409580D01*
X62790476Y-59409580D02*
X62742857Y-59457200D01*
X62742857Y-59457200D02*
X62647619Y-59504819D01*
X62647619Y-59504819D02*
X62552381Y-59504819D01*
X62552381Y-59504819D02*
X62457143Y-59457200D01*
X62457143Y-59457200D02*
X62409524Y-59409580D01*
X62409524Y-59409580D02*
X62361905Y-59314342D01*
X62361905Y-59314342D02*
X62314286Y-59123866D01*
X62314286Y-59123866D02*
X62314286Y-58885771D01*
X62314286Y-58885771D02*
X62361905Y-58695295D01*
X62361905Y-58695295D02*
X62409524Y-58600057D01*
X62409524Y-58600057D02*
X62457143Y-58552438D01*
X62457143Y-58552438D02*
X62552381Y-58504819D01*
X92184761Y-71530057D02*
X92089523Y-71482438D01*
X92089523Y-71482438D02*
X91994285Y-71387200D01*
X91994285Y-71387200D02*
X91851428Y-71244342D01*
X91851428Y-71244342D02*
X91756190Y-71196723D01*
X91756190Y-71196723D02*
X91660952Y-71196723D01*
X91708571Y-71434819D02*
X91613333Y-71387200D01*
X91613333Y-71387200D02*
X91518095Y-71291961D01*
X91518095Y-71291961D02*
X91470476Y-71101485D01*
X91470476Y-71101485D02*
X91470476Y-70768152D01*
X91470476Y-70768152D02*
X91518095Y-70577676D01*
X91518095Y-70577676D02*
X91613333Y-70482438D01*
X91613333Y-70482438D02*
X91708571Y-70434819D01*
X91708571Y-70434819D02*
X91899047Y-70434819D01*
X91899047Y-70434819D02*
X91994285Y-70482438D01*
X91994285Y-70482438D02*
X92089523Y-70577676D01*
X92089523Y-70577676D02*
X92137142Y-70768152D01*
X92137142Y-70768152D02*
X92137142Y-71101485D01*
X92137142Y-71101485D02*
X92089523Y-71291961D01*
X92089523Y-71291961D02*
X91994285Y-71387200D01*
X91994285Y-71387200D02*
X91899047Y-71434819D01*
X91899047Y-71434819D02*
X91708571Y-71434819D01*
X92470476Y-70434819D02*
X93089523Y-70434819D01*
X93089523Y-70434819D02*
X92756190Y-70815771D01*
X92756190Y-70815771D02*
X92899047Y-70815771D01*
X92899047Y-70815771D02*
X92994285Y-70863390D01*
X92994285Y-70863390D02*
X93041904Y-70911009D01*
X93041904Y-70911009D02*
X93089523Y-71006247D01*
X93089523Y-71006247D02*
X93089523Y-71244342D01*
X93089523Y-71244342D02*
X93041904Y-71339580D01*
X93041904Y-71339580D02*
X92994285Y-71387200D01*
X92994285Y-71387200D02*
X92899047Y-71434819D01*
X92899047Y-71434819D02*
X92613333Y-71434819D01*
X92613333Y-71434819D02*
X92518095Y-71387200D01*
X92518095Y-71387200D02*
X92470476Y-71339580D01*
X78863333Y-45469580D02*
X78815714Y-45517200D01*
X78815714Y-45517200D02*
X78672857Y-45564819D01*
X78672857Y-45564819D02*
X78577619Y-45564819D01*
X78577619Y-45564819D02*
X78434762Y-45517200D01*
X78434762Y-45517200D02*
X78339524Y-45421961D01*
X78339524Y-45421961D02*
X78291905Y-45326723D01*
X78291905Y-45326723D02*
X78244286Y-45136247D01*
X78244286Y-45136247D02*
X78244286Y-44993390D01*
X78244286Y-44993390D02*
X78291905Y-44802914D01*
X78291905Y-44802914D02*
X78339524Y-44707676D01*
X78339524Y-44707676D02*
X78434762Y-44612438D01*
X78434762Y-44612438D02*
X78577619Y-44564819D01*
X78577619Y-44564819D02*
X78672857Y-44564819D01*
X78672857Y-44564819D02*
X78815714Y-44612438D01*
X78815714Y-44612438D02*
X78863333Y-44660057D01*
X79339524Y-45564819D02*
X79530000Y-45564819D01*
X79530000Y-45564819D02*
X79625238Y-45517200D01*
X79625238Y-45517200D02*
X79672857Y-45469580D01*
X79672857Y-45469580D02*
X79768095Y-45326723D01*
X79768095Y-45326723D02*
X79815714Y-45136247D01*
X79815714Y-45136247D02*
X79815714Y-44755295D01*
X79815714Y-44755295D02*
X79768095Y-44660057D01*
X79768095Y-44660057D02*
X79720476Y-44612438D01*
X79720476Y-44612438D02*
X79625238Y-44564819D01*
X79625238Y-44564819D02*
X79434762Y-44564819D01*
X79434762Y-44564819D02*
X79339524Y-44612438D01*
X79339524Y-44612438D02*
X79291905Y-44660057D01*
X79291905Y-44660057D02*
X79244286Y-44755295D01*
X79244286Y-44755295D02*
X79244286Y-44993390D01*
X79244286Y-44993390D02*
X79291905Y-45088628D01*
X79291905Y-45088628D02*
X79339524Y-45136247D01*
X79339524Y-45136247D02*
X79434762Y-45183866D01*
X79434762Y-45183866D02*
X79625238Y-45183866D01*
X79625238Y-45183866D02*
X79720476Y-45136247D01*
X79720476Y-45136247D02*
X79768095Y-45088628D01*
X79768095Y-45088628D02*
X79815714Y-44993390D01*
X72627142Y-51574819D02*
X72293809Y-51098628D01*
X72055714Y-51574819D02*
X72055714Y-50574819D01*
X72055714Y-50574819D02*
X72436666Y-50574819D01*
X72436666Y-50574819D02*
X72531904Y-50622438D01*
X72531904Y-50622438D02*
X72579523Y-50670057D01*
X72579523Y-50670057D02*
X72627142Y-50765295D01*
X72627142Y-50765295D02*
X72627142Y-50908152D01*
X72627142Y-50908152D02*
X72579523Y-51003390D01*
X72579523Y-51003390D02*
X72531904Y-51051009D01*
X72531904Y-51051009D02*
X72436666Y-51098628D01*
X72436666Y-51098628D02*
X72055714Y-51098628D01*
X73579523Y-51574819D02*
X73008095Y-51574819D01*
X73293809Y-51574819D02*
X73293809Y-50574819D01*
X73293809Y-50574819D02*
X73198571Y-50717676D01*
X73198571Y-50717676D02*
X73103333Y-50812914D01*
X73103333Y-50812914D02*
X73008095Y-50860533D01*
X73912857Y-50574819D02*
X74579523Y-50574819D01*
X74579523Y-50574819D02*
X74150952Y-51574819D01*
X65367142Y-50159580D02*
X65319523Y-50207200D01*
X65319523Y-50207200D02*
X65176666Y-50254819D01*
X65176666Y-50254819D02*
X65081428Y-50254819D01*
X65081428Y-50254819D02*
X64938571Y-50207200D01*
X64938571Y-50207200D02*
X64843333Y-50111961D01*
X64843333Y-50111961D02*
X64795714Y-50016723D01*
X64795714Y-50016723D02*
X64748095Y-49826247D01*
X64748095Y-49826247D02*
X64748095Y-49683390D01*
X64748095Y-49683390D02*
X64795714Y-49492914D01*
X64795714Y-49492914D02*
X64843333Y-49397676D01*
X64843333Y-49397676D02*
X64938571Y-49302438D01*
X64938571Y-49302438D02*
X65081428Y-49254819D01*
X65081428Y-49254819D02*
X65176666Y-49254819D01*
X65176666Y-49254819D02*
X65319523Y-49302438D01*
X65319523Y-49302438D02*
X65367142Y-49350057D01*
X65748095Y-49350057D02*
X65795714Y-49302438D01*
X65795714Y-49302438D02*
X65890952Y-49254819D01*
X65890952Y-49254819D02*
X66129047Y-49254819D01*
X66129047Y-49254819D02*
X66224285Y-49302438D01*
X66224285Y-49302438D02*
X66271904Y-49350057D01*
X66271904Y-49350057D02*
X66319523Y-49445295D01*
X66319523Y-49445295D02*
X66319523Y-49540533D01*
X66319523Y-49540533D02*
X66271904Y-49683390D01*
X66271904Y-49683390D02*
X65700476Y-50254819D01*
X65700476Y-50254819D02*
X66319523Y-50254819D01*
X67176666Y-49254819D02*
X66986190Y-49254819D01*
X66986190Y-49254819D02*
X66890952Y-49302438D01*
X66890952Y-49302438D02*
X66843333Y-49350057D01*
X66843333Y-49350057D02*
X66748095Y-49492914D01*
X66748095Y-49492914D02*
X66700476Y-49683390D01*
X66700476Y-49683390D02*
X66700476Y-50064342D01*
X66700476Y-50064342D02*
X66748095Y-50159580D01*
X66748095Y-50159580D02*
X66795714Y-50207200D01*
X66795714Y-50207200D02*
X66890952Y-50254819D01*
X66890952Y-50254819D02*
X67081428Y-50254819D01*
X67081428Y-50254819D02*
X67176666Y-50207200D01*
X67176666Y-50207200D02*
X67224285Y-50159580D01*
X67224285Y-50159580D02*
X67271904Y-50064342D01*
X67271904Y-50064342D02*
X67271904Y-49826247D01*
X67271904Y-49826247D02*
X67224285Y-49731009D01*
X67224285Y-49731009D02*
X67176666Y-49683390D01*
X67176666Y-49683390D02*
X67081428Y-49635771D01*
X67081428Y-49635771D02*
X66890952Y-49635771D01*
X66890952Y-49635771D02*
X66795714Y-49683390D01*
X66795714Y-49683390D02*
X66748095Y-49731009D01*
X66748095Y-49731009D02*
X66700476Y-49826247D01*
X78903533Y-53464619D02*
X78570200Y-52988428D01*
X78332105Y-53464619D02*
X78332105Y-52464619D01*
X78332105Y-52464619D02*
X78713057Y-52464619D01*
X78713057Y-52464619D02*
X78808295Y-52512238D01*
X78808295Y-52512238D02*
X78855914Y-52559857D01*
X78855914Y-52559857D02*
X78903533Y-52655095D01*
X78903533Y-52655095D02*
X78903533Y-52797952D01*
X78903533Y-52797952D02*
X78855914Y-52893190D01*
X78855914Y-52893190D02*
X78808295Y-52940809D01*
X78808295Y-52940809D02*
X78713057Y-52988428D01*
X78713057Y-52988428D02*
X78332105Y-52988428D01*
X79236867Y-52464619D02*
X79903533Y-52464619D01*
X79903533Y-52464619D02*
X79474962Y-53464619D01*
X97547142Y-64269580D02*
X97499523Y-64317200D01*
X97499523Y-64317200D02*
X97356666Y-64364819D01*
X97356666Y-64364819D02*
X97261428Y-64364819D01*
X97261428Y-64364819D02*
X97118571Y-64317200D01*
X97118571Y-64317200D02*
X97023333Y-64221961D01*
X97023333Y-64221961D02*
X96975714Y-64126723D01*
X96975714Y-64126723D02*
X96928095Y-63936247D01*
X96928095Y-63936247D02*
X96928095Y-63793390D01*
X96928095Y-63793390D02*
X96975714Y-63602914D01*
X96975714Y-63602914D02*
X97023333Y-63507676D01*
X97023333Y-63507676D02*
X97118571Y-63412438D01*
X97118571Y-63412438D02*
X97261428Y-63364819D01*
X97261428Y-63364819D02*
X97356666Y-63364819D01*
X97356666Y-63364819D02*
X97499523Y-63412438D01*
X97499523Y-63412438D02*
X97547142Y-63460057D01*
X98499523Y-64364819D02*
X97928095Y-64364819D01*
X98213809Y-64364819D02*
X98213809Y-63364819D01*
X98213809Y-63364819D02*
X98118571Y-63507676D01*
X98118571Y-63507676D02*
X98023333Y-63602914D01*
X98023333Y-63602914D02*
X97928095Y-63650533D01*
X99451904Y-64364819D02*
X98880476Y-64364819D01*
X99166190Y-64364819D02*
X99166190Y-63364819D01*
X99166190Y-63364819D02*
X99070952Y-63507676D01*
X99070952Y-63507676D02*
X98975714Y-63602914D01*
X98975714Y-63602914D02*
X98880476Y-63650533D01*
X52201905Y-63964819D02*
X52201905Y-62964819D01*
X52201905Y-62964819D02*
X52440000Y-62964819D01*
X52440000Y-62964819D02*
X52582857Y-63012438D01*
X52582857Y-63012438D02*
X52678095Y-63107676D01*
X52678095Y-63107676D02*
X52725714Y-63202914D01*
X52725714Y-63202914D02*
X52773333Y-63393390D01*
X52773333Y-63393390D02*
X52773333Y-63536247D01*
X52773333Y-63536247D02*
X52725714Y-63726723D01*
X52725714Y-63726723D02*
X52678095Y-63821961D01*
X52678095Y-63821961D02*
X52582857Y-63917200D01*
X52582857Y-63917200D02*
X52440000Y-63964819D01*
X52440000Y-63964819D02*
X52201905Y-63964819D01*
X53154286Y-63060057D02*
X53201905Y-63012438D01*
X53201905Y-63012438D02*
X53297143Y-62964819D01*
X53297143Y-62964819D02*
X53535238Y-62964819D01*
X53535238Y-62964819D02*
X53630476Y-63012438D01*
X53630476Y-63012438D02*
X53678095Y-63060057D01*
X53678095Y-63060057D02*
X53725714Y-63155295D01*
X53725714Y-63155295D02*
X53725714Y-63250533D01*
X53725714Y-63250533D02*
X53678095Y-63393390D01*
X53678095Y-63393390D02*
X53106667Y-63964819D01*
X53106667Y-63964819D02*
X53725714Y-63964819D01*
X91974819Y-69552857D02*
X91498628Y-69886190D01*
X91974819Y-70124285D02*
X90974819Y-70124285D01*
X90974819Y-70124285D02*
X90974819Y-69743333D01*
X90974819Y-69743333D02*
X91022438Y-69648095D01*
X91022438Y-69648095D02*
X91070057Y-69600476D01*
X91070057Y-69600476D02*
X91165295Y-69552857D01*
X91165295Y-69552857D02*
X91308152Y-69552857D01*
X91308152Y-69552857D02*
X91403390Y-69600476D01*
X91403390Y-69600476D02*
X91451009Y-69648095D01*
X91451009Y-69648095D02*
X91498628Y-69743333D01*
X91498628Y-69743333D02*
X91498628Y-70124285D01*
X91070057Y-69171904D02*
X91022438Y-69124285D01*
X91022438Y-69124285D02*
X90974819Y-69029047D01*
X90974819Y-69029047D02*
X90974819Y-68790952D01*
X90974819Y-68790952D02*
X91022438Y-68695714D01*
X91022438Y-68695714D02*
X91070057Y-68648095D01*
X91070057Y-68648095D02*
X91165295Y-68600476D01*
X91165295Y-68600476D02*
X91260533Y-68600476D01*
X91260533Y-68600476D02*
X91403390Y-68648095D01*
X91403390Y-68648095D02*
X91974819Y-69219523D01*
X91974819Y-69219523D02*
X91974819Y-68600476D01*
X91974819Y-67648095D02*
X91974819Y-68219523D01*
X91974819Y-67933809D02*
X90974819Y-67933809D01*
X90974819Y-67933809D02*
X91117676Y-68029047D01*
X91117676Y-68029047D02*
X91212914Y-68124285D01*
X91212914Y-68124285D02*
X91260533Y-68219523D01*
X53918095Y-34364819D02*
X53918095Y-35174342D01*
X53918095Y-35174342D02*
X53965714Y-35269580D01*
X53965714Y-35269580D02*
X54013333Y-35317200D01*
X54013333Y-35317200D02*
X54108571Y-35364819D01*
X54108571Y-35364819D02*
X54299047Y-35364819D01*
X54299047Y-35364819D02*
X54394285Y-35317200D01*
X54394285Y-35317200D02*
X54441904Y-35269580D01*
X54441904Y-35269580D02*
X54489523Y-35174342D01*
X54489523Y-35174342D02*
X54489523Y-34364819D01*
X54870476Y-34364819D02*
X55537142Y-34364819D01*
X55537142Y-34364819D02*
X55108571Y-35364819D01*
X60307142Y-74919580D02*
X60259523Y-74967200D01*
X60259523Y-74967200D02*
X60116666Y-75014819D01*
X60116666Y-75014819D02*
X60021428Y-75014819D01*
X60021428Y-75014819D02*
X59878571Y-74967200D01*
X59878571Y-74967200D02*
X59783333Y-74871961D01*
X59783333Y-74871961D02*
X59735714Y-74776723D01*
X59735714Y-74776723D02*
X59688095Y-74586247D01*
X59688095Y-74586247D02*
X59688095Y-74443390D01*
X59688095Y-74443390D02*
X59735714Y-74252914D01*
X59735714Y-74252914D02*
X59783333Y-74157676D01*
X59783333Y-74157676D02*
X59878571Y-74062438D01*
X59878571Y-74062438D02*
X60021428Y-74014819D01*
X60021428Y-74014819D02*
X60116666Y-74014819D01*
X60116666Y-74014819D02*
X60259523Y-74062438D01*
X60259523Y-74062438D02*
X60307142Y-74110057D01*
X60688095Y-74110057D02*
X60735714Y-74062438D01*
X60735714Y-74062438D02*
X60830952Y-74014819D01*
X60830952Y-74014819D02*
X61069047Y-74014819D01*
X61069047Y-74014819D02*
X61164285Y-74062438D01*
X61164285Y-74062438D02*
X61211904Y-74110057D01*
X61211904Y-74110057D02*
X61259523Y-74205295D01*
X61259523Y-74205295D02*
X61259523Y-74300533D01*
X61259523Y-74300533D02*
X61211904Y-74443390D01*
X61211904Y-74443390D02*
X60640476Y-75014819D01*
X60640476Y-75014819D02*
X61259523Y-75014819D01*
X62116666Y-74348152D02*
X62116666Y-75014819D01*
X61878571Y-73967200D02*
X61640476Y-74681485D01*
X61640476Y-74681485D02*
X62259523Y-74681485D01*
X60107533Y-40186780D02*
X60059914Y-40234400D01*
X60059914Y-40234400D02*
X59917057Y-40282019D01*
X59917057Y-40282019D02*
X59821819Y-40282019D01*
X59821819Y-40282019D02*
X59678962Y-40234400D01*
X59678962Y-40234400D02*
X59583724Y-40139161D01*
X59583724Y-40139161D02*
X59536105Y-40043923D01*
X59536105Y-40043923D02*
X59488486Y-39853447D01*
X59488486Y-39853447D02*
X59488486Y-39710590D01*
X59488486Y-39710590D02*
X59536105Y-39520114D01*
X59536105Y-39520114D02*
X59583724Y-39424876D01*
X59583724Y-39424876D02*
X59678962Y-39329638D01*
X59678962Y-39329638D02*
X59821819Y-39282019D01*
X59821819Y-39282019D02*
X59917057Y-39282019D01*
X59917057Y-39282019D02*
X60059914Y-39329638D01*
X60059914Y-39329638D02*
X60107533Y-39377257D01*
X60488486Y-39377257D02*
X60536105Y-39329638D01*
X60536105Y-39329638D02*
X60631343Y-39282019D01*
X60631343Y-39282019D02*
X60869438Y-39282019D01*
X60869438Y-39282019D02*
X60964676Y-39329638D01*
X60964676Y-39329638D02*
X61012295Y-39377257D01*
X61012295Y-39377257D02*
X61059914Y-39472495D01*
X61059914Y-39472495D02*
X61059914Y-39567733D01*
X61059914Y-39567733D02*
X61012295Y-39710590D01*
X61012295Y-39710590D02*
X60440867Y-40282019D01*
X60440867Y-40282019D02*
X61059914Y-40282019D01*
X52788333Y-62494819D02*
X52455000Y-62018628D01*
X52216905Y-62494819D02*
X52216905Y-61494819D01*
X52216905Y-61494819D02*
X52597857Y-61494819D01*
X52597857Y-61494819D02*
X52693095Y-61542438D01*
X52693095Y-61542438D02*
X52740714Y-61590057D01*
X52740714Y-61590057D02*
X52788333Y-61685295D01*
X52788333Y-61685295D02*
X52788333Y-61828152D01*
X52788333Y-61828152D02*
X52740714Y-61923390D01*
X52740714Y-61923390D02*
X52693095Y-61971009D01*
X52693095Y-61971009D02*
X52597857Y-62018628D01*
X52597857Y-62018628D02*
X52216905Y-62018628D01*
X53740714Y-62494819D02*
X53169286Y-62494819D01*
X53455000Y-62494819D02*
X53455000Y-61494819D01*
X53455000Y-61494819D02*
X53359762Y-61637676D01*
X53359762Y-61637676D02*
X53264524Y-61732914D01*
X53264524Y-61732914D02*
X53169286Y-61780533D01*
X60270742Y-48464819D02*
X59937409Y-47988628D01*
X59699314Y-48464819D02*
X59699314Y-47464819D01*
X59699314Y-47464819D02*
X60080266Y-47464819D01*
X60080266Y-47464819D02*
X60175504Y-47512438D01*
X60175504Y-47512438D02*
X60223123Y-47560057D01*
X60223123Y-47560057D02*
X60270742Y-47655295D01*
X60270742Y-47655295D02*
X60270742Y-47798152D01*
X60270742Y-47798152D02*
X60223123Y-47893390D01*
X60223123Y-47893390D02*
X60175504Y-47941009D01*
X60175504Y-47941009D02*
X60080266Y-47988628D01*
X60080266Y-47988628D02*
X59699314Y-47988628D01*
X61223123Y-48464819D02*
X60651695Y-48464819D01*
X60937409Y-48464819D02*
X60937409Y-47464819D01*
X60937409Y-47464819D02*
X60842171Y-47607676D01*
X60842171Y-47607676D02*
X60746933Y-47702914D01*
X60746933Y-47702914D02*
X60651695Y-47750533D01*
X61794552Y-47893390D02*
X61699314Y-47845771D01*
X61699314Y-47845771D02*
X61651695Y-47798152D01*
X61651695Y-47798152D02*
X61604076Y-47702914D01*
X61604076Y-47702914D02*
X61604076Y-47655295D01*
X61604076Y-47655295D02*
X61651695Y-47560057D01*
X61651695Y-47560057D02*
X61699314Y-47512438D01*
X61699314Y-47512438D02*
X61794552Y-47464819D01*
X61794552Y-47464819D02*
X61985028Y-47464819D01*
X61985028Y-47464819D02*
X62080266Y-47512438D01*
X62080266Y-47512438D02*
X62127885Y-47560057D01*
X62127885Y-47560057D02*
X62175504Y-47655295D01*
X62175504Y-47655295D02*
X62175504Y-47702914D01*
X62175504Y-47702914D02*
X62127885Y-47798152D01*
X62127885Y-47798152D02*
X62080266Y-47845771D01*
X62080266Y-47845771D02*
X61985028Y-47893390D01*
X61985028Y-47893390D02*
X61794552Y-47893390D01*
X61794552Y-47893390D02*
X61699314Y-47941009D01*
X61699314Y-47941009D02*
X61651695Y-47988628D01*
X61651695Y-47988628D02*
X61604076Y-48083866D01*
X61604076Y-48083866D02*
X61604076Y-48274342D01*
X61604076Y-48274342D02*
X61651695Y-48369580D01*
X61651695Y-48369580D02*
X61699314Y-48417200D01*
X61699314Y-48417200D02*
X61794552Y-48464819D01*
X61794552Y-48464819D02*
X61985028Y-48464819D01*
X61985028Y-48464819D02*
X62080266Y-48417200D01*
X62080266Y-48417200D02*
X62127885Y-48369580D01*
X62127885Y-48369580D02*
X62175504Y-48274342D01*
X62175504Y-48274342D02*
X62175504Y-48083866D01*
X62175504Y-48083866D02*
X62127885Y-47988628D01*
X62127885Y-47988628D02*
X62080266Y-47941009D01*
X62080266Y-47941009D02*
X61985028Y-47893390D01*
X63878095Y-54684819D02*
X63878095Y-55494342D01*
X63878095Y-55494342D02*
X63925714Y-55589580D01*
X63925714Y-55589580D02*
X63973333Y-55637200D01*
X63973333Y-55637200D02*
X64068571Y-55684819D01*
X64068571Y-55684819D02*
X64259047Y-55684819D01*
X64259047Y-55684819D02*
X64354285Y-55637200D01*
X64354285Y-55637200D02*
X64401904Y-55589580D01*
X64401904Y-55589580D02*
X64449523Y-55494342D01*
X64449523Y-55494342D02*
X64449523Y-54684819D01*
X65068571Y-55113390D02*
X64973333Y-55065771D01*
X64973333Y-55065771D02*
X64925714Y-55018152D01*
X64925714Y-55018152D02*
X64878095Y-54922914D01*
X64878095Y-54922914D02*
X64878095Y-54875295D01*
X64878095Y-54875295D02*
X64925714Y-54780057D01*
X64925714Y-54780057D02*
X64973333Y-54732438D01*
X64973333Y-54732438D02*
X65068571Y-54684819D01*
X65068571Y-54684819D02*
X65259047Y-54684819D01*
X65259047Y-54684819D02*
X65354285Y-54732438D01*
X65354285Y-54732438D02*
X65401904Y-54780057D01*
X65401904Y-54780057D02*
X65449523Y-54875295D01*
X65449523Y-54875295D02*
X65449523Y-54922914D01*
X65449523Y-54922914D02*
X65401904Y-55018152D01*
X65401904Y-55018152D02*
X65354285Y-55065771D01*
X65354285Y-55065771D02*
X65259047Y-55113390D01*
X65259047Y-55113390D02*
X65068571Y-55113390D01*
X65068571Y-55113390D02*
X64973333Y-55161009D01*
X64973333Y-55161009D02*
X64925714Y-55208628D01*
X64925714Y-55208628D02*
X64878095Y-55303866D01*
X64878095Y-55303866D02*
X64878095Y-55494342D01*
X64878095Y-55494342D02*
X64925714Y-55589580D01*
X64925714Y-55589580D02*
X64973333Y-55637200D01*
X64973333Y-55637200D02*
X65068571Y-55684819D01*
X65068571Y-55684819D02*
X65259047Y-55684819D01*
X65259047Y-55684819D02*
X65354285Y-55637200D01*
X65354285Y-55637200D02*
X65401904Y-55589580D01*
X65401904Y-55589580D02*
X65449523Y-55494342D01*
X65449523Y-55494342D02*
X65449523Y-55303866D01*
X65449523Y-55303866D02*
X65401904Y-55208628D01*
X65401904Y-55208628D02*
X65354285Y-55161009D01*
X65354285Y-55161009D02*
X65259047Y-55113390D01*
X78878133Y-48410019D02*
X78544800Y-47933828D01*
X78306705Y-48410019D02*
X78306705Y-47410019D01*
X78306705Y-47410019D02*
X78687657Y-47410019D01*
X78687657Y-47410019D02*
X78782895Y-47457638D01*
X78782895Y-47457638D02*
X78830514Y-47505257D01*
X78830514Y-47505257D02*
X78878133Y-47600495D01*
X78878133Y-47600495D02*
X78878133Y-47743352D01*
X78878133Y-47743352D02*
X78830514Y-47838590D01*
X78830514Y-47838590D02*
X78782895Y-47886209D01*
X78782895Y-47886209D02*
X78687657Y-47933828D01*
X78687657Y-47933828D02*
X78306705Y-47933828D01*
X79211467Y-47410019D02*
X79830514Y-47410019D01*
X79830514Y-47410019D02*
X79497181Y-47790971D01*
X79497181Y-47790971D02*
X79640038Y-47790971D01*
X79640038Y-47790971D02*
X79735276Y-47838590D01*
X79735276Y-47838590D02*
X79782895Y-47886209D01*
X79782895Y-47886209D02*
X79830514Y-47981447D01*
X79830514Y-47981447D02*
X79830514Y-48219542D01*
X79830514Y-48219542D02*
X79782895Y-48314780D01*
X79782895Y-48314780D02*
X79735276Y-48362400D01*
X79735276Y-48362400D02*
X79640038Y-48410019D01*
X79640038Y-48410019D02*
X79354324Y-48410019D01*
X79354324Y-48410019D02*
X79259086Y-48362400D01*
X79259086Y-48362400D02*
X79211467Y-48314780D01*
D14*
X16783333Y-34096704D02*
X17259523Y-34096704D01*
X16688095Y-34382419D02*
X17021428Y-33382419D01*
X17021428Y-33382419D02*
X17354761Y-34382419D01*
X17688095Y-33858609D02*
X18021428Y-33858609D01*
X18164285Y-34382419D02*
X17688095Y-34382419D01*
X17688095Y-34382419D02*
X17688095Y-33382419D01*
X17688095Y-33382419D02*
X18164285Y-33382419D01*
X19116666Y-34382419D02*
X18545238Y-34382419D01*
X18830952Y-34382419D02*
X18830952Y-33382419D01*
X18830952Y-33382419D02*
X18735714Y-33525276D01*
X18735714Y-33525276D02*
X18640476Y-33620514D01*
X18640476Y-33620514D02*
X18545238Y-33668133D01*
D10*
X15239160Y-45009104D02*
X15715350Y-45009104D01*
X15143922Y-45294819D02*
X15477255Y-44294819D01*
X15477255Y-44294819D02*
X15810588Y-45294819D01*
X16143922Y-45294819D02*
X16143922Y-44294819D01*
X16143922Y-44294819D02*
X16715350Y-45294819D01*
X16715350Y-45294819D02*
X16715350Y-44294819D01*
X17048684Y-44294819D02*
X17620112Y-44294819D01*
X17334398Y-45294819D02*
X17334398Y-44294819D01*
X17953446Y-44771009D02*
X18286779Y-44771009D01*
X18429636Y-45294819D02*
X17953446Y-45294819D01*
X17953446Y-45294819D02*
X17953446Y-44294819D01*
X17953446Y-44294819D02*
X18429636Y-44294819D01*
X18858208Y-45294819D02*
X18858208Y-44294819D01*
X18858208Y-44294819D02*
X19429636Y-45294819D01*
X19429636Y-45294819D02*
X19429636Y-44294819D01*
X19905827Y-45294819D02*
X19905827Y-44294819D01*
X19905827Y-44294819D02*
X20477255Y-45294819D01*
X20477255Y-45294819D02*
X20477255Y-44294819D01*
X20905827Y-45009104D02*
X21382017Y-45009104D01*
X20810589Y-45294819D02*
X21143922Y-44294819D01*
X21143922Y-44294819D02*
X21477255Y-45294819D01*
X91984819Y-66682857D02*
X91508628Y-67016190D01*
X91984819Y-67254285D02*
X90984819Y-67254285D01*
X90984819Y-67254285D02*
X90984819Y-66873333D01*
X90984819Y-66873333D02*
X91032438Y-66778095D01*
X91032438Y-66778095D02*
X91080057Y-66730476D01*
X91080057Y-66730476D02*
X91175295Y-66682857D01*
X91175295Y-66682857D02*
X91318152Y-66682857D01*
X91318152Y-66682857D02*
X91413390Y-66730476D01*
X91413390Y-66730476D02*
X91461009Y-66778095D01*
X91461009Y-66778095D02*
X91508628Y-66873333D01*
X91508628Y-66873333D02*
X91508628Y-67254285D01*
X91080057Y-66301904D02*
X91032438Y-66254285D01*
X91032438Y-66254285D02*
X90984819Y-66159047D01*
X90984819Y-66159047D02*
X90984819Y-65920952D01*
X90984819Y-65920952D02*
X91032438Y-65825714D01*
X91032438Y-65825714D02*
X91080057Y-65778095D01*
X91080057Y-65778095D02*
X91175295Y-65730476D01*
X91175295Y-65730476D02*
X91270533Y-65730476D01*
X91270533Y-65730476D02*
X91413390Y-65778095D01*
X91413390Y-65778095D02*
X91984819Y-66349523D01*
X91984819Y-66349523D02*
X91984819Y-65730476D01*
X91080057Y-65349523D02*
X91032438Y-65301904D01*
X91032438Y-65301904D02*
X90984819Y-65206666D01*
X90984819Y-65206666D02*
X90984819Y-64968571D01*
X90984819Y-64968571D02*
X91032438Y-64873333D01*
X91032438Y-64873333D02*
X91080057Y-64825714D01*
X91080057Y-64825714D02*
X91175295Y-64778095D01*
X91175295Y-64778095D02*
X91270533Y-64778095D01*
X91270533Y-64778095D02*
X91413390Y-64825714D01*
X91413390Y-64825714D02*
X91984819Y-65397142D01*
X91984819Y-65397142D02*
X91984819Y-64778095D01*
X104796561Y-43046557D02*
X104701323Y-42998938D01*
X104701323Y-42998938D02*
X104606085Y-42903700D01*
X104606085Y-42903700D02*
X104463228Y-42760842D01*
X104463228Y-42760842D02*
X104367990Y-42713223D01*
X104367990Y-42713223D02*
X104272752Y-42713223D01*
X104320371Y-42951319D02*
X104225133Y-42903700D01*
X104225133Y-42903700D02*
X104129895Y-42808461D01*
X104129895Y-42808461D02*
X104082276Y-42617985D01*
X104082276Y-42617985D02*
X104082276Y-42284652D01*
X104082276Y-42284652D02*
X104129895Y-42094176D01*
X104129895Y-42094176D02*
X104225133Y-41998938D01*
X104225133Y-41998938D02*
X104320371Y-41951319D01*
X104320371Y-41951319D02*
X104510847Y-41951319D01*
X104510847Y-41951319D02*
X104606085Y-41998938D01*
X104606085Y-41998938D02*
X104701323Y-42094176D01*
X104701323Y-42094176D02*
X104748942Y-42284652D01*
X104748942Y-42284652D02*
X104748942Y-42617985D01*
X104748942Y-42617985D02*
X104701323Y-42808461D01*
X104701323Y-42808461D02*
X104606085Y-42903700D01*
X104606085Y-42903700D02*
X104510847Y-42951319D01*
X104510847Y-42951319D02*
X104320371Y-42951319D01*
X105129895Y-42046557D02*
X105177514Y-41998938D01*
X105177514Y-41998938D02*
X105272752Y-41951319D01*
X105272752Y-41951319D02*
X105510847Y-41951319D01*
X105510847Y-41951319D02*
X105606085Y-41998938D01*
X105606085Y-41998938D02*
X105653704Y-42046557D01*
X105653704Y-42046557D02*
X105701323Y-42141795D01*
X105701323Y-42141795D02*
X105701323Y-42237033D01*
X105701323Y-42237033D02*
X105653704Y-42379890D01*
X105653704Y-42379890D02*
X105082276Y-42951319D01*
X105082276Y-42951319D02*
X105701323Y-42951319D01*
X104049533Y-48390980D02*
X104001914Y-48438600D01*
X104001914Y-48438600D02*
X103859057Y-48486219D01*
X103859057Y-48486219D02*
X103763819Y-48486219D01*
X103763819Y-48486219D02*
X103620962Y-48438600D01*
X103620962Y-48438600D02*
X103525724Y-48343361D01*
X103525724Y-48343361D02*
X103478105Y-48248123D01*
X103478105Y-48248123D02*
X103430486Y-48057647D01*
X103430486Y-48057647D02*
X103430486Y-47914790D01*
X103430486Y-47914790D02*
X103478105Y-47724314D01*
X103478105Y-47724314D02*
X103525724Y-47629076D01*
X103525724Y-47629076D02*
X103620962Y-47533838D01*
X103620962Y-47533838D02*
X103763819Y-47486219D01*
X103763819Y-47486219D02*
X103859057Y-47486219D01*
X103859057Y-47486219D02*
X104001914Y-47533838D01*
X104001914Y-47533838D02*
X104049533Y-47581457D01*
X104382867Y-47486219D02*
X105049533Y-47486219D01*
X105049533Y-47486219D02*
X104620962Y-48486219D01*
X51731905Y-48124819D02*
X51731905Y-47124819D01*
X51731905Y-47124819D02*
X51970000Y-47124819D01*
X51970000Y-47124819D02*
X52112857Y-47172438D01*
X52112857Y-47172438D02*
X52208095Y-47267676D01*
X52208095Y-47267676D02*
X52255714Y-47362914D01*
X52255714Y-47362914D02*
X52303333Y-47553390D01*
X52303333Y-47553390D02*
X52303333Y-47696247D01*
X52303333Y-47696247D02*
X52255714Y-47886723D01*
X52255714Y-47886723D02*
X52208095Y-47981961D01*
X52208095Y-47981961D02*
X52112857Y-48077200D01*
X52112857Y-48077200D02*
X51970000Y-48124819D01*
X51970000Y-48124819D02*
X51731905Y-48124819D01*
X53160476Y-47124819D02*
X52970000Y-47124819D01*
X52970000Y-47124819D02*
X52874762Y-47172438D01*
X52874762Y-47172438D02*
X52827143Y-47220057D01*
X52827143Y-47220057D02*
X52731905Y-47362914D01*
X52731905Y-47362914D02*
X52684286Y-47553390D01*
X52684286Y-47553390D02*
X52684286Y-47934342D01*
X52684286Y-47934342D02*
X52731905Y-48029580D01*
X52731905Y-48029580D02*
X52779524Y-48077200D01*
X52779524Y-48077200D02*
X52874762Y-48124819D01*
X52874762Y-48124819D02*
X53065238Y-48124819D01*
X53065238Y-48124819D02*
X53160476Y-48077200D01*
X53160476Y-48077200D02*
X53208095Y-48029580D01*
X53208095Y-48029580D02*
X53255714Y-47934342D01*
X53255714Y-47934342D02*
X53255714Y-47696247D01*
X53255714Y-47696247D02*
X53208095Y-47601009D01*
X53208095Y-47601009D02*
X53160476Y-47553390D01*
X53160476Y-47553390D02*
X53065238Y-47505771D01*
X53065238Y-47505771D02*
X52874762Y-47505771D01*
X52874762Y-47505771D02*
X52779524Y-47553390D01*
X52779524Y-47553390D02*
X52731905Y-47601009D01*
X52731905Y-47601009D02*
X52684286Y-47696247D01*
D14*
X48846666Y-40557419D02*
X48846666Y-41271704D01*
X48846666Y-41271704D02*
X48799047Y-41414561D01*
X48799047Y-41414561D02*
X48703809Y-41509800D01*
X48703809Y-41509800D02*
X48560952Y-41557419D01*
X48560952Y-41557419D02*
X48465714Y-41557419D01*
X49751428Y-40890752D02*
X49751428Y-41557419D01*
X49513333Y-40509800D02*
X49275238Y-41224085D01*
X49275238Y-41224085D02*
X49894285Y-41224085D01*
X73496666Y-57127419D02*
X73496666Y-57841704D01*
X73496666Y-57841704D02*
X73449047Y-57984561D01*
X73449047Y-57984561D02*
X73353809Y-58079800D01*
X73353809Y-58079800D02*
X73210952Y-58127419D01*
X73210952Y-58127419D02*
X73115714Y-58127419D01*
X74496666Y-58127419D02*
X73925238Y-58127419D01*
X74210952Y-58127419D02*
X74210952Y-57127419D01*
X74210952Y-57127419D02*
X74115714Y-57270276D01*
X74115714Y-57270276D02*
X74020476Y-57365514D01*
X74020476Y-57365514D02*
X73925238Y-57413133D01*
D10*
X52031905Y-70854819D02*
X52031905Y-69854819D01*
X52031905Y-69854819D02*
X52270000Y-69854819D01*
X52270000Y-69854819D02*
X52412857Y-69902438D01*
X52412857Y-69902438D02*
X52508095Y-69997676D01*
X52508095Y-69997676D02*
X52555714Y-70092914D01*
X52555714Y-70092914D02*
X52603333Y-70283390D01*
X52603333Y-70283390D02*
X52603333Y-70426247D01*
X52603333Y-70426247D02*
X52555714Y-70616723D01*
X52555714Y-70616723D02*
X52508095Y-70711961D01*
X52508095Y-70711961D02*
X52412857Y-70807200D01*
X52412857Y-70807200D02*
X52270000Y-70854819D01*
X52270000Y-70854819D02*
X52031905Y-70854819D01*
X53460476Y-70188152D02*
X53460476Y-70854819D01*
X53222381Y-69807200D02*
X52984286Y-70521485D01*
X52984286Y-70521485D02*
X53603333Y-70521485D01*
X105396133Y-53583280D02*
X105348514Y-53630900D01*
X105348514Y-53630900D02*
X105205657Y-53678519D01*
X105205657Y-53678519D02*
X105110419Y-53678519D01*
X105110419Y-53678519D02*
X104967562Y-53630900D01*
X104967562Y-53630900D02*
X104872324Y-53535661D01*
X104872324Y-53535661D02*
X104824705Y-53440423D01*
X104824705Y-53440423D02*
X104777086Y-53249947D01*
X104777086Y-53249947D02*
X104777086Y-53107090D01*
X104777086Y-53107090D02*
X104824705Y-52916614D01*
X104824705Y-52916614D02*
X104872324Y-52821376D01*
X104872324Y-52821376D02*
X104967562Y-52726138D01*
X104967562Y-52726138D02*
X105110419Y-52678519D01*
X105110419Y-52678519D02*
X105205657Y-52678519D01*
X105205657Y-52678519D02*
X105348514Y-52726138D01*
X105348514Y-52726138D02*
X105396133Y-52773757D01*
X106300895Y-52678519D02*
X105824705Y-52678519D01*
X105824705Y-52678519D02*
X105777086Y-53154709D01*
X105777086Y-53154709D02*
X105824705Y-53107090D01*
X105824705Y-53107090D02*
X105919943Y-53059471D01*
X105919943Y-53059471D02*
X106158038Y-53059471D01*
X106158038Y-53059471D02*
X106253276Y-53107090D01*
X106253276Y-53107090D02*
X106300895Y-53154709D01*
X106300895Y-53154709D02*
X106348514Y-53249947D01*
X106348514Y-53249947D02*
X106348514Y-53488042D01*
X106348514Y-53488042D02*
X106300895Y-53583280D01*
X106300895Y-53583280D02*
X106253276Y-53630900D01*
X106253276Y-53630900D02*
X106158038Y-53678519D01*
X106158038Y-53678519D02*
X105919943Y-53678519D01*
X105919943Y-53678519D02*
X105824705Y-53630900D01*
X105824705Y-53630900D02*
X105777086Y-53583280D01*
X84359905Y-62954819D02*
X84359905Y-63764342D01*
X84359905Y-63764342D02*
X84407524Y-63859580D01*
X84407524Y-63859580D02*
X84455143Y-63907200D01*
X84455143Y-63907200D02*
X84550381Y-63954819D01*
X84550381Y-63954819D02*
X84740857Y-63954819D01*
X84740857Y-63954819D02*
X84836095Y-63907200D01*
X84836095Y-63907200D02*
X84883714Y-63859580D01*
X84883714Y-63859580D02*
X84931333Y-63764342D01*
X84931333Y-63764342D02*
X84931333Y-62954819D01*
X85931333Y-63954819D02*
X85359905Y-63954819D01*
X85645619Y-63954819D02*
X85645619Y-62954819D01*
X85645619Y-62954819D02*
X85550381Y-63097676D01*
X85550381Y-63097676D02*
X85455143Y-63192914D01*
X85455143Y-63192914D02*
X85359905Y-63240533D01*
X86883714Y-63954819D02*
X86312286Y-63954819D01*
X86598000Y-63954819D02*
X86598000Y-62954819D01*
X86598000Y-62954819D02*
X86502762Y-63097676D01*
X86502762Y-63097676D02*
X86407524Y-63192914D01*
X86407524Y-63192914D02*
X86312286Y-63240533D01*
X60698142Y-53394780D02*
X60650523Y-53442400D01*
X60650523Y-53442400D02*
X60507666Y-53490019D01*
X60507666Y-53490019D02*
X60412428Y-53490019D01*
X60412428Y-53490019D02*
X60269571Y-53442400D01*
X60269571Y-53442400D02*
X60174333Y-53347161D01*
X60174333Y-53347161D02*
X60126714Y-53251923D01*
X60126714Y-53251923D02*
X60079095Y-53061447D01*
X60079095Y-53061447D02*
X60079095Y-52918590D01*
X60079095Y-52918590D02*
X60126714Y-52728114D01*
X60126714Y-52728114D02*
X60174333Y-52632876D01*
X60174333Y-52632876D02*
X60269571Y-52537638D01*
X60269571Y-52537638D02*
X60412428Y-52490019D01*
X60412428Y-52490019D02*
X60507666Y-52490019D01*
X60507666Y-52490019D02*
X60650523Y-52537638D01*
X60650523Y-52537638D02*
X60698142Y-52585257D01*
X61650523Y-53490019D02*
X61079095Y-53490019D01*
X61364809Y-53490019D02*
X61364809Y-52490019D01*
X61364809Y-52490019D02*
X61269571Y-52632876D01*
X61269571Y-52632876D02*
X61174333Y-52728114D01*
X61174333Y-52728114D02*
X61079095Y-52775733D01*
X62221952Y-52918590D02*
X62126714Y-52870971D01*
X62126714Y-52870971D02*
X62079095Y-52823352D01*
X62079095Y-52823352D02*
X62031476Y-52728114D01*
X62031476Y-52728114D02*
X62031476Y-52680495D01*
X62031476Y-52680495D02*
X62079095Y-52585257D01*
X62079095Y-52585257D02*
X62126714Y-52537638D01*
X62126714Y-52537638D02*
X62221952Y-52490019D01*
X62221952Y-52490019D02*
X62412428Y-52490019D01*
X62412428Y-52490019D02*
X62507666Y-52537638D01*
X62507666Y-52537638D02*
X62555285Y-52585257D01*
X62555285Y-52585257D02*
X62602904Y-52680495D01*
X62602904Y-52680495D02*
X62602904Y-52728114D01*
X62602904Y-52728114D02*
X62555285Y-52823352D01*
X62555285Y-52823352D02*
X62507666Y-52870971D01*
X62507666Y-52870971D02*
X62412428Y-52918590D01*
X62412428Y-52918590D02*
X62221952Y-52918590D01*
X62221952Y-52918590D02*
X62126714Y-52966209D01*
X62126714Y-52966209D02*
X62079095Y-53013828D01*
X62079095Y-53013828D02*
X62031476Y-53109066D01*
X62031476Y-53109066D02*
X62031476Y-53299542D01*
X62031476Y-53299542D02*
X62079095Y-53394780D01*
X62079095Y-53394780D02*
X62126714Y-53442400D01*
X62126714Y-53442400D02*
X62221952Y-53490019D01*
X62221952Y-53490019D02*
X62412428Y-53490019D01*
X62412428Y-53490019D02*
X62507666Y-53442400D01*
X62507666Y-53442400D02*
X62555285Y-53394780D01*
X62555285Y-53394780D02*
X62602904Y-53299542D01*
X62602904Y-53299542D02*
X62602904Y-53109066D01*
X62602904Y-53109066D02*
X62555285Y-53013828D01*
X62555285Y-53013828D02*
X62507666Y-52966209D01*
X62507666Y-52966209D02*
X62412428Y-52918590D01*
X67407142Y-60194819D02*
X67073809Y-59718628D01*
X66835714Y-60194819D02*
X66835714Y-59194819D01*
X66835714Y-59194819D02*
X67216666Y-59194819D01*
X67216666Y-59194819D02*
X67311904Y-59242438D01*
X67311904Y-59242438D02*
X67359523Y-59290057D01*
X67359523Y-59290057D02*
X67407142Y-59385295D01*
X67407142Y-59385295D02*
X67407142Y-59528152D01*
X67407142Y-59528152D02*
X67359523Y-59623390D01*
X67359523Y-59623390D02*
X67311904Y-59671009D01*
X67311904Y-59671009D02*
X67216666Y-59718628D01*
X67216666Y-59718628D02*
X66835714Y-59718628D01*
X67788095Y-59290057D02*
X67835714Y-59242438D01*
X67835714Y-59242438D02*
X67930952Y-59194819D01*
X67930952Y-59194819D02*
X68169047Y-59194819D01*
X68169047Y-59194819D02*
X68264285Y-59242438D01*
X68264285Y-59242438D02*
X68311904Y-59290057D01*
X68311904Y-59290057D02*
X68359523Y-59385295D01*
X68359523Y-59385295D02*
X68359523Y-59480533D01*
X68359523Y-59480533D02*
X68311904Y-59623390D01*
X68311904Y-59623390D02*
X67740476Y-60194819D01*
X67740476Y-60194819D02*
X68359523Y-60194819D01*
X69264285Y-59194819D02*
X68788095Y-59194819D01*
X68788095Y-59194819D02*
X68740476Y-59671009D01*
X68740476Y-59671009D02*
X68788095Y-59623390D01*
X68788095Y-59623390D02*
X68883333Y-59575771D01*
X68883333Y-59575771D02*
X69121428Y-59575771D01*
X69121428Y-59575771D02*
X69216666Y-59623390D01*
X69216666Y-59623390D02*
X69264285Y-59671009D01*
X69264285Y-59671009D02*
X69311904Y-59766247D01*
X69311904Y-59766247D02*
X69311904Y-60004342D01*
X69311904Y-60004342D02*
X69264285Y-60099580D01*
X69264285Y-60099580D02*
X69216666Y-60147200D01*
X69216666Y-60147200D02*
X69121428Y-60194819D01*
X69121428Y-60194819D02*
X68883333Y-60194819D01*
X68883333Y-60194819D02*
X68788095Y-60147200D01*
X68788095Y-60147200D02*
X68740476Y-60099580D01*
X91897295Y-46419419D02*
X91897295Y-47228942D01*
X91897295Y-47228942D02*
X91944914Y-47324180D01*
X91944914Y-47324180D02*
X91992533Y-47371800D01*
X91992533Y-47371800D02*
X92087771Y-47419419D01*
X92087771Y-47419419D02*
X92278247Y-47419419D01*
X92278247Y-47419419D02*
X92373485Y-47371800D01*
X92373485Y-47371800D02*
X92421104Y-47324180D01*
X92421104Y-47324180D02*
X92468723Y-47228942D01*
X92468723Y-47228942D02*
X92468723Y-46419419D01*
X93373485Y-46752752D02*
X93373485Y-47419419D01*
X93135390Y-46371800D02*
X92897295Y-47086085D01*
X92897295Y-47086085D02*
X93516342Y-47086085D01*
X49316666Y-58704819D02*
X49316666Y-59419104D01*
X49316666Y-59419104D02*
X49269047Y-59561961D01*
X49269047Y-59561961D02*
X49173809Y-59657200D01*
X49173809Y-59657200D02*
X49030952Y-59704819D01*
X49030952Y-59704819D02*
X48935714Y-59704819D01*
X49745238Y-58800057D02*
X49792857Y-58752438D01*
X49792857Y-58752438D02*
X49888095Y-58704819D01*
X49888095Y-58704819D02*
X50126190Y-58704819D01*
X50126190Y-58704819D02*
X50221428Y-58752438D01*
X50221428Y-58752438D02*
X50269047Y-58800057D01*
X50269047Y-58800057D02*
X50316666Y-58895295D01*
X50316666Y-58895295D02*
X50316666Y-58990533D01*
X50316666Y-58990533D02*
X50269047Y-59133390D01*
X50269047Y-59133390D02*
X49697619Y-59704819D01*
X49697619Y-59704819D02*
X50316666Y-59704819D01*
D11*
%TO.C,IC1*%
X72695800Y-49010800D02*
X71170800Y-49010800D01*
D15*
%TO.C,R32*%
X53372500Y-59607776D02*
X53372500Y-60117224D01*
X52327500Y-59607776D02*
X52327500Y-60117224D01*
%TO.C,R23*%
X55327500Y-59717224D02*
X55327500Y-59207776D01*
X56372500Y-59717224D02*
X56372500Y-59207776D01*
%TO.C,C15*%
X53840000Y-59608767D02*
X53840000Y-59316233D01*
X54860000Y-59608767D02*
X54860000Y-59316233D01*
%TO.C,R15*%
X50642224Y-65872500D02*
X50132776Y-65872500D01*
X50642224Y-64827500D02*
X50132776Y-64827500D01*
%TO.C,C20*%
X58048767Y-68100000D02*
X57756233Y-68100000D01*
X58048767Y-67080000D02*
X57756233Y-67080000D01*
%TO.C,R27*%
X65077500Y-62217224D02*
X65077500Y-61707776D01*
X66122500Y-62217224D02*
X66122500Y-61707776D01*
%TO.C,Q1*%
X108335600Y-45036500D02*
X108335600Y-46711500D01*
X108335600Y-45036500D02*
X108335600Y-44386500D01*
X111455600Y-45036500D02*
X111455600Y-45686500D01*
X111455600Y-45036500D02*
X111455600Y-44386500D01*
%TO.C,C4*%
X102242233Y-66139600D02*
X102534767Y-66139600D01*
X102242233Y-67159600D02*
X102534767Y-67159600D01*
%TO.C,R20*%
X84172976Y-72375500D02*
X84682424Y-72375500D01*
X84172976Y-73420500D02*
X84682424Y-73420500D01*
%TO.C,C25*%
X53350000Y-72706233D02*
X53350000Y-72998767D01*
X52330000Y-72706233D02*
X52330000Y-72998767D01*
D10*
%TO.C,U12*%
X54080000Y-68830000D02*
X54605000Y-68830000D01*
X54080000Y-73130000D02*
X54080000Y-72605000D01*
X54080000Y-73130000D02*
X54605000Y-73130000D01*
X58380000Y-68830000D02*
X57855000Y-68830000D01*
X58380000Y-68830000D02*
X58380000Y-69355000D01*
X58380000Y-73130000D02*
X57855000Y-73130000D01*
X58380000Y-73130000D02*
X58380000Y-72605000D01*
D15*
%TO.C,U2*%
X105167000Y-58686600D02*
X105167000Y-57086600D01*
X103367000Y-57086600D02*
X103367000Y-58986600D01*
%TO.C,R8*%
X101267176Y-64526900D02*
X101776624Y-64526900D01*
X101267176Y-65571900D02*
X101776624Y-65571900D01*
%TO.C,C21*%
X79488848Y-72419800D02*
X80911352Y-72419800D01*
X79488848Y-74239800D02*
X80911352Y-74239800D01*
%TO.C,D7*%
X48435000Y-48315000D02*
X48435000Y-49785000D01*
X48435000Y-49785000D02*
X50895000Y-49785000D01*
X50895000Y-48315000D02*
X48435000Y-48315000D01*
%TO.C,C19*%
X75060000Y-45073848D02*
X75060000Y-45596352D01*
X73590000Y-45073848D02*
X73590000Y-45596352D01*
D14*
%TO.C,U5*%
X73335000Y-74485000D02*
X73335000Y-74735000D01*
X73335000Y-71935000D02*
X73335000Y-72085000D01*
X73335000Y-71925000D02*
X73185000Y-71925000D01*
X70785000Y-74635000D02*
X70635000Y-74635000D01*
X70635000Y-74635000D02*
X70635000Y-74485000D01*
X70635000Y-71935000D02*
X70785000Y-71935000D01*
X70635000Y-71935000D02*
X70635000Y-72085000D01*
D15*
%TO.C,C13*%
X72136233Y-68710000D02*
X72428767Y-68710000D01*
X72136233Y-69730000D02*
X72428767Y-69730000D01*
%TO.C,R26*%
X54132776Y-41427500D02*
X54642224Y-41427500D01*
X54132776Y-42472500D02*
X54642224Y-42472500D01*
%TO.C,JP6*%
X94182224Y-65282500D02*
X93672776Y-65282500D01*
X94182224Y-64237500D02*
X93672776Y-64237500D01*
%TO.C,D5*%
X76060000Y-60170000D02*
X76060000Y-63470000D01*
X76060000Y-60170000D02*
X81570000Y-60170000D01*
X76060000Y-63470000D02*
X81570000Y-63470000D01*
%TO.C,P1*%
X108792400Y-66251200D02*
X110712400Y-66251200D01*
X114427400Y-66251200D02*
X112722400Y-66251200D01*
X110712400Y-57091200D02*
X108792400Y-57091200D01*
X112722400Y-57091200D02*
X114427400Y-57091200D01*
X114427400Y-57091200D02*
X114427400Y-66251200D01*
%TO.C,D1*%
X48715000Y-66165000D02*
X48715000Y-67635000D01*
X48715000Y-67635000D02*
X51175000Y-67635000D01*
X51175000Y-66165000D02*
X48715000Y-66165000D01*
%TO.C,R6*%
X81841424Y-49900100D02*
X81331976Y-49900100D01*
X81841424Y-48855100D02*
X81331976Y-48855100D01*
%TO.C,C6*%
X110726233Y-54330000D02*
X111018767Y-54330000D01*
X110726233Y-55350000D02*
X111018767Y-55350000D01*
%TO.C,R19*%
X50557224Y-69392500D02*
X50047776Y-69392500D01*
X50557224Y-68347500D02*
X50047776Y-68347500D01*
%TO.C,U3*%
X107284200Y-53343200D02*
X107284200Y-52618200D01*
X108009200Y-48123200D02*
X107284200Y-48123200D01*
X108009200Y-53343200D02*
X107284200Y-53343200D01*
X111779200Y-48123200D02*
X112504200Y-48123200D01*
X111779200Y-53343200D02*
X112504200Y-53343200D01*
X112504200Y-48123200D02*
X112504200Y-48848200D01*
X112504200Y-53343200D02*
X112504200Y-52618200D01*
%TO.C,R9*%
X81866824Y-55030900D02*
X81357376Y-55030900D01*
X81866824Y-53985900D02*
X81357376Y-53985900D01*
%TO.C,C22*%
X81565000Y-58438752D02*
X81565000Y-57916248D01*
X83035000Y-58438752D02*
X83035000Y-57916248D01*
%TO.C,L1*%
X76527000Y-68654200D02*
X76527000Y-67054200D01*
X83747000Y-68654200D02*
X83747000Y-67054200D01*
%TO.C,C23*%
X79565000Y-58448752D02*
X79565000Y-57926248D01*
X81035000Y-58448752D02*
X81035000Y-57926248D01*
%TO.C,R11*%
X93677776Y-66477500D02*
X94187224Y-66477500D01*
X93677776Y-67522500D02*
X94187224Y-67522500D01*
%TO.C,R16*%
X66742776Y-39377500D02*
X67252224Y-39377500D01*
X66742776Y-40422500D02*
X67252224Y-40422500D01*
%TO.C,C3*%
X95940000Y-74620000D02*
X100460000Y-74620000D01*
X100460000Y-74620000D02*
X100460000Y-66560000D01*
X95940000Y-66560000D02*
X95940000Y-74620000D01*
%TO.C,C12*%
X72131233Y-70220000D02*
X72423767Y-70220000D01*
X72131233Y-71240000D02*
X72423767Y-71240000D01*
%TO.C,Q8*%
X52796000Y-39291500D02*
X52796000Y-40966500D01*
X52796000Y-39291500D02*
X52796000Y-38641500D01*
X55916000Y-39291500D02*
X55916000Y-39941500D01*
X55916000Y-39291500D02*
X55916000Y-38641500D01*
%TO.C,C14*%
X56270600Y-42545600D02*
X56270600Y-47065600D01*
X56270600Y-47065600D02*
X64330600Y-47065600D01*
X64330600Y-42545600D02*
X56270600Y-42545600D01*
%TO.C,R13*%
X66742776Y-37853500D02*
X67252224Y-37853500D01*
X66742776Y-38898500D02*
X67252224Y-38898500D01*
%TO.C,C8*%
X81757567Y-51411600D02*
X81465033Y-51411600D01*
X81757567Y-50391600D02*
X81465033Y-50391600D01*
%TO.C,R5*%
X111872500Y-45544824D02*
X111872500Y-45035376D01*
X112917500Y-45544824D02*
X112917500Y-45035376D01*
%TO.C,R2*%
X107297776Y-54337500D02*
X107807224Y-54337500D01*
X107297776Y-55382500D02*
X107807224Y-55382500D01*
%TO.C,U9*%
X57313000Y-52206800D02*
X59113000Y-52206800D01*
X59113000Y-48986800D02*
X56163000Y-48986800D01*
%TO.C,C10*%
X82090800Y-45001567D02*
X82090800Y-44709033D01*
X83110800Y-45001567D02*
X83110800Y-44709033D01*
%TO.C,R4*%
X107939100Y-45031576D02*
X107939100Y-45541024D01*
X106894100Y-45031576D02*
X106894100Y-45541024D01*
%TO.C,C17*%
X67270352Y-43356200D02*
X66747848Y-43356200D01*
X67270352Y-41886200D02*
X66747848Y-41886200D01*
%TO.C,R14*%
X63489100Y-50443676D02*
X63489100Y-50953124D01*
X62444100Y-50443676D02*
X62444100Y-50953124D01*
%TO.C,U1*%
X100903600Y-67710000D02*
X106913600Y-67710000D01*
X103153600Y-74530000D02*
X106913600Y-74530000D01*
X106913600Y-67710000D02*
X106913600Y-68970000D01*
X106913600Y-74530000D02*
X106913600Y-73270000D01*
%TO.C,U10*%
X60300000Y-64810000D02*
X62250000Y-64810000D01*
X60300000Y-64810000D02*
X58350000Y-64810000D01*
X60300000Y-59690000D02*
X62250000Y-59690000D01*
X60300000Y-59690000D02*
X56850000Y-59690000D01*
%TO.C,Q3*%
X93779100Y-71013800D02*
X95454100Y-71013800D01*
X93779100Y-71013800D02*
X93129100Y-71013800D01*
X93779100Y-67893800D02*
X94429100Y-67893800D01*
X93779100Y-67893800D02*
X93129100Y-67893800D01*
%TO.C,C9*%
X80087800Y-45342352D02*
X80087800Y-44819848D01*
X81557800Y-45342352D02*
X81557800Y-44819848D01*
%TO.C,R17*%
X73217500Y-49152224D02*
X73217500Y-48642776D01*
X74262500Y-49152224D02*
X74262500Y-48642776D01*
%TO.C,C26*%
X65711248Y-50515000D02*
X66233752Y-50515000D01*
X65711248Y-51985000D02*
X66233752Y-51985000D01*
%TO.C,R7*%
X81866824Y-53456100D02*
X81357376Y-53456100D01*
X81866824Y-52411100D02*
X81357376Y-52411100D01*
%TO.C,C11*%
X98041233Y-64540000D02*
X98333767Y-64540000D01*
X98041233Y-65560000D02*
X98333767Y-65560000D01*
%TO.C,D2*%
X48765000Y-62715000D02*
X48765000Y-64185000D01*
X48765000Y-64185000D02*
X51225000Y-64185000D01*
X51225000Y-62715000D02*
X48765000Y-62715000D01*
%TO.C,R21*%
X90932500Y-69343176D02*
X90932500Y-69852624D01*
X89887500Y-69343176D02*
X89887500Y-69852624D01*
%TO.C,C24*%
X61113767Y-73880000D02*
X60821233Y-73880000D01*
X61113767Y-72860000D02*
X60821233Y-72860000D01*
%TO.C,C2*%
X56309700Y-37694200D02*
X56309700Y-42214200D01*
X56309700Y-42214200D02*
X64369700Y-42214200D01*
X64369700Y-37694200D02*
X56309700Y-37694200D01*
%TO.C,R1*%
X50667224Y-62472500D02*
X50157776Y-62472500D01*
X50667224Y-61427500D02*
X50157776Y-61427500D01*
%TO.C,R18*%
X58122224Y-48532500D02*
X57612776Y-48532500D01*
X58122224Y-47487500D02*
X57612776Y-47487500D01*
%TO.C,U8*%
X59690000Y-56982000D02*
X63290000Y-56982000D01*
X59690000Y-56982000D02*
X57490000Y-56982000D01*
X59690000Y-53762000D02*
X61890000Y-53762000D01*
X59690000Y-53762000D02*
X57490000Y-53762000D01*
%TO.C,R3*%
X81841424Y-48376100D02*
X81331976Y-48376100D01*
X81841424Y-47331100D02*
X81331976Y-47331100D01*
D14*
%TO.C,AE1*%
X-1050000Y-40425000D02*
X34950000Y-40425000D01*
X-1050000Y-76425000D02*
X-1050000Y-40425000D01*
X-50000Y-41425000D02*
X33950000Y-41425000D01*
X-50000Y-75425000D02*
X-50000Y-41425000D01*
X33950000Y-41425000D02*
X33950000Y-75425000D01*
X33950000Y-75425000D02*
X-50000Y-75425000D01*
X34950000Y-40425000D02*
X34950000Y-76425000D01*
X34950000Y-53425000D02*
X35950000Y-53425000D01*
X34950000Y-57425000D02*
X37950000Y-57425000D01*
X34950000Y-58425000D02*
X35950000Y-58425000D01*
X34950000Y-76425000D02*
X-1050000Y-76425000D01*
X35950000Y-53425000D02*
X34950000Y-53425000D01*
X35950000Y-53425000D02*
X35950000Y-58425000D01*
X35950000Y-58425000D02*
X35950000Y-53425000D01*
X35950000Y-58425000D02*
X35950000Y-63425000D01*
X35950000Y-63425000D02*
X34950000Y-63425000D01*
X37950000Y-57425000D02*
X37950000Y-59425000D01*
X37950000Y-59425000D02*
X34950000Y-59425000D01*
D15*
%TO.C,R22*%
X90932500Y-65787776D02*
X90932500Y-66297224D01*
X89887500Y-65787776D02*
X89887500Y-66297224D01*
%TO.C,Q2*%
X103382600Y-45011100D02*
X103382600Y-46686100D01*
X103382600Y-45011100D02*
X103382600Y-44361100D01*
X106502600Y-45011100D02*
X106502600Y-45661100D01*
X106502600Y-45011100D02*
X106502600Y-44361100D01*
%TO.C,C7*%
X103506600Y-50777952D02*
X103506600Y-50255448D01*
X104976600Y-50777952D02*
X104976600Y-50255448D01*
%TO.C,D6*%
X48445000Y-46815000D02*
X48445000Y-48285000D01*
X48445000Y-48285000D02*
X50905000Y-48285000D01*
X50905000Y-46815000D02*
X48445000Y-46815000D01*
D14*
%TO.C,J4*%
X52440000Y-45960000D02*
X52440000Y-41710000D01*
X52440000Y-45960000D02*
X48440000Y-45960000D01*
X52440000Y-41660000D02*
X48440000Y-41660000D01*
X48440000Y-41660000D02*
X48440000Y-45960000D01*
%TO.C,J1*%
X75950000Y-58360000D02*
X71700000Y-58360000D01*
X75950000Y-58360000D02*
X75950000Y-62360000D01*
X71650000Y-58360000D02*
X71650000Y-62360000D01*
X71650000Y-62360000D02*
X75950000Y-62360000D01*
D15*
%TO.C,D4*%
X48615000Y-69615000D02*
X48615000Y-71085000D01*
X48615000Y-71085000D02*
X51075000Y-71085000D01*
X51075000Y-69615000D02*
X48615000Y-69615000D01*
%TO.C,C5*%
X104535000Y-53903733D02*
X104535000Y-54196267D01*
X103515000Y-53903733D02*
X103515000Y-54196267D01*
%TO.C,U11*%
X84409600Y-67564000D02*
X84409600Y-71014000D01*
X84409600Y-67564000D02*
X84409600Y-65614000D01*
X89529600Y-67564000D02*
X89529600Y-69514000D01*
X89529600Y-67564000D02*
X89529600Y-65614000D01*
%TO.C,C18*%
X60932600Y-50844667D02*
X60932600Y-50552133D01*
X61952600Y-50844667D02*
X61952600Y-50552133D01*
%TO.C,R25*%
X68122500Y-61707776D02*
X68122500Y-62217224D01*
X67077500Y-61707776D02*
X67077500Y-62217224D01*
%TO.C,U4*%
X84136400Y-36992400D02*
X84136400Y-43407400D01*
X84136400Y-36992400D02*
X102376400Y-36992400D01*
X84136400Y-43407400D02*
X83756400Y-43407400D01*
X84136400Y-61952400D02*
X84136400Y-62732400D01*
X84136400Y-62732400D02*
X85136400Y-62732400D01*
X102376400Y-36992400D02*
X102376400Y-43407400D01*
X102376400Y-61952400D02*
X102376400Y-62732400D01*
X102376400Y-62732400D02*
X101376400Y-62732400D01*
%TO.C,J2*%
X48540000Y-50740000D02*
X49650000Y-50740000D01*
X48540000Y-51500000D02*
X48540000Y-50740000D01*
X48540000Y-52260000D02*
X48540000Y-58545000D01*
X48540000Y-52260000D02*
X49086529Y-52260000D01*
X48540000Y-58545000D02*
X49342470Y-58545000D01*
X49957530Y-58545000D02*
X50760000Y-58545000D01*
X50213471Y-52260000D02*
X50760000Y-52260000D01*
X50760000Y-52260000D02*
X50760000Y-58545000D01*
%TD*%
M02*
