%TF.GenerationSoftware,KiCad,Pcbnew,8.0.6*%
%TF.CreationDate,2024-11-01T17:42:55+02:00*%
%TF.ProjectId,gps_tracer,6770735f-7472-4616-9365-722e6b696361,rev?*%
%TF.SameCoordinates,Original*%
%TF.FileFunction,Paste,Top*%
%TF.FilePolarity,Positive*%
%FSLAX46Y46*%
G04 Gerber Fmt 4.6, Leading zero omitted, Abs format (unit mm)*
G04 Created by KiCad (PCBNEW 8.0.6) date 2024-11-01 17:42:55*
%MOMM*%
%LPD*%
G01*
G04 APERTURE LIST*
G04 Aperture macros list*
%AMRoundRect*
0 Rectangle with rounded corners*
0 $1 Rounding radius*
0 $2 $3 $4 $5 $6 $7 $8 $9 X,Y pos of 4 corners*
0 Add a 4 corners polygon primitive as box body*
4,1,4,$2,$3,$4,$5,$6,$7,$8,$9,$2,$3,0*
0 Add four circle primitives for the rounded corners*
1,1,$1+$1,$2,$3*
1,1,$1+$1,$4,$5*
1,1,$1+$1,$6,$7*
1,1,$1+$1,$8,$9*
0 Add four rect primitives between the rounded corners*
20,1,$1+$1,$2,$3,$4,$5,0*
20,1,$1+$1,$4,$5,$6,$7,0*
20,1,$1+$1,$6,$7,$8,$9,0*
20,1,$1+$1,$8,$9,$2,$3,0*%
G04 Aperture macros list end*
%ADD10R,1.525000X0.700000*%
%ADD11R,2.513000X3.402000*%
%ADD12RoundRect,0.237500X-0.237500X0.250000X-0.237500X-0.250000X0.237500X-0.250000X0.237500X0.250000X0*%
%ADD13RoundRect,0.237500X0.237500X-0.250000X0.237500X0.250000X-0.237500X0.250000X-0.237500X-0.250000X0*%
%ADD14RoundRect,0.237500X0.237500X-0.300000X0.237500X0.300000X-0.237500X0.300000X-0.237500X-0.300000X0*%
%ADD15RoundRect,0.237500X0.250000X0.237500X-0.250000X0.237500X-0.250000X-0.237500X0.250000X-0.237500X0*%
%ADD16RoundRect,0.237500X0.300000X0.237500X-0.300000X0.237500X-0.300000X-0.237500X0.300000X-0.237500X0*%
%ADD17RoundRect,0.150000X0.150000X-0.587500X0.150000X0.587500X-0.150000X0.587500X-0.150000X-0.587500X0*%
%ADD18RoundRect,0.237500X-0.300000X-0.237500X0.300000X-0.237500X0.300000X0.237500X-0.300000X0.237500X0*%
%ADD19RoundRect,0.237500X-0.250000X-0.237500X0.250000X-0.237500X0.250000X0.237500X-0.250000X0.237500X0*%
%ADD20RoundRect,0.237500X-0.237500X0.300000X-0.237500X-0.300000X0.237500X-0.300000X0.237500X0.300000X0*%
%ADD21RoundRect,0.075000X-0.350000X-0.075000X0.350000X-0.075000X0.350000X0.075000X-0.350000X0.075000X0*%
%ADD22RoundRect,0.075000X0.075000X-0.350000X0.075000X0.350000X-0.075000X0.350000X-0.075000X-0.350000X0*%
%ADD23R,0.375000X0.500000*%
%ADD24R,0.300000X0.650000*%
%ADD25RoundRect,0.250000X-0.412500X-0.650000X0.412500X-0.650000X0.412500X0.650000X-0.412500X0.650000X0*%
%ADD26RoundRect,0.237500X-0.287500X-0.237500X0.287500X-0.237500X0.287500X0.237500X-0.287500X0.237500X0*%
%ADD27RoundRect,0.250000X-0.475000X0.337500X-0.475000X-0.337500X0.475000X-0.337500X0.475000X0.337500X0*%
%ADD28R,0.350000X0.500000*%
%ADD29RoundRect,0.250000X-1.000000X-0.650000X1.000000X-0.650000X1.000000X0.650000X-1.000000X0.650000X0*%
%ADD30R,1.240000X0.600000*%
%ADD31R,1.240000X0.300000*%
%ADD32RoundRect,0.225000X-0.225000X-0.225000X0.225000X-0.225000X0.225000X0.225000X-0.225000X0.225000X0*%
%ADD33RoundRect,0.062500X-0.337500X-0.062500X0.337500X-0.062500X0.337500X0.062500X-0.337500X0.062500X0*%
%ADD34RoundRect,0.062500X-0.062500X-0.337500X0.062500X-0.337500X0.062500X0.337500X-0.062500X0.337500X0*%
%ADD35RoundRect,0.250000X0.475000X-0.337500X0.475000X0.337500X-0.475000X0.337500X-0.475000X-0.337500X0*%
%ADD36R,7.500000X3.000000*%
%ADD37RoundRect,0.250000X1.025000X-0.787500X1.025000X0.787500X-1.025000X0.787500X-1.025000X-0.787500X0*%
%ADD38RoundRect,0.250000X-0.787500X-1.025000X0.787500X-1.025000X0.787500X1.025000X-0.787500X1.025000X0*%
%ADD39R,1.560000X0.650000*%
%ADD40RoundRect,0.250000X0.337500X0.475000X-0.337500X0.475000X-0.337500X-0.475000X0.337500X-0.475000X0*%
%ADD41R,2.000000X1.500000*%
%ADD42R,2.000000X3.800000*%
%ADD43RoundRect,0.150000X-0.825000X-0.150000X0.825000X-0.150000X0.825000X0.150000X-0.825000X0.150000X0*%
%ADD44RoundRect,0.150000X0.587500X0.150000X-0.587500X0.150000X-0.587500X-0.150000X0.587500X-0.150000X0*%
%ADD45RoundRect,0.250000X-0.337500X-0.475000X0.337500X-0.475000X0.337500X0.475000X-0.337500X0.475000X0*%
%ADD46RoundRect,0.100000X0.637500X0.100000X-0.637500X0.100000X-0.637500X-0.100000X0.637500X-0.100000X0*%
%ADD47RoundRect,0.150000X0.150000X-0.675000X0.150000X0.675000X-0.150000X0.675000X-0.150000X-0.675000X0*%
%ADD48R,1.500000X0.900000*%
%ADD49R,0.900000X1.500000*%
%ADD50R,1.050000X1.050000*%
G04 APERTURE END LIST*
D10*
%TO.C,IC1*%
X71932800Y-48310800D03*
X71932800Y-47040800D03*
X71932800Y-45770800D03*
X71932800Y-44500800D03*
X66508800Y-44500800D03*
X66508800Y-45770800D03*
X66508800Y-47040800D03*
X66508800Y-48310800D03*
D11*
X69220800Y-46405800D03*
%TD*%
D12*
%TO.C,R32*%
X52850000Y-58950000D03*
X52850000Y-60775000D03*
%TD*%
D13*
%TO.C,R23*%
X55850000Y-60375000D03*
X55850000Y-58550000D03*
%TD*%
D14*
%TO.C,C15*%
X54350000Y-60325000D03*
X54350000Y-58600000D03*
%TD*%
D15*
%TO.C,R15*%
X51300000Y-65350000D03*
X49475000Y-65350000D03*
%TD*%
D16*
%TO.C,C20*%
X58765000Y-67590000D03*
X57040000Y-67590000D03*
%TD*%
D13*
%TO.C,R27*%
X65600000Y-62875000D03*
X65600000Y-61050000D03*
%TD*%
D17*
%TO.C,Q1*%
X108945600Y-45974000D03*
X110845600Y-45974000D03*
X109895600Y-44099000D03*
%TD*%
D18*
%TO.C,C4*%
X101526000Y-66649600D03*
X103251000Y-66649600D03*
%TD*%
D19*
%TO.C,R20*%
X83515200Y-72898000D03*
X85340200Y-72898000D03*
%TD*%
D20*
%TO.C,C25*%
X52840000Y-71990000D03*
X52840000Y-73715000D03*
%TD*%
D21*
%TO.C,U12*%
X54280000Y-69730000D03*
X54280000Y-70230000D03*
X54280000Y-70730000D03*
X54280000Y-71230000D03*
X54280000Y-71730000D03*
X54280000Y-72230000D03*
D22*
X54980000Y-72930000D03*
X55480000Y-72930000D03*
X55980000Y-72930000D03*
X56480000Y-72930000D03*
X56980000Y-72930000D03*
X57480000Y-72930000D03*
D21*
X58180000Y-72230000D03*
X58180000Y-71730000D03*
X58180000Y-71230000D03*
X58180000Y-70730000D03*
X58180000Y-70230000D03*
X58180000Y-69730000D03*
D22*
X57480000Y-69030000D03*
X56980000Y-69030000D03*
X56480000Y-69030000D03*
X55980000Y-69030000D03*
X55480000Y-69030000D03*
X54980000Y-69030000D03*
%TD*%
D23*
%TO.C,U2*%
X103729500Y-58736600D03*
D24*
X104267000Y-58811600D03*
D23*
X104804500Y-58736600D03*
X104804500Y-57036600D03*
D24*
X104267000Y-56961600D03*
D23*
X103729500Y-57036600D03*
%TD*%
D19*
%TO.C,R8*%
X100609400Y-65049400D03*
X102434400Y-65049400D03*
%TD*%
D25*
%TO.C,C21*%
X78637600Y-73329800D03*
X81762600Y-73329800D03*
%TD*%
D26*
%TO.C,D7*%
X49220000Y-49050000D03*
X50970000Y-49050000D03*
%TD*%
D27*
%TO.C,C19*%
X74325000Y-44297600D03*
X74325000Y-46372600D03*
%TD*%
D28*
%TO.C,U5*%
X72960000Y-74310000D03*
X72310000Y-74310000D03*
X71660000Y-74310000D03*
X71010000Y-74310000D03*
X71010000Y-72260000D03*
X71660000Y-72260000D03*
X72310000Y-72260000D03*
X72960000Y-72260000D03*
%TD*%
D18*
%TO.C,C13*%
X71420000Y-69220000D03*
X73145000Y-69220000D03*
%TD*%
D19*
%TO.C,R26*%
X53475000Y-41950000D03*
X55300000Y-41950000D03*
%TD*%
D15*
%TO.C,JP6*%
X94840000Y-64760000D03*
X93015000Y-64760000D03*
%TD*%
D29*
%TO.C,D5*%
X77570000Y-61820000D03*
X81570000Y-61820000D03*
%TD*%
D30*
%TO.C,P1*%
X106917400Y-64871200D03*
X106917400Y-64071200D03*
D31*
X106917400Y-62921200D03*
X106917400Y-61921200D03*
X106917400Y-61421200D03*
X106917400Y-60421200D03*
D30*
X106917400Y-59271200D03*
X106917400Y-58471200D03*
X106917400Y-58471200D03*
X106917400Y-59271200D03*
D31*
X106917400Y-59921200D03*
X106917400Y-60921200D03*
X106917400Y-62421200D03*
X106917400Y-63421200D03*
D30*
X106917400Y-64071200D03*
X106917400Y-64871200D03*
%TD*%
D26*
%TO.C,D1*%
X49500000Y-66900000D03*
X51250000Y-66900000D03*
%TD*%
D15*
%TO.C,R6*%
X82499200Y-49377600D03*
X80674200Y-49377600D03*
%TD*%
D18*
%TO.C,C6*%
X110010000Y-54840000D03*
X111735000Y-54840000D03*
%TD*%
D15*
%TO.C,R19*%
X51215000Y-68870000D03*
X49390000Y-68870000D03*
%TD*%
D32*
%TO.C,U3*%
X108774200Y-49613200D03*
X108774200Y-50733200D03*
X108774200Y-51853200D03*
X109894200Y-49613200D03*
X109894200Y-50733200D03*
X109894200Y-51853200D03*
X111014200Y-49613200D03*
X111014200Y-50733200D03*
X111014200Y-51853200D03*
D33*
X107444200Y-49233200D03*
X107444200Y-49733200D03*
X107444200Y-50233200D03*
X107444200Y-50733200D03*
X107444200Y-51233200D03*
X107444200Y-51733200D03*
X107444200Y-52233200D03*
D34*
X108394200Y-53183200D03*
X108894200Y-53183200D03*
X109394200Y-53183200D03*
X109894200Y-53183200D03*
X110394200Y-53183200D03*
X110894200Y-53183200D03*
X111394200Y-53183200D03*
D33*
X112344200Y-52233200D03*
X112344200Y-51733200D03*
X112344200Y-51233200D03*
X112344200Y-50733200D03*
X112344200Y-50233200D03*
X112344200Y-49733200D03*
X112344200Y-49233200D03*
D34*
X111394200Y-48283200D03*
X110894200Y-48283200D03*
X110394200Y-48283200D03*
X109894200Y-48283200D03*
X109394200Y-48283200D03*
X108894200Y-48283200D03*
X108394200Y-48283200D03*
%TD*%
D15*
%TO.C,R9*%
X82524600Y-54508400D03*
X80699600Y-54508400D03*
%TD*%
D35*
%TO.C,C22*%
X82300000Y-59215000D03*
X82300000Y-57140000D03*
%TD*%
D36*
%TO.C,L1*%
X80137000Y-70354200D03*
X80137000Y-65354200D03*
%TD*%
D35*
%TO.C,C23*%
X80300000Y-59225000D03*
X80300000Y-57150000D03*
%TD*%
D19*
%TO.C,R11*%
X93020000Y-67000000D03*
X94845000Y-67000000D03*
%TD*%
%TO.C,R16*%
X66085000Y-39900000D03*
X67910000Y-39900000D03*
%TD*%
D37*
%TO.C,C3*%
X98200000Y-73322500D03*
X98200000Y-67097500D03*
%TD*%
D18*
%TO.C,C12*%
X71415000Y-70730000D03*
X73140000Y-70730000D03*
%TD*%
D17*
%TO.C,Q8*%
X53406000Y-40229000D03*
X55306000Y-40229000D03*
X54356000Y-38354000D03*
%TD*%
D38*
%TO.C,C14*%
X57568100Y-44805600D03*
X63793100Y-44805600D03*
%TD*%
D19*
%TO.C,R13*%
X66085000Y-38376000D03*
X67910000Y-38376000D03*
%TD*%
D16*
%TO.C,C8*%
X82473800Y-50901600D03*
X80748800Y-50901600D03*
%TD*%
D13*
%TO.C,R5*%
X112395000Y-46202600D03*
X112395000Y-44377600D03*
%TD*%
D19*
%TO.C,R2*%
X106640000Y-54860000D03*
X108465000Y-54860000D03*
%TD*%
D39*
%TO.C,U9*%
X56863000Y-49646800D03*
X56863000Y-50596800D03*
X56863000Y-51546800D03*
X59563000Y-51546800D03*
X59563000Y-50596800D03*
X59563000Y-49646800D03*
%TD*%
D14*
%TO.C,C10*%
X82600800Y-45717800D03*
X82600800Y-43992800D03*
%TD*%
D12*
%TO.C,R4*%
X107416600Y-44373800D03*
X107416600Y-46198800D03*
%TD*%
D40*
%TO.C,C17*%
X68046600Y-42621200D03*
X65971600Y-42621200D03*
%TD*%
D12*
%TO.C,R14*%
X62966600Y-49785900D03*
X62966600Y-51610900D03*
%TD*%
D41*
%TO.C,U1*%
X101853600Y-68820000D03*
X101853600Y-71120000D03*
D42*
X108153600Y-71120000D03*
D41*
X101853600Y-73420000D03*
%TD*%
D43*
%TO.C,U10*%
X62775000Y-60345000D03*
X62775000Y-61615000D03*
X62775000Y-62885000D03*
X62775000Y-64155000D03*
X57825000Y-64155000D03*
X57825000Y-62885000D03*
X57825000Y-61615000D03*
X57825000Y-60345000D03*
%TD*%
D44*
%TO.C,Q3*%
X94716600Y-70403800D03*
X94716600Y-68503800D03*
X92841600Y-69453800D03*
%TD*%
D35*
%TO.C,C9*%
X80822800Y-46118600D03*
X80822800Y-44043600D03*
%TD*%
D13*
%TO.C,R17*%
X73740000Y-49810000D03*
X73740000Y-47985000D03*
%TD*%
D45*
%TO.C,C26*%
X64935000Y-51250000D03*
X67010000Y-51250000D03*
%TD*%
D15*
%TO.C,R7*%
X82524600Y-52933600D03*
X80699600Y-52933600D03*
%TD*%
D18*
%TO.C,C11*%
X97325000Y-65050000D03*
X99050000Y-65050000D03*
%TD*%
D26*
%TO.C,D2*%
X49550000Y-63450000D03*
X51300000Y-63450000D03*
%TD*%
D12*
%TO.C,R21*%
X90410000Y-68685400D03*
X90410000Y-70510400D03*
%TD*%
D16*
%TO.C,C24*%
X61830000Y-73370000D03*
X60105000Y-73370000D03*
%TD*%
D38*
%TO.C,C2*%
X57607200Y-39954200D03*
X63832200Y-39954200D03*
%TD*%
D15*
%TO.C,R1*%
X51325000Y-61950000D03*
X49500000Y-61950000D03*
%TD*%
%TO.C,R18*%
X58780000Y-48010000D03*
X56955000Y-48010000D03*
%TD*%
D46*
%TO.C,U8*%
X62552500Y-56347000D03*
X62552500Y-55697000D03*
X62552500Y-55047000D03*
X62552500Y-54397000D03*
X56827500Y-54397000D03*
X56827500Y-55047000D03*
X56827500Y-55697000D03*
X56827500Y-56347000D03*
%TD*%
D15*
%TO.C,R3*%
X82499200Y-47853600D03*
X80674200Y-47853600D03*
%TD*%
D12*
%TO.C,R22*%
X90410000Y-65130000D03*
X90410000Y-66955000D03*
%TD*%
D17*
%TO.C,Q2*%
X103992600Y-45948600D03*
X105892600Y-45948600D03*
X104942600Y-44073600D03*
%TD*%
D35*
%TO.C,C7*%
X104241600Y-51554200D03*
X104241600Y-49479200D03*
%TD*%
D26*
%TO.C,D6*%
X49230000Y-47550000D03*
X50980000Y-47550000D03*
%TD*%
%TO.C,D4*%
X49400000Y-70350000D03*
X51150000Y-70350000D03*
%TD*%
D20*
%TO.C,C5*%
X104025000Y-53187500D03*
X104025000Y-54912500D03*
%TD*%
D47*
%TO.C,U11*%
X85064600Y-70189000D03*
X86334600Y-70189000D03*
X87604600Y-70189000D03*
X88874600Y-70189000D03*
X88874600Y-64939000D03*
X87604600Y-64939000D03*
X86334600Y-64939000D03*
X85064600Y-64939000D03*
%TD*%
D14*
%TO.C,C18*%
X61442600Y-51560900D03*
X61442600Y-49835900D03*
%TD*%
D12*
%TO.C,R25*%
X67600000Y-61050000D03*
X67600000Y-62875000D03*
%TD*%
D48*
%TO.C,U4*%
X84506400Y-44602400D03*
X84506400Y-45872400D03*
X84506400Y-47142400D03*
X84506400Y-48412400D03*
X84506400Y-49682400D03*
X84506400Y-50952400D03*
X84506400Y-52222400D03*
X84506400Y-53492400D03*
X84506400Y-54762400D03*
X84506400Y-56032400D03*
X84506400Y-57302400D03*
X84506400Y-58572400D03*
X84506400Y-59842400D03*
X84506400Y-61112400D03*
D49*
X87546400Y-62362400D03*
X88816400Y-62362400D03*
X90086400Y-62362400D03*
X91356400Y-62362400D03*
X92626400Y-62362400D03*
X93896400Y-62362400D03*
X95166400Y-62362400D03*
X96436400Y-62362400D03*
X97706400Y-62362400D03*
X98976400Y-62362400D03*
D48*
X102006400Y-61112400D03*
X102006400Y-59842400D03*
X102006400Y-58572400D03*
X102006400Y-57302400D03*
X102006400Y-56032400D03*
X102006400Y-54762400D03*
X102006400Y-53492400D03*
X102006400Y-52222400D03*
X102006400Y-50952400D03*
X102006400Y-49682400D03*
X102006400Y-48412400D03*
X102006400Y-47142400D03*
X102006400Y-45872400D03*
X102006400Y-44602400D03*
D50*
X91051400Y-50417400D03*
X91051400Y-51942400D03*
X91051400Y-53467400D03*
X92576400Y-50417400D03*
X92576400Y-51942400D03*
X92576400Y-53467400D03*
X94101400Y-50417400D03*
X94101400Y-51942400D03*
X94101400Y-53467400D03*
%TD*%
M02*
