%TF.GenerationSoftware,KiCad,Pcbnew,8.0.6*%
%TF.CreationDate,2024-11-01T17:42:55+02:00*%
%TF.ProjectId,gps_tracer,6770735f-7472-4616-9365-722e6b696361,rev?*%
%TF.SameCoordinates,Original*%
%TF.FileFunction,Soldermask,Bot*%
%TF.FilePolarity,Negative*%
%FSLAX46Y46*%
G04 Gerber Fmt 4.6, Leading zero omitted, Abs format (unit mm)*
G04 Created by KiCad (PCBNEW 8.0.6) date 2024-11-01 17:42:55*
%MOMM*%
%LPD*%
G01*
G04 APERTURE LIST*
G04 Aperture macros list*
%AMRoundRect*
0 Rectangle with rounded corners*
0 $1 Rounding radius*
0 $2 $3 $4 $5 $6 $7 $8 $9 X,Y pos of 4 corners*
0 Add a 4 corners polygon primitive as box body*
4,1,4,$2,$3,$4,$5,$6,$7,$8,$9,$2,$3,0*
0 Add four circle primitives for the rounded corners*
1,1,$1+$1,$2,$3*
1,1,$1+$1,$4,$5*
1,1,$1+$1,$6,$7*
1,1,$1+$1,$8,$9*
0 Add four rect primitives between the rounded corners*
20,1,$1+$1,$2,$3,$4,$5,0*
20,1,$1+$1,$4,$5,$6,$7,0*
20,1,$1+$1,$6,$7,$8,$9,0*
20,1,$1+$1,$8,$9,$2,$3,0*%
G04 Aperture macros list end*
%ADD10C,0.650000*%
%ADD11O,2.100000X1.000000*%
%ADD12O,1.800000X1.000000*%
%ADD13RoundRect,0.375000X-0.625000X-0.375000X0.625000X-0.375000X0.625000X0.375000X-0.625000X0.375000X0*%
%ADD14RoundRect,0.375000X-0.525000X-0.375000X0.525000X-0.375000X0.525000X0.375000X-0.525000X0.375000X0*%
%ADD15RoundRect,0.250000X0.750000X0.250000X-0.750000X0.250000X-0.750000X-0.250000X0.750000X-0.250000X0*%
%ADD16RoundRect,0.250000X-0.250000X0.750000X-0.250000X-0.750000X0.250000X-0.750000X0.250000X0.750000X0*%
%ADD17RoundRect,0.375000X-0.375000X0.625000X-0.375000X-0.625000X0.375000X-0.625000X0.375000X0.625000X0*%
%ADD18RoundRect,0.237500X-0.250000X-0.237500X0.250000X-0.237500X0.250000X0.237500X-0.250000X0.237500X0*%
%ADD19RoundRect,0.150000X-0.825000X-0.150000X0.825000X-0.150000X0.825000X0.150000X-0.825000X0.150000X0*%
%ADD20RoundRect,0.237500X-0.237500X0.250000X-0.237500X-0.250000X0.237500X-0.250000X0.237500X0.250000X0*%
%ADD21RoundRect,0.237500X0.237500X-0.250000X0.237500X0.250000X-0.237500X0.250000X-0.237500X-0.250000X0*%
%ADD22RoundRect,0.237500X0.237500X-0.300000X0.237500X0.300000X-0.237500X0.300000X-0.237500X-0.300000X0*%
%ADD23RoundRect,0.250000X-0.600000X0.400000X-0.600000X-0.400000X0.600000X-0.400000X0.600000X0.400000X0*%
%ADD24RoundRect,0.250000X0.337500X0.475000X-0.337500X0.475000X-0.337500X-0.475000X0.337500X-0.475000X0*%
%ADD25RoundRect,0.150000X0.875000X0.150000X-0.875000X0.150000X-0.875000X-0.150000X0.875000X-0.150000X0*%
%ADD26RoundRect,0.237500X0.250000X0.237500X-0.250000X0.237500X-0.250000X-0.237500X0.250000X-0.237500X0*%
%ADD27R,2.600000X5.560000*%
%ADD28C,17.800000*%
%ADD29RoundRect,0.237500X-0.237500X0.300000X-0.237500X-0.300000X0.237500X-0.300000X0.237500X0.300000X0*%
%ADD30C,0.900000*%
%ADD31R,0.700000X1.600000*%
%ADD32R,1.200000X2.200000*%
%ADD33R,1.600000X1.400000*%
%ADD34R,1.200000X1.400000*%
%ADD35R,1.000000X1.000000*%
%ADD36O,1.000000X1.000000*%
G04 APERTURE END LIST*
D10*
%TO.C,P1*%
X108037400Y-64561200D03*
X108037400Y-58781200D03*
D11*
X107517400Y-65991200D03*
D12*
X111717400Y-65991200D03*
D11*
X107517400Y-57351200D03*
D12*
X111717400Y-57351200D03*
%TD*%
D13*
%TO.C,U7*%
X54620000Y-44580000D03*
X54620000Y-47120000D03*
D14*
X54620000Y-49660000D03*
X54620000Y-52200000D03*
X54620000Y-54740000D03*
D13*
X76464000Y-57280000D03*
X76464000Y-54740000D03*
X76464000Y-52200000D03*
X76464000Y-49660000D03*
X76464000Y-47120000D03*
X76464000Y-44580000D03*
%TD*%
D15*
%TO.C,J4*%
X50240000Y-44450000D03*
X50240000Y-43180000D03*
%TD*%
D16*
%TO.C,J1*%
X74440000Y-60560000D03*
X73170000Y-60560000D03*
%TD*%
D17*
%TO.C,U6*%
X94945200Y-73075800D03*
X92405200Y-73075800D03*
X89865200Y-73075800D03*
X87325200Y-73075800D03*
%TD*%
D18*
%TO.C,R29*%
X99007500Y-70900000D03*
X100832500Y-70900000D03*
%TD*%
%TO.C,JP1*%
X99015000Y-67850000D03*
X100840000Y-67850000D03*
%TD*%
D19*
%TO.C,U13*%
X102865000Y-72105000D03*
X102865000Y-70835000D03*
X102865000Y-69565000D03*
X102865000Y-68295000D03*
X107815000Y-68295000D03*
X107815000Y-69565000D03*
X107815000Y-70835000D03*
X107815000Y-72105000D03*
%TD*%
D20*
%TO.C,R10*%
X72210000Y-52730000D03*
X72210000Y-54555000D03*
%TD*%
D21*
%TO.C,R31*%
X90190000Y-61310000D03*
X90190000Y-59485000D03*
%TD*%
D22*
%TO.C,C16*%
X69010000Y-54520000D03*
X69010000Y-52795000D03*
%TD*%
D18*
%TO.C,JP3*%
X99005000Y-72370000D03*
X100830000Y-72370000D03*
%TD*%
D22*
%TO.C,C27*%
X92660000Y-64700000D03*
X92660000Y-62975000D03*
%TD*%
D18*
%TO.C,R28*%
X99035000Y-66320000D03*
X100860000Y-66320000D03*
%TD*%
%TO.C,JP2*%
X99005000Y-69370000D03*
X100830000Y-69370000D03*
%TD*%
D23*
%TO.C,D3*%
X92130000Y-57520000D03*
X92130000Y-61020000D03*
%TD*%
D20*
%TO.C,JP4*%
X90230000Y-62920000D03*
X90230000Y-64745000D03*
%TD*%
D24*
%TO.C,C1*%
X64345000Y-53480000D03*
X62270000Y-53480000D03*
%TD*%
D25*
%TO.C,U14*%
X103990000Y-55580000D03*
X103990000Y-56850000D03*
X103990000Y-58120000D03*
X103990000Y-59390000D03*
X103990000Y-60660000D03*
X103990000Y-61930000D03*
X103990000Y-63200000D03*
X103990000Y-64470000D03*
X94690000Y-64470000D03*
X94690000Y-63200000D03*
X94690000Y-61930000D03*
X94690000Y-60660000D03*
X94690000Y-59390000D03*
X94690000Y-58120000D03*
X94690000Y-56850000D03*
X94690000Y-55580000D03*
%TD*%
D26*
%TO.C,R12*%
X60670000Y-53400000D03*
X58845000Y-53400000D03*
%TD*%
D27*
%TO.C,BT1*%
X50370000Y-65130000D03*
X74180000Y-65130000D03*
D28*
X62275000Y-65130000D03*
%TD*%
D20*
%TO.C,R24*%
X70550000Y-52730000D03*
X70550000Y-54555000D03*
%TD*%
D29*
%TO.C,C28*%
X87720000Y-62980000D03*
X87720000Y-64705000D03*
%TD*%
D18*
%TO.C,R30*%
X99005000Y-73830000D03*
X100830000Y-73830000D03*
%TD*%
D30*
%TO.C,J5*%
X68480000Y-41010000D03*
X60480000Y-41010000D03*
D31*
X67680000Y-51510000D03*
X66580000Y-51510000D03*
X65480000Y-51510000D03*
X64380000Y-51510000D03*
X63280000Y-51510000D03*
X62180000Y-51510000D03*
X61080000Y-51510000D03*
X59980000Y-51510000D03*
X58880000Y-51510000D03*
D32*
X73180000Y-41410000D03*
D33*
X72280000Y-51010000D03*
D34*
X57680000Y-51010000D03*
D32*
X57680000Y-41410000D03*
%TD*%
D35*
%TO.C,J2*%
X49650000Y-51500000D03*
D36*
X49650000Y-52770000D03*
X49650000Y-54040000D03*
X49650000Y-55310000D03*
X49650000Y-56580000D03*
X49650000Y-57850000D03*
%TD*%
M02*
