%TF.GenerationSoftware,KiCad,Pcbnew,8.0.6*%
%TF.CreationDate,2024-11-01T17:42:55+02:00*%
%TF.ProjectId,gps_tracer,6770735f-7472-4616-9365-722e6b696361,rev?*%
%TF.SameCoordinates,Original*%
%TF.FileFunction,Copper,L2,Bot*%
%TF.FilePolarity,Positive*%
%FSLAX46Y46*%
G04 Gerber Fmt 4.6, Leading zero omitted, Abs format (unit mm)*
G04 Created by KiCad (PCBNEW 8.0.6) date 2024-11-01 17:42:55*
%MOMM*%
%LPD*%
G01*
G04 APERTURE LIST*
G04 Aperture macros list*
%AMRoundRect*
0 Rectangle with rounded corners*
0 $1 Rounding radius*
0 $2 $3 $4 $5 $6 $7 $8 $9 X,Y pos of 4 corners*
0 Add a 4 corners polygon primitive as box body*
4,1,4,$2,$3,$4,$5,$6,$7,$8,$9,$2,$3,0*
0 Add four circle primitives for the rounded corners*
1,1,$1+$1,$2,$3*
1,1,$1+$1,$4,$5*
1,1,$1+$1,$6,$7*
1,1,$1+$1,$8,$9*
0 Add four rect primitives between the rounded corners*
20,1,$1+$1,$2,$3,$4,$5,0*
20,1,$1+$1,$4,$5,$6,$7,0*
20,1,$1+$1,$6,$7,$8,$9,0*
20,1,$1+$1,$8,$9,$2,$3,0*%
G04 Aperture macros list end*
%TA.AperFunction,ComponentPad*%
%ADD10O,2.100000X1.000000*%
%TD*%
%TA.AperFunction,ComponentPad*%
%ADD11O,1.800000X1.000000*%
%TD*%
%TA.AperFunction,ComponentPad*%
%ADD12RoundRect,0.375000X-0.625000X-0.375000X0.625000X-0.375000X0.625000X0.375000X-0.625000X0.375000X0*%
%TD*%
%TA.AperFunction,ComponentPad*%
%ADD13RoundRect,0.375000X-0.525000X-0.375000X0.525000X-0.375000X0.525000X0.375000X-0.525000X0.375000X0*%
%TD*%
%TA.AperFunction,ComponentPad*%
%ADD14RoundRect,0.250000X0.750000X0.250000X-0.750000X0.250000X-0.750000X-0.250000X0.750000X-0.250000X0*%
%TD*%
%TA.AperFunction,ComponentPad*%
%ADD15RoundRect,0.250000X-0.250000X0.750000X-0.250000X-0.750000X0.250000X-0.750000X0.250000X0.750000X0*%
%TD*%
%TA.AperFunction,HeatsinkPad*%
%ADD16C,0.600000*%
%TD*%
%TA.AperFunction,ComponentPad*%
%ADD17RoundRect,0.375000X-0.375000X0.625000X-0.375000X-0.625000X0.375000X-0.625000X0.375000X0.625000X0*%
%TD*%
%TA.AperFunction,SMDPad,CuDef*%
%ADD18RoundRect,0.237500X-0.250000X-0.237500X0.250000X-0.237500X0.250000X0.237500X-0.250000X0.237500X0*%
%TD*%
%TA.AperFunction,SMDPad,CuDef*%
%ADD19RoundRect,0.150000X-0.825000X-0.150000X0.825000X-0.150000X0.825000X0.150000X-0.825000X0.150000X0*%
%TD*%
%TA.AperFunction,SMDPad,CuDef*%
%ADD20RoundRect,0.237500X-0.237500X0.250000X-0.237500X-0.250000X0.237500X-0.250000X0.237500X0.250000X0*%
%TD*%
%TA.AperFunction,SMDPad,CuDef*%
%ADD21RoundRect,0.237500X0.237500X-0.250000X0.237500X0.250000X-0.237500X0.250000X-0.237500X-0.250000X0*%
%TD*%
%TA.AperFunction,SMDPad,CuDef*%
%ADD22RoundRect,0.237500X0.237500X-0.300000X0.237500X0.300000X-0.237500X0.300000X-0.237500X-0.300000X0*%
%TD*%
%TA.AperFunction,SMDPad,CuDef*%
%ADD23RoundRect,0.250000X-0.600000X0.400000X-0.600000X-0.400000X0.600000X-0.400000X0.600000X0.400000X0*%
%TD*%
%TA.AperFunction,SMDPad,CuDef*%
%ADD24RoundRect,0.250000X0.337500X0.475000X-0.337500X0.475000X-0.337500X-0.475000X0.337500X-0.475000X0*%
%TD*%
%TA.AperFunction,SMDPad,CuDef*%
%ADD25RoundRect,0.150000X0.875000X0.150000X-0.875000X0.150000X-0.875000X-0.150000X0.875000X-0.150000X0*%
%TD*%
%TA.AperFunction,SMDPad,CuDef*%
%ADD26RoundRect,0.237500X0.250000X0.237500X-0.250000X0.237500X-0.250000X-0.237500X0.250000X-0.237500X0*%
%TD*%
%TA.AperFunction,SMDPad,CuDef*%
%ADD27R,2.600000X5.560000*%
%TD*%
%TA.AperFunction,SMDPad,CuDef*%
%ADD28C,17.800000*%
%TD*%
%TA.AperFunction,SMDPad,CuDef*%
%ADD29RoundRect,0.237500X-0.237500X0.300000X-0.237500X-0.300000X0.237500X-0.300000X0.237500X0.300000X0*%
%TD*%
%TA.AperFunction,SMDPad,CuDef*%
%ADD30R,0.700000X1.600000*%
%TD*%
%TA.AperFunction,SMDPad,CuDef*%
%ADD31R,1.200000X2.200000*%
%TD*%
%TA.AperFunction,SMDPad,CuDef*%
%ADD32R,1.600000X1.400000*%
%TD*%
%TA.AperFunction,SMDPad,CuDef*%
%ADD33R,1.200000X1.400000*%
%TD*%
%TA.AperFunction,ComponentPad*%
%ADD34R,1.000000X1.000000*%
%TD*%
%TA.AperFunction,ComponentPad*%
%ADD35O,1.000000X1.000000*%
%TD*%
%TA.AperFunction,ViaPad*%
%ADD36C,0.800000*%
%TD*%
%TA.AperFunction,ViaPad*%
%ADD37C,3.000000*%
%TD*%
%TA.AperFunction,Conductor*%
%ADD38C,0.150000*%
%TD*%
%TA.AperFunction,Conductor*%
%ADD39C,0.250000*%
%TD*%
G04 APERTURE END LIST*
D10*
%TO.P,P1,S1,SHIELD*%
%TO.N,unconnected-(P1-SHIELD-PadS1)_3*%
X107517400Y-65991200D03*
D11*
%TO.N,unconnected-(P1-SHIELD-PadS1)_1*%
X111717400Y-65991200D03*
D10*
%TO.N,unconnected-(P1-SHIELD-PadS1)*%
X107517400Y-57351200D03*
D11*
%TO.N,unconnected-(P1-SHIELD-PadS1)_2*%
X111717400Y-57351200D03*
%TD*%
D12*
%TO.P,U7,1,VCC*%
%TO.N,Net-(Q8-D)*%
X54620000Y-44580000D03*
%TO.P,U7,2,RST*%
%TO.N,RST_GSM*%
X54620000Y-47120000D03*
D13*
%TO.P,U7,3,RXD*%
%TO.N,RXD_GSM*%
X54620000Y-49660000D03*
%TO.P,U7,4,TXD*%
%TO.N,TXD_GSM*%
X54620000Y-52200000D03*
%TO.P,U7,5,GND*%
%TO.N,GND*%
X54620000Y-54740000D03*
D12*
%TO.P,U7,6,SPKM*%
%TO.N,unconnected-(U7-SPKM-Pad6)*%
X76464000Y-57280000D03*
%TO.P,U7,7,SPKN*%
%TO.N,unconnected-(U7-SPKN-Pad7)*%
X76464000Y-54740000D03*
%TO.P,U7,8,MICN*%
%TO.N,Net-(J1-Pin_1)*%
X76464000Y-52200000D03*
%TO.P,U7,9,MICP*%
%TO.N,Net-(J1-Pin_2)*%
X76464000Y-49660000D03*
%TO.P,U7,10,DTR*%
%TO.N,unconnected-(U7-DTR-Pad10)*%
X76464000Y-47120000D03*
%TO.P,U7,11,RING*%
%TO.N,unconnected-(U7-RING-Pad11)*%
X76464000Y-44580000D03*
%TD*%
D14*
%TO.P,J4,1,Pin_1*%
%TO.N,Net-(J4-Pin_1)*%
X50240000Y-44450000D03*
%TO.P,J4,2,Pin_2*%
%TO.N,Net-(IC1-BAT)*%
X50240000Y-43180000D03*
%TD*%
D15*
%TO.P,J1,1,Pin_1*%
%TO.N,Net-(J1-Pin_1)*%
X74440000Y-60560000D03*
%TO.P,J1,2,Pin_2*%
%TO.N,Net-(J1-Pin_2)*%
X73170000Y-60560000D03*
%TD*%
D16*
%TO.P,U4,39,GND*%
%TO.N,GND*%
X91051400Y-51179900D03*
X91051400Y-52704900D03*
X91813900Y-50417400D03*
X91813900Y-51942400D03*
X91813900Y-53467400D03*
X92576400Y-51179900D03*
X92576400Y-52704900D03*
X93338900Y-50417400D03*
X93338900Y-51942400D03*
X93338900Y-53467400D03*
X94101400Y-51179900D03*
X94101400Y-52704900D03*
%TD*%
D17*
%TO.P,U6,1,VCC*%
%TO.N,Net-(Q3-D)*%
X94945200Y-73075800D03*
%TO.P,U6,2,RX*%
%TO.N,GPS_RX*%
X92405200Y-73075800D03*
%TO.P,U6,3,TX*%
%TO.N,GPS_TX*%
X89865200Y-73075800D03*
%TO.P,U6,4,GND*%
%TO.N,GND*%
X87325200Y-73075800D03*
%TD*%
D18*
%TO.P,R29,1*%
%TO.N,Net-(JP4-A)*%
X99007500Y-70900000D03*
%TO.P,R29,2*%
%TO.N,Net-(JP2-B)*%
X100832500Y-70900000D03*
%TD*%
%TO.P,JP1,1,A*%
%TO.N,GND*%
X99015000Y-67850000D03*
%TO.P,JP1,2,B*%
%TO.N,Net-(JP1-B)*%
X100840000Y-67850000D03*
%TD*%
D19*
%TO.P,U13,1,A0*%
%TO.N,Net-(JP3-B)*%
X102865000Y-72105000D03*
%TO.P,U13,2,A1*%
%TO.N,Net-(JP2-B)*%
X102865000Y-70835000D03*
%TO.P,U13,3,A2*%
%TO.N,Net-(JP1-B)*%
X102865000Y-69565000D03*
%TO.P,U13,4,GND*%
%TO.N,GND*%
X102865000Y-68295000D03*
%TO.P,U13,5,SDA*%
%TO.N,SDA*%
X107815000Y-68295000D03*
%TO.P,U13,6,SCL*%
%TO.N,SCL*%
X107815000Y-69565000D03*
%TO.P,U13,7,WP*%
%TO.N,GND*%
X107815000Y-70835000D03*
%TO.P,U13,8,VCC*%
%TO.N,Net-(JP4-A)*%
X107815000Y-72105000D03*
%TD*%
D20*
%TO.P,R10,1*%
%TO.N,MICROSD_MOSI*%
X72210000Y-52730000D03*
%TO.P,R10,2*%
%TO.N,+3.3V*%
X72210000Y-54555000D03*
%TD*%
D21*
%TO.P,R31,1*%
%TO.N,Net-(D3-A)*%
X90190000Y-61310000D03*
%TO.P,R31,2*%
%TO.N,Net-(JP4-A)*%
X90190000Y-59485000D03*
%TD*%
D22*
%TO.P,C16,1*%
%TO.N,+3.3V*%
X69010000Y-54520000D03*
%TO.P,C16,2*%
%TO.N,GND*%
X69010000Y-52795000D03*
%TD*%
D18*
%TO.P,JP3,1,A*%
%TO.N,GND*%
X99005000Y-72370000D03*
%TO.P,JP3,2,B*%
%TO.N,Net-(JP3-B)*%
X100830000Y-72370000D03*
%TD*%
D22*
%TO.P,C27,1*%
%TO.N,Net-(JP4-A)*%
X92660000Y-64700000D03*
%TO.P,C27,2*%
%TO.N,GND*%
X92660000Y-62975000D03*
%TD*%
D18*
%TO.P,R28,1*%
%TO.N,Net-(JP4-A)*%
X99035000Y-66320000D03*
%TO.P,R28,2*%
%TO.N,Net-(JP1-B)*%
X100860000Y-66320000D03*
%TD*%
%TO.P,JP2,1,A*%
%TO.N,GND*%
X99005000Y-69370000D03*
%TO.P,JP2,2,B*%
%TO.N,Net-(JP2-B)*%
X100830000Y-69370000D03*
%TD*%
D23*
%TO.P,D3,1,K*%
%TO.N,Net-(BT1-+)*%
X92130000Y-57520000D03*
%TO.P,D3,2,A*%
%TO.N,Net-(D3-A)*%
X92130000Y-61020000D03*
%TD*%
D20*
%TO.P,JP4,1,A*%
%TO.N,Net-(JP4-A)*%
X90230000Y-62920000D03*
%TO.P,JP4,2,B*%
%TO.N,+3.3V*%
X90230000Y-64745000D03*
%TD*%
D24*
%TO.P,C1,1*%
%TO.N,+3.3V*%
X64345000Y-53480000D03*
%TO.P,C1,2*%
%TO.N,GND*%
X62270000Y-53480000D03*
%TD*%
D25*
%TO.P,U14,1,32KHZ*%
%TO.N,unconnected-(U14-32KHZ-Pad1)*%
X103990000Y-55580000D03*
%TO.P,U14,2,VCC*%
%TO.N,Net-(JP4-A)*%
X103990000Y-56850000D03*
%TO.P,U14,3,~{INT}/SQW*%
%TO.N,EXTERNAL_WOKE_UP*%
X103990000Y-58120000D03*
%TO.P,U14,4,~{RST}*%
%TO.N,unconnected-(U14-~{RST}-Pad4)*%
X103990000Y-59390000D03*
%TO.P,U14,5,GND*%
%TO.N,GND*%
X103990000Y-60660000D03*
%TO.P,U14,6,GND*%
X103990000Y-61930000D03*
%TO.P,U14,7,GND*%
X103990000Y-63200000D03*
%TO.P,U14,8,GND*%
X103990000Y-64470000D03*
%TO.P,U14,9,GND*%
X94690000Y-64470000D03*
%TO.P,U14,10,GND*%
X94690000Y-63200000D03*
%TO.P,U14,11,GND*%
X94690000Y-61930000D03*
%TO.P,U14,12,GND*%
X94690000Y-60660000D03*
%TO.P,U14,13,GND*%
X94690000Y-59390000D03*
%TO.P,U14,14,VBAT*%
%TO.N,Net-(BT1-+)*%
X94690000Y-58120000D03*
%TO.P,U14,15,SDA*%
%TO.N,SDA*%
X94690000Y-56850000D03*
%TO.P,U14,16,SCL*%
%TO.N,SCL*%
X94690000Y-55580000D03*
%TD*%
D26*
%TO.P,R12,1*%
%TO.N,MICROSD_MISO*%
X60670000Y-53400000D03*
%TO.P,R12,2*%
%TO.N,+3.3V*%
X58845000Y-53400000D03*
%TD*%
D27*
%TO.P,BT1,1,+*%
%TO.N,Net-(BT1-+)*%
X50370000Y-65130000D03*
X74180000Y-65130000D03*
D28*
%TO.P,BT1,2,-*%
%TO.N,GND*%
X62275000Y-65130000D03*
%TD*%
D20*
%TO.P,R24,1*%
%TO.N,MICROSD_CS*%
X70550000Y-52730000D03*
%TO.P,R24,2*%
%TO.N,+3.3V*%
X70550000Y-54555000D03*
%TD*%
D29*
%TO.P,C28,1*%
%TO.N,Net-(JP4-A)*%
X87720000Y-62980000D03*
%TO.P,C28,2*%
%TO.N,GND*%
X87720000Y-64705000D03*
%TD*%
D18*
%TO.P,R30,1*%
%TO.N,Net-(JP4-A)*%
X99005000Y-73830000D03*
%TO.P,R30,2*%
%TO.N,Net-(JP3-B)*%
X100830000Y-73830000D03*
%TD*%
D30*
%TO.P,J5,1,SHIELD*%
%TO.N,unconnected-(J5-SHIELD-Pad1)*%
X67680000Y-51510000D03*
%TO.P,J5,2,DAT1*%
%TO.N,MICROSD_CS*%
X66580000Y-51510000D03*
%TO.P,J5,3,DAT0*%
%TO.N,MICROSD_MOSI*%
X65480000Y-51510000D03*
%TO.P,J5,4,VSS*%
%TO.N,+3.3V*%
X64380000Y-51510000D03*
%TO.P,J5,5,CLK*%
%TO.N,MICROSD_CLK*%
X63280000Y-51510000D03*
%TO.P,J5,6,VDD*%
%TO.N,GND*%
X62180000Y-51510000D03*
%TO.P,J5,7,CMD*%
%TO.N,MICROSD_MISO*%
X61080000Y-51510000D03*
%TO.P,J5,8,DAT3/CD*%
%TO.N,unconnected-(J5-DAT3{slash}CD-Pad8)*%
X59980000Y-51510000D03*
%TO.P,J5,9,DAT2*%
%TO.N,unconnected-(J5-DAT2-Pad9)*%
X58880000Y-51510000D03*
D31*
%TO.P,J5,SH*%
%TO.N,N/C*%
X73180000Y-41410000D03*
D32*
X72280000Y-51010000D03*
D33*
X57680000Y-51010000D03*
D31*
X57680000Y-41410000D03*
%TD*%
D34*
%TO.P,J2,1,Pin_1*%
%TO.N,GND*%
X49650000Y-51500000D03*
D35*
%TO.P,J2,2,Pin_2*%
%TO.N,+3.3V*%
X49650000Y-52770000D03*
%TO.P,J2,3,Pin_3*%
%TO.N,SDA*%
X49650000Y-54040000D03*
%TO.P,J2,4,Pin_4*%
%TO.N,SCL*%
X49650000Y-55310000D03*
%TO.P,J2,5,Pin_5*%
%TO.N,Net-(J2-Pin_5)*%
X49650000Y-56580000D03*
%TO.P,J2,6,Pin_6*%
%TO.N,GND*%
X49650000Y-57850000D03*
%TD*%
D36*
%TO.N,GND*%
X69900000Y-57300000D03*
X71600000Y-57350000D03*
%TO.N,+3.3V*%
X51500000Y-59400000D03*
D37*
%TO.N,*%
X111100000Y-39050000D03*
X111100000Y-39050000D03*
X111100000Y-73180000D03*
X50240000Y-39030000D03*
D36*
%TO.N,GSM_POWER_SOURSE*%
X52813081Y-45983081D03*
X55372000Y-43180000D03*
%TO.N,GND*%
X78200000Y-44510000D03*
X60380000Y-43530000D03*
X85720000Y-62250000D03*
X74422000Y-46736000D03*
X109150000Y-60200000D03*
X61640000Y-38950000D03*
X111560000Y-63210000D03*
X96710000Y-54350000D03*
X49110000Y-45560000D03*
X108990000Y-49810000D03*
X49383869Y-60176483D03*
X110820000Y-49840000D03*
X87560000Y-60550000D03*
X70130000Y-43660000D03*
X73180000Y-70770000D03*
X63770000Y-73350000D03*
X103280000Y-66660000D03*
X104035392Y-54330500D03*
X66040000Y-42672000D03*
X96580000Y-50560000D03*
X87120000Y-56190000D03*
X64100000Y-57450000D03*
X49380000Y-70370000D03*
X86500000Y-44600000D03*
X58166000Y-46736000D03*
X60000000Y-61000000D03*
X104620000Y-63170000D03*
X69240000Y-66340000D03*
X52830000Y-71970000D03*
X111506000Y-67818000D03*
X59840000Y-70160000D03*
X100470000Y-62990000D03*
X81830000Y-73360000D03*
X90260000Y-55170000D03*
X104010000Y-60670000D03*
X96520000Y-63754000D03*
X63330000Y-44240000D03*
X104200000Y-49450000D03*
X88900000Y-64900000D03*
X50780000Y-41170000D03*
X55350000Y-38150000D03*
X52100000Y-50450000D03*
X111560000Y-59500000D03*
X108990000Y-51540000D03*
X80320000Y-57127500D03*
X92340000Y-59210000D03*
X90950000Y-46660500D03*
X99010000Y-67690000D03*
X62270000Y-53410000D03*
X65330000Y-67740000D03*
X92500000Y-44990000D03*
X69040000Y-52740000D03*
X109150000Y-62550000D03*
X54180000Y-66550000D03*
X105570000Y-68690000D03*
X110790000Y-51520000D03*
X96740000Y-45570000D03*
X111506000Y-70612000D03*
X60198000Y-46736000D03*
%TO.N,+3.3V*%
X82524600Y-54508400D03*
X106620000Y-53590000D03*
X66522902Y-73766816D03*
X110010000Y-55910000D03*
X52840000Y-73715000D03*
X94025337Y-66301868D03*
X67920000Y-73766816D03*
%TO.N,+5V*%
X74325000Y-44297600D03*
X64973056Y-47676944D03*
X50980000Y-47550000D03*
X104800000Y-53025000D03*
%TO.N,SDA*%
X80683798Y-52354500D03*
X77640000Y-59560000D03*
X99679500Y-56080000D03*
X70279549Y-59515049D03*
X99679500Y-50950000D03*
%TO.N,SCL*%
X70390000Y-73400000D03*
X71910000Y-65370000D03*
X70579429Y-60468504D03*
X71930500Y-63790000D03*
X79490000Y-52354500D03*
X70230000Y-70455500D03*
X78639498Y-59556808D03*
X100500000Y-47130000D03*
%TO.N,EN*%
X86200000Y-46960000D03*
X109860000Y-44610000D03*
%TO.N,Net-(Q2-B)*%
X104780000Y-45525500D03*
X111710000Y-47150000D03*
%TO.N,TXD*%
X109907701Y-47157701D03*
X100540000Y-48340000D03*
%TO.N,RXD*%
X100560000Y-49650000D03*
X108430000Y-47220000D03*
%TO.N,Net-(U3-D+)*%
X105484555Y-54008078D03*
X105540000Y-50194500D03*
%TO.N,GPS_TX*%
X100741492Y-59011906D03*
%TO.N,GPS_RX*%
X99680000Y-59010000D03*
%TO.N,MICROSD_MISO*%
X71990000Y-49260302D03*
X100590000Y-53450000D03*
X62247299Y-48022701D03*
%TO.N,MICROSD_CLK*%
X86208426Y-57705663D03*
%TO.N,TXD_GSM*%
X100540000Y-55304500D03*
%TO.N,RXD_GSM*%
X97700000Y-60740000D03*
%TO.N,POWER_OF_GSM*%
X88411694Y-46660500D03*
X86170000Y-56706900D03*
X89670000Y-50570000D03*
X53447944Y-42597944D03*
%TO.N,MICROSD_MOSI*%
X100510000Y-45880000D03*
%TO.N,MICROSD_CS*%
X88670000Y-50560000D03*
%TO.N,Net-(D6-K)*%
X67980000Y-38330000D03*
X49404500Y-47550000D03*
%TO.N,Net-(D7-K)*%
X67880000Y-39920000D03*
X49220000Y-49050000D03*
%TO.N,Net-(IC1-STDBY)*%
X66110000Y-45750000D03*
X66150000Y-40550000D03*
%TO.N,Net-(IC1-CHRG)*%
X66150000Y-46935500D03*
X66100000Y-38825500D03*
%TO.N,BATTERY_VOLTAGE*%
X86120000Y-52170000D03*
X73620567Y-54245500D03*
%TO.N,MPU5060_INT*%
X87870000Y-58820000D03*
X86150000Y-50940000D03*
X87320000Y-54650000D03*
X71840000Y-67445500D03*
%TO.N,RST_GSM*%
X87330000Y-46660500D03*
D37*
%TO.N,Net-(BT1-+)*%
X50270000Y-73200000D03*
D36*
%TO.N,EXTERNAL_WOKE_UP*%
X102075000Y-59800000D03*
%TD*%
D38*
%TO.N,+3.3V*%
X49811000Y-50011000D02*
X51562000Y-48260000D01*
X48685000Y-50665000D02*
X49339000Y-50011000D01*
X51562000Y-48260000D02*
X56896000Y-48260000D01*
X48685000Y-53000000D02*
X48685000Y-50665000D01*
X49339000Y-50011000D02*
X49811000Y-50011000D01*
%TO.N,Net-(D7-K)*%
X68655000Y-39145000D02*
X67880000Y-39920000D01*
X68655000Y-38050405D02*
X68655000Y-39145000D01*
X56938000Y-37550000D02*
X68154596Y-37550000D01*
X68154596Y-37550000D02*
X68655000Y-38050405D01*
X52070000Y-42418000D02*
X56938000Y-37550000D01*
X50655000Y-46235000D02*
X52070000Y-44820000D01*
X48730000Y-48560000D02*
X48730000Y-46480000D01*
X48730000Y-46480000D02*
X48975000Y-46235000D01*
X49220000Y-49050000D02*
X48730000Y-48560000D01*
X52070000Y-44820000D02*
X52070000Y-42418000D01*
X48975000Y-46235000D02*
X50655000Y-46235000D01*
%TO.N,+3.3V*%
X49535000Y-59400000D02*
X48685000Y-58550000D01*
X51500000Y-59400000D02*
X49535000Y-59400000D01*
X48685000Y-58550000D02*
X48685000Y-68075000D01*
X48685000Y-55118000D02*
X48685000Y-58550000D01*
%TO.N,RXD_GSM*%
X55470000Y-53500000D02*
X57234974Y-55264974D01*
X57234974Y-55264974D02*
X59270000Y-55264974D01*
X53445000Y-50835000D02*
X53445000Y-52844239D01*
X53445000Y-52844239D02*
X54100761Y-53500000D01*
X54620000Y-49660000D02*
X53445000Y-50835000D01*
X54100761Y-53500000D02*
X55470000Y-53500000D01*
%TO.N,SCL*%
X51310000Y-55310000D02*
X50000000Y-55310000D01*
X52000000Y-56000000D02*
X51310000Y-55310000D01*
X58114974Y-56000000D02*
X52000000Y-56000000D01*
X58500000Y-55614974D02*
X58114974Y-56000000D01*
X59000000Y-55614974D02*
X58500000Y-55614974D01*
X59000000Y-55614974D02*
X67104974Y-55614974D01*
%TO.N,+3.3V*%
X48915000Y-52770000D02*
X48685000Y-53000000D01*
X50000000Y-52770000D02*
X48915000Y-52770000D01*
X48685000Y-55118000D02*
X48685000Y-53000000D01*
%TO.N,GSM_POWER_SOURSE*%
X55372000Y-43180000D02*
X55202000Y-43350000D01*
D39*
X52820000Y-43810000D02*
X53307056Y-43322944D01*
X52813081Y-45983081D02*
X52820000Y-45976162D01*
X53307056Y-43322944D02*
X55229056Y-43322944D01*
X55229056Y-43322944D02*
X55372000Y-43180000D01*
X52820000Y-45976162D02*
X52820000Y-43810000D01*
D38*
%TO.N,GND*%
X98455000Y-69370000D02*
X98245000Y-69160000D01*
X98905000Y-67960000D02*
X98410000Y-67960000D01*
X99005000Y-69370000D02*
X98455000Y-69370000D01*
D39*
X104010000Y-60670000D02*
X103990000Y-61980000D01*
D38*
X62270000Y-53480000D02*
X62270000Y-53410000D01*
X62200000Y-53410000D02*
X62180000Y-53390000D01*
D39*
X103990000Y-60660000D02*
X104010000Y-60670000D01*
X92915000Y-63200000D02*
X92690000Y-62975000D01*
D38*
X98245000Y-68620000D02*
X98245000Y-69160000D01*
D39*
X104035392Y-49614608D02*
X104200000Y-49450000D01*
D38*
X99010000Y-67690000D02*
X98905000Y-67960000D01*
X62270000Y-53480000D02*
X62270000Y-53480000D01*
D39*
X105781751Y-70835000D02*
X107815000Y-70835000D01*
X103990000Y-62080000D02*
X103990000Y-64470000D01*
D38*
X62270000Y-53410000D02*
X62200000Y-53410000D01*
X98410000Y-67960000D02*
X98250000Y-68120000D01*
D39*
X105053375Y-70106625D02*
X105781751Y-70835000D01*
X104265000Y-68295000D02*
X105053375Y-69083375D01*
X104035392Y-54330500D02*
X104035392Y-49614608D01*
X105053375Y-69083375D02*
X105053375Y-70106625D01*
D38*
X94690000Y-63200000D02*
X92885000Y-63200000D01*
X98250000Y-68120000D02*
X98250000Y-68615000D01*
X98250000Y-68615000D02*
X98245000Y-68620000D01*
X62180000Y-53390000D02*
X62180000Y-51510000D01*
D39*
X103990000Y-61980000D02*
X104040000Y-62030000D01*
D38*
X99015000Y-67850000D02*
X99010000Y-67690000D01*
X92885000Y-63200000D02*
X92660000Y-62975000D01*
D39*
X104040000Y-62030000D02*
X103990000Y-62080000D01*
X102865000Y-68295000D02*
X104265000Y-68295000D01*
D38*
%TO.N,+3.3V*%
X72575000Y-54920000D02*
X74000000Y-54920000D01*
X82173000Y-54860000D02*
X82524600Y-54508400D01*
X62587701Y-47347701D02*
X61722000Y-47347701D01*
X62992000Y-49276000D02*
X62992000Y-47752000D01*
X50055000Y-69445000D02*
X50055000Y-70474770D01*
X67970000Y-53480000D02*
X69010000Y-54520000D01*
X62992000Y-47752000D02*
X62587701Y-47347701D01*
X70515000Y-54520000D02*
X69010000Y-54520000D01*
X56610000Y-52440000D02*
X56610000Y-48546000D01*
X64345000Y-53480000D02*
X64380000Y-53445000D01*
D39*
X91936868Y-66301868D02*
X90230000Y-64595000D01*
D38*
X72210000Y-54555000D02*
X72575000Y-54920000D01*
X52840000Y-73259770D02*
X52840000Y-73715000D01*
X64380000Y-51510000D02*
X64380000Y-50292000D01*
X74440000Y-54165026D02*
X75245026Y-53360000D01*
X75245026Y-53360000D02*
X77498213Y-53360000D01*
X64345000Y-53480000D02*
X67970000Y-53480000D01*
X67920000Y-73766816D02*
X66522902Y-73766816D01*
X50055000Y-70474770D02*
X52840000Y-73259770D01*
X74000000Y-54920000D02*
X74440000Y-54480000D01*
X64068000Y-49980000D02*
X63696000Y-49980000D01*
X77498213Y-53360000D02*
X78998212Y-54860000D01*
X60809701Y-48260000D02*
X61722000Y-47347701D01*
D39*
X94025337Y-66301868D02*
X91936868Y-66301868D01*
X110010000Y-55910000D02*
X107010000Y-55910000D01*
D38*
X70550000Y-54555000D02*
X70515000Y-54520000D01*
X64380000Y-53445000D02*
X64380000Y-51510000D01*
D39*
X107010000Y-55910000D02*
X107000000Y-55900000D01*
D38*
X56896000Y-48260000D02*
X57280000Y-48260000D01*
D39*
X106620000Y-55520000D02*
X106620000Y-53590000D01*
D38*
X70550000Y-54555000D02*
X72210000Y-54555000D01*
X64380000Y-50292000D02*
X64068000Y-49980000D01*
X57570000Y-53400000D02*
X56610000Y-52440000D01*
X78998212Y-54860000D02*
X82173000Y-54860000D01*
X58845000Y-53400000D02*
X57570000Y-53400000D01*
X48685000Y-68075000D02*
X50055000Y-69445000D01*
X56896000Y-48260000D02*
X60809701Y-48260000D01*
X56610000Y-48546000D02*
X56896000Y-48260000D01*
D39*
X107000000Y-55900000D02*
X106620000Y-55520000D01*
D38*
X74440000Y-54480000D02*
X74440000Y-54165026D01*
X63696000Y-49980000D02*
X62992000Y-49276000D01*
%TO.N,+5V*%
X50980000Y-47550000D02*
X52600148Y-47550000D01*
X64175000Y-45605000D02*
X64880000Y-46310000D01*
X53115879Y-46634172D02*
X54145051Y-45605000D01*
D39*
X104800000Y-49909195D02*
X106764195Y-47945000D01*
X104800000Y-53025000D02*
X104800000Y-49909195D01*
D38*
X64880000Y-47583888D02*
X64973056Y-47676944D01*
X52600148Y-47550000D02*
X53115879Y-47034269D01*
D39*
X75117600Y-43505000D02*
X74325000Y-44297600D01*
X110595000Y-43505000D02*
X75117600Y-43505000D01*
D38*
X54145051Y-45605000D02*
X64175000Y-45605000D01*
D39*
X106764195Y-47945000D02*
X111940305Y-47945000D01*
D38*
X64880000Y-46310000D02*
X64880000Y-47583888D01*
D39*
X111940305Y-47945000D02*
X112435000Y-47450305D01*
D38*
X53115879Y-47034269D02*
X53115879Y-46634172D01*
D39*
X112435000Y-47450305D02*
X112435000Y-45345000D01*
X112435000Y-45345000D02*
X110595000Y-43505000D01*
D38*
%TO.N,SDA*%
X109440000Y-68140000D02*
X109440000Y-67690000D01*
X70854598Y-58940000D02*
X71354975Y-58940000D01*
X81880000Y-48450000D02*
X98680000Y-48450000D01*
X80683798Y-49646202D02*
X81880000Y-48450000D01*
X98680000Y-56850000D02*
X94690000Y-56850000D01*
X109300000Y-67550000D02*
X106855026Y-67550000D01*
X109440000Y-67690000D02*
X109300000Y-67550000D01*
X105480000Y-66174974D02*
X105480000Y-56700000D01*
X105480000Y-56700000D02*
X105055000Y-56275000D01*
X77550000Y-59560000D02*
X77640000Y-59560000D01*
X71359975Y-58935000D02*
X76925000Y-58935000D01*
X99679500Y-56080000D02*
X98909500Y-56850000D01*
X99230000Y-49000000D02*
X99230000Y-50500500D01*
X107815000Y-68295000D02*
X109285000Y-68295000D01*
X106855026Y-67550000D02*
X105480000Y-66174974D01*
X105055000Y-56275000D02*
X101325000Y-56275000D01*
X109285000Y-68295000D02*
X109440000Y-68140000D01*
X99230000Y-50500500D02*
X99679500Y-50950000D01*
X100750000Y-56850000D02*
X98680000Y-56850000D01*
X101325000Y-56275000D02*
X100750000Y-56850000D01*
X70279549Y-59515049D02*
X70854598Y-58940000D01*
X98909500Y-56850000D02*
X98680000Y-56850000D01*
X98680000Y-48450000D02*
X99230000Y-49000000D01*
X80683798Y-52354500D02*
X80683798Y-49646202D01*
X76925000Y-58935000D02*
X77550000Y-59560000D01*
X71354975Y-58940000D02*
X71359975Y-58935000D01*
%TO.N,SCL*%
X109290000Y-67040000D02*
X109790000Y-67540000D01*
X94690000Y-55580000D02*
X97230000Y-55580000D01*
X106840000Y-67040000D02*
X109290000Y-67040000D01*
X101372500Y-51682500D02*
X100795000Y-51105000D01*
X109665000Y-69565000D02*
X107815000Y-69565000D01*
X70230000Y-70455500D02*
X70230000Y-73240000D01*
X99860000Y-47770000D02*
X99860000Y-50170000D01*
X73338000Y-56485000D02*
X75438000Y-58585000D01*
X77796306Y-60400000D02*
X78639498Y-59556808D01*
X76885485Y-60400000D02*
X77796306Y-60400000D01*
X99860000Y-50170000D02*
X100795000Y-51105000D01*
X70230000Y-73240000D02*
X70390000Y-73400000D01*
X75438000Y-58585000D02*
X78175000Y-58585000D01*
X109790000Y-69440000D02*
X109665000Y-69565000D01*
X99530000Y-48100000D02*
X100500000Y-47130000D01*
X97230000Y-55580000D02*
X98180000Y-54630000D01*
X71762933Y-59285000D02*
X75770485Y-59285000D01*
X109790000Y-67540000D02*
X109790000Y-69440000D01*
X80350000Y-48100000D02*
X99530000Y-48100000D01*
X105850000Y-55813959D02*
X105850000Y-66050000D01*
X71930500Y-63790000D02*
X71930500Y-65349500D01*
X101372500Y-54677500D02*
X101325000Y-54630000D01*
X78639498Y-59049498D02*
X78639498Y-59556808D01*
X100500000Y-47130000D02*
X99860000Y-47770000D01*
X98180000Y-54630000D02*
X101325000Y-54630000D01*
X79490000Y-52354500D02*
X79490000Y-48960000D01*
X101372500Y-54677500D02*
X101700000Y-55005000D01*
X105041041Y-55005000D02*
X105850000Y-55813959D01*
X79490000Y-52354500D02*
X79490000Y-52060000D01*
X70579429Y-60468504D02*
X71762933Y-59285000D01*
X71930500Y-65349500D02*
X71910000Y-65370000D01*
X78175000Y-58585000D02*
X78639498Y-59049498D01*
X79490000Y-48960000D02*
X80350000Y-48100000D01*
X75770485Y-59285000D02*
X76885485Y-60400000D01*
X67104974Y-55614974D02*
X67975000Y-56485000D01*
X67975000Y-56485000D02*
X73338000Y-56485000D01*
X101372500Y-54677500D02*
X101372500Y-51682500D01*
X105850000Y-66050000D02*
X106840000Y-67040000D01*
X101700000Y-55005000D02*
X105041041Y-55005000D01*
D39*
%TO.N,unconnected-(P1-SHIELD-PadS1)*%
X107517400Y-65991200D02*
X111717400Y-65991200D01*
X107517400Y-57351200D02*
X111717400Y-57351200D01*
D38*
%TO.N,EN*%
X100745000Y-44610000D02*
X98020000Y-47335000D01*
X86575000Y-47335000D02*
X86200000Y-46960000D01*
X109860000Y-44610000D02*
X100745000Y-44610000D01*
X98020000Y-47335000D02*
X86575000Y-47335000D01*
%TO.N,Net-(Q2-B)*%
X110755000Y-46195000D02*
X105449500Y-46195000D01*
X111710000Y-47150000D02*
X110755000Y-46195000D01*
X105449500Y-46195000D02*
X104780000Y-45525500D01*
%TO.N,TXD*%
X102335000Y-46545000D02*
X109295000Y-46545000D01*
X109295000Y-46545000D02*
X109907701Y-47157701D01*
X100540000Y-48340000D02*
X102335000Y-46545000D01*
%TO.N,RXD*%
X100560000Y-49650000D02*
X100560000Y-49415000D01*
X100560000Y-49415000D02*
X102925000Y-47050000D01*
X108430000Y-47220000D02*
X108260000Y-47050000D01*
X108260000Y-47050000D02*
X102925000Y-47050000D01*
%TO.N,Net-(U3-D+)*%
X105540000Y-50194500D02*
X105540000Y-53952633D01*
D39*
X105540000Y-53952633D02*
X105484555Y-54008078D01*
D38*
%TO.N,GPS_TX*%
X100064586Y-58335000D02*
X99355000Y-58335000D01*
X99000000Y-63464000D02*
X99000000Y-58690000D01*
X100064586Y-58335000D02*
X100741492Y-59011906D01*
X91821000Y-71120000D02*
X94300000Y-71120000D01*
X96675000Y-69720026D02*
X96675000Y-65789000D01*
X89865200Y-73075800D02*
X91821000Y-71120000D01*
X99135000Y-58555000D02*
X98998871Y-58691129D01*
X95275026Y-71120000D02*
X96675000Y-69720026D01*
X94300000Y-71120000D02*
X95275026Y-71120000D01*
X94300000Y-71120000D02*
X94640000Y-71120000D01*
X99000000Y-58690000D02*
X99135000Y-58555000D01*
X99355000Y-58335000D02*
X99135000Y-58555000D01*
X96675000Y-65789000D02*
X99000000Y-63464000D01*
%TO.N,GPS_RX*%
X97025000Y-69865000D02*
X96060000Y-70830000D01*
X97025000Y-66043000D02*
X97025000Y-69865000D01*
X94350000Y-71470000D02*
X95420000Y-71470000D01*
X99680000Y-59010000D02*
X99680000Y-63388000D01*
X94011000Y-71470000D02*
X94350000Y-71470000D01*
X99680000Y-63388000D02*
X97025000Y-66043000D01*
X92405200Y-73075800D02*
X94011000Y-71470000D01*
X94350000Y-71470000D02*
X94840000Y-71470000D01*
X95420000Y-71470000D02*
X96060000Y-70830000D01*
X96060000Y-70830000D02*
X96320000Y-70570000D01*
%TO.N,MICROSD_MISO*%
X62247299Y-48022701D02*
X61877299Y-48022701D01*
X81810000Y-52775026D02*
X81025026Y-53560000D01*
X78115000Y-48495000D02*
X78570000Y-48950000D01*
X89970000Y-48800000D02*
X89700000Y-48800000D01*
X71990000Y-49050000D02*
X71990000Y-49260302D01*
X71990000Y-49200000D02*
X72695000Y-48495000D01*
X61877299Y-48022701D02*
X61080000Y-48820000D01*
X97870000Y-48800000D02*
X98760000Y-49690000D01*
X81025026Y-53560000D02*
X79740905Y-53560000D01*
X71990000Y-49260302D02*
X71990000Y-49200000D01*
X61080000Y-52990000D02*
X61080000Y-51510000D01*
X79740905Y-53560000D02*
X78570000Y-52389095D01*
X72695000Y-48495000D02*
X78115000Y-48495000D01*
X89970000Y-48800000D02*
X82710000Y-48800000D01*
X82710000Y-48800000D02*
X81810000Y-49700000D01*
X98760000Y-49690000D02*
X98760000Y-52800000D01*
X100590000Y-53450000D02*
X100580000Y-53460000D01*
X89970000Y-48800000D02*
X97870000Y-48800000D01*
X60670000Y-53400000D02*
X61080000Y-52990000D01*
X78570000Y-48950000D02*
X78570000Y-50020000D01*
X78570000Y-52389095D02*
X78570000Y-50020000D01*
X99410000Y-53450000D02*
X100590000Y-53450000D01*
X78570000Y-50020000D02*
X78570000Y-49846761D01*
X89700000Y-48800000D02*
X89520000Y-48800000D01*
X81810000Y-49700000D02*
X81810000Y-52775026D01*
X71990000Y-49050000D02*
X71970000Y-49030000D01*
X61080000Y-48820000D02*
X61080000Y-51510000D01*
X98760000Y-52800000D02*
X99410000Y-53450000D01*
%TO.N,MICROSD_CLK*%
X75385000Y-53715000D02*
X77358239Y-53715000D01*
X67620000Y-54500000D02*
X68550000Y-55430000D01*
X74224000Y-55430000D02*
X74790000Y-54864000D01*
X83192125Y-55320000D02*
X85577788Y-57705663D01*
X63280000Y-51510000D02*
X63280000Y-53969962D01*
X68550000Y-55430000D02*
X74224000Y-55430000D01*
X78963238Y-55320000D02*
X83192125Y-55320000D01*
X63280000Y-53969962D02*
X63810038Y-54500000D01*
X77358239Y-53715000D02*
X78963238Y-55320000D01*
X74790000Y-54310000D02*
X75385000Y-53715000D01*
X63810038Y-54500000D02*
X67620000Y-54500000D01*
X85577788Y-57705663D02*
X86208426Y-57705663D01*
X74790000Y-54864000D02*
X74790000Y-54310000D01*
%TO.N,TXD_GSM*%
X57930000Y-54890000D02*
X56260000Y-53220000D01*
X55900000Y-52200000D02*
X54620000Y-52200000D01*
X98324974Y-54980000D02*
X97149974Y-56155000D01*
X67515026Y-54890000D02*
X57930000Y-54890000D01*
X88875000Y-56155000D02*
X86527151Y-58502849D01*
X100540000Y-55304500D02*
X100215500Y-54980000D01*
X83157151Y-55780000D02*
X68405026Y-55780000D01*
X86527151Y-58502849D02*
X85880000Y-58502849D01*
X56260000Y-53220000D02*
X56260000Y-52560000D01*
X56260000Y-52560000D02*
X55900000Y-52200000D01*
X97149974Y-56155000D02*
X88875000Y-56155000D01*
X68405026Y-55780000D02*
X67515026Y-54890000D01*
X85880000Y-58502849D02*
X83157151Y-55780000D01*
X100215500Y-54980000D02*
X98324974Y-54980000D01*
%TO.N,RXD_GSM*%
X97650000Y-60690000D02*
X97700000Y-60740000D01*
X97650000Y-58050000D02*
X97650000Y-60690000D01*
X93255000Y-56695000D02*
X93255000Y-57041041D01*
X93638959Y-57425000D02*
X97025000Y-57425000D01*
X86672125Y-58852849D02*
X88929974Y-56595000D01*
X67395026Y-55264974D02*
X68260052Y-56130000D01*
X88929974Y-56595000D02*
X93155000Y-56595000D01*
X93155000Y-56595000D02*
X93255000Y-56695000D01*
X93255000Y-57041041D02*
X93638959Y-57425000D01*
X85735026Y-58852849D02*
X86672125Y-58852849D01*
X83012177Y-56130000D02*
X85735026Y-58852849D01*
X97025000Y-57425000D02*
X97650000Y-58050000D01*
X68260052Y-56130000D02*
X83012177Y-56130000D01*
X59270000Y-55264974D02*
X67395026Y-55264974D01*
X59002716Y-55264974D02*
X59270000Y-55264974D01*
%TO.N,POWER_OF_GSM*%
X86170000Y-56706900D02*
X86170000Y-55680000D01*
X56920000Y-44950000D02*
X56920000Y-43235000D01*
X64319974Y-45255000D02*
X57225000Y-45255000D01*
X86450000Y-55400000D02*
X88220000Y-55400000D01*
X53540888Y-42505000D02*
X53447944Y-42597944D01*
X88220000Y-55400000D02*
X89670000Y-53950000D01*
X89670000Y-53950000D02*
X89670000Y-50570000D01*
X56190000Y-42505000D02*
X53540888Y-42505000D01*
X86450000Y-55400000D02*
X86170000Y-55680000D01*
X65860000Y-47610000D02*
X65230000Y-46980000D01*
X65230000Y-46980000D02*
X65230000Y-46165026D01*
X66430095Y-47610000D02*
X65860000Y-47610000D01*
X68352393Y-45687702D02*
X66430095Y-47610000D01*
X87438896Y-45687702D02*
X68352393Y-45687702D01*
X65230000Y-46165026D02*
X64319974Y-45255000D01*
X88411694Y-46660500D02*
X87438896Y-45687702D01*
X56920000Y-43235000D02*
X56190000Y-42505000D01*
X57225000Y-45255000D02*
X56920000Y-44950000D01*
%TO.N,MICROSD_MOSI*%
X71620000Y-48230000D02*
X71705000Y-48145000D01*
X80205026Y-47750000D02*
X98640000Y-47750000D01*
X65480000Y-51510000D02*
X65480000Y-50910000D01*
X79810026Y-48145000D02*
X80205026Y-47750000D01*
X71205000Y-51985000D02*
X71205000Y-48645000D01*
X71950000Y-52730000D02*
X71205000Y-51985000D01*
X98640000Y-47750000D02*
X100510000Y-45880000D01*
X72210000Y-52730000D02*
X71950000Y-52730000D01*
X71205000Y-48645000D02*
X71620000Y-48230000D01*
X65480000Y-51510000D02*
X65480000Y-50070000D01*
X65480000Y-50070000D02*
X65790000Y-49760000D01*
X71705000Y-48145000D02*
X79810026Y-48145000D01*
X65790000Y-49760000D02*
X70090000Y-49760000D01*
X70090000Y-49760000D02*
X71620000Y-48230000D01*
X65480000Y-50910000D02*
X65490000Y-50900000D01*
X98705000Y-47685000D02*
X100510000Y-45880000D01*
%TO.N,MICROSD_CS*%
X88670000Y-50560000D02*
X87290000Y-49180000D01*
X80983284Y-54096716D02*
X79411690Y-54096716D01*
X70130000Y-50210000D02*
X66770000Y-50210000D01*
X77690000Y-50800000D02*
X74890000Y-50800000D01*
X82160000Y-52920000D02*
X80983284Y-54096716D01*
X66770000Y-50210000D02*
X66580000Y-50400000D01*
X74640000Y-51050000D02*
X74640000Y-52044974D01*
X82824974Y-49180000D02*
X82160000Y-49844974D01*
X79411690Y-54096716D02*
X78220000Y-52905026D01*
X70550000Y-52730000D02*
X70550000Y-50630000D01*
X87290000Y-49180000D02*
X82824974Y-49180000D01*
X74640000Y-52044974D02*
X73104974Y-53580000D01*
X66580000Y-50400000D02*
X66580000Y-51510000D01*
X73104974Y-53580000D02*
X70820000Y-53580000D01*
X70550000Y-50630000D02*
X70130000Y-50210000D01*
X78220000Y-51330000D02*
X77690000Y-50800000D01*
X78220000Y-52905026D02*
X78220000Y-51330000D01*
X82160000Y-49844974D02*
X82160000Y-52920000D01*
X70820000Y-53580000D02*
X70550000Y-53310000D01*
X74890000Y-50800000D02*
X74640000Y-51050000D01*
X70550000Y-53310000D02*
X70550000Y-52730000D01*
%TO.N,Net-(D6-K)*%
X52420000Y-42672000D02*
X56941500Y-38150500D01*
X67800500Y-38150500D02*
X67980000Y-38330000D01*
X50799974Y-46585000D02*
X52420000Y-44964974D01*
X49745000Y-46585000D02*
X50799974Y-46585000D01*
X49404500Y-46925500D02*
X49745000Y-46585000D01*
X49404500Y-47550000D02*
X49404500Y-46925500D01*
X52420000Y-44964974D02*
X52420000Y-42672000D01*
X56941500Y-38150500D02*
X67800500Y-38150500D01*
%TO.N,Net-(IC1-STDBY)*%
X66150000Y-40550000D02*
X66715000Y-41115000D01*
X66715000Y-45145000D02*
X66110000Y-45750000D01*
X66715000Y-41115000D02*
X66715000Y-45145000D01*
%TO.N,Net-(IC1-CHRG)*%
X67065000Y-46020500D02*
X66150000Y-46935500D01*
X66100000Y-38825500D02*
X67065000Y-39790500D01*
X67065000Y-39790500D02*
X67065000Y-46020500D01*
%TO.N,BATTERY_VOLTAGE*%
X81648405Y-54430000D02*
X81640000Y-54430000D01*
X77739000Y-52844239D02*
X77739000Y-51554000D01*
X74990000Y-52189948D02*
X73620567Y-53559381D01*
X77701619Y-52881619D02*
X77739000Y-52844239D01*
X74990000Y-51400000D02*
X74990000Y-52189948D01*
X73620567Y-53559381D02*
X73620567Y-54245500D01*
X81640000Y-54430000D02*
X81560000Y-54510000D01*
X77360000Y-51175000D02*
X75215000Y-51175000D01*
X82620000Y-53458406D02*
X81648405Y-54430000D01*
X81560000Y-54510000D02*
X79330000Y-54510000D01*
X75215000Y-51175000D02*
X74990000Y-51400000D01*
X86120000Y-52170000D02*
X83020000Y-52170000D01*
X82620000Y-52570000D02*
X82620000Y-53458406D01*
X83020000Y-52170000D02*
X82620000Y-52570000D01*
X79330000Y-54510000D02*
X77701619Y-52881619D01*
X77739000Y-51554000D02*
X77360000Y-51175000D01*
%TO.N,MPU5060_INT*%
X72605000Y-62870000D02*
X72605000Y-62215000D01*
X75580000Y-61980000D02*
X78280000Y-61980000D01*
X87290000Y-51260000D02*
X87290000Y-54620000D01*
X78910000Y-61980000D02*
X75580000Y-61980000D01*
X71840000Y-67445500D02*
X72605000Y-66680500D01*
X86970000Y-50940000D02*
X87290000Y-51260000D01*
X72840000Y-61980000D02*
X75580000Y-61980000D01*
X87290000Y-54620000D02*
X87320000Y-54650000D01*
X78280000Y-61980000D02*
X78559095Y-61980000D01*
X87487151Y-59202849D02*
X81687151Y-59202849D01*
X72605000Y-62215000D02*
X72840000Y-61980000D01*
X72605000Y-66680500D02*
X72605000Y-62870000D01*
X87870000Y-58820000D02*
X87487151Y-59202849D01*
X86150000Y-50940000D02*
X86970000Y-50940000D01*
X81687151Y-59202849D02*
X78910000Y-61980000D01*
%TO.N,RST_GSM*%
X68496195Y-46040000D02*
X86709500Y-46040000D01*
X86709500Y-46040000D02*
X87330000Y-46660500D01*
X54620000Y-47120000D02*
X54620000Y-46190000D01*
X64660000Y-48400000D02*
X66136196Y-48400000D01*
X64298056Y-46698056D02*
X64298056Y-48038056D01*
X54855000Y-45955000D02*
X63555000Y-45955000D01*
X54620000Y-46190000D02*
X54855000Y-45955000D01*
X64298056Y-48038056D02*
X64660000Y-48400000D01*
X63555000Y-45955000D02*
X64298056Y-46698056D01*
X66136196Y-48400000D02*
X68496195Y-46040000D01*
%TO.N,Net-(BT1-+)*%
X81940000Y-59630000D02*
X76300000Y-65270000D01*
X88360000Y-59630000D02*
X81940000Y-59630000D01*
X93090000Y-57520000D02*
X92130000Y-57520000D01*
X90470000Y-57520000D02*
X88360000Y-59630000D01*
X92130000Y-57520000D02*
X90470000Y-57520000D01*
X93690000Y-58120000D02*
X93090000Y-57520000D01*
X94690000Y-58120000D02*
X93690000Y-58120000D01*
X76300000Y-65270000D02*
X74180000Y-65270000D01*
%TO.N,Net-(JP4-A)*%
X94835000Y-65045000D02*
X93035000Y-65045000D01*
D39*
X87690000Y-62810000D02*
X87730000Y-62770000D01*
D38*
X99035000Y-66320000D02*
X99777500Y-67062500D01*
X103990000Y-56850000D02*
X102125000Y-56850000D01*
X101450000Y-59350000D02*
X100575000Y-60225000D01*
X98595000Y-73960000D02*
X96690000Y-73960000D01*
X102125000Y-56850000D02*
X101450000Y-57525000D01*
X91770000Y-64700000D02*
X92660000Y-64700000D01*
X91220000Y-62920000D02*
X90230000Y-62920000D01*
X101575000Y-62350000D02*
X101575000Y-64362500D01*
X90291761Y-70730000D02*
X94980000Y-70730000D01*
X99770000Y-73185000D02*
X99005000Y-73950000D01*
X89070000Y-60290000D02*
X89070000Y-59770000D01*
X103430000Y-74610000D02*
X105935000Y-72105000D01*
X91570000Y-63270000D02*
X91220000Y-62920000D01*
X99035000Y-65630000D02*
X99035000Y-66320000D01*
X99777500Y-71655000D02*
X99770000Y-71662500D01*
X87820000Y-62920000D02*
X87720000Y-63020000D01*
X88710000Y-72311761D02*
X90291761Y-70730000D01*
X102030000Y-74610000D02*
X103430000Y-74610000D01*
X101670000Y-74610000D02*
X102030000Y-74610000D01*
X87720000Y-61640000D02*
X89070000Y-60290000D01*
X89355000Y-59485000D02*
X90190000Y-59485000D01*
X100450000Y-65487500D02*
X99177500Y-65487500D01*
X94980000Y-70730000D02*
X95620000Y-70090000D01*
X105935000Y-72105000D02*
X107815000Y-72105000D01*
X99007500Y-70900000D02*
X99770000Y-71662500D01*
X87720000Y-62980000D02*
X87720000Y-61640000D01*
X100575000Y-60225000D02*
X100575000Y-61350000D01*
X96690000Y-73960000D02*
X96030000Y-74620000D01*
X100575000Y-61350000D02*
X101575000Y-62350000D01*
D39*
X87640000Y-62760000D02*
X87690000Y-62810000D01*
D38*
X101450000Y-57525000D02*
X101450000Y-59350000D01*
X91570000Y-64500000D02*
X91570000Y-63270000D01*
X101575000Y-64362500D02*
X100450000Y-65487500D01*
X99777500Y-67062500D02*
X99777500Y-71655000D01*
X99770000Y-71662500D02*
X99770000Y-73185000D01*
X99177500Y-65487500D02*
X99035000Y-65630000D01*
X95620000Y-65830000D02*
X94835000Y-65045000D01*
X89260000Y-74620000D02*
X88710000Y-74070000D01*
X89070000Y-59770000D02*
X89355000Y-59485000D01*
X88710000Y-74070000D02*
X88710000Y-72311761D01*
X93035000Y-65045000D02*
X92690000Y-64700000D01*
X91570000Y-64500000D02*
X91770000Y-64700000D01*
X99785000Y-74610000D02*
X99005000Y-73830000D01*
X95620000Y-70090000D02*
X95620000Y-65830000D01*
X90230000Y-62920000D02*
X87820000Y-62920000D01*
X96030000Y-74620000D02*
X89260000Y-74620000D01*
X102030000Y-74610000D02*
X99785000Y-74610000D01*
%TO.N,Net-(D3-A)*%
X91840000Y-61310000D02*
X92130000Y-61020000D01*
X90190000Y-61310000D02*
X91840000Y-61310000D01*
D39*
X90250000Y-61020000D02*
X90200000Y-61070000D01*
D38*
%TO.N,Net-(JP1-B)*%
X101715000Y-69565000D02*
X101592500Y-69442500D01*
X102865000Y-69565000D02*
X101715000Y-69565000D01*
X101600000Y-68610000D02*
X100840000Y-67850000D01*
X101592500Y-69427500D02*
X101600000Y-69420000D01*
X100860000Y-67830000D02*
X100860000Y-66320000D01*
X100840000Y-67850000D02*
X100860000Y-67830000D01*
X101592500Y-69442500D02*
X101592500Y-69427500D01*
X101600000Y-69420000D02*
X101600000Y-68610000D01*
%TO.N,Net-(JP2-B)*%
X100860000Y-70872500D02*
X100832500Y-70900000D01*
X102800000Y-70900000D02*
X102865000Y-70835000D01*
X100860000Y-69360000D02*
X100860000Y-70872500D01*
X100832500Y-70900000D02*
X102800000Y-70900000D01*
%TO.N,Net-(JP3-B)*%
X101157500Y-72105000D02*
X100832500Y-72430000D01*
X100830000Y-72432500D02*
X100832500Y-72430000D01*
X100830000Y-73950000D02*
X100830000Y-72432500D01*
X102865000Y-72105000D02*
X101157500Y-72105000D01*
%TO.N,EXTERNAL_WOKE_UP*%
X102075000Y-58500000D02*
X102075000Y-59800000D01*
X103990000Y-58120000D02*
X102455000Y-58120000D01*
X102455000Y-58120000D02*
X102075000Y-58500000D01*
%TO.N,GND*%
X98245000Y-71667500D02*
X98245000Y-69160000D01*
X99007500Y-72430000D02*
X98245000Y-71667500D01*
%TD*%
%TA.AperFunction,Conductor*%
%TO.N,GND*%
G36*
X113131662Y-43072085D02*
G01*
X113177417Y-43124889D01*
X113188623Y-43176727D01*
X113110006Y-73007412D01*
X113109884Y-73012591D01*
X113102733Y-73173492D01*
X113094909Y-73196331D01*
X113097486Y-73201089D01*
X113100109Y-73232541D01*
X113091243Y-73432000D01*
X113090103Y-73444139D01*
X113086436Y-73469646D01*
X113083386Y-73484416D01*
X113063829Y-73556628D01*
X113027304Y-73616190D01*
X112964376Y-73646551D01*
X112895023Y-73638070D01*
X112841264Y-73593440D01*
X112820169Y-73526831D01*
X112823249Y-73496626D01*
X112835802Y-73441630D01*
X112839839Y-73387756D01*
X112852578Y-73217769D01*
X112859495Y-73199412D01*
X112858444Y-73197604D01*
X112855202Y-73177252D01*
X112853803Y-73158589D01*
X112850222Y-73110792D01*
X112835803Y-72918379D01*
X112835802Y-72918374D01*
X112835802Y-72918370D01*
X112777420Y-72662584D01*
X112681568Y-72418357D01*
X112550386Y-72191143D01*
X112386805Y-71986019D01*
X112386804Y-71986018D01*
X112386801Y-71986014D01*
X112194479Y-71807567D01*
X112128511Y-71762591D01*
X111977704Y-71659772D01*
X111977700Y-71659770D01*
X111977697Y-71659768D01*
X111977696Y-71659767D01*
X111741325Y-71545938D01*
X111741327Y-71545938D01*
X111490623Y-71468606D01*
X111490619Y-71468605D01*
X111490615Y-71468604D01*
X111356135Y-71448334D01*
X111231187Y-71429500D01*
X111231182Y-71429500D01*
X110968818Y-71429500D01*
X110968812Y-71429500D01*
X110807247Y-71453853D01*
X110709385Y-71468604D01*
X110709382Y-71468605D01*
X110709376Y-71468606D01*
X110458673Y-71545938D01*
X110222303Y-71659767D01*
X110222302Y-71659768D01*
X110222296Y-71659771D01*
X110222296Y-71659772D01*
X110204412Y-71671965D01*
X110005520Y-71807567D01*
X109813198Y-71986014D01*
X109649614Y-72191143D01*
X109518432Y-72418356D01*
X109422582Y-72662578D01*
X109422576Y-72662597D01*
X109364197Y-72918374D01*
X109364196Y-72918379D01*
X109344592Y-73179995D01*
X109344592Y-73180004D01*
X109364196Y-73441620D01*
X109364197Y-73441625D01*
X109422576Y-73697402D01*
X109422578Y-73697411D01*
X109422580Y-73697416D01*
X109518432Y-73941643D01*
X109649614Y-74168857D01*
X109749559Y-74294184D01*
X109813198Y-74373985D01*
X109949238Y-74500210D01*
X110005521Y-74552433D01*
X110222296Y-74700228D01*
X110222301Y-74700230D01*
X110222302Y-74700231D01*
X110222303Y-74700232D01*
X110347843Y-74760688D01*
X110458673Y-74814061D01*
X110458674Y-74814061D01*
X110458677Y-74814063D01*
X110709385Y-74891396D01*
X110968818Y-74930500D01*
X111231182Y-74930500D01*
X111490615Y-74891396D01*
X111654608Y-74840810D01*
X111724467Y-74839861D01*
X111783753Y-74876832D01*
X111813640Y-74939986D01*
X111804639Y-75009274D01*
X111759607Y-75062696D01*
X111739774Y-75073373D01*
X111663831Y-75105742D01*
X111650148Y-75110648D01*
X111536312Y-75144075D01*
X111519021Y-75147836D01*
X111410835Y-75163390D01*
X111404415Y-75164143D01*
X111129371Y-75189147D01*
X111120360Y-75189636D01*
X111101106Y-75189980D01*
X111098926Y-75190000D01*
X93305006Y-75195004D01*
X93304936Y-75195004D01*
X75683965Y-75190034D01*
X75616931Y-75170331D01*
X75571191Y-75117514D01*
X75560000Y-75066034D01*
X75560000Y-68710000D01*
X75550000Y-68700000D01*
X74550000Y-68700000D01*
X74550000Y-68710000D01*
X74540367Y-74923314D01*
X74540192Y-75036192D01*
X74520403Y-75103201D01*
X74467529Y-75148874D01*
X74416192Y-75160000D01*
X69874000Y-75160000D01*
X69806961Y-75140315D01*
X69761206Y-75087511D01*
X69750000Y-75036000D01*
X69750000Y-73977585D01*
X69769685Y-73910546D01*
X69822489Y-73864791D01*
X69891647Y-73854847D01*
X69955203Y-73883872D01*
X69956227Y-73884770D01*
X70017759Y-73939282D01*
X70017761Y-73939284D01*
X70157634Y-74012696D01*
X70311014Y-74050500D01*
X70311015Y-74050500D01*
X70468985Y-74050500D01*
X70622365Y-74012696D01*
X70624653Y-74011495D01*
X70762240Y-73939283D01*
X70880483Y-73834530D01*
X70970220Y-73704523D01*
X71026237Y-73556818D01*
X71045278Y-73400000D01*
X71043293Y-73383647D01*
X71026237Y-73243181D01*
X71000651Y-73175717D01*
X70970220Y-73095477D01*
X70880483Y-72965470D01*
X70762240Y-72860717D01*
X70729966Y-72843778D01*
X70621873Y-72787045D01*
X70571661Y-72738460D01*
X70555500Y-72677249D01*
X70555500Y-71091997D01*
X70575185Y-71024958D01*
X70597274Y-70999181D01*
X70602236Y-70994785D01*
X70602240Y-70994783D01*
X70720483Y-70890030D01*
X70810220Y-70760023D01*
X70866237Y-70612318D01*
X70885278Y-70455500D01*
X70884205Y-70446658D01*
X70866237Y-70298681D01*
X70834199Y-70214205D01*
X70810220Y-70150977D01*
X70720483Y-70020970D01*
X70602240Y-69916217D01*
X70578603Y-69903811D01*
X70535614Y-69881248D01*
X70485402Y-69832663D01*
X70469428Y-69764644D01*
X70483883Y-69712998D01*
X70710117Y-69289746D01*
X70710123Y-69289732D01*
X70964118Y-68729155D01*
X70964127Y-68729132D01*
X71180908Y-68153159D01*
X71180913Y-68153145D01*
X71225789Y-68005208D01*
X71264086Y-67946769D01*
X71327898Y-67918313D01*
X71396966Y-67928873D01*
X71426676Y-67948387D01*
X71467759Y-67984782D01*
X71467761Y-67984784D01*
X71607634Y-68058196D01*
X71761014Y-68096000D01*
X71761015Y-68096000D01*
X71918985Y-68096000D01*
X72072365Y-68058196D01*
X72212240Y-67984783D01*
X72330483Y-67880030D01*
X72403450Y-67774317D01*
X72457732Y-67730328D01*
X72527181Y-67722668D01*
X72589746Y-67753771D01*
X72625563Y-67813762D01*
X72629500Y-67844758D01*
X72629500Y-67934678D01*
X72644032Y-68007735D01*
X72644033Y-68007739D01*
X72652024Y-68019698D01*
X72699399Y-68090601D01*
X72778532Y-68143475D01*
X72782260Y-68145966D01*
X72782264Y-68145967D01*
X72855321Y-68160499D01*
X72855324Y-68160500D01*
X72855326Y-68160500D01*
X75504676Y-68160500D01*
X75504677Y-68160499D01*
X75577740Y-68145966D01*
X75660601Y-68090601D01*
X75715966Y-68007740D01*
X75730500Y-67934674D01*
X75730500Y-65719500D01*
X75750185Y-65652461D01*
X75802989Y-65606706D01*
X75854500Y-65595500D01*
X76342851Y-65595500D01*
X76342853Y-65595500D01*
X76425639Y-65573318D01*
X76499862Y-65530465D01*
X76976173Y-65054154D01*
X86745001Y-65054154D01*
X86755319Y-65155152D01*
X86809546Y-65318800D01*
X86809551Y-65318811D01*
X86900052Y-65465534D01*
X86900055Y-65465538D01*
X87021961Y-65587444D01*
X87021965Y-65587447D01*
X87168688Y-65677948D01*
X87168699Y-65677953D01*
X87332347Y-65732180D01*
X87433352Y-65742499D01*
X87470000Y-65742499D01*
X87970000Y-65742499D01*
X88006640Y-65742499D01*
X88006654Y-65742498D01*
X88107652Y-65732180D01*
X88271300Y-65677953D01*
X88271311Y-65677948D01*
X88418034Y-65587447D01*
X88418038Y-65587444D01*
X88539944Y-65465538D01*
X88539947Y-65465534D01*
X88630448Y-65318811D01*
X88630453Y-65318800D01*
X88684680Y-65155152D01*
X88694999Y-65054154D01*
X88695000Y-65054141D01*
X88695000Y-64955000D01*
X87970000Y-64955000D01*
X87970000Y-65742499D01*
X87470000Y-65742499D01*
X87470000Y-64955000D01*
X86745001Y-64955000D01*
X86745001Y-65054154D01*
X76976173Y-65054154D01*
X82038508Y-59991819D01*
X82099831Y-59958334D01*
X82126189Y-59955500D01*
X88402851Y-59955500D01*
X88402853Y-59955500D01*
X88485639Y-59933318D01*
X88558499Y-59891252D01*
X88626399Y-59874778D01*
X88692426Y-59897630D01*
X88735617Y-59952550D01*
X88744500Y-59998638D01*
X88744500Y-60103811D01*
X88724815Y-60170850D01*
X88708181Y-60191492D01*
X87459537Y-61440135D01*
X87459533Y-61440141D01*
X87416681Y-61514361D01*
X87416682Y-61514362D01*
X87394500Y-61597147D01*
X87394500Y-62105888D01*
X87374815Y-62172927D01*
X87322011Y-62218682D01*
X87313835Y-62222069D01*
X87246221Y-62247288D01*
X87133884Y-62331384D01*
X87049789Y-62443719D01*
X87000748Y-62575200D01*
X86994500Y-62633309D01*
X86994500Y-63326690D01*
X87000748Y-63384799D01*
X87025068Y-63450001D01*
X87049788Y-63516278D01*
X87049789Y-63516279D01*
X87049790Y-63516282D01*
X87116538Y-63605445D01*
X87140956Y-63670909D01*
X87126105Y-63739182D01*
X87082370Y-63785294D01*
X87021962Y-63822554D01*
X86900055Y-63944461D01*
X86900052Y-63944465D01*
X86809551Y-64091188D01*
X86809546Y-64091199D01*
X86755319Y-64254847D01*
X86745000Y-64355845D01*
X86745000Y-64455000D01*
X88694999Y-64455000D01*
X88694999Y-64448309D01*
X89504500Y-64448309D01*
X89504500Y-65041690D01*
X89510748Y-65099799D01*
X89549854Y-65204644D01*
X89558205Y-65227035D01*
X89559789Y-65231280D01*
X89586604Y-65267100D01*
X89643884Y-65343616D01*
X89756222Y-65427712D01*
X89823628Y-65452853D01*
X89887700Y-65476751D01*
X89945809Y-65482999D01*
X89945826Y-65483000D01*
X90514174Y-65483000D01*
X90514186Y-65482999D01*
X90520900Y-65482277D01*
X90589661Y-65494677D01*
X90621846Y-65517884D01*
X91706304Y-66602342D01*
X91706308Y-66602345D01*
X91713316Y-66606391D01*
X91713319Y-66606392D01*
X91791930Y-66651778D01*
X91808747Y-66656284D01*
X91887432Y-66677368D01*
X91887433Y-66677368D01*
X93429029Y-66677368D01*
X93496068Y-66697053D01*
X93531079Y-66730929D01*
X93533500Y-66734437D01*
X93534852Y-66736396D01*
X93534854Y-66736398D01*
X93653097Y-66841151D01*
X93653099Y-66841152D01*
X93792971Y-66914564D01*
X93946351Y-66952368D01*
X93946352Y-66952368D01*
X94104322Y-66952368D01*
X94257702Y-66914564D01*
X94356637Y-66862638D01*
X94397577Y-66841151D01*
X94515820Y-66736398D01*
X94605557Y-66606391D01*
X94661574Y-66458686D01*
X94680615Y-66301868D01*
X94661574Y-66145050D01*
X94605557Y-65997345D01*
X94515820Y-65867338D01*
X94397577Y-65762585D01*
X94397575Y-65762584D01*
X94397574Y-65762583D01*
X94257702Y-65689171D01*
X94104323Y-65651368D01*
X94104322Y-65651368D01*
X93946352Y-65651368D01*
X93946351Y-65651368D01*
X93792971Y-65689171D01*
X93653099Y-65762583D01*
X93534853Y-65867338D01*
X93532426Y-65870855D01*
X93531079Y-65872806D01*
X93476800Y-65916797D01*
X93429029Y-65926368D01*
X92143768Y-65926368D01*
X92076729Y-65906683D01*
X92056087Y-65890049D01*
X90991819Y-64825781D01*
X90958334Y-64764458D01*
X90955500Y-64738100D01*
X90955500Y-64448326D01*
X90955499Y-64448309D01*
X90949251Y-64390200D01*
X90930178Y-64339065D01*
X90900212Y-64258722D01*
X90816116Y-64146384D01*
X90748612Y-64095851D01*
X90703780Y-64062289D01*
X90703778Y-64062288D01*
X90674543Y-64051384D01*
X90572299Y-64013248D01*
X90514190Y-64007000D01*
X90514174Y-64007000D01*
X89945826Y-64007000D01*
X89945809Y-64007000D01*
X89887700Y-64013248D01*
X89756219Y-64062289D01*
X89643884Y-64146384D01*
X89559789Y-64258719D01*
X89510748Y-64390200D01*
X89504500Y-64448309D01*
X88694999Y-64448309D01*
X88694999Y-64355860D01*
X88694998Y-64355845D01*
X88684680Y-64254847D01*
X88630453Y-64091199D01*
X88630448Y-64091188D01*
X88539947Y-63944465D01*
X88539944Y-63944461D01*
X88418037Y-63822554D01*
X88357630Y-63785294D01*
X88310906Y-63733345D01*
X88299685Y-63664383D01*
X88323462Y-63605445D01*
X88390209Y-63516282D01*
X88390208Y-63516282D01*
X88390212Y-63516278D01*
X88439251Y-63384799D01*
X88442321Y-63356242D01*
X88469058Y-63291694D01*
X88526451Y-63251846D01*
X88565610Y-63245500D01*
X89413726Y-63245500D01*
X89480765Y-63265185D01*
X89526520Y-63317989D01*
X89529907Y-63326166D01*
X89559787Y-63406277D01*
X89559788Y-63406278D01*
X89643884Y-63518616D01*
X89756222Y-63602712D01*
X89848594Y-63637165D01*
X89887700Y-63651751D01*
X89945809Y-63657999D01*
X89945826Y-63658000D01*
X90514174Y-63658000D01*
X90514190Y-63657999D01*
X90572299Y-63651751D01*
X90703778Y-63602712D01*
X90816116Y-63518616D01*
X90900212Y-63406278D01*
X90926707Y-63335241D01*
X90968578Y-63279310D01*
X91034042Y-63254893D01*
X91102315Y-63269745D01*
X91130569Y-63290896D01*
X91208181Y-63368508D01*
X91241666Y-63429831D01*
X91244500Y-63456189D01*
X91244500Y-64542852D01*
X91266682Y-64625640D01*
X91279021Y-64647011D01*
X91309535Y-64699862D01*
X91309537Y-64699864D01*
X91570138Y-64960465D01*
X91607250Y-64981891D01*
X91607252Y-64981893D01*
X91644358Y-65003317D01*
X91644360Y-65003317D01*
X91644361Y-65003318D01*
X91727147Y-65025501D01*
X91727149Y-65025501D01*
X91820449Y-65025501D01*
X91820465Y-65025500D01*
X91825077Y-65025500D01*
X91892116Y-65045185D01*
X91937871Y-65097989D01*
X91941257Y-65106162D01*
X91986341Y-65227037D01*
X91989789Y-65236280D01*
X92012861Y-65267100D01*
X92073884Y-65348616D01*
X92153542Y-65408248D01*
X92184223Y-65431216D01*
X92186222Y-65432712D01*
X92274232Y-65465538D01*
X92317700Y-65481751D01*
X92375809Y-65487999D01*
X92375826Y-65488000D01*
X92944174Y-65488000D01*
X92944190Y-65487999D01*
X93002299Y-65481751D01*
X93133778Y-65432712D01*
X93183844Y-65395233D01*
X93249309Y-65370816D01*
X93258155Y-65370500D01*
X94648811Y-65370500D01*
X94715850Y-65390185D01*
X94736492Y-65406819D01*
X95258181Y-65928507D01*
X95291666Y-65989830D01*
X95294500Y-66016188D01*
X95294500Y-69903811D01*
X95274815Y-69970850D01*
X95258181Y-69991492D01*
X94881492Y-70368181D01*
X94820169Y-70401666D01*
X94793811Y-70404500D01*
X90248908Y-70404500D01*
X90166120Y-70426682D01*
X90091899Y-70469535D01*
X90091896Y-70469537D01*
X88603198Y-71958234D01*
X88541875Y-71991719D01*
X88472183Y-71986735D01*
X88418870Y-71948240D01*
X88322567Y-71828433D01*
X88322566Y-71828432D01*
X88174225Y-71709192D01*
X88174222Y-71709190D01*
X88003723Y-71624631D01*
X87819024Y-71578697D01*
X87776297Y-71575800D01*
X87575200Y-71575800D01*
X87575200Y-72700522D01*
X87498894Y-72656467D01*
X87384444Y-72625800D01*
X87265956Y-72625800D01*
X87151506Y-72656467D01*
X87075200Y-72700522D01*
X87075200Y-71575800D01*
X86874103Y-71575800D01*
X86831375Y-71578697D01*
X86646676Y-71624631D01*
X86476177Y-71709190D01*
X86476174Y-71709192D01*
X86327833Y-71828432D01*
X86327832Y-71828433D01*
X86208592Y-71976774D01*
X86208590Y-71976777D01*
X86124031Y-72147276D01*
X86078097Y-72331975D01*
X86075200Y-72374703D01*
X86075200Y-72825800D01*
X86949922Y-72825800D01*
X86905867Y-72902106D01*
X86875200Y-73016556D01*
X86875200Y-73135044D01*
X86905867Y-73249494D01*
X86949922Y-73325800D01*
X86075200Y-73325800D01*
X86075200Y-73776896D01*
X86078097Y-73819624D01*
X86124031Y-74004323D01*
X86208590Y-74174822D01*
X86208592Y-74174825D01*
X86327832Y-74323166D01*
X86327833Y-74323167D01*
X86476174Y-74442407D01*
X86476177Y-74442409D01*
X86646676Y-74526968D01*
X86831375Y-74572902D01*
X86874103Y-74575800D01*
X87075200Y-74575800D01*
X87075200Y-73451077D01*
X87151506Y-73495133D01*
X87265956Y-73525800D01*
X87384444Y-73525800D01*
X87498894Y-73495133D01*
X87575200Y-73451077D01*
X87575200Y-74575800D01*
X87776297Y-74575800D01*
X87819024Y-74572902D01*
X88003723Y-74526968D01*
X88174222Y-74442409D01*
X88174225Y-74442407D01*
X88322563Y-74323169D01*
X88325016Y-74320717D01*
X88326884Y-74319696D01*
X88327807Y-74318955D01*
X88327939Y-74319120D01*
X88386337Y-74287228D01*
X88456029Y-74292207D01*
X88500384Y-74320711D01*
X88999534Y-74819861D01*
X88999535Y-74819862D01*
X89060138Y-74880465D01*
X89060140Y-74880466D01*
X89060144Y-74880469D01*
X89117041Y-74913318D01*
X89134362Y-74923318D01*
X89217147Y-74945500D01*
X89217149Y-74945500D01*
X96072851Y-74945500D01*
X96072853Y-74945500D01*
X96155639Y-74923318D01*
X96229862Y-74880465D01*
X96788508Y-74321819D01*
X96849831Y-74288334D01*
X96876189Y-74285500D01*
X98246535Y-74285500D01*
X98313574Y-74305185D01*
X98345801Y-74335188D01*
X98406383Y-74416115D01*
X98406384Y-74416116D01*
X98518722Y-74500212D01*
X98590458Y-74526968D01*
X98650200Y-74549251D01*
X98708309Y-74555499D01*
X98708326Y-74555500D01*
X99218812Y-74555500D01*
X99285851Y-74575185D01*
X99306493Y-74591819D01*
X99520194Y-74805520D01*
X99520204Y-74805531D01*
X99585139Y-74870466D01*
X99593798Y-74875465D01*
X99602459Y-74880465D01*
X99649433Y-74907585D01*
X99656029Y-74911394D01*
X99659360Y-74913317D01*
X99659361Y-74913317D01*
X99659362Y-74913318D01*
X99742148Y-74935501D01*
X99742150Y-74935501D01*
X99835449Y-74935501D01*
X99835465Y-74935500D01*
X103472851Y-74935500D01*
X103472853Y-74935500D01*
X103555639Y-74913318D01*
X103629862Y-74870465D01*
X106033508Y-72466819D01*
X106094831Y-72433334D01*
X106121189Y-72430500D01*
X106553943Y-72430500D01*
X106620982Y-72450185D01*
X106654206Y-72486906D01*
X106656214Y-72485448D01*
X106661950Y-72493343D01*
X106751652Y-72583045D01*
X106751654Y-72583046D01*
X106751658Y-72583050D01*
X106864694Y-72640645D01*
X106864698Y-72640647D01*
X106958475Y-72655499D01*
X106958481Y-72655500D01*
X108671518Y-72655499D01*
X108765304Y-72640646D01*
X108878342Y-72583050D01*
X108968050Y-72493342D01*
X109025646Y-72380304D01*
X109025646Y-72380302D01*
X109025647Y-72380301D01*
X109040499Y-72286524D01*
X109040500Y-72286519D01*
X109040499Y-71923482D01*
X109025646Y-71829696D01*
X108968050Y-71716658D01*
X108968044Y-71716652D01*
X108962311Y-71708759D01*
X108965248Y-71706624D01*
X108940462Y-71661231D01*
X108945446Y-71591539D01*
X108987318Y-71535606D01*
X108998509Y-71528140D01*
X109041552Y-71502685D01*
X109041561Y-71502678D01*
X109157678Y-71386561D01*
X109157685Y-71386552D01*
X109241281Y-71245198D01*
X109287100Y-71087486D01*
X109287295Y-71085001D01*
X109287295Y-71085000D01*
X106342705Y-71085000D01*
X106342704Y-71085001D01*
X106342899Y-71087486D01*
X106388718Y-71245198D01*
X106472314Y-71386552D01*
X106472321Y-71386561D01*
X106588438Y-71502678D01*
X106588444Y-71502682D01*
X106631491Y-71528140D01*
X106679175Y-71579209D01*
X106691679Y-71647951D01*
X106666844Y-71708150D01*
X106667686Y-71708762D01*
X106665155Y-71712244D01*
X106665034Y-71712540D01*
X106664544Y-71713086D01*
X106656214Y-71724552D01*
X106653940Y-71722899D01*
X106616454Y-71762591D01*
X106553943Y-71779500D01*
X105892147Y-71779500D01*
X105809359Y-71801682D01*
X105735138Y-71844535D01*
X105735135Y-71844537D01*
X103331492Y-74248181D01*
X103270169Y-74281666D01*
X103243811Y-74284500D01*
X101687734Y-74284500D01*
X101620695Y-74264815D01*
X101574940Y-74212011D01*
X101564445Y-74147243D01*
X101567999Y-74114188D01*
X101568000Y-74114173D01*
X101568000Y-73545826D01*
X101567999Y-73545809D01*
X101561751Y-73487700D01*
X101544450Y-73441316D01*
X101512712Y-73356222D01*
X101428616Y-73243884D01*
X101369012Y-73199264D01*
X101327143Y-73143333D01*
X101322159Y-73073642D01*
X101355644Y-73012319D01*
X101369006Y-73000739D01*
X101428616Y-72956116D01*
X101512712Y-72843778D01*
X101561751Y-72712299D01*
X101564500Y-72686729D01*
X101567999Y-72654190D01*
X101568000Y-72654173D01*
X101568000Y-72648755D01*
X101587685Y-72581716D01*
X101640489Y-72535961D01*
X101709647Y-72526017D01*
X101773203Y-72555042D01*
X101779681Y-72561074D01*
X101801652Y-72583045D01*
X101801654Y-72583046D01*
X101801658Y-72583050D01*
X101914694Y-72640645D01*
X101914698Y-72640647D01*
X102008475Y-72655499D01*
X102008481Y-72655500D01*
X103721518Y-72655499D01*
X103815304Y-72640646D01*
X103928342Y-72583050D01*
X104018050Y-72493342D01*
X104075646Y-72380304D01*
X104075646Y-72380302D01*
X104075647Y-72380301D01*
X104090499Y-72286524D01*
X104090500Y-72286519D01*
X104090499Y-71923482D01*
X104075646Y-71829696D01*
X104018050Y-71716658D01*
X104018046Y-71716654D01*
X104018045Y-71716652D01*
X103928347Y-71626954D01*
X103928343Y-71626951D01*
X103928342Y-71626950D01*
X103894246Y-71609577D01*
X103837147Y-71580483D01*
X103786352Y-71532509D01*
X103769557Y-71464687D01*
X103792095Y-71398553D01*
X103837145Y-71359517D01*
X103928342Y-71313050D01*
X104018050Y-71223342D01*
X104075646Y-71110304D01*
X104075646Y-71110302D01*
X104075647Y-71110301D01*
X104090499Y-71016524D01*
X104090500Y-71016519D01*
X104090499Y-70653482D01*
X104075646Y-70559696D01*
X104018050Y-70446658D01*
X104018046Y-70446654D01*
X104018045Y-70446652D01*
X103928347Y-70356954D01*
X103928343Y-70356951D01*
X103928342Y-70356950D01*
X103894964Y-70339943D01*
X103837147Y-70310483D01*
X103786352Y-70262509D01*
X103769557Y-70194687D01*
X103792095Y-70128553D01*
X103837145Y-70089517D01*
X103928342Y-70043050D01*
X104018050Y-69953342D01*
X104075646Y-69840304D01*
X104075646Y-69840302D01*
X104075647Y-69840301D01*
X104090499Y-69746524D01*
X104090500Y-69746519D01*
X104090499Y-69383482D01*
X104075646Y-69289696D01*
X104018050Y-69176658D01*
X104018044Y-69176652D01*
X104012311Y-69168759D01*
X104015248Y-69166624D01*
X103990462Y-69121231D01*
X103995446Y-69051539D01*
X104037318Y-68995606D01*
X104048509Y-68988140D01*
X104091552Y-68962685D01*
X104091561Y-68962678D01*
X104207678Y-68846561D01*
X104207685Y-68846552D01*
X104291281Y-68705198D01*
X104337100Y-68547486D01*
X104337295Y-68545001D01*
X104337295Y-68545000D01*
X102739000Y-68545000D01*
X102671961Y-68525315D01*
X102626206Y-68472511D01*
X102615000Y-68421000D01*
X102615000Y-68045000D01*
X103115000Y-68045000D01*
X104337295Y-68045000D01*
X104337295Y-68044998D01*
X104337100Y-68042513D01*
X104291281Y-67884801D01*
X104207685Y-67743447D01*
X104207678Y-67743438D01*
X104091561Y-67627321D01*
X104091552Y-67627314D01*
X103950196Y-67543717D01*
X103950193Y-67543716D01*
X103792495Y-67497900D01*
X103792489Y-67497899D01*
X103755649Y-67495000D01*
X103115000Y-67495000D01*
X103115000Y-68045000D01*
X102615000Y-68045000D01*
X102615000Y-67495000D01*
X101974350Y-67495000D01*
X101937510Y-67497899D01*
X101937504Y-67497900D01*
X101779806Y-67543716D01*
X101779805Y-67543716D01*
X101747881Y-67562596D01*
X101680157Y-67579777D01*
X101613894Y-67557617D01*
X101570132Y-67503151D01*
X101568579Y-67499197D01*
X101567815Y-67497149D01*
X101522712Y-67376222D01*
X101438616Y-67263884D01*
X101342260Y-67191752D01*
X101300390Y-67135819D01*
X101295406Y-67066127D01*
X101328891Y-67004804D01*
X101342261Y-66993219D01*
X101346278Y-66990212D01*
X101458616Y-66906116D01*
X101542712Y-66793778D01*
X101591751Y-66662299D01*
X101594315Y-66638453D01*
X101597999Y-66604190D01*
X101598000Y-66604173D01*
X101598000Y-66035826D01*
X101597999Y-66035809D01*
X101591751Y-65977700D01*
X101566232Y-65909283D01*
X101542712Y-65846222D01*
X101458616Y-65733884D01*
X101364412Y-65663363D01*
X101346280Y-65649789D01*
X101346278Y-65649788D01*
X101308501Y-65635698D01*
X101214799Y-65600748D01*
X101156690Y-65594500D01*
X101156674Y-65594500D01*
X101102689Y-65594500D01*
X101035650Y-65574815D01*
X100989895Y-65522011D01*
X100979951Y-65452853D01*
X101008976Y-65389297D01*
X101015008Y-65382819D01*
X101415936Y-64981891D01*
X101677826Y-64720001D01*
X102467704Y-64720001D01*
X102467899Y-64722486D01*
X102513718Y-64880198D01*
X102597314Y-65021552D01*
X102597321Y-65021561D01*
X102713438Y-65137678D01*
X102713447Y-65137685D01*
X102854803Y-65221282D01*
X102854806Y-65221283D01*
X103012504Y-65267099D01*
X103012510Y-65267100D01*
X103049350Y-65269999D01*
X103049366Y-65270000D01*
X103740000Y-65270000D01*
X103740000Y-64720000D01*
X102467705Y-64720000D01*
X102467704Y-64720001D01*
X101677826Y-64720001D01*
X101835465Y-64562362D01*
X101878318Y-64488139D01*
X101900500Y-64405353D01*
X101900500Y-64319647D01*
X101900500Y-63450001D01*
X102467704Y-63450001D01*
X102467899Y-63452486D01*
X102513718Y-63610198D01*
X102597314Y-63751552D01*
X102602100Y-63757722D01*
X102599753Y-63759542D01*
X102626564Y-63808642D01*
X102621580Y-63878334D01*
X102600541Y-63911069D01*
X102602100Y-63912278D01*
X102597314Y-63918447D01*
X102513718Y-64059801D01*
X102467899Y-64217513D01*
X102467704Y-64219998D01*
X102467705Y-64220000D01*
X103740000Y-64220000D01*
X103740000Y-63450000D01*
X102467705Y-63450000D01*
X102467704Y-63450001D01*
X101900500Y-63450001D01*
X101900500Y-62402855D01*
X101900501Y-62402842D01*
X101900501Y-62307149D01*
X101900059Y-62305500D01*
X101878318Y-62224362D01*
X101852706Y-62180001D01*
X102467704Y-62180001D01*
X102467899Y-62182486D01*
X102513718Y-62340198D01*
X102597314Y-62481552D01*
X102602100Y-62487722D01*
X102599753Y-62489542D01*
X102626564Y-62538642D01*
X102621580Y-62608334D01*
X102600541Y-62641069D01*
X102602100Y-62642278D01*
X102597314Y-62648447D01*
X102513718Y-62789801D01*
X102467899Y-62947513D01*
X102467704Y-62949998D01*
X102467705Y-62950000D01*
X103740000Y-62950000D01*
X103740000Y-62180000D01*
X102467705Y-62180000D01*
X102467704Y-62180001D01*
X101852706Y-62180001D01*
X101852626Y-62179862D01*
X101835465Y-62150138D01*
X101774862Y-62089535D01*
X101774861Y-62089534D01*
X101770531Y-62085204D01*
X101770520Y-62085194D01*
X100936819Y-61251492D01*
X100903334Y-61190169D01*
X100900500Y-61163811D01*
X100900500Y-60910001D01*
X102467704Y-60910001D01*
X102467899Y-60912486D01*
X102513718Y-61070198D01*
X102597314Y-61211552D01*
X102602100Y-61217722D01*
X102599753Y-61219542D01*
X102626564Y-61268642D01*
X102621580Y-61338334D01*
X102600541Y-61371069D01*
X102602100Y-61372278D01*
X102597314Y-61378447D01*
X102513718Y-61519801D01*
X102467899Y-61677513D01*
X102467704Y-61679998D01*
X102467705Y-61680000D01*
X103740000Y-61680000D01*
X103740000Y-60910000D01*
X102467705Y-60910000D01*
X102467704Y-60910001D01*
X100900500Y-60910001D01*
X100900500Y-60411188D01*
X100920185Y-60344149D01*
X100936815Y-60323511D01*
X101265959Y-59994366D01*
X101327280Y-59960883D01*
X101396971Y-59965867D01*
X101452905Y-60007738D01*
X101469579Y-60038077D01*
X101494510Y-60103811D01*
X101494780Y-60104523D01*
X101584517Y-60234530D01*
X101702760Y-60339283D01*
X101702762Y-60339284D01*
X101842634Y-60412696D01*
X101996014Y-60450500D01*
X101996015Y-60450500D01*
X102153985Y-60450500D01*
X102307361Y-60412697D01*
X102307361Y-60412696D01*
X102307365Y-60412696D01*
X102332842Y-60399324D01*
X102401348Y-60385599D01*
X102463619Y-60410000D01*
X104116000Y-60410000D01*
X104183039Y-60429685D01*
X104228794Y-60482489D01*
X104240000Y-60534000D01*
X104240000Y-65270000D01*
X104930634Y-65270000D01*
X104930649Y-65269999D01*
X104967489Y-65267100D01*
X104967492Y-65267099D01*
X104995904Y-65258845D01*
X105065773Y-65259044D01*
X105124444Y-65296985D01*
X105153288Y-65360623D01*
X105154500Y-65377921D01*
X105154500Y-66132121D01*
X105154500Y-66217827D01*
X105165591Y-66259220D01*
X105176682Y-66300614D01*
X105198108Y-66337724D01*
X105219535Y-66374836D01*
X105219537Y-66374838D01*
X106628424Y-67783725D01*
X106661909Y-67845048D01*
X106656925Y-67914740D01*
X106651228Y-67927701D01*
X106604352Y-68019698D01*
X106589500Y-68113475D01*
X106589500Y-68476517D01*
X106590743Y-68484362D01*
X106604354Y-68570304D01*
X106661950Y-68683342D01*
X106661952Y-68683344D01*
X106661954Y-68683347D01*
X106751652Y-68773045D01*
X106751654Y-68773046D01*
X106751658Y-68773050D01*
X106842851Y-68819515D01*
X106893647Y-68867490D01*
X106910442Y-68935311D01*
X106887904Y-69001446D01*
X106842852Y-69040484D01*
X106751658Y-69086950D01*
X106751657Y-69086951D01*
X106751652Y-69086954D01*
X106661954Y-69176652D01*
X106661951Y-69176657D01*
X106661950Y-69176658D01*
X106657928Y-69184552D01*
X106604352Y-69289698D01*
X106589500Y-69383475D01*
X106589500Y-69746517D01*
X106598763Y-69805000D01*
X106604354Y-69840304D01*
X106661950Y-69953342D01*
X106661953Y-69953345D01*
X106667689Y-69961241D01*
X106664750Y-69963375D01*
X106689537Y-70008768D01*
X106684553Y-70078460D01*
X106642681Y-70134393D01*
X106631493Y-70141858D01*
X106588444Y-70167317D01*
X106588438Y-70167321D01*
X106472321Y-70283438D01*
X106472314Y-70283447D01*
X106388718Y-70424801D01*
X106342899Y-70582513D01*
X106342704Y-70584998D01*
X106342705Y-70585000D01*
X109287295Y-70585000D01*
X109287295Y-70584998D01*
X109287100Y-70582513D01*
X109241281Y-70424801D01*
X109157685Y-70283447D01*
X109157678Y-70283438D01*
X109041561Y-70167321D01*
X109041553Y-70167315D01*
X108998507Y-70141858D01*
X108950824Y-70090789D01*
X108938320Y-70022048D01*
X108963153Y-69961848D01*
X108962314Y-69961238D01*
X108964839Y-69957761D01*
X108964965Y-69957458D01*
X108965465Y-69956900D01*
X108973786Y-69945448D01*
X108976059Y-69947100D01*
X109013546Y-69907409D01*
X109076057Y-69890500D01*
X109707851Y-69890500D01*
X109707853Y-69890500D01*
X109790639Y-69868318D01*
X109864862Y-69825465D01*
X109972419Y-69717906D01*
X109972422Y-69717904D01*
X109989861Y-69700465D01*
X109989862Y-69700465D01*
X110050465Y-69639862D01*
X110090431Y-69570639D01*
X110093318Y-69565639D01*
X110115501Y-69482853D01*
X110115501Y-69397147D01*
X110115501Y-69389552D01*
X110115500Y-69389534D01*
X110115500Y-67497149D01*
X110115499Y-67497145D01*
X110113144Y-67488353D01*
X110093318Y-67414361D01*
X110065291Y-67365818D01*
X110050465Y-67340138D01*
X109989862Y-67279535D01*
X109985531Y-67275204D01*
X109985520Y-67275194D01*
X109489864Y-66779537D01*
X109489863Y-66779536D01*
X109489862Y-66779535D01*
X109444878Y-66753563D01*
X109415640Y-66736682D01*
X109374246Y-66725591D01*
X109332853Y-66714500D01*
X109332852Y-66714500D01*
X108704830Y-66714500D01*
X108637791Y-66694815D01*
X108592036Y-66642011D01*
X108582092Y-66572853D01*
X108611117Y-66509297D01*
X108617149Y-66502819D01*
X108650348Y-66469619D01*
X108650351Y-66469616D01*
X108668459Y-66442515D01*
X108682295Y-66421809D01*
X108735907Y-66377004D01*
X108785397Y-66366700D01*
X110599403Y-66366700D01*
X110666442Y-66386385D01*
X110702505Y-66421809D01*
X110734448Y-66469615D01*
X110734451Y-66469619D01*
X110838980Y-66574148D01*
X110838984Y-66574151D01*
X110961898Y-66656280D01*
X110961911Y-66656287D01*
X111012806Y-66677368D01*
X111098487Y-66712858D01*
X111098491Y-66712858D01*
X111098492Y-66712859D01*
X111243479Y-66741700D01*
X111243482Y-66741700D01*
X112191320Y-66741700D01*
X112328058Y-66714500D01*
X112336313Y-66712858D01*
X112441947Y-66669102D01*
X112472888Y-66656287D01*
X112472888Y-66656286D01*
X112472895Y-66656284D01*
X112595816Y-66574151D01*
X112700351Y-66469616D01*
X112782484Y-66346695D01*
X112839058Y-66210113D01*
X112857916Y-66115310D01*
X112867900Y-66065120D01*
X112867900Y-65917279D01*
X112839059Y-65772292D01*
X112839058Y-65772291D01*
X112839058Y-65772287D01*
X112835039Y-65762585D01*
X112782487Y-65635711D01*
X112782480Y-65635698D01*
X112700351Y-65512784D01*
X112700348Y-65512780D01*
X112595819Y-65408251D01*
X112595815Y-65408248D01*
X112472901Y-65326119D01*
X112472888Y-65326112D01*
X112336317Y-65269543D01*
X112336307Y-65269540D01*
X112191320Y-65240700D01*
X112191318Y-65240700D01*
X111243482Y-65240700D01*
X111243480Y-65240700D01*
X111098492Y-65269540D01*
X111098482Y-65269543D01*
X110961911Y-65326112D01*
X110961898Y-65326119D01*
X110838984Y-65408248D01*
X110838980Y-65408251D01*
X110734451Y-65512780D01*
X110734448Y-65512784D01*
X110702505Y-65560591D01*
X110648893Y-65605396D01*
X110599403Y-65615700D01*
X108785397Y-65615700D01*
X108718358Y-65596015D01*
X108682295Y-65560591D01*
X108650351Y-65512784D01*
X108650348Y-65512780D01*
X108545819Y-65408251D01*
X108545815Y-65408248D01*
X108422901Y-65326119D01*
X108422891Y-65326114D01*
X108329502Y-65287431D01*
X108275099Y-65243590D01*
X108253034Y-65177296D01*
X108270313Y-65109596D01*
X108314952Y-65065485D01*
X108390765Y-65021715D01*
X108497915Y-64914565D01*
X108573681Y-64783335D01*
X108612900Y-64636966D01*
X108612900Y-64485434D01*
X108573681Y-64339065D01*
X108497915Y-64207835D01*
X108390765Y-64100685D01*
X108305374Y-64051384D01*
X108259536Y-64024919D01*
X108186350Y-64005309D01*
X108113166Y-63985700D01*
X107961634Y-63985700D01*
X107815263Y-64024919D01*
X107684035Y-64100685D01*
X107684032Y-64100687D01*
X107576887Y-64207832D01*
X107576885Y-64207835D01*
X107501119Y-64339063D01*
X107483357Y-64405353D01*
X107461900Y-64485434D01*
X107461900Y-64636966D01*
X107478753Y-64699862D01*
X107501119Y-64783336D01*
X107520524Y-64816945D01*
X107576885Y-64914565D01*
X107576887Y-64914567D01*
X107689782Y-65027462D01*
X107687763Y-65029480D01*
X107720820Y-65074755D01*
X107724973Y-65144502D01*
X107690759Y-65205421D01*
X107629041Y-65238172D01*
X107604130Y-65240700D01*
X106893480Y-65240700D01*
X106748492Y-65269540D01*
X106748482Y-65269543D01*
X106611911Y-65326112D01*
X106611898Y-65326119D01*
X106488984Y-65408248D01*
X106488980Y-65408251D01*
X106387181Y-65510051D01*
X106325858Y-65543536D01*
X106256166Y-65538552D01*
X106200233Y-65496680D01*
X106175816Y-65431216D01*
X106175500Y-65422370D01*
X106175500Y-57920030D01*
X106195185Y-57852991D01*
X106247989Y-57807236D01*
X106317147Y-57797292D01*
X106380703Y-57826317D01*
X106387181Y-57832349D01*
X106488980Y-57934148D01*
X106488984Y-57934151D01*
X106611898Y-58016280D01*
X106611911Y-58016287D01*
X106714818Y-58058912D01*
X106748487Y-58072858D01*
X106748491Y-58072858D01*
X106748492Y-58072859D01*
X106893479Y-58101700D01*
X107604130Y-58101700D01*
X107671169Y-58121385D01*
X107716924Y-58174189D01*
X107726868Y-58243347D01*
X107697843Y-58306903D01*
X107689555Y-58314711D01*
X107689782Y-58314938D01*
X107576887Y-58427832D01*
X107576885Y-58427835D01*
X107501119Y-58559063D01*
X107467243Y-58685492D01*
X107461900Y-58705434D01*
X107461900Y-58856966D01*
X107469823Y-58886534D01*
X107501119Y-59003336D01*
X107511283Y-59020940D01*
X107576885Y-59134565D01*
X107684035Y-59241715D01*
X107765952Y-59289010D01*
X107812152Y-59315684D01*
X107815265Y-59317481D01*
X107961634Y-59356700D01*
X107961636Y-59356700D01*
X108113164Y-59356700D01*
X108113166Y-59356700D01*
X108259535Y-59317481D01*
X108390765Y-59241715D01*
X108497915Y-59134565D01*
X108573681Y-59003335D01*
X108612900Y-58856966D01*
X108612900Y-58705434D01*
X108573681Y-58559065D01*
X108497915Y-58427835D01*
X108390765Y-58320685D01*
X108314954Y-58276915D01*
X108266739Y-58226349D01*
X108253516Y-58157742D01*
X108279484Y-58092877D01*
X108329503Y-58054968D01*
X108344740Y-58048657D01*
X108422895Y-58016284D01*
X108545816Y-57934151D01*
X108650351Y-57829616D01*
X108678947Y-57786819D01*
X108682295Y-57781809D01*
X108735907Y-57737004D01*
X108785397Y-57726700D01*
X110599403Y-57726700D01*
X110666442Y-57746385D01*
X110702505Y-57781809D01*
X110734448Y-57829615D01*
X110734451Y-57829619D01*
X110838980Y-57934148D01*
X110838984Y-57934151D01*
X110961898Y-58016280D01*
X110961911Y-58016287D01*
X111064818Y-58058912D01*
X111098487Y-58072858D01*
X111098491Y-58072858D01*
X111098492Y-58072859D01*
X111243479Y-58101700D01*
X111243482Y-58101700D01*
X112191320Y-58101700D01*
X112327882Y-58074535D01*
X112336313Y-58072858D01*
X112472895Y-58016284D01*
X112595816Y-57934151D01*
X112700351Y-57829616D01*
X112782484Y-57706695D01*
X112782912Y-57705663D01*
X112808391Y-57644150D01*
X112839058Y-57570113D01*
X112856556Y-57482147D01*
X112867900Y-57425120D01*
X112867900Y-57277279D01*
X112839059Y-57132292D01*
X112839058Y-57132291D01*
X112839058Y-57132287D01*
X112839056Y-57132282D01*
X112782487Y-56995711D01*
X112782480Y-56995698D01*
X112700351Y-56872784D01*
X112700348Y-56872780D01*
X112595819Y-56768251D01*
X112595815Y-56768248D01*
X112472901Y-56686119D01*
X112472888Y-56686112D01*
X112336317Y-56629543D01*
X112336307Y-56629540D01*
X112191320Y-56600700D01*
X112191318Y-56600700D01*
X111243482Y-56600700D01*
X111243480Y-56600700D01*
X111098492Y-56629540D01*
X111098482Y-56629543D01*
X110961911Y-56686112D01*
X110961898Y-56686119D01*
X110838984Y-56768248D01*
X110838980Y-56768251D01*
X110734451Y-56872780D01*
X110734448Y-56872784D01*
X110702505Y-56920591D01*
X110648893Y-56965396D01*
X110599403Y-56975700D01*
X108785397Y-56975700D01*
X108718358Y-56956015D01*
X108682295Y-56920591D01*
X108650351Y-56872784D01*
X108650348Y-56872780D01*
X108545819Y-56768251D01*
X108545815Y-56768248D01*
X108422901Y-56686119D01*
X108422888Y-56686112D01*
X108286317Y-56629543D01*
X108286307Y-56629540D01*
X108141320Y-56600700D01*
X108141318Y-56600700D01*
X106893482Y-56600700D01*
X106893480Y-56600700D01*
X106748492Y-56629540D01*
X106748482Y-56629543D01*
X106611911Y-56686112D01*
X106611898Y-56686119D01*
X106488984Y-56768248D01*
X106488980Y-56768251D01*
X106387181Y-56870051D01*
X106325858Y-56903536D01*
X106256166Y-56898552D01*
X106200233Y-56856680D01*
X106175816Y-56791216D01*
X106175500Y-56782370D01*
X106175500Y-55905899D01*
X106195185Y-55838860D01*
X106247989Y-55793105D01*
X106317147Y-55783161D01*
X106380703Y-55812186D01*
X106387181Y-55818218D01*
X106699526Y-56130563D01*
X106709525Y-56140562D01*
X106779438Y-56210475D01*
X106865062Y-56259910D01*
X106865066Y-56259911D01*
X106911561Y-56272370D01*
X106911562Y-56272370D01*
X106921917Y-56275144D01*
X106960564Y-56285500D01*
X106960565Y-56285500D01*
X109413692Y-56285500D01*
X109480731Y-56305185D01*
X109515742Y-56339061D01*
X109518163Y-56342569D01*
X109519515Y-56344528D01*
X109519517Y-56344530D01*
X109637760Y-56449283D01*
X109637762Y-56449284D01*
X109777634Y-56522696D01*
X109931014Y-56560500D01*
X109931015Y-56560500D01*
X110088985Y-56560500D01*
X110242365Y-56522696D01*
X110301195Y-56491819D01*
X110382240Y-56449283D01*
X110500483Y-56344530D01*
X110590220Y-56214523D01*
X110646237Y-56066818D01*
X110665278Y-55910000D01*
X110663401Y-55894537D01*
X110646237Y-55753181D01*
X110614045Y-55668298D01*
X110590220Y-55605477D01*
X110500483Y-55475470D01*
X110382240Y-55370717D01*
X110382238Y-55370716D01*
X110382237Y-55370715D01*
X110242365Y-55297303D01*
X110088986Y-55259500D01*
X110088985Y-55259500D01*
X109931015Y-55259500D01*
X109931014Y-55259500D01*
X109777634Y-55297303D01*
X109637762Y-55370715D01*
X109519516Y-55475470D01*
X109517089Y-55478987D01*
X109515742Y-55480938D01*
X109461463Y-55524929D01*
X109413692Y-55534500D01*
X107216899Y-55534500D01*
X107149860Y-55514815D01*
X107129218Y-55498181D01*
X107031819Y-55400782D01*
X106998334Y-55339459D01*
X106995500Y-55313101D01*
X106995500Y-54182202D01*
X107015185Y-54115163D01*
X107037274Y-54089386D01*
X107052791Y-54075640D01*
X107110483Y-54024530D01*
X107200220Y-53894523D01*
X107256237Y-53746818D01*
X107275278Y-53590000D01*
X107272742Y-53569109D01*
X107256237Y-53433181D01*
X107223036Y-53345639D01*
X107200220Y-53285477D01*
X107110483Y-53155470D01*
X106992240Y-53050717D01*
X106992238Y-53050716D01*
X106992237Y-53050715D01*
X106852365Y-52977303D01*
X106698986Y-52939500D01*
X106698985Y-52939500D01*
X106541015Y-52939500D01*
X106541014Y-52939500D01*
X106387634Y-52977303D01*
X106247762Y-53050715D01*
X106129517Y-53155469D01*
X106091550Y-53210475D01*
X106037266Y-53254465D01*
X105967818Y-53262124D01*
X105905253Y-53231020D01*
X105869436Y-53171029D01*
X105865500Y-53140034D01*
X105865500Y-50830997D01*
X105885185Y-50763958D01*
X105907274Y-50738181D01*
X105912236Y-50733785D01*
X105912240Y-50733783D01*
X106030483Y-50629030D01*
X106120220Y-50499023D01*
X106176237Y-50351318D01*
X106195278Y-50194500D01*
X106191862Y-50166362D01*
X106176237Y-50037681D01*
X106140845Y-49944361D01*
X106120220Y-49889977D01*
X106030483Y-49759970D01*
X105912240Y-49655217D01*
X105912238Y-49655216D01*
X105912237Y-49655215D01*
X105846860Y-49620902D01*
X105796647Y-49572317D01*
X105780673Y-49504298D01*
X105804008Y-49438441D01*
X105816798Y-49423432D01*
X106883413Y-48356819D01*
X106944736Y-48323334D01*
X106971094Y-48320500D01*
X111989739Y-48320500D01*
X111989741Y-48320500D01*
X112055599Y-48302853D01*
X112085243Y-48294910D01*
X112170867Y-48245475D01*
X112240780Y-48175562D01*
X112735474Y-47680868D01*
X112736706Y-47678734D01*
X112784910Y-47595243D01*
X112801089Y-47534862D01*
X112810500Y-47499741D01*
X112810500Y-47400869D01*
X112810500Y-45295565D01*
X112806463Y-45280500D01*
X112798531Y-45250898D01*
X112787697Y-45210464D01*
X112787696Y-45210461D01*
X112784910Y-45200062D01*
X112735475Y-45114438D01*
X112665562Y-45044525D01*
X110885118Y-43264081D01*
X110851633Y-43202758D01*
X110856617Y-43133066D01*
X110898489Y-43077133D01*
X110963953Y-43052716D01*
X110972799Y-43052400D01*
X113064623Y-43052400D01*
X113131662Y-43072085D01*
G37*
%TD.AperFunction*%
%TA.AperFunction,Conductor*%
G36*
X51190850Y-55655185D02*
G01*
X51211492Y-55671819D01*
X51739534Y-56199861D01*
X51739535Y-56199862D01*
X51800138Y-56260465D01*
X51800140Y-56260466D01*
X51800144Y-56260469D01*
X51874355Y-56303314D01*
X51874362Y-56303318D01*
X51957147Y-56325500D01*
X51957149Y-56325500D01*
X58157825Y-56325500D01*
X58157827Y-56325500D01*
X58240613Y-56303318D01*
X58314836Y-56260465D01*
X58598508Y-55976793D01*
X58659831Y-55943308D01*
X58686189Y-55940474D01*
X58957147Y-55940474D01*
X59350859Y-55940474D01*
X59417898Y-55960159D01*
X59463653Y-56012963D01*
X59473597Y-56082121D01*
X59444572Y-56145677D01*
X59386854Y-56183135D01*
X59251855Y-56224086D01*
X59251840Y-56224091D01*
X58675867Y-56440872D01*
X58675844Y-56440881D01*
X58115267Y-56694876D01*
X58115240Y-56694889D01*
X57572495Y-56984991D01*
X57572473Y-56985004D01*
X57049854Y-57309989D01*
X57049844Y-57309995D01*
X56549577Y-57668482D01*
X56073838Y-58058912D01*
X56073835Y-58058914D01*
X55807198Y-58308645D01*
X62274999Y-64776446D01*
X68742801Y-58308645D01*
X68476181Y-58058929D01*
X68476161Y-58058912D01*
X68000422Y-57668482D01*
X68000423Y-57668482D01*
X67500155Y-57309995D01*
X67500145Y-57309989D01*
X66977526Y-56985004D01*
X66977504Y-56984991D01*
X66434759Y-56694889D01*
X66434732Y-56694876D01*
X65874155Y-56440881D01*
X65874132Y-56440872D01*
X65298159Y-56224091D01*
X65298144Y-56224086D01*
X65163146Y-56183135D01*
X65104707Y-56144837D01*
X65076251Y-56081025D01*
X65086811Y-56011958D01*
X65133035Y-55959564D01*
X65199141Y-55940474D01*
X66918785Y-55940474D01*
X66985824Y-55960159D01*
X67006466Y-55976793D01*
X67710194Y-56680520D01*
X67710204Y-56680531D01*
X67714534Y-56684861D01*
X67714535Y-56684862D01*
X67775138Y-56745465D01*
X67775140Y-56745466D01*
X67775144Y-56745469D01*
X67839060Y-56782370D01*
X67849362Y-56788318D01*
X67932148Y-56810501D01*
X67932150Y-56810501D01*
X68025449Y-56810501D01*
X68025465Y-56810500D01*
X73151811Y-56810500D01*
X73218850Y-56830185D01*
X73239492Y-56846819D01*
X74790492Y-58397819D01*
X74823977Y-58459142D01*
X74818993Y-58528834D01*
X74777121Y-58584767D01*
X74711657Y-58609184D01*
X74702811Y-58609500D01*
X71402828Y-58609500D01*
X71317122Y-58609500D01*
X71314223Y-58610276D01*
X71282138Y-58614500D01*
X70811745Y-58614500D01*
X70728957Y-58636682D01*
X70654736Y-58679534D01*
X70497187Y-58837083D01*
X70435863Y-58870567D01*
X70379833Y-58869798D01*
X70358536Y-58864549D01*
X70358534Y-58864549D01*
X70200564Y-58864549D01*
X70200563Y-58864549D01*
X70047183Y-58902352D01*
X69907311Y-58975764D01*
X69789066Y-59080518D01*
X69737057Y-59155867D01*
X69682773Y-59199857D01*
X69613325Y-59207516D01*
X69550760Y-59176412D01*
X69539154Y-59164091D01*
X69346087Y-58928838D01*
X69346070Y-58928818D01*
X69096354Y-58662198D01*
X62275000Y-65483553D01*
X55807198Y-71951354D01*
X56073818Y-72201070D01*
X56073838Y-72201087D01*
X56549577Y-72591517D01*
X56549576Y-72591517D01*
X57049844Y-72950004D01*
X57049854Y-72950010D01*
X57572473Y-73274995D01*
X57572495Y-73275008D01*
X58115240Y-73565110D01*
X58115267Y-73565123D01*
X58675844Y-73819118D01*
X58675867Y-73819127D01*
X59251840Y-74035908D01*
X59251855Y-74035913D01*
X59840790Y-74214564D01*
X59840798Y-74214567D01*
X60440171Y-74354321D01*
X61047401Y-74454575D01*
X61659869Y-74514898D01*
X62275000Y-74535035D01*
X62890130Y-74514898D01*
X63502598Y-74454575D01*
X64109828Y-74354321D01*
X64709201Y-74214567D01*
X64709209Y-74214564D01*
X65298144Y-74035913D01*
X65298159Y-74035908D01*
X65734655Y-73871622D01*
X65804331Y-73866430D01*
X65865754Y-73899732D01*
X65894276Y-73943703D01*
X65942682Y-74071339D01*
X66032419Y-74201346D01*
X66150662Y-74306099D01*
X66150664Y-74306100D01*
X66290536Y-74379512D01*
X66443916Y-74417316D01*
X66443917Y-74417316D01*
X66601887Y-74417316D01*
X66755267Y-74379512D01*
X66781964Y-74365500D01*
X66895142Y-74306099D01*
X67013385Y-74201346D01*
X67051673Y-74145875D01*
X67105956Y-74101886D01*
X67153723Y-74092316D01*
X67289179Y-74092316D01*
X67356218Y-74112001D01*
X67391228Y-74145875D01*
X67429517Y-74201346D01*
X67547760Y-74306099D01*
X67547762Y-74306100D01*
X67687634Y-74379512D01*
X67841014Y-74417316D01*
X67841015Y-74417316D01*
X67998985Y-74417316D01*
X68152365Y-74379512D01*
X68179062Y-74365500D01*
X68292240Y-74306099D01*
X68410483Y-74201346D01*
X68500220Y-74071339D01*
X68500223Y-74071328D01*
X68503704Y-74064700D01*
X68504923Y-74065339D01*
X68542234Y-74016063D01*
X68607831Y-73992005D01*
X68676022Y-74007231D01*
X68725156Y-74056906D01*
X68740000Y-74115736D01*
X68740000Y-75026342D01*
X68720315Y-75093381D01*
X68667511Y-75139136D01*
X68616318Y-75150342D01*
X53150000Y-75190000D01*
X50466870Y-75190000D01*
X50399831Y-75170315D01*
X50354076Y-75117511D01*
X50344132Y-75048353D01*
X50373157Y-74984797D01*
X50431935Y-74947023D01*
X50448388Y-74943385D01*
X50480175Y-74938593D01*
X50660615Y-74911396D01*
X50911323Y-74834063D01*
X51147704Y-74720228D01*
X51364479Y-74572433D01*
X51556805Y-74393981D01*
X51720386Y-74188857D01*
X51851568Y-73961643D01*
X51947420Y-73717416D01*
X51947420Y-73717415D01*
X51949115Y-73713097D01*
X51950947Y-73713816D01*
X51984946Y-73662391D01*
X52048873Y-73634192D01*
X52117896Y-73645030D01*
X52170103Y-73691466D01*
X52188024Y-73742201D01*
X52203763Y-73871819D01*
X52229349Y-73939283D01*
X52259780Y-74019523D01*
X52349517Y-74149530D01*
X52467760Y-74254283D01*
X52467762Y-74254284D01*
X52607634Y-74327696D01*
X52761014Y-74365500D01*
X52761015Y-74365500D01*
X52918985Y-74365500D01*
X53072365Y-74327696D01*
X53080996Y-74323166D01*
X53212240Y-74254283D01*
X53330483Y-74149530D01*
X53420220Y-74019523D01*
X53476237Y-73871818D01*
X53495278Y-73715000D01*
X53493401Y-73699537D01*
X53476237Y-73558181D01*
X53439870Y-73462291D01*
X53420220Y-73410477D01*
X53330483Y-73280470D01*
X53212240Y-73175717D01*
X53179604Y-73158588D01*
X53129843Y-73110792D01*
X53103116Y-73064499D01*
X53103116Y-73064500D01*
X53100465Y-73059908D01*
X53100464Y-73059907D01*
X53100463Y-73059905D01*
X53035543Y-72994985D01*
X53035520Y-72994964D01*
X50416819Y-70376262D01*
X50383334Y-70314939D01*
X50380500Y-70288581D01*
X50380500Y-69497855D01*
X50380501Y-69497842D01*
X50380501Y-69402149D01*
X50358318Y-69319363D01*
X50358318Y-69319362D01*
X50344809Y-69295964D01*
X50341189Y-69289694D01*
X50341189Y-69289693D01*
X50315469Y-69245144D01*
X50315466Y-69245140D01*
X50315465Y-69245138D01*
X50254862Y-69184535D01*
X50254861Y-69184534D01*
X50250531Y-69180204D01*
X50250520Y-69180194D01*
X49442508Y-68372181D01*
X49409023Y-68310858D01*
X49414007Y-68241166D01*
X49455879Y-68185233D01*
X49521343Y-68160816D01*
X49530189Y-68160500D01*
X51694676Y-68160500D01*
X51694677Y-68160499D01*
X51767740Y-68145966D01*
X51850601Y-68090601D01*
X51905966Y-68007740D01*
X51920500Y-67934674D01*
X51920500Y-65130000D01*
X52869964Y-65130000D01*
X52890101Y-65745130D01*
X52950424Y-66357598D01*
X53050678Y-66964828D01*
X53190432Y-67564201D01*
X53190435Y-67564209D01*
X53369086Y-68153144D01*
X53369091Y-68153159D01*
X53585872Y-68729132D01*
X53585881Y-68729155D01*
X53839876Y-69289732D01*
X53839889Y-69289759D01*
X54129991Y-69832504D01*
X54130004Y-69832526D01*
X54454989Y-70355145D01*
X54454995Y-70355155D01*
X54813482Y-70855422D01*
X55203912Y-71331161D01*
X55203929Y-71331181D01*
X55453645Y-71597801D01*
X61921447Y-65130000D01*
X61921447Y-65129999D01*
X55453645Y-58662198D01*
X55203914Y-58928835D01*
X55203912Y-58928838D01*
X54813482Y-59404577D01*
X54454995Y-59904844D01*
X54454989Y-59904854D01*
X54130004Y-60427473D01*
X54129991Y-60427495D01*
X53839889Y-60970240D01*
X53839876Y-60970267D01*
X53585881Y-61530844D01*
X53585872Y-61530867D01*
X53369091Y-62106840D01*
X53369086Y-62106855D01*
X53190435Y-62695790D01*
X53190432Y-62695798D01*
X53050678Y-63295171D01*
X52950424Y-63902401D01*
X52890101Y-64514869D01*
X52869964Y-65130000D01*
X51920500Y-65130000D01*
X51920500Y-62325326D01*
X51920500Y-62325323D01*
X51920499Y-62325321D01*
X51905967Y-62252264D01*
X51905966Y-62252260D01*
X51895962Y-62237288D01*
X51850601Y-62169399D01*
X51771259Y-62116385D01*
X51767739Y-62114033D01*
X51767735Y-62114032D01*
X51694677Y-62099500D01*
X51694674Y-62099500D01*
X49134500Y-62099500D01*
X49067461Y-62079815D01*
X49021706Y-62027011D01*
X49010500Y-61975500D01*
X49010500Y-59635188D01*
X49030185Y-59568149D01*
X49082989Y-59522394D01*
X49152147Y-59512450D01*
X49215703Y-59541475D01*
X49222181Y-59547507D01*
X49270194Y-59595520D01*
X49270204Y-59595531D01*
X49274534Y-59599861D01*
X49274535Y-59599862D01*
X49335138Y-59660465D01*
X49383222Y-59688226D01*
X49383224Y-59688227D01*
X49409360Y-59703317D01*
X49409361Y-59703317D01*
X49409362Y-59703318D01*
X49492148Y-59725501D01*
X49492150Y-59725501D01*
X49585449Y-59725501D01*
X49585465Y-59725500D01*
X50869179Y-59725500D01*
X50936218Y-59745185D01*
X50971228Y-59779059D01*
X51009517Y-59834530D01*
X51127760Y-59939283D01*
X51127762Y-59939284D01*
X51267634Y-60012696D01*
X51421014Y-60050500D01*
X51421015Y-60050500D01*
X51578985Y-60050500D01*
X51732365Y-60012696D01*
X51872240Y-59939283D01*
X51990483Y-59834530D01*
X52080220Y-59704523D01*
X52136237Y-59556818D01*
X52155278Y-59400000D01*
X52150021Y-59356700D01*
X52136237Y-59243181D01*
X52114992Y-59187164D01*
X52080220Y-59095477D01*
X51990483Y-58965470D01*
X51872240Y-58860717D01*
X51872238Y-58860716D01*
X51872237Y-58860715D01*
X51732365Y-58787303D01*
X51578986Y-58749500D01*
X51578985Y-58749500D01*
X51421015Y-58749500D01*
X51421014Y-58749500D01*
X51267634Y-58787303D01*
X51127762Y-58860715D01*
X51009516Y-58965471D01*
X51002410Y-58975766D01*
X50983620Y-59002989D01*
X50971229Y-59020940D01*
X50916946Y-59064930D01*
X50869179Y-59074500D01*
X49894199Y-59074500D01*
X49827160Y-59054815D01*
X49781405Y-59002011D01*
X49771461Y-58932853D01*
X49800486Y-58869297D01*
X49858204Y-58831839D01*
X50034539Y-58778348D01*
X50208253Y-58685496D01*
X50208260Y-58685492D01*
X50360528Y-58560528D01*
X50485492Y-58408260D01*
X50485496Y-58408253D01*
X50578347Y-58234541D01*
X50619160Y-58100000D01*
X49859618Y-58100000D01*
X49910064Y-58049554D01*
X49952851Y-57975445D01*
X49975000Y-57892787D01*
X49975000Y-57807213D01*
X49952851Y-57724555D01*
X49910064Y-57650446D01*
X49859618Y-57600000D01*
X50619160Y-57600000D01*
X50619160Y-57599999D01*
X50578347Y-57465458D01*
X50485496Y-57291746D01*
X50485492Y-57291739D01*
X50360528Y-57139471D01*
X50329056Y-57113643D01*
X50289722Y-57055897D01*
X50287851Y-56986053D01*
X50302725Y-56951822D01*
X50330456Y-56907690D01*
X50386313Y-56748059D01*
X50400721Y-56620185D01*
X50405249Y-56580002D01*
X50405249Y-56579997D01*
X50386314Y-56411943D01*
X50348303Y-56303314D01*
X50330456Y-56252310D01*
X50330455Y-56252309D01*
X50330454Y-56252305D01*
X50330452Y-56252302D01*
X50240481Y-56109115D01*
X50240476Y-56109109D01*
X50164048Y-56032681D01*
X50130563Y-55971358D01*
X50135547Y-55901666D01*
X50164048Y-55857319D01*
X50191867Y-55829500D01*
X50240477Y-55780890D01*
X50295371Y-55693527D01*
X50347705Y-55647237D01*
X50400364Y-55635500D01*
X51123811Y-55635500D01*
X51190850Y-55655185D01*
G37*
%TD.AperFunction*%
%TA.AperFunction,Conductor*%
G36*
X100210703Y-61330391D02*
G01*
X100248477Y-61389169D01*
X100249275Y-61392011D01*
X100249500Y-61392850D01*
X100249500Y-61392853D01*
X100257874Y-61424104D01*
X100271682Y-61475640D01*
X100293108Y-61512750D01*
X100314535Y-61549862D01*
X100779811Y-62015138D01*
X101213181Y-62448507D01*
X101246666Y-62509830D01*
X101249500Y-62536188D01*
X101249500Y-64176311D01*
X101229815Y-64243350D01*
X101213181Y-64263992D01*
X100351492Y-65125681D01*
X100290169Y-65159166D01*
X100263811Y-65162000D01*
X99134647Y-65162000D01*
X99051862Y-65184182D01*
X99051859Y-65184183D01*
X99001632Y-65213182D01*
X98977641Y-65227033D01*
X98977635Y-65227037D01*
X98774537Y-65430135D01*
X98774533Y-65430141D01*
X98731682Y-65504359D01*
X98728659Y-65515645D01*
X98728656Y-65515657D01*
X98725246Y-65528379D01*
X98688876Y-65588036D01*
X98648809Y-65612456D01*
X98548721Y-65649788D01*
X98436384Y-65733884D01*
X98352289Y-65846219D01*
X98303248Y-65977700D01*
X98297000Y-66035809D01*
X98297000Y-66604190D01*
X98303248Y-66662299D01*
X98339074Y-66758349D01*
X98346976Y-66779537D01*
X98352289Y-66793780D01*
X98376872Y-66826618D01*
X98401289Y-66892082D01*
X98386437Y-66960355D01*
X98342703Y-67006467D01*
X98304462Y-67030054D01*
X98182555Y-67151961D01*
X98182552Y-67151965D01*
X98092051Y-67298688D01*
X98092046Y-67298699D01*
X98037819Y-67462347D01*
X98027500Y-67563345D01*
X98027500Y-67600000D01*
X99141000Y-67600000D01*
X99208039Y-67619685D01*
X99253794Y-67672489D01*
X99265000Y-67724000D01*
X99265000Y-68806638D01*
X99255000Y-68840693D01*
X99255000Y-69496000D01*
X99235315Y-69563039D01*
X99182511Y-69608794D01*
X99131000Y-69620000D01*
X98017501Y-69620000D01*
X98017501Y-69656654D01*
X98027819Y-69757652D01*
X98082046Y-69921300D01*
X98082051Y-69921311D01*
X98172552Y-70068034D01*
X98172555Y-70068038D01*
X98294461Y-70189944D01*
X98294465Y-70189947D01*
X98320730Y-70206148D01*
X98367455Y-70258096D01*
X98378676Y-70327058D01*
X98354900Y-70385996D01*
X98324790Y-70426217D01*
X98324788Y-70426221D01*
X98324788Y-70426222D01*
X98323115Y-70430708D01*
X98275748Y-70557700D01*
X98269500Y-70615809D01*
X98269500Y-71184190D01*
X98275748Y-71242299D01*
X98285029Y-71267181D01*
X98324788Y-71373778D01*
X98324790Y-71373781D01*
X98324791Y-71373783D01*
X98329040Y-71381566D01*
X98327665Y-71382316D01*
X98348590Y-71438429D01*
X98333733Y-71506701D01*
X98298643Y-71543707D01*
X98300123Y-71545579D01*
X98294462Y-71550054D01*
X98172552Y-71671965D01*
X98082051Y-71818688D01*
X98082046Y-71818699D01*
X98027819Y-71982347D01*
X98017500Y-72083345D01*
X98017500Y-72120000D01*
X99131000Y-72120000D01*
X99198039Y-72139685D01*
X99243794Y-72192489D01*
X99255000Y-72244000D01*
X99255000Y-72496000D01*
X99235315Y-72563039D01*
X99182511Y-72608794D01*
X99131000Y-72620000D01*
X98017501Y-72620000D01*
X98017501Y-72656654D01*
X98027819Y-72757652D01*
X98082046Y-72921300D01*
X98082051Y-72921311D01*
X98172552Y-73068034D01*
X98172555Y-73068038D01*
X98294457Y-73189940D01*
X98295403Y-73190688D01*
X98295883Y-73191366D01*
X98299569Y-73195052D01*
X98298939Y-73195681D01*
X98335781Y-73247709D01*
X98338922Y-73317508D01*
X98324763Y-73347475D01*
X98326536Y-73348443D01*
X98322287Y-73356222D01*
X98273249Y-73487700D01*
X98269372Y-73523757D01*
X98242633Y-73588308D01*
X98185240Y-73628155D01*
X98146083Y-73634500D01*
X96647147Y-73634500D01*
X96564359Y-73656682D01*
X96490138Y-73699535D01*
X96490135Y-73699537D01*
X96099342Y-74090330D01*
X96038019Y-74123815D01*
X95968327Y-74118831D01*
X95912394Y-74076959D01*
X95887977Y-74011495D01*
X95896948Y-73958770D01*
X95896642Y-73958681D01*
X95897419Y-73956004D01*
X95897864Y-73953393D01*
X95898812Y-73951200D01*
X95898818Y-73951190D01*
X95942909Y-73799427D01*
X95945700Y-73763963D01*
X95945699Y-72387638D01*
X95942909Y-72352173D01*
X95898818Y-72200410D01*
X95818370Y-72064380D01*
X95818368Y-72064378D01*
X95818365Y-72064374D01*
X95706625Y-71952634D01*
X95706616Y-71952627D01*
X95650097Y-71919202D01*
X95602413Y-71868133D01*
X95589910Y-71799391D01*
X95616556Y-71734802D01*
X95625528Y-71724798D01*
X96249652Y-71100672D01*
X96249657Y-71100669D01*
X96259860Y-71090465D01*
X96259862Y-71090465D01*
X96407474Y-70942853D01*
X97285465Y-70064862D01*
X97328318Y-69990639D01*
X97350500Y-69907853D01*
X97350500Y-69822147D01*
X97350500Y-69083345D01*
X98017500Y-69083345D01*
X98017500Y-69120000D01*
X98755000Y-69120000D01*
X98755000Y-68413362D01*
X98765000Y-68379306D01*
X98765000Y-68100000D01*
X98027501Y-68100000D01*
X98027501Y-68136654D01*
X98037819Y-68237652D01*
X98092046Y-68401300D01*
X98092051Y-68401311D01*
X98175620Y-68536796D01*
X98194061Y-68604188D01*
X98175621Y-68666990D01*
X98082048Y-68818694D01*
X98082046Y-68818699D01*
X98027819Y-68982347D01*
X98017500Y-69083345D01*
X97350500Y-69083345D01*
X97350500Y-66229189D01*
X97370185Y-66162150D01*
X97386819Y-66141508D01*
X98656316Y-64872011D01*
X99940465Y-63587862D01*
X99983318Y-63513639D01*
X100005500Y-63430853D01*
X100005500Y-63345147D01*
X100005500Y-61424104D01*
X100025185Y-61357065D01*
X100077989Y-61311310D01*
X100147147Y-61301366D01*
X100210703Y-61330391D01*
G37*
%TD.AperFunction*%
%TA.AperFunction,Conductor*%
G36*
X48495171Y-68345971D02*
G01*
X48501842Y-68352169D01*
X49693181Y-69543507D01*
X49726666Y-69604830D01*
X49729500Y-69631188D01*
X49729500Y-70517622D01*
X49751682Y-70600410D01*
X49760573Y-70615809D01*
X49794535Y-70674632D01*
X50195088Y-71075185D01*
X50357723Y-71237819D01*
X50391208Y-71299142D01*
X50386224Y-71368833D01*
X50344353Y-71424767D01*
X50278888Y-71449184D01*
X50270042Y-71449500D01*
X50138812Y-71449500D01*
X49977247Y-71473853D01*
X49879385Y-71488604D01*
X49879382Y-71488605D01*
X49879376Y-71488606D01*
X49628673Y-71565938D01*
X49392303Y-71679767D01*
X49392302Y-71679768D01*
X49175520Y-71827567D01*
X48983198Y-72006014D01*
X48819614Y-72211143D01*
X48688432Y-72438356D01*
X48592582Y-72682578D01*
X48592577Y-72682595D01*
X48544127Y-72894868D01*
X48510018Y-72955846D01*
X48448357Y-72988704D01*
X48378720Y-72983009D01*
X48323216Y-72940569D01*
X48299468Y-72874859D01*
X48299236Y-72867546D01*
X48290161Y-68440103D01*
X48309708Y-68373024D01*
X48362418Y-68327161D01*
X48431556Y-68317076D01*
X48495171Y-68345971D01*
G37*
%TD.AperFunction*%
%TA.AperFunction,Conductor*%
G36*
X101681850Y-56620185D02*
G01*
X101727605Y-56672989D01*
X101737549Y-56742147D01*
X101708524Y-56805703D01*
X101702492Y-56812181D01*
X101189537Y-57325135D01*
X101189535Y-57325138D01*
X101146681Y-57399361D01*
X101146681Y-57399362D01*
X101140166Y-57423673D01*
X101140167Y-57423674D01*
X101124500Y-57482145D01*
X101124500Y-58278065D01*
X101104815Y-58345104D01*
X101052011Y-58390859D01*
X100982853Y-58400803D01*
X100970826Y-58398462D01*
X100820478Y-58361406D01*
X100820477Y-58361406D01*
X100662507Y-58361406D01*
X100641204Y-58366656D01*
X100571402Y-58363584D01*
X100523852Y-58333939D01*
X100264450Y-58074537D01*
X100264448Y-58074535D01*
X100221180Y-58049554D01*
X100190226Y-58031682D01*
X100132769Y-58016287D01*
X100107439Y-58009500D01*
X99397853Y-58009500D01*
X99312147Y-58009500D01*
X99229359Y-58031682D01*
X99155138Y-58074535D01*
X99155135Y-58074537D01*
X98738408Y-58491264D01*
X98738406Y-58491267D01*
X98695553Y-58565488D01*
X98673371Y-58648276D01*
X98673371Y-58733982D01*
X98673439Y-58734499D01*
X98674500Y-58750685D01*
X98674500Y-63277811D01*
X98654815Y-63344850D01*
X98638181Y-63365492D01*
X96414537Y-65589135D01*
X96414535Y-65589138D01*
X96371680Y-65663363D01*
X96357176Y-65717498D01*
X96349500Y-65746145D01*
X96349500Y-69533837D01*
X96329815Y-69600876D01*
X96313181Y-69621518D01*
X96157181Y-69777518D01*
X96095858Y-69811003D01*
X96026166Y-69806019D01*
X95970233Y-69764147D01*
X95945816Y-69698683D01*
X95945500Y-69689837D01*
X95945500Y-65882855D01*
X95945501Y-65882842D01*
X95945501Y-65787148D01*
X95934514Y-65746147D01*
X95923318Y-65704362D01*
X95923317Y-65704361D01*
X95923317Y-65704359D01*
X95923316Y-65704358D01*
X95880467Y-65630141D01*
X95880466Y-65630140D01*
X95880465Y-65630138D01*
X95819862Y-65569535D01*
X95819861Y-65569534D01*
X95815531Y-65565204D01*
X95815520Y-65565194D01*
X95699469Y-65449143D01*
X95665984Y-65387820D01*
X95670968Y-65318128D01*
X95712840Y-65262195D01*
X95752557Y-65242385D01*
X95825196Y-65221282D01*
X95966552Y-65137685D01*
X95966561Y-65137678D01*
X96082678Y-65021561D01*
X96082685Y-65021552D01*
X96166281Y-64880198D01*
X96212100Y-64722486D01*
X96212295Y-64720001D01*
X96212295Y-64720000D01*
X94889777Y-64720000D01*
X94882148Y-64719500D01*
X94877853Y-64719500D01*
X94564000Y-64719500D01*
X94496961Y-64699815D01*
X94451206Y-64647011D01*
X94440000Y-64595500D01*
X94440000Y-64220000D01*
X94940000Y-64220000D01*
X96212295Y-64220000D01*
X96212295Y-64219998D01*
X96212100Y-64217513D01*
X96166281Y-64059801D01*
X96082685Y-63918447D01*
X96077900Y-63912278D01*
X96080252Y-63910453D01*
X96053445Y-63861405D01*
X96058402Y-63791712D01*
X96079465Y-63758936D01*
X96077900Y-63757722D01*
X96082685Y-63751552D01*
X96166281Y-63610198D01*
X96212100Y-63452486D01*
X96212295Y-63450001D01*
X96212295Y-63450000D01*
X94940000Y-63450000D01*
X94940000Y-64220000D01*
X94440000Y-64220000D01*
X94440000Y-63450000D01*
X93246000Y-63450000D01*
X93178961Y-63430315D01*
X93133206Y-63377511D01*
X93122000Y-63326000D01*
X93122000Y-63225000D01*
X92534000Y-63225000D01*
X92466961Y-63205315D01*
X92421206Y-63152511D01*
X92410000Y-63101000D01*
X92410000Y-62849000D01*
X92429685Y-62781961D01*
X92482489Y-62736206D01*
X92534000Y-62725000D01*
X93554000Y-62725000D01*
X93621039Y-62744685D01*
X93666794Y-62797489D01*
X93678000Y-62849000D01*
X93678000Y-62950000D01*
X94440000Y-62950000D01*
X94940000Y-62950000D01*
X96212295Y-62950000D01*
X96212295Y-62949998D01*
X96212100Y-62947513D01*
X96166281Y-62789801D01*
X96082685Y-62648447D01*
X96077900Y-62642278D01*
X96080252Y-62640453D01*
X96053445Y-62591405D01*
X96058402Y-62521712D01*
X96079465Y-62488936D01*
X96077900Y-62487722D01*
X96082685Y-62481552D01*
X96166281Y-62340198D01*
X96212100Y-62182486D01*
X96212295Y-62180001D01*
X96212295Y-62180000D01*
X94940000Y-62180000D01*
X94940000Y-62950000D01*
X94440000Y-62950000D01*
X94440000Y-61680000D01*
X94940000Y-61680000D01*
X96212295Y-61680000D01*
X96212295Y-61679998D01*
X96212100Y-61677513D01*
X96166281Y-61519801D01*
X96082685Y-61378447D01*
X96077900Y-61372278D01*
X96080252Y-61370453D01*
X96053445Y-61321405D01*
X96058402Y-61251712D01*
X96079465Y-61218936D01*
X96077900Y-61217722D01*
X96082685Y-61211552D01*
X96166281Y-61070198D01*
X96212100Y-60912486D01*
X96212295Y-60910001D01*
X96212295Y-60910000D01*
X94940000Y-60910000D01*
X94940000Y-61680000D01*
X94440000Y-61680000D01*
X94440000Y-60410000D01*
X94940000Y-60410000D01*
X96212295Y-60410000D01*
X96212295Y-60409998D01*
X96212100Y-60407513D01*
X96166281Y-60249801D01*
X96082685Y-60108447D01*
X96077900Y-60102278D01*
X96080252Y-60100453D01*
X96053445Y-60051405D01*
X96058402Y-59981712D01*
X96079465Y-59948936D01*
X96077900Y-59947722D01*
X96082685Y-59941552D01*
X96166281Y-59800198D01*
X96212100Y-59642486D01*
X96212295Y-59640001D01*
X96212295Y-59640000D01*
X94940000Y-59640000D01*
X94940000Y-60410000D01*
X94440000Y-60410000D01*
X94440000Y-59640000D01*
X93167705Y-59640000D01*
X93167704Y-59640001D01*
X93167899Y-59642486D01*
X93213718Y-59800198D01*
X93297314Y-59941552D01*
X93302100Y-59947722D01*
X93299753Y-59949542D01*
X93326564Y-59998642D01*
X93321580Y-60068334D01*
X93300541Y-60101069D01*
X93302100Y-60102278D01*
X93297317Y-60108444D01*
X93240186Y-60205047D01*
X93189116Y-60252730D01*
X93120375Y-60265233D01*
X93059143Y-60241191D01*
X92972335Y-60176206D01*
X92972328Y-60176202D01*
X92837482Y-60125908D01*
X92837483Y-60125908D01*
X92777883Y-60119501D01*
X92777881Y-60119500D01*
X92777873Y-60119500D01*
X92777864Y-60119500D01*
X91482129Y-60119500D01*
X91482123Y-60119501D01*
X91422516Y-60125908D01*
X91287671Y-60176202D01*
X91287664Y-60176206D01*
X91172455Y-60262452D01*
X91172452Y-60262455D01*
X91086206Y-60377664D01*
X91086202Y-60377671D01*
X91035908Y-60512517D01*
X91029501Y-60572116D01*
X91029500Y-60572135D01*
X91029500Y-60677304D01*
X91009815Y-60744343D01*
X90957011Y-60790098D01*
X90887853Y-60800042D01*
X90824297Y-60771017D01*
X90806234Y-60751616D01*
X90776116Y-60711384D01*
X90663780Y-60627289D01*
X90663778Y-60627288D01*
X90637144Y-60617354D01*
X90532299Y-60578248D01*
X90474190Y-60572000D01*
X90474174Y-60572000D01*
X89905826Y-60572000D01*
X89905809Y-60572000D01*
X89847700Y-60578248D01*
X89716219Y-60627289D01*
X89603884Y-60711384D01*
X89519789Y-60823719D01*
X89470748Y-60955200D01*
X89464500Y-61013309D01*
X89464500Y-61606690D01*
X89470748Y-61664799D01*
X89492479Y-61723060D01*
X89519788Y-61796278D01*
X89603884Y-61908616D01*
X89716222Y-61992712D01*
X89752594Y-62006278D01*
X89808527Y-62048148D01*
X89832944Y-62113613D01*
X89818092Y-62181886D01*
X89768687Y-62231291D01*
X89759615Y-62235434D01*
X89756223Y-62237287D01*
X89643884Y-62321384D01*
X89559787Y-62433722D01*
X89529907Y-62513834D01*
X89488036Y-62569768D01*
X89422571Y-62594184D01*
X89413726Y-62594500D01*
X88532543Y-62594500D01*
X88465504Y-62574815D01*
X88419749Y-62522011D01*
X88416370Y-62513856D01*
X88390212Y-62443722D01*
X88306116Y-62331384D01*
X88193778Y-62247288D01*
X88126165Y-62222069D01*
X88070232Y-62180197D01*
X88045816Y-62114733D01*
X88045500Y-62105888D01*
X88045500Y-61826189D01*
X88065185Y-61759150D01*
X88081819Y-61738508D01*
X88701323Y-61119004D01*
X89330465Y-60489862D01*
X89342796Y-60468504D01*
X89373318Y-60415638D01*
X89395500Y-60332853D01*
X89395500Y-60174594D01*
X89415185Y-60107555D01*
X89467989Y-60061800D01*
X89537147Y-60051856D01*
X89596343Y-60078890D01*
X89596785Y-60078301D01*
X89599493Y-60080328D01*
X89600703Y-60080881D01*
X89602636Y-60082681D01*
X89603882Y-60083614D01*
X89603884Y-60083616D01*
X89674117Y-60136192D01*
X89711745Y-60164361D01*
X89716222Y-60167712D01*
X89804704Y-60200714D01*
X89847700Y-60216751D01*
X89905809Y-60222999D01*
X89905826Y-60223000D01*
X90474174Y-60223000D01*
X90474190Y-60222999D01*
X90532299Y-60216751D01*
X90537436Y-60214835D01*
X90663778Y-60167712D01*
X90776116Y-60083616D01*
X90860212Y-59971278D01*
X90909251Y-59839799D01*
X90909637Y-59836208D01*
X90915499Y-59781690D01*
X90915500Y-59781673D01*
X90915500Y-59188326D01*
X90915499Y-59188309D01*
X90909251Y-59130200D01*
X90890720Y-59080518D01*
X90860212Y-58998722D01*
X90776116Y-58886384D01*
X90696049Y-58826446D01*
X90663780Y-58802289D01*
X90663778Y-58802288D01*
X90628240Y-58789033D01*
X90532299Y-58753248D01*
X90474190Y-58747000D01*
X90474174Y-58747000D01*
X90002688Y-58747000D01*
X89935649Y-58727315D01*
X89889894Y-58674511D01*
X89879950Y-58605353D01*
X89908975Y-58541797D01*
X89915007Y-58535319D01*
X90568507Y-57881819D01*
X90629830Y-57848334D01*
X90656188Y-57845500D01*
X90905501Y-57845500D01*
X90972540Y-57865185D01*
X91018295Y-57917989D01*
X91028437Y-57964611D01*
X91029099Y-57964576D01*
X91029146Y-57964571D01*
X91029146Y-57964573D01*
X91029324Y-57964564D01*
X91029501Y-57967876D01*
X91035908Y-58027483D01*
X91086202Y-58162328D01*
X91086206Y-58162335D01*
X91172452Y-58277544D01*
X91172455Y-58277547D01*
X91287664Y-58363793D01*
X91287671Y-58363797D01*
X91422517Y-58414091D01*
X91422516Y-58414091D01*
X91429444Y-58414835D01*
X91482127Y-58420500D01*
X92777872Y-58420499D01*
X92837483Y-58414091D01*
X92972331Y-58363796D01*
X93087546Y-58277546D01*
X93111971Y-58244919D01*
X93130082Y-58220726D01*
X93186015Y-58178855D01*
X93255707Y-58173871D01*
X93317029Y-58207356D01*
X93386633Y-58276960D01*
X93420118Y-58338283D01*
X93421425Y-58345244D01*
X93429352Y-58395299D01*
X93429352Y-58395300D01*
X93429353Y-58395303D01*
X93429354Y-58395304D01*
X93486950Y-58508342D01*
X93486953Y-58508345D01*
X93492689Y-58516241D01*
X93489750Y-58518375D01*
X93514537Y-58563768D01*
X93509553Y-58633460D01*
X93467681Y-58689393D01*
X93456493Y-58696858D01*
X93413444Y-58722317D01*
X93413438Y-58722321D01*
X93297321Y-58838438D01*
X93297314Y-58838447D01*
X93213718Y-58979801D01*
X93167899Y-59137513D01*
X93167704Y-59139998D01*
X93167705Y-59140000D01*
X96212295Y-59140000D01*
X96212295Y-59139998D01*
X96212100Y-59137513D01*
X96166281Y-58979801D01*
X96082685Y-58838447D01*
X96082678Y-58838438D01*
X95966561Y-58722321D01*
X95966553Y-58722315D01*
X95923507Y-58696858D01*
X95875824Y-58645789D01*
X95863320Y-58577048D01*
X95888152Y-58516852D01*
X95887311Y-58516241D01*
X95889841Y-58512758D01*
X95889965Y-58512458D01*
X95890460Y-58511906D01*
X95893042Y-58508349D01*
X95893050Y-58508342D01*
X95950646Y-58395304D01*
X95950646Y-58395302D01*
X95950647Y-58395301D01*
X95963375Y-58314938D01*
X95965500Y-58301519D01*
X95965499Y-57938482D01*
X95962253Y-57917989D01*
X95958438Y-57893896D01*
X95967394Y-57824603D01*
X96012391Y-57771152D01*
X96079143Y-57750513D01*
X96080912Y-57750500D01*
X96838811Y-57750500D01*
X96905850Y-57770185D01*
X96926492Y-57786819D01*
X97288181Y-58148508D01*
X97321666Y-58209831D01*
X97324500Y-58236189D01*
X97324500Y-60147796D01*
X97304815Y-60214835D01*
X97282727Y-60240611D01*
X97209518Y-60305468D01*
X97119781Y-60435475D01*
X97119780Y-60435476D01*
X97063762Y-60583181D01*
X97044722Y-60739999D01*
X97044722Y-60740000D01*
X97063762Y-60896818D01*
X97119780Y-61044523D01*
X97209517Y-61174530D01*
X97327760Y-61279283D01*
X97327762Y-61279284D01*
X97467634Y-61352696D01*
X97621014Y-61390500D01*
X97621015Y-61390500D01*
X97778985Y-61390500D01*
X97932365Y-61352696D01*
X98019150Y-61307147D01*
X98072240Y-61279283D01*
X98190483Y-61174530D01*
X98280220Y-61044523D01*
X98336237Y-60896818D01*
X98355278Y-60740000D01*
X98353518Y-60725500D01*
X98336237Y-60583181D01*
X98298049Y-60482489D01*
X98280220Y-60435477D01*
X98190483Y-60305470D01*
X98072240Y-60200717D01*
X98072238Y-60200716D01*
X98072237Y-60200715D01*
X98072235Y-60200714D01*
X98041873Y-60184778D01*
X97991661Y-60136192D01*
X97975500Y-60074982D01*
X97975500Y-58007149D01*
X97975500Y-58007147D01*
X97953318Y-57924362D01*
X97935729Y-57893896D01*
X97910469Y-57850144D01*
X97910463Y-57850136D01*
X97447508Y-57387181D01*
X97414023Y-57325858D01*
X97419007Y-57256166D01*
X97460879Y-57200233D01*
X97526343Y-57175816D01*
X97535189Y-57175500D01*
X100792851Y-57175500D01*
X100792853Y-57175500D01*
X100875639Y-57153318D01*
X100949862Y-57110465D01*
X101423507Y-56636818D01*
X101484830Y-56603334D01*
X101511188Y-56600500D01*
X101614811Y-56600500D01*
X101681850Y-56620185D01*
G37*
%TD.AperFunction*%
%TA.AperFunction,Conductor*%
G36*
X82893027Y-56475185D02*
G01*
X82913669Y-56491819D01*
X85087518Y-58665668D01*
X85121003Y-58726991D01*
X85116019Y-58796683D01*
X85074147Y-58852616D01*
X85008683Y-58877033D01*
X84999837Y-58877349D01*
X81737616Y-58877349D01*
X81737600Y-58877348D01*
X81730004Y-58877348D01*
X81644298Y-58877348D01*
X81621438Y-58883473D01*
X81570413Y-58897145D01*
X81570414Y-58897146D01*
X81561513Y-58899531D01*
X81561506Y-58899534D01*
X81487295Y-58942379D01*
X81487287Y-58942385D01*
X78811492Y-61618181D01*
X78750169Y-61651666D01*
X78723811Y-61654500D01*
X75274283Y-61654500D01*
X75207244Y-61634815D01*
X75161489Y-61582011D01*
X75151545Y-61512853D01*
X75158101Y-61487167D01*
X75175642Y-61440135D01*
X75184091Y-61417483D01*
X75190500Y-61357873D01*
X75190499Y-59762128D01*
X75188954Y-59747752D01*
X75201361Y-59678993D01*
X75248973Y-59627857D01*
X75312244Y-59610500D01*
X75584296Y-59610500D01*
X75651335Y-59630185D01*
X75671977Y-59646819D01*
X76685623Y-60660465D01*
X76759846Y-60703318D01*
X76842632Y-60725500D01*
X76842634Y-60725500D01*
X77839157Y-60725500D01*
X77839159Y-60725500D01*
X77921945Y-60703318D01*
X77996168Y-60660465D01*
X78421859Y-60234772D01*
X78483180Y-60201289D01*
X78539212Y-60202057D01*
X78560513Y-60207308D01*
X78718483Y-60207308D01*
X78871863Y-60169504D01*
X78909133Y-60149943D01*
X79011738Y-60096091D01*
X79129981Y-59991338D01*
X79219718Y-59861331D01*
X79275735Y-59713626D01*
X79294776Y-59556808D01*
X79291078Y-59526347D01*
X79275735Y-59399989D01*
X79250998Y-59334765D01*
X79219718Y-59252285D01*
X79129981Y-59122278D01*
X79011738Y-59017525D01*
X79011737Y-59017524D01*
X79009899Y-59016560D01*
X79008829Y-59015998D01*
X79007096Y-59014322D01*
X79005567Y-59013266D01*
X79005742Y-59013011D01*
X78958619Y-58967413D01*
X78946683Y-58938294D01*
X78945225Y-58932853D01*
X78942816Y-58923860D01*
X78942815Y-58923859D01*
X78942815Y-58923857D01*
X78899967Y-58849642D01*
X78899961Y-58849634D01*
X78374864Y-58324537D01*
X78374862Y-58324535D01*
X78335006Y-58301524D01*
X78300640Y-58281682D01*
X78259246Y-58270591D01*
X78217853Y-58259500D01*
X78217852Y-58259500D01*
X77668453Y-58259500D01*
X77601414Y-58239815D01*
X77555659Y-58187011D01*
X77545715Y-58117853D01*
X77574740Y-58054297D01*
X77580772Y-58047819D01*
X77587165Y-58041425D01*
X77587170Y-58041420D01*
X77667618Y-57905390D01*
X77711709Y-57753627D01*
X77714500Y-57718163D01*
X77714499Y-56841838D01*
X77711709Y-56806373D01*
X77667618Y-56654610D01*
X77660527Y-56642619D01*
X77643346Y-56574895D01*
X77665506Y-56508633D01*
X77719973Y-56464870D01*
X77767260Y-56455500D01*
X82825988Y-56455500D01*
X82893027Y-56475185D01*
G37*
%TD.AperFunction*%
%TA.AperFunction,Conductor*%
G36*
X97750850Y-49145185D02*
G01*
X97771492Y-49161819D01*
X98398181Y-49788508D01*
X98431666Y-49849831D01*
X98434500Y-49876189D01*
X98434500Y-52757147D01*
X98434500Y-52842853D01*
X98441287Y-52868182D01*
X98456682Y-52925640D01*
X98469097Y-52947143D01*
X98499535Y-52999862D01*
X98823251Y-53323578D01*
X99145194Y-53645520D01*
X99145215Y-53645543D01*
X99210133Y-53710461D01*
X99210137Y-53710464D01*
X99210138Y-53710465D01*
X99223578Y-53718224D01*
X99223580Y-53718226D01*
X99223581Y-53718226D01*
X99282670Y-53752342D01*
X99284361Y-53753318D01*
X99367147Y-53775500D01*
X99452853Y-53775500D01*
X99959179Y-53775500D01*
X100026218Y-53795185D01*
X100061228Y-53829059D01*
X100099517Y-53884530D01*
X100217760Y-53989283D01*
X100217762Y-53989284D01*
X100357634Y-54062696D01*
X100362546Y-54064559D01*
X100418248Y-54106737D01*
X100442304Y-54172335D01*
X100427076Y-54240525D01*
X100377400Y-54289658D01*
X100318573Y-54304500D01*
X98137147Y-54304500D01*
X98054359Y-54326682D01*
X97980138Y-54369535D01*
X97980135Y-54369537D01*
X97131492Y-55218181D01*
X97070169Y-55251666D01*
X97043811Y-55254500D01*
X96001057Y-55254500D01*
X95934018Y-55234815D01*
X95900793Y-55198093D01*
X95898786Y-55199552D01*
X95893050Y-55191657D01*
X95803347Y-55101954D01*
X95803344Y-55101952D01*
X95803342Y-55101950D01*
X95713706Y-55056278D01*
X95690301Y-55044352D01*
X95596524Y-55029500D01*
X93783482Y-55029500D01*
X93702519Y-55042323D01*
X93689696Y-55044354D01*
X93576658Y-55101950D01*
X93576657Y-55101951D01*
X93576652Y-55101954D01*
X93486954Y-55191652D01*
X93486951Y-55191657D01*
X93486950Y-55191658D01*
X93475760Y-55213620D01*
X93429352Y-55304698D01*
X93414500Y-55398475D01*
X93414500Y-55398480D01*
X93414500Y-55398481D01*
X93414500Y-55571508D01*
X93414501Y-55705500D01*
X93394817Y-55772539D01*
X93342013Y-55818294D01*
X93290501Y-55829500D01*
X88832147Y-55829500D01*
X88749359Y-55851682D01*
X88675138Y-55894535D01*
X88675135Y-55894537D01*
X87028716Y-57540955D01*
X86967393Y-57574440D01*
X86897701Y-57569456D01*
X86841768Y-57527584D01*
X86825095Y-57497249D01*
X86788646Y-57401140D01*
X86788204Y-57400500D01*
X86698907Y-57271130D01*
X86693935Y-57265518D01*
X86695676Y-57263975D01*
X86664610Y-57214449D01*
X86665376Y-57144584D01*
X86681911Y-57110385D01*
X86750220Y-57011423D01*
X86806237Y-56863718D01*
X86825278Y-56706900D01*
X86822755Y-56686116D01*
X86806237Y-56550081D01*
X86773920Y-56464870D01*
X86750220Y-56402377D01*
X86660483Y-56272370D01*
X86542240Y-56167617D01*
X86542239Y-56167616D01*
X86537273Y-56163217D01*
X86500146Y-56104027D01*
X86495500Y-56070401D01*
X86495500Y-55866188D01*
X86515185Y-55799149D01*
X86531819Y-55778507D01*
X86548507Y-55761819D01*
X86609830Y-55728334D01*
X86636188Y-55725500D01*
X88262851Y-55725500D01*
X88262853Y-55725500D01*
X88345639Y-55703318D01*
X88419862Y-55660465D01*
X89859652Y-54220672D01*
X89859657Y-54220669D01*
X89869860Y-54210465D01*
X89869862Y-54210465D01*
X89896267Y-54184060D01*
X91450792Y-54184060D01*
X91450792Y-54184061D01*
X91464592Y-54192733D01*
X91464591Y-54192733D01*
X91634761Y-54252278D01*
X91813897Y-54272462D01*
X91813903Y-54272462D01*
X91993038Y-54252278D01*
X91993041Y-54252277D01*
X92163205Y-54192734D01*
X92163206Y-54192734D01*
X92177006Y-54184061D01*
X92177006Y-54184060D01*
X92975792Y-54184060D01*
X92975792Y-54184061D01*
X92989592Y-54192733D01*
X92989591Y-54192733D01*
X93159761Y-54252278D01*
X93338897Y-54272462D01*
X93338903Y-54272462D01*
X93518038Y-54252278D01*
X93518041Y-54252277D01*
X93688205Y-54192734D01*
X93688206Y-54192734D01*
X93702006Y-54184061D01*
X93702006Y-54184060D01*
X93338901Y-53820953D01*
X93338900Y-53820953D01*
X92975792Y-54184060D01*
X92177006Y-54184060D01*
X91813901Y-53820953D01*
X91813900Y-53820953D01*
X91450792Y-54184060D01*
X89896267Y-54184060D01*
X89930465Y-54149862D01*
X89973318Y-54075638D01*
X89979153Y-54053863D01*
X89995501Y-53992853D01*
X89995501Y-53907147D01*
X89995501Y-53899552D01*
X89995500Y-53899534D01*
X89995500Y-53421560D01*
X90688292Y-53421560D01*
X90688292Y-53421561D01*
X90702092Y-53430233D01*
X90702091Y-53430233D01*
X90872261Y-53489778D01*
X90914882Y-53494580D01*
X90979296Y-53521646D01*
X91018851Y-53579240D01*
X91024219Y-53603915D01*
X91029021Y-53646538D01*
X91088565Y-53816704D01*
X91097238Y-53830507D01*
X91460346Y-53467400D01*
X91440455Y-53447509D01*
X91713900Y-53447509D01*
X91713900Y-53487291D01*
X91729124Y-53524045D01*
X91757255Y-53552176D01*
X91794009Y-53567400D01*
X91833791Y-53567400D01*
X91870545Y-53552176D01*
X91898676Y-53524045D01*
X91913900Y-53487291D01*
X91913900Y-53467400D01*
X92167453Y-53467400D01*
X92530560Y-53830506D01*
X92562522Y-53826906D01*
X92590285Y-53826907D01*
X92622238Y-53830507D01*
X92985346Y-53467400D01*
X92965455Y-53447509D01*
X93238900Y-53447509D01*
X93238900Y-53487291D01*
X93254124Y-53524045D01*
X93282255Y-53552176D01*
X93319009Y-53567400D01*
X93358791Y-53567400D01*
X93395545Y-53552176D01*
X93423676Y-53524045D01*
X93438900Y-53487291D01*
X93438900Y-53467399D01*
X93692453Y-53467399D01*
X93692453Y-53467400D01*
X94055560Y-53830506D01*
X94055561Y-53830506D01*
X94064234Y-53816706D01*
X94064234Y-53816705D01*
X94123778Y-53646539D01*
X94128580Y-53603918D01*
X94155646Y-53539503D01*
X94213240Y-53499948D01*
X94237918Y-53494580D01*
X94280539Y-53489778D01*
X94450705Y-53430234D01*
X94450706Y-53430234D01*
X94464506Y-53421561D01*
X94464506Y-53421560D01*
X94101400Y-53058453D01*
X94062166Y-53097689D01*
X94062164Y-53097690D01*
X93692453Y-53467399D01*
X93438900Y-53467399D01*
X93438900Y-53447509D01*
X93423676Y-53410755D01*
X93395545Y-53382624D01*
X93358791Y-53367400D01*
X93319009Y-53367400D01*
X93282255Y-53382624D01*
X93254124Y-53410755D01*
X93238900Y-53447509D01*
X92965455Y-53447509D01*
X92615635Y-53097689D01*
X92576400Y-53058453D01*
X92537165Y-53097689D01*
X92537164Y-53097690D01*
X92167453Y-53467400D01*
X91913900Y-53467400D01*
X91913900Y-53447509D01*
X91898676Y-53410755D01*
X91870545Y-53382624D01*
X91833791Y-53367400D01*
X91794009Y-53367400D01*
X91757255Y-53382624D01*
X91729124Y-53410755D01*
X91713900Y-53447509D01*
X91440455Y-53447509D01*
X91051399Y-53058453D01*
X91051398Y-53058453D01*
X90688292Y-53421560D01*
X89995500Y-53421560D01*
X89995500Y-52704897D01*
X90246338Y-52704897D01*
X90246338Y-52704902D01*
X90266521Y-52884038D01*
X90326065Y-53054204D01*
X90334738Y-53068007D01*
X90697846Y-52704900D01*
X90697846Y-52704899D01*
X90677956Y-52685009D01*
X90951400Y-52685009D01*
X90951400Y-52724791D01*
X90966624Y-52761545D01*
X90994755Y-52789676D01*
X91031509Y-52804900D01*
X91071291Y-52804900D01*
X91108045Y-52789676D01*
X91136176Y-52761545D01*
X91151400Y-52724791D01*
X91151400Y-52704900D01*
X91404953Y-52704900D01*
X91457201Y-52757147D01*
X91813900Y-53113846D01*
X92222846Y-52704900D01*
X92202955Y-52685009D01*
X92476400Y-52685009D01*
X92476400Y-52724791D01*
X92491624Y-52761545D01*
X92519755Y-52789676D01*
X92556509Y-52804900D01*
X92596291Y-52804900D01*
X92633045Y-52789676D01*
X92661176Y-52761545D01*
X92676400Y-52724791D01*
X92676400Y-52704900D01*
X92929953Y-52704900D01*
X92982201Y-52757147D01*
X93338900Y-53113846D01*
X93747846Y-52704900D01*
X93727955Y-52685009D01*
X94001400Y-52685009D01*
X94001400Y-52724791D01*
X94016624Y-52761545D01*
X94044755Y-52789676D01*
X94081509Y-52804900D01*
X94121291Y-52804900D01*
X94158045Y-52789676D01*
X94186176Y-52761545D01*
X94201400Y-52724791D01*
X94201400Y-52704900D01*
X94454953Y-52704900D01*
X94818060Y-53068006D01*
X94818061Y-53068006D01*
X94826734Y-53054206D01*
X94826736Y-53054202D01*
X94886277Y-52884041D01*
X94886278Y-52884038D01*
X94906462Y-52704902D01*
X94906462Y-52704897D01*
X94886278Y-52525761D01*
X94826733Y-52355592D01*
X94818061Y-52341792D01*
X94818060Y-52341792D01*
X94454953Y-52704900D01*
X94201400Y-52704900D01*
X94201400Y-52685009D01*
X94186176Y-52648255D01*
X94158045Y-52620124D01*
X94121291Y-52604900D01*
X94081509Y-52604900D01*
X94044755Y-52620124D01*
X94016624Y-52648255D01*
X94001400Y-52685009D01*
X93727955Y-52685009D01*
X93377619Y-52334673D01*
X93338900Y-52295953D01*
X93300181Y-52334673D01*
X93300180Y-52334674D01*
X92929953Y-52704900D01*
X92676400Y-52704900D01*
X92676400Y-52685009D01*
X92661176Y-52648255D01*
X92633045Y-52620124D01*
X92596291Y-52604900D01*
X92556509Y-52604900D01*
X92519755Y-52620124D01*
X92491624Y-52648255D01*
X92476400Y-52685009D01*
X92202955Y-52685009D01*
X91852619Y-52334673D01*
X91813900Y-52295953D01*
X91775181Y-52334673D01*
X91775180Y-52334674D01*
X91404953Y-52704900D01*
X91151400Y-52704900D01*
X91151400Y-52685009D01*
X91136176Y-52648255D01*
X91108045Y-52620124D01*
X91071291Y-52604900D01*
X91031509Y-52604900D01*
X90994755Y-52620124D01*
X90966624Y-52648255D01*
X90951400Y-52685009D01*
X90677956Y-52685009D01*
X90334738Y-52341791D01*
X90334737Y-52341791D01*
X90326067Y-52355591D01*
X90326062Y-52355601D01*
X90266522Y-52525758D01*
X90266521Y-52525761D01*
X90246338Y-52704897D01*
X89995500Y-52704897D01*
X89995500Y-51988238D01*
X90688291Y-51988238D01*
X91051398Y-52351346D01*
X91051399Y-52351346D01*
X91423182Y-51979564D01*
X91460346Y-51942400D01*
X91440455Y-51922509D01*
X91713900Y-51922509D01*
X91713900Y-51962291D01*
X91729124Y-51999045D01*
X91757255Y-52027176D01*
X91794009Y-52042400D01*
X91833791Y-52042400D01*
X91870545Y-52027176D01*
X91898676Y-51999045D01*
X91913900Y-51962291D01*
X91913900Y-51942400D01*
X92167453Y-51942400D01*
X92204617Y-51979563D01*
X92576400Y-52351346D01*
X92985346Y-51942400D01*
X92965455Y-51922509D01*
X93238900Y-51922509D01*
X93238900Y-51962291D01*
X93254124Y-51999045D01*
X93282255Y-52027176D01*
X93319009Y-52042400D01*
X93358791Y-52042400D01*
X93395545Y-52027176D01*
X93423676Y-51999045D01*
X93438900Y-51962291D01*
X93438900Y-51942400D01*
X93692453Y-51942400D01*
X93729617Y-51979563D01*
X94101400Y-52351346D01*
X94101401Y-52351346D01*
X94464507Y-51988238D01*
X94460907Y-51956285D01*
X94460906Y-51928522D01*
X94464506Y-51896560D01*
X94101400Y-51533453D01*
X94060246Y-51574609D01*
X94060244Y-51574610D01*
X93692453Y-51942400D01*
X93438900Y-51942400D01*
X93438900Y-51922509D01*
X93423676Y-51885755D01*
X93395545Y-51857624D01*
X93358791Y-51842400D01*
X93319009Y-51842400D01*
X93282255Y-51857624D01*
X93254124Y-51885755D01*
X93238900Y-51922509D01*
X92965455Y-51922509D01*
X92617555Y-51574609D01*
X92576400Y-51533453D01*
X92535245Y-51574609D01*
X92535244Y-51574610D01*
X92167453Y-51942400D01*
X91913900Y-51942400D01*
X91913900Y-51922509D01*
X91898676Y-51885755D01*
X91870545Y-51857624D01*
X91833791Y-51842400D01*
X91794009Y-51842400D01*
X91757255Y-51857624D01*
X91729124Y-51885755D01*
X91713900Y-51922509D01*
X91440455Y-51922509D01*
X91051399Y-51533453D01*
X91051398Y-51533453D01*
X90688292Y-51896560D01*
X90691893Y-51928519D01*
X90691892Y-51956284D01*
X90688291Y-51988238D01*
X89995500Y-51988238D01*
X89995500Y-51206497D01*
X90015185Y-51139458D01*
X90037265Y-51113689D01*
X90041856Y-51109621D01*
X90105086Y-51079894D01*
X90174350Y-51089071D01*
X90227658Y-51134239D01*
X90247311Y-51188545D01*
X90266521Y-51359038D01*
X90326065Y-51529204D01*
X90334738Y-51543007D01*
X90697846Y-51179900D01*
X90697846Y-51179899D01*
X90677956Y-51160009D01*
X90951400Y-51160009D01*
X90951400Y-51199791D01*
X90966624Y-51236545D01*
X90994755Y-51264676D01*
X91031509Y-51279900D01*
X91071291Y-51279900D01*
X91108045Y-51264676D01*
X91136176Y-51236545D01*
X91151400Y-51199791D01*
X91151400Y-51179900D01*
X91404953Y-51179900D01*
X91442200Y-51217146D01*
X91813900Y-51588846D01*
X92222846Y-51179900D01*
X92202955Y-51160009D01*
X92476400Y-51160009D01*
X92476400Y-51199791D01*
X92491624Y-51236545D01*
X92519755Y-51264676D01*
X92556509Y-51279900D01*
X92596291Y-51279900D01*
X92633045Y-51264676D01*
X92661176Y-51236545D01*
X92676400Y-51199791D01*
X92676400Y-51179900D01*
X92929953Y-51179900D01*
X92967200Y-51217146D01*
X93338900Y-51588846D01*
X93747846Y-51179900D01*
X93727955Y-51160009D01*
X94001400Y-51160009D01*
X94001400Y-51199791D01*
X94016624Y-51236545D01*
X94044755Y-51264676D01*
X94081509Y-51279900D01*
X94121291Y-51279900D01*
X94158045Y-51264676D01*
X94186176Y-51236545D01*
X94201400Y-51199791D01*
X94201400Y-51179900D01*
X94454953Y-51179900D01*
X94818060Y-51543006D01*
X94818061Y-51543006D01*
X94826734Y-51529206D01*
X94826734Y-51529205D01*
X94886277Y-51359041D01*
X94886278Y-51359038D01*
X94906462Y-51179902D01*
X94906462Y-51179897D01*
X94886278Y-51000761D01*
X94826733Y-50830592D01*
X94818061Y-50816792D01*
X94818060Y-50816792D01*
X94454953Y-51179900D01*
X94201400Y-51179900D01*
X94201400Y-51160009D01*
X94186176Y-51123255D01*
X94158045Y-51095124D01*
X94121291Y-51079900D01*
X94081509Y-51079900D01*
X94044755Y-51095124D01*
X94016624Y-51123255D01*
X94001400Y-51160009D01*
X93727955Y-51160009D01*
X93394292Y-50826346D01*
X93338900Y-50770953D01*
X93283508Y-50826346D01*
X93283507Y-50826347D01*
X92929953Y-51179900D01*
X92676400Y-51179900D01*
X92676400Y-51160009D01*
X92661176Y-51123255D01*
X92633045Y-51095124D01*
X92596291Y-51079900D01*
X92556509Y-51079900D01*
X92519755Y-51095124D01*
X92491624Y-51123255D01*
X92476400Y-51160009D01*
X92202955Y-51160009D01*
X91869292Y-50826346D01*
X91813900Y-50770953D01*
X91758508Y-50826346D01*
X91758507Y-50826347D01*
X91404953Y-51179900D01*
X91151400Y-51179900D01*
X91151400Y-51160009D01*
X91136176Y-51123255D01*
X91108045Y-51095124D01*
X91071291Y-51079900D01*
X91031509Y-51079900D01*
X90994755Y-51095124D01*
X90966624Y-51123255D01*
X90951400Y-51160009D01*
X90677956Y-51160009D01*
X90342273Y-50824326D01*
X90308788Y-50763003D01*
X90306858Y-50721702D01*
X90325278Y-50570000D01*
X90312315Y-50463237D01*
X90688291Y-50463237D01*
X90688291Y-50463238D01*
X91051398Y-50826346D01*
X91051399Y-50826346D01*
X91423183Y-50454564D01*
X91460346Y-50417399D01*
X91460346Y-50417398D01*
X91440457Y-50397509D01*
X91713900Y-50397509D01*
X91713900Y-50437291D01*
X91729124Y-50474045D01*
X91757255Y-50502176D01*
X91794009Y-50517400D01*
X91833791Y-50517400D01*
X91870545Y-50502176D01*
X91898676Y-50474045D01*
X91913900Y-50437291D01*
X91913900Y-50417398D01*
X92167453Y-50417398D01*
X92167453Y-50417399D01*
X92576400Y-50826346D01*
X92948183Y-50454564D01*
X92985346Y-50417399D01*
X92985346Y-50417398D01*
X92965457Y-50397509D01*
X93238900Y-50397509D01*
X93238900Y-50437291D01*
X93254124Y-50474045D01*
X93282255Y-50502176D01*
X93319009Y-50517400D01*
X93358791Y-50517400D01*
X93395545Y-50502176D01*
X93423676Y-50474045D01*
X93438900Y-50437291D01*
X93438900Y-50417398D01*
X93692453Y-50417398D01*
X93692453Y-50417399D01*
X94101400Y-50826346D01*
X94101401Y-50826346D01*
X94464507Y-50463238D01*
X94450704Y-50454565D01*
X94280538Y-50395021D01*
X94237915Y-50390219D01*
X94173502Y-50363152D01*
X94133947Y-50305557D01*
X94128580Y-50280882D01*
X94123778Y-50238261D01*
X94064233Y-50068092D01*
X94055561Y-50054292D01*
X94055560Y-50054292D01*
X93692453Y-50417398D01*
X93438900Y-50417398D01*
X93438900Y-50397509D01*
X93423676Y-50360755D01*
X93395545Y-50332624D01*
X93358791Y-50317400D01*
X93319009Y-50317400D01*
X93282255Y-50332624D01*
X93254124Y-50360755D01*
X93238900Y-50397509D01*
X92965457Y-50397509D01*
X92622237Y-50054290D01*
X92590285Y-50057891D01*
X92562522Y-50057892D01*
X92530560Y-50054291D01*
X92167453Y-50417398D01*
X91913900Y-50417398D01*
X91913900Y-50397509D01*
X91898676Y-50360755D01*
X91870545Y-50332624D01*
X91833791Y-50317400D01*
X91794009Y-50317400D01*
X91757255Y-50332624D01*
X91729124Y-50360755D01*
X91713900Y-50397509D01*
X91440457Y-50397509D01*
X91097238Y-50054291D01*
X91097237Y-50054291D01*
X91088567Y-50068091D01*
X91088562Y-50068101D01*
X91029022Y-50238258D01*
X91024219Y-50280884D01*
X90997152Y-50345298D01*
X90939556Y-50384852D01*
X90914884Y-50390219D01*
X90872258Y-50395022D01*
X90702101Y-50454562D01*
X90702094Y-50454566D01*
X90688291Y-50463237D01*
X90312315Y-50463237D01*
X90306237Y-50413182D01*
X90303053Y-50404787D01*
X90280319Y-50344842D01*
X90250220Y-50265477D01*
X90160483Y-50135470D01*
X90042240Y-50030717D01*
X90042238Y-50030716D01*
X90042237Y-50030715D01*
X89902365Y-49957303D01*
X89748986Y-49919500D01*
X89748985Y-49919500D01*
X89591015Y-49919500D01*
X89591014Y-49919500D01*
X89437634Y-49957303D01*
X89297761Y-50030715D01*
X89297759Y-50030717D01*
X89257868Y-50066056D01*
X89194634Y-50095776D01*
X89125371Y-50086591D01*
X89093418Y-50066056D01*
X89042240Y-50020717D01*
X89042238Y-50020716D01*
X89042237Y-50020715D01*
X88902365Y-49947303D01*
X88748986Y-49909500D01*
X88748985Y-49909500D01*
X88591015Y-49909500D01*
X88591014Y-49909500D01*
X88569711Y-49914750D01*
X88499909Y-49911678D01*
X88452359Y-49882033D01*
X88271063Y-49700737D01*
X91450791Y-49700737D01*
X91450791Y-49700738D01*
X91813900Y-50063846D01*
X91813901Y-50063846D01*
X92177007Y-49700738D01*
X92177005Y-49700737D01*
X92975791Y-49700737D01*
X92975791Y-49700738D01*
X93338900Y-50063846D01*
X93338901Y-50063846D01*
X93702007Y-49700738D01*
X93688204Y-49692065D01*
X93518038Y-49632521D01*
X93338903Y-49612338D01*
X93338897Y-49612338D01*
X93159761Y-49632521D01*
X93159758Y-49632522D01*
X92989601Y-49692062D01*
X92989591Y-49692067D01*
X92975791Y-49700737D01*
X92177005Y-49700737D01*
X92163204Y-49692065D01*
X91993038Y-49632521D01*
X91813903Y-49612338D01*
X91813897Y-49612338D01*
X91634761Y-49632521D01*
X91634758Y-49632522D01*
X91464601Y-49692062D01*
X91464591Y-49692067D01*
X91450791Y-49700737D01*
X88271063Y-49700737D01*
X87907508Y-49337181D01*
X87874023Y-49275858D01*
X87879007Y-49206166D01*
X87920879Y-49150233D01*
X87986343Y-49125816D01*
X87995189Y-49125500D01*
X89477147Y-49125500D01*
X89657147Y-49125500D01*
X89927147Y-49125500D01*
X97683811Y-49125500D01*
X97750850Y-49145185D01*
G37*
%TD.AperFunction*%
%TA.AperFunction,Conductor*%
G36*
X53677586Y-48605185D02*
G01*
X53723341Y-48657989D01*
X53733285Y-48727147D01*
X53704260Y-48790703D01*
X53698228Y-48797181D01*
X53596834Y-48898574D01*
X53596830Y-48898580D01*
X53516382Y-49034609D01*
X53516380Y-49034614D01*
X53472292Y-49186366D01*
X53472290Y-49186379D01*
X53469500Y-49221829D01*
X53469500Y-50098150D01*
X53469501Y-50098175D01*
X53472291Y-50133627D01*
X53499952Y-50228838D01*
X53499753Y-50298708D01*
X53468558Y-50351114D01*
X53184534Y-50635139D01*
X53155558Y-50685327D01*
X53141682Y-50709361D01*
X53131682Y-50746682D01*
X53131682Y-50746683D01*
X53131681Y-50746682D01*
X53119500Y-50792145D01*
X53119500Y-50792147D01*
X53119500Y-52801386D01*
X53119500Y-52887092D01*
X53129828Y-52925639D01*
X53141682Y-52969879D01*
X53161960Y-53005000D01*
X53184535Y-53044101D01*
X53184537Y-53044103D01*
X53602434Y-53462000D01*
X53635919Y-53523323D01*
X53630935Y-53593015D01*
X53592441Y-53646328D01*
X53472631Y-53742635D01*
X53353392Y-53890974D01*
X53353390Y-53890977D01*
X53268831Y-54061476D01*
X53222897Y-54246175D01*
X53220000Y-54288903D01*
X53220000Y-54490000D01*
X54244722Y-54490000D01*
X54200667Y-54566306D01*
X54170000Y-54680756D01*
X54170000Y-54799244D01*
X54200667Y-54913694D01*
X54244722Y-54990000D01*
X53220000Y-54990000D01*
X53220000Y-55191096D01*
X53222897Y-55233824D01*
X53268831Y-55418523D01*
X53306961Y-55495406D01*
X53319113Y-55564211D01*
X53292136Y-55628663D01*
X53234597Y-55668298D01*
X53195873Y-55674500D01*
X52186189Y-55674500D01*
X52119150Y-55654815D01*
X52098508Y-55638181D01*
X51509864Y-55049537D01*
X51509862Y-55049535D01*
X51465494Y-55023919D01*
X51435640Y-55006682D01*
X51390174Y-54994500D01*
X51352853Y-54984500D01*
X51352852Y-54984500D01*
X50400364Y-54984500D01*
X50333325Y-54964815D01*
X50295370Y-54926472D01*
X50289499Y-54917129D01*
X50240477Y-54839110D01*
X50164048Y-54762681D01*
X50130563Y-54701358D01*
X50135547Y-54631666D01*
X50164048Y-54587319D01*
X50201344Y-54550023D01*
X50240477Y-54510890D01*
X50251604Y-54493182D01*
X50330452Y-54367697D01*
X50330454Y-54367694D01*
X50330454Y-54367692D01*
X50330456Y-54367690D01*
X50386313Y-54208059D01*
X50386313Y-54208058D01*
X50386314Y-54208056D01*
X50405249Y-54040002D01*
X50405249Y-54039997D01*
X50386314Y-53871943D01*
X50343726Y-53750233D01*
X50330456Y-53712310D01*
X50330455Y-53712309D01*
X50330454Y-53712305D01*
X50330452Y-53712302D01*
X50240481Y-53569115D01*
X50240476Y-53569109D01*
X50164048Y-53492681D01*
X50130563Y-53431358D01*
X50135547Y-53361666D01*
X50164048Y-53317319D01*
X50195892Y-53285475D01*
X50240477Y-53240890D01*
X50241327Y-53239537D01*
X50330452Y-53097697D01*
X50330456Y-53097690D01*
X50349207Y-53044103D01*
X50386313Y-52938059D01*
X50386313Y-52938058D01*
X50386314Y-52938056D01*
X50405249Y-52770002D01*
X50405249Y-52769997D01*
X50386314Y-52601945D01*
X50386313Y-52601941D01*
X50373548Y-52565462D01*
X50369986Y-52495687D01*
X50404715Y-52435059D01*
X50416279Y-52425243D01*
X50507191Y-52357186D01*
X50593350Y-52242093D01*
X50593354Y-52242086D01*
X50643596Y-52107379D01*
X50643598Y-52107372D01*
X50649999Y-52047844D01*
X50650000Y-52047827D01*
X50650000Y-51750000D01*
X49859618Y-51750000D01*
X49910064Y-51699554D01*
X49952851Y-51625445D01*
X49975000Y-51542787D01*
X49975000Y-51457213D01*
X49952851Y-51374555D01*
X49910064Y-51300446D01*
X49859618Y-51250000D01*
X50650000Y-51250000D01*
X50650000Y-50952172D01*
X50649999Y-50952155D01*
X50643598Y-50892627D01*
X50643596Y-50892620D01*
X50593354Y-50757913D01*
X50593350Y-50757906D01*
X50507190Y-50642812D01*
X50507187Y-50642809D01*
X50392093Y-50556649D01*
X50392086Y-50556645D01*
X50257379Y-50506403D01*
X50257372Y-50506401D01*
X50197844Y-50500000D01*
X50077802Y-50500000D01*
X50010763Y-50480315D01*
X49965008Y-50427511D01*
X49955064Y-50358353D01*
X49984089Y-50294797D01*
X50005165Y-50277394D01*
X50004413Y-50276413D01*
X50010854Y-50271469D01*
X50010862Y-50271465D01*
X51660508Y-48621819D01*
X51721831Y-48588334D01*
X51748189Y-48585500D01*
X53610547Y-48585500D01*
X53677586Y-48605185D01*
G37*
%TD.AperFunction*%
%TA.AperFunction,Conductor*%
G36*
X56015350Y-54509685D02*
G01*
X56035992Y-54526319D01*
X56972492Y-55462819D01*
X57005977Y-55524142D01*
X57000993Y-55593834D01*
X56959121Y-55649767D01*
X56893657Y-55674184D01*
X56884811Y-55674500D01*
X56044127Y-55674500D01*
X55977088Y-55654815D01*
X55931333Y-55602011D01*
X55921389Y-55532853D01*
X55933039Y-55495406D01*
X55971168Y-55418523D01*
X56017102Y-55233824D01*
X56020000Y-55191096D01*
X56020000Y-54990000D01*
X54995278Y-54990000D01*
X55039333Y-54913694D01*
X55070000Y-54799244D01*
X55070000Y-54680756D01*
X55039333Y-54566306D01*
X54995278Y-54490000D01*
X55948311Y-54490000D01*
X56015350Y-54509685D01*
G37*
%TD.AperFunction*%
%TA.AperFunction,Conductor*%
G36*
X106603863Y-47395185D02*
G01*
X106649618Y-47447989D01*
X106659562Y-47517147D01*
X106630537Y-47580703D01*
X106598827Y-47606885D01*
X106533633Y-47644525D01*
X106533630Y-47644527D01*
X104499526Y-49678631D01*
X104450091Y-49764254D01*
X104450088Y-49764261D01*
X104446346Y-49778225D01*
X104446347Y-49778226D01*
X104425949Y-49854353D01*
X104425948Y-49854357D01*
X104424500Y-49859760D01*
X104424500Y-52432796D01*
X104404815Y-52499835D01*
X104382727Y-52525611D01*
X104309518Y-52590468D01*
X104219781Y-52720475D01*
X104219780Y-52720476D01*
X104163762Y-52868181D01*
X104144722Y-53024999D01*
X104144722Y-53025000D01*
X104163762Y-53181818D01*
X104215152Y-53317319D01*
X104219780Y-53329523D01*
X104309517Y-53459530D01*
X104427760Y-53564283D01*
X104439860Y-53570633D01*
X104567634Y-53637696D01*
X104721014Y-53675500D01*
X104735330Y-53675500D01*
X104802369Y-53695185D01*
X104848124Y-53747989D01*
X104858068Y-53817147D01*
X104851271Y-53843473D01*
X104848318Y-53851258D01*
X104829277Y-54008077D01*
X104829277Y-54008078D01*
X104848317Y-54164896D01*
X104901263Y-54304500D01*
X104904335Y-54312601D01*
X104994072Y-54442608D01*
X105016734Y-54462685D01*
X105053860Y-54521873D01*
X105053093Y-54591739D01*
X105014676Y-54650099D01*
X104950806Y-54678424D01*
X104934507Y-54679500D01*
X101886189Y-54679500D01*
X101819150Y-54659815D01*
X101798508Y-54643181D01*
X101734319Y-54578992D01*
X101700834Y-54517669D01*
X101698000Y-54491311D01*
X101698000Y-51639649D01*
X101698000Y-51639647D01*
X101675818Y-51556862D01*
X101659851Y-51529206D01*
X101632969Y-51482644D01*
X101632963Y-51482636D01*
X101572362Y-51422035D01*
X100990543Y-50840215D01*
X100990520Y-50840194D01*
X100720325Y-50569999D01*
X100643494Y-50493167D01*
X100610010Y-50431846D01*
X100614994Y-50362154D01*
X100656866Y-50306221D01*
X100701500Y-50285091D01*
X100792365Y-50262696D01*
X100932240Y-50189283D01*
X101050483Y-50084530D01*
X101140220Y-49954523D01*
X101196237Y-49806818D01*
X101215278Y-49650000D01*
X101210907Y-49614005D01*
X101196237Y-49493182D01*
X101178471Y-49446337D01*
X101154797Y-49383915D01*
X101149431Y-49314256D01*
X101182578Y-49252749D01*
X101182810Y-49252515D01*
X103023508Y-47411819D01*
X103084831Y-47378334D01*
X103111189Y-47375500D01*
X106536824Y-47375500D01*
X106603863Y-47395185D01*
G37*
%TD.AperFunction*%
%TA.AperFunction,Conductor*%
G36*
X61891244Y-48571594D02*
G01*
X61905527Y-48577975D01*
X62014934Y-48635397D01*
X62051900Y-48644508D01*
X62168313Y-48673201D01*
X62168314Y-48673201D01*
X62326284Y-48673201D01*
X62479664Y-48635397D01*
X62484873Y-48632662D01*
X62553382Y-48618937D01*
X62618435Y-48644429D01*
X62659380Y-48701045D01*
X62666500Y-48742459D01*
X62666500Y-49233147D01*
X62666500Y-49318853D01*
X62668442Y-49326100D01*
X62688682Y-49401640D01*
X62697620Y-49417120D01*
X62731535Y-49475862D01*
X62731537Y-49475864D01*
X63501885Y-50246212D01*
X63499883Y-50248213D01*
X63532990Y-50293560D01*
X63537140Y-50363306D01*
X63502924Y-50424224D01*
X63441204Y-50456973D01*
X63416298Y-50459500D01*
X63029126Y-50459500D01*
X62962087Y-50439815D01*
X62929859Y-50409811D01*
X62887190Y-50352813D01*
X62887185Y-50352808D01*
X62772093Y-50266649D01*
X62772086Y-50266645D01*
X62637379Y-50216403D01*
X62637372Y-50216401D01*
X62577844Y-50210000D01*
X62430000Y-50210000D01*
X62430000Y-52212000D01*
X62444133Y-52226133D01*
X62463039Y-52231685D01*
X62508794Y-52284489D01*
X62520000Y-52336000D01*
X62520000Y-53606000D01*
X62500315Y-53673039D01*
X62447511Y-53718794D01*
X62396000Y-53730000D01*
X62144000Y-53730000D01*
X62076961Y-53710315D01*
X62031206Y-53657511D01*
X62020000Y-53606000D01*
X62020000Y-52853000D01*
X62005866Y-52838866D01*
X61986961Y-52833315D01*
X61941206Y-52780511D01*
X61930000Y-52729000D01*
X61930000Y-50210000D01*
X61782155Y-50210000D01*
X61722627Y-50216401D01*
X61722620Y-50216403D01*
X61579601Y-50269746D01*
X61579040Y-50268243D01*
X61520645Y-50280942D01*
X61455183Y-50256521D01*
X61413315Y-50200585D01*
X61405500Y-50157259D01*
X61405500Y-49006188D01*
X61425185Y-48939149D01*
X61441815Y-48918511D01*
X61760232Y-48600093D01*
X61821553Y-48566610D01*
X61891244Y-48571594D01*
G37*
%TD.AperFunction*%
%TA.AperFunction,Conductor*%
G36*
X70010850Y-50555185D02*
G01*
X70031487Y-50571814D01*
X70188182Y-50728508D01*
X70221666Y-50789830D01*
X70224500Y-50816188D01*
X70224500Y-51905888D01*
X70204815Y-51972927D01*
X70152011Y-52018682D01*
X70143835Y-52022069D01*
X70076222Y-52047288D01*
X70021770Y-52088050D01*
X69956305Y-52112466D01*
X69888033Y-52097614D01*
X69841921Y-52053879D01*
X69829943Y-52034460D01*
X69708038Y-51912555D01*
X69708034Y-51912552D01*
X69561311Y-51822051D01*
X69561300Y-51822046D01*
X69397652Y-51767819D01*
X69296654Y-51757500D01*
X69260000Y-51757500D01*
X69260000Y-52921000D01*
X69240315Y-52988039D01*
X69187511Y-53033794D01*
X69136000Y-53045000D01*
X68035001Y-53045000D01*
X68028973Y-53051027D01*
X68015316Y-53097539D01*
X67962512Y-53143294D01*
X67911001Y-53154500D01*
X65306999Y-53154500D01*
X65239960Y-53134815D01*
X65194205Y-53082011D01*
X65182999Y-53030500D01*
X65182999Y-52957129D01*
X65182998Y-52957123D01*
X65181925Y-52947143D01*
X65176591Y-52897517D01*
X65175198Y-52893783D01*
X65126297Y-52762671D01*
X65126293Y-52762664D01*
X65123408Y-52758810D01*
X65098991Y-52693346D01*
X65113843Y-52625073D01*
X65163248Y-52575668D01*
X65222675Y-52560500D01*
X65854676Y-52560500D01*
X65854677Y-52560499D01*
X65927735Y-52545967D01*
X65927737Y-52545967D01*
X65927737Y-52545966D01*
X65927740Y-52545966D01*
X65961112Y-52523667D01*
X66027786Y-52502791D01*
X66095166Y-52521275D01*
X66098829Y-52523628D01*
X66132260Y-52545966D01*
X66132262Y-52545966D01*
X66132263Y-52545967D01*
X66205321Y-52560499D01*
X66205324Y-52560500D01*
X66205326Y-52560500D01*
X66954676Y-52560500D01*
X66954677Y-52560499D01*
X67027735Y-52545967D01*
X67027737Y-52545967D01*
X67027737Y-52545966D01*
X67027740Y-52545966D01*
X67061112Y-52523667D01*
X67127786Y-52502791D01*
X67195166Y-52521275D01*
X67198829Y-52523628D01*
X67232260Y-52545966D01*
X67232262Y-52545966D01*
X67232263Y-52545967D01*
X67305321Y-52560499D01*
X67305324Y-52560500D01*
X67305326Y-52560500D01*
X68054675Y-52560500D01*
X68120617Y-52547383D01*
X68144809Y-52545000D01*
X68760000Y-52545000D01*
X68760000Y-51757500D01*
X68723361Y-51757500D01*
X68723343Y-51757501D01*
X68622347Y-51767819D01*
X68458693Y-51822048D01*
X68456893Y-51822888D01*
X68455541Y-51823093D01*
X68451842Y-51824319D01*
X68451632Y-51823686D01*
X68387814Y-51833372D01*
X68324033Y-51804846D01*
X68285800Y-51746365D01*
X68280500Y-51710500D01*
X68280500Y-50685327D01*
X68280176Y-50683699D01*
X68280254Y-50682826D01*
X68279903Y-50679261D01*
X68280578Y-50679194D01*
X68286399Y-50614107D01*
X68329259Y-50558927D01*
X68395148Y-50535678D01*
X68401792Y-50535500D01*
X69943811Y-50535500D01*
X70010850Y-50555185D01*
G37*
%TD.AperFunction*%
%TA.AperFunction,Conductor*%
G36*
X63435850Y-46300185D02*
G01*
X63456492Y-46316819D01*
X63936237Y-46796564D01*
X63969722Y-46857887D01*
X63972556Y-46884245D01*
X63972556Y-48080908D01*
X63994738Y-48163696D01*
X64001589Y-48175562D01*
X64037591Y-48237918D01*
X64460138Y-48660465D01*
X64534361Y-48703318D01*
X64617147Y-48725500D01*
X64617149Y-48725500D01*
X66179047Y-48725500D01*
X66179049Y-48725500D01*
X66261835Y-48703318D01*
X66336058Y-48660465D01*
X68594703Y-46401818D01*
X68656026Y-46368334D01*
X68682384Y-46365500D01*
X75132739Y-46365500D01*
X75199778Y-46385185D01*
X75245533Y-46437989D01*
X75255477Y-46507147D01*
X75251816Y-46524094D01*
X75216291Y-46646373D01*
X75216290Y-46646379D01*
X75213500Y-46681829D01*
X75213500Y-47558150D01*
X75213501Y-47558175D01*
X75216291Y-47593627D01*
X75235837Y-47660905D01*
X75235638Y-47730774D01*
X75197696Y-47789444D01*
X75134058Y-47818288D01*
X75116761Y-47819500D01*
X71662147Y-47819500D01*
X71579359Y-47841682D01*
X71505138Y-47884535D01*
X71505135Y-47884537D01*
X69991492Y-49398181D01*
X69930169Y-49431666D01*
X69903811Y-49434500D01*
X65747147Y-49434500D01*
X65664359Y-49456682D01*
X65590138Y-49499535D01*
X65590135Y-49499537D01*
X65219537Y-49870135D01*
X65219535Y-49870138D01*
X65176680Y-49944363D01*
X65157622Y-50015496D01*
X65157621Y-50015500D01*
X65154500Y-50027147D01*
X65154500Y-50027148D01*
X65154500Y-50347954D01*
X65134815Y-50414993D01*
X65082011Y-50460748D01*
X65054693Y-50469571D01*
X65032262Y-50474032D01*
X65032260Y-50474033D01*
X64998890Y-50496331D01*
X64932212Y-50517208D01*
X64864832Y-50498723D01*
X64861110Y-50496331D01*
X64827739Y-50474033D01*
X64827737Y-50474032D01*
X64805307Y-50469571D01*
X64743397Y-50437185D01*
X64708823Y-50376469D01*
X64705500Y-50347954D01*
X64705500Y-50344855D01*
X64705501Y-50344842D01*
X64705501Y-50249148D01*
X64705250Y-50248213D01*
X64683318Y-50166362D01*
X64683317Y-50166361D01*
X64683317Y-50166359D01*
X64683316Y-50166358D01*
X64667958Y-50139757D01*
X64640467Y-50092141D01*
X64640463Y-50092136D01*
X64267864Y-49719537D01*
X64267862Y-49719535D01*
X64230750Y-49698108D01*
X64193640Y-49676682D01*
X64120739Y-49657149D01*
X64110853Y-49654500D01*
X64110852Y-49654500D01*
X63882189Y-49654500D01*
X63815150Y-49634815D01*
X63794508Y-49618181D01*
X63353819Y-49177492D01*
X63320334Y-49116169D01*
X63317500Y-49089811D01*
X63317500Y-47709148D01*
X63317499Y-47709144D01*
X63316876Y-47706818D01*
X63312236Y-47689500D01*
X63295318Y-47626361D01*
X63252465Y-47552138D01*
X62787563Y-47087236D01*
X62745901Y-47063182D01*
X62713341Y-47044383D01*
X62671947Y-47033292D01*
X62630554Y-47022201D01*
X62630553Y-47022201D01*
X61772465Y-47022201D01*
X61772449Y-47022200D01*
X61764853Y-47022200D01*
X61679147Y-47022200D01*
X61646033Y-47031073D01*
X61596359Y-47044383D01*
X61596358Y-47044384D01*
X61522141Y-47087233D01*
X61522136Y-47087237D01*
X60711193Y-47898181D01*
X60649870Y-47931666D01*
X60623512Y-47934500D01*
X55929173Y-47934500D01*
X55862134Y-47914815D01*
X55816379Y-47862011D01*
X55806435Y-47792853D01*
X55820609Y-47752586D01*
X55820520Y-47752548D01*
X55821072Y-47751271D01*
X55822444Y-47747375D01*
X55822659Y-47747011D01*
X55823618Y-47745390D01*
X55867709Y-47593627D01*
X55870500Y-47558163D01*
X55870499Y-46681838D01*
X55867709Y-46646373D01*
X55823618Y-46494610D01*
X55807655Y-46467619D01*
X55790475Y-46399896D01*
X55812635Y-46333634D01*
X55867101Y-46289871D01*
X55914389Y-46280500D01*
X63368811Y-46280500D01*
X63435850Y-46300185D01*
G37*
%TD.AperFunction*%
%TA.AperFunction,Conductor*%
G36*
X109442548Y-43900185D02*
G01*
X109488303Y-43952989D01*
X109498247Y-44022147D01*
X109469222Y-44085703D01*
X109457738Y-44097313D01*
X109408673Y-44140781D01*
X109369516Y-44175471D01*
X109331229Y-44230940D01*
X109276946Y-44274930D01*
X109229179Y-44284500D01*
X100702147Y-44284500D01*
X100619359Y-44306682D01*
X100545138Y-44349535D01*
X100545135Y-44349537D01*
X97921492Y-46973181D01*
X97860169Y-47006666D01*
X97833811Y-47009500D01*
X89154691Y-47009500D01*
X89087652Y-46989815D01*
X89041897Y-46937011D01*
X89031953Y-46867853D01*
X89038749Y-46841528D01*
X89042228Y-46832355D01*
X89047931Y-46817318D01*
X89066972Y-46660500D01*
X89066834Y-46659359D01*
X89047931Y-46503681D01*
X89022698Y-46437147D01*
X88991914Y-46355977D01*
X88902177Y-46225970D01*
X88783934Y-46121217D01*
X88783932Y-46121216D01*
X88783931Y-46121215D01*
X88644059Y-46047803D01*
X88490680Y-46010000D01*
X88490679Y-46010000D01*
X88332709Y-46010000D01*
X88311406Y-46015250D01*
X88241604Y-46012178D01*
X88194054Y-45982533D01*
X87638760Y-45427239D01*
X87638758Y-45427237D01*
X87586399Y-45397007D01*
X87564536Y-45384384D01*
X87505929Y-45368681D01*
X87481749Y-45362202D01*
X87481748Y-45362202D01*
X77787212Y-45362202D01*
X77720173Y-45342517D01*
X77674418Y-45289713D01*
X77664474Y-45220555D01*
X77668136Y-45203607D01*
X77677211Y-45172372D01*
X77711709Y-45053627D01*
X77714500Y-45018163D01*
X77714499Y-44141838D01*
X77711709Y-44106373D01*
X77692163Y-44039094D01*
X77692362Y-43969226D01*
X77730304Y-43910556D01*
X77793942Y-43881712D01*
X77811239Y-43880500D01*
X109375509Y-43880500D01*
X109442548Y-43900185D01*
G37*
%TD.AperFunction*%
%TA.AperFunction,Conductor*%
G36*
X56829978Y-37028603D02*
G01*
X56875742Y-37081399D01*
X56885697Y-37150556D01*
X56856682Y-37214116D01*
X56818743Y-37241481D01*
X56819400Y-37242618D01*
X56738141Y-37289532D01*
X56738136Y-37289536D01*
X51809537Y-42218135D01*
X51809535Y-42218138D01*
X51766680Y-42292363D01*
X51752176Y-42346498D01*
X51744500Y-42375145D01*
X51744500Y-44633811D01*
X51724815Y-44700850D01*
X51708178Y-44721494D01*
X51702173Y-44727500D01*
X51640847Y-44760979D01*
X51571156Y-44755989D01*
X51515226Y-44714113D01*
X51490814Y-44648647D01*
X51490499Y-44639833D01*
X51490499Y-44152128D01*
X51484091Y-44092517D01*
X51463804Y-44038126D01*
X51433797Y-43957671D01*
X51433796Y-43957669D01*
X51382623Y-43889311D01*
X51358206Y-43823847D01*
X51373057Y-43755574D01*
X51382623Y-43740689D01*
X51433796Y-43672331D01*
X51484091Y-43537483D01*
X51490500Y-43477873D01*
X51490499Y-42882128D01*
X51484091Y-42822517D01*
X51455539Y-42745966D01*
X51433797Y-42687671D01*
X51433793Y-42687664D01*
X51347547Y-42572455D01*
X51347544Y-42572452D01*
X51232335Y-42486206D01*
X51232328Y-42486202D01*
X51097482Y-42435908D01*
X51097483Y-42435908D01*
X51037883Y-42429501D01*
X51037881Y-42429500D01*
X51037873Y-42429500D01*
X51037864Y-42429500D01*
X49442129Y-42429500D01*
X49442123Y-42429501D01*
X49382516Y-42435908D01*
X49247671Y-42486202D01*
X49247664Y-42486206D01*
X49132455Y-42572452D01*
X49132452Y-42572455D01*
X49046206Y-42687664D01*
X49046202Y-42687671D01*
X49001761Y-42806826D01*
X48995909Y-42822517D01*
X48989500Y-42882127D01*
X48989500Y-42882134D01*
X48989500Y-42882135D01*
X48989500Y-43477870D01*
X48989501Y-43477876D01*
X48995908Y-43537483D01*
X49046202Y-43672328D01*
X49046203Y-43672330D01*
X49097377Y-43740689D01*
X49121794Y-43806153D01*
X49106943Y-43874426D01*
X49097377Y-43889311D01*
X49046203Y-43957669D01*
X49046202Y-43957671D01*
X48998450Y-44085703D01*
X48995909Y-44092517D01*
X48989500Y-44152127D01*
X48989500Y-44152134D01*
X48989500Y-44152135D01*
X48989500Y-44747870D01*
X48989501Y-44747876D01*
X48995908Y-44807483D01*
X49046202Y-44942328D01*
X49046206Y-44942335D01*
X49132452Y-45057544D01*
X49132455Y-45057547D01*
X49247664Y-45143793D01*
X49247671Y-45143797D01*
X49382517Y-45194091D01*
X49382516Y-45194091D01*
X49389444Y-45194835D01*
X49442127Y-45200500D01*
X50929811Y-45200499D01*
X50996850Y-45220184D01*
X51042605Y-45272987D01*
X51052549Y-45342146D01*
X51023524Y-45405702D01*
X51017492Y-45412180D01*
X50556492Y-45873181D01*
X50495169Y-45906666D01*
X50468811Y-45909500D01*
X48932147Y-45909500D01*
X48849362Y-45931682D01*
X48849361Y-45931682D01*
X48849359Y-45931683D01*
X48849358Y-45931683D01*
X48800263Y-45960029D01*
X48800262Y-45960030D01*
X48775139Y-45974534D01*
X48775136Y-45974536D01*
X48463788Y-46285885D01*
X48461787Y-46283884D01*
X48416415Y-46316989D01*
X48346667Y-46321119D01*
X48285759Y-46286885D01*
X48253029Y-46225156D01*
X48250509Y-46200474D01*
X48240104Y-39081689D01*
X48259691Y-39014623D01*
X48312428Y-38968791D01*
X48381572Y-38958746D01*
X48445170Y-38987678D01*
X48483030Y-39046401D01*
X48487757Y-39072244D01*
X48504196Y-39291620D01*
X48504197Y-39291625D01*
X48562576Y-39547402D01*
X48562578Y-39547411D01*
X48562580Y-39547416D01*
X48658432Y-39791643D01*
X48789614Y-40018857D01*
X48894289Y-40150115D01*
X48953198Y-40223985D01*
X49094831Y-40355400D01*
X49145521Y-40402433D01*
X49362296Y-40550228D01*
X49362301Y-40550230D01*
X49362302Y-40550231D01*
X49362303Y-40550232D01*
X49457419Y-40596037D01*
X49598673Y-40664061D01*
X49598674Y-40664061D01*
X49598677Y-40664063D01*
X49849385Y-40741396D01*
X50108818Y-40780500D01*
X50371182Y-40780500D01*
X50630615Y-40741396D01*
X50881323Y-40664063D01*
X51117704Y-40550228D01*
X51334479Y-40402433D01*
X51526805Y-40223981D01*
X51690386Y-40018857D01*
X51821568Y-39791643D01*
X51917420Y-39547416D01*
X51975802Y-39291630D01*
X51975813Y-39291485D01*
X51995408Y-39030004D01*
X51995408Y-39029995D01*
X51975803Y-38768379D01*
X51975802Y-38768374D01*
X51975802Y-38768370D01*
X51917420Y-38512584D01*
X51821568Y-38268357D01*
X51690386Y-38041143D01*
X51526805Y-37836019D01*
X51526804Y-37836018D01*
X51526801Y-37836014D01*
X51334479Y-37657567D01*
X51117704Y-37509772D01*
X51117700Y-37509770D01*
X51117697Y-37509768D01*
X51117696Y-37509767D01*
X50881325Y-37395938D01*
X50881327Y-37395938D01*
X50630623Y-37318606D01*
X50630619Y-37318605D01*
X50630615Y-37318604D01*
X50505823Y-37299794D01*
X50371187Y-37279500D01*
X50371182Y-37279500D01*
X50117442Y-37279500D01*
X50050403Y-37259815D01*
X50004648Y-37207011D01*
X49994704Y-37137853D01*
X50023729Y-37074297D01*
X50082507Y-37036523D01*
X50098866Y-37032899D01*
X50140611Y-37026574D01*
X50240794Y-37011394D01*
X50250183Y-37010687D01*
X50251193Y-37010311D01*
X50258801Y-37010038D01*
X50259356Y-37009996D01*
X50264379Y-37009995D01*
X56762936Y-37008929D01*
X56829978Y-37028603D01*
G37*
%TD.AperFunction*%
%TA.AperFunction,Conductor*%
G36*
X67572126Y-40493066D02*
G01*
X67647634Y-40532696D01*
X67647633Y-40532696D01*
X67754198Y-40558961D01*
X67814579Y-40594117D01*
X67846368Y-40656336D01*
X67839472Y-40725865D01*
X67839085Y-40726810D01*
X67806421Y-40805667D01*
X67806418Y-40805677D01*
X67779500Y-40941004D01*
X67779500Y-40941007D01*
X67779500Y-41078993D01*
X67779500Y-41078995D01*
X67779499Y-41078995D01*
X67806418Y-41214322D01*
X67806421Y-41214332D01*
X67859221Y-41341804D01*
X67859228Y-41341817D01*
X67935885Y-41456541D01*
X67935888Y-41456545D01*
X68033454Y-41554111D01*
X68033458Y-41554114D01*
X68148182Y-41630771D01*
X68148195Y-41630778D01*
X68275667Y-41683578D01*
X68275672Y-41683580D01*
X68275676Y-41683580D01*
X68275677Y-41683581D01*
X68411004Y-41710500D01*
X68411007Y-41710500D01*
X68548995Y-41710500D01*
X68640041Y-41692389D01*
X68684328Y-41683580D01*
X68811811Y-41630775D01*
X68926542Y-41554114D01*
X69024114Y-41456542D01*
X69025512Y-41454449D01*
X69029298Y-41448785D01*
X69082910Y-41403979D01*
X69152235Y-41395272D01*
X69215262Y-41425426D01*
X69251982Y-41484869D01*
X69256400Y-41517675D01*
X69256400Y-43052400D01*
X74739800Y-43052400D01*
X74806839Y-43072085D01*
X74852594Y-43124889D01*
X74862538Y-43194047D01*
X74833513Y-43257603D01*
X74827481Y-43264081D01*
X74480780Y-43610781D01*
X74419457Y-43644266D01*
X74393099Y-43647100D01*
X74246014Y-43647100D01*
X74092634Y-43684903D01*
X73952762Y-43758315D01*
X73834516Y-43863071D01*
X73744781Y-43993075D01*
X73744780Y-43993076D01*
X73688762Y-44140781D01*
X73669722Y-44297599D01*
X73669722Y-44297600D01*
X73688762Y-44454418D01*
X73744780Y-44602123D01*
X73834517Y-44732130D01*
X73952760Y-44836883D01*
X73952762Y-44836884D01*
X74092634Y-44910296D01*
X74246014Y-44948100D01*
X74246015Y-44948100D01*
X74403985Y-44948100D01*
X74557365Y-44910296D01*
X74589974Y-44893181D01*
X74697240Y-44836883D01*
X74815483Y-44732130D01*
X74905220Y-44602123D01*
X74961237Y-44454418D01*
X74966404Y-44411861D01*
X74994025Y-44347683D01*
X75051959Y-44308626D01*
X75121812Y-44307091D01*
X75181406Y-44343564D01*
X75211820Y-44406467D01*
X75213500Y-44426807D01*
X75213500Y-45018150D01*
X75213501Y-45018175D01*
X75216291Y-45053627D01*
X75259864Y-45203607D01*
X75259665Y-45273477D01*
X75221723Y-45332147D01*
X75158084Y-45360990D01*
X75140788Y-45362202D01*
X68309540Y-45362202D01*
X68226752Y-45384384D01*
X68152531Y-45427237D01*
X68152528Y-45427239D01*
X67602181Y-45977586D01*
X67540858Y-46011071D01*
X67471166Y-46006087D01*
X67415233Y-45964215D01*
X67390816Y-45898751D01*
X67390500Y-45889905D01*
X67390500Y-40602862D01*
X67410185Y-40535823D01*
X67462989Y-40490068D01*
X67532147Y-40480124D01*
X67572126Y-40493066D01*
G37*
%TD.AperFunction*%
%TA.AperFunction,Conductor*%
G36*
X65424231Y-38495685D02*
G01*
X65469986Y-38548489D01*
X65479930Y-38617647D01*
X65473134Y-38643970D01*
X65463763Y-38668678D01*
X65463763Y-38668680D01*
X65444722Y-38825499D01*
X65444722Y-38825500D01*
X65463762Y-38982318D01*
X65509208Y-39102147D01*
X65519780Y-39130023D01*
X65609517Y-39260030D01*
X65727760Y-39364783D01*
X65727762Y-39364784D01*
X65867634Y-39438196D01*
X66021014Y-39476000D01*
X66021015Y-39476000D01*
X66178986Y-39476000D01*
X66178986Y-39475999D01*
X66200281Y-39470751D01*
X66270083Y-39473819D01*
X66317639Y-39503466D01*
X66583080Y-39768907D01*
X66616565Y-39830230D01*
X66611581Y-39899922D01*
X66569709Y-39955855D01*
X66504245Y-39980272D01*
X66437773Y-39966384D01*
X66382365Y-39937303D01*
X66228986Y-39899500D01*
X66228985Y-39899500D01*
X66071015Y-39899500D01*
X66071014Y-39899500D01*
X65917634Y-39937303D01*
X65777762Y-40010715D01*
X65659516Y-40115471D01*
X65569781Y-40245475D01*
X65569780Y-40245476D01*
X65513762Y-40393181D01*
X65494722Y-40549999D01*
X65494722Y-40550000D01*
X65513762Y-40706818D01*
X65551251Y-40805667D01*
X65569780Y-40854523D01*
X65659517Y-40984530D01*
X65777760Y-41089283D01*
X65777762Y-41089284D01*
X65917634Y-41162696D01*
X66071014Y-41200500D01*
X66071015Y-41200500D01*
X66228987Y-41200500D01*
X66228987Y-41200499D01*
X66232542Y-41199623D01*
X66235823Y-41198815D01*
X66305625Y-41201883D01*
X66362688Y-41242201D01*
X66388894Y-41306970D01*
X66389500Y-41319211D01*
X66389500Y-44958809D01*
X66369815Y-45025848D01*
X66353181Y-45046490D01*
X66327638Y-45072033D01*
X66266315Y-45105518D01*
X66210284Y-45104749D01*
X66188987Y-45099500D01*
X66188985Y-45099500D01*
X66031015Y-45099500D01*
X66031014Y-45099500D01*
X65877634Y-45137303D01*
X65737762Y-45210715D01*
X65619516Y-45315471D01*
X65529781Y-45445475D01*
X65529780Y-45445476D01*
X65473763Y-45593180D01*
X65465992Y-45657180D01*
X65438370Y-45721358D01*
X65380436Y-45760414D01*
X65310583Y-45761949D01*
X65255215Y-45729914D01*
X64519838Y-44994537D01*
X64519836Y-44994535D01*
X64480489Y-44971818D01*
X64445614Y-44951682D01*
X64404220Y-44940591D01*
X64362827Y-44929500D01*
X64362826Y-44929500D01*
X57411189Y-44929500D01*
X57344150Y-44909815D01*
X57323508Y-44893181D01*
X57281819Y-44851492D01*
X57248334Y-44790169D01*
X57245500Y-44763811D01*
X57245500Y-43192150D01*
X57245500Y-43192147D01*
X57235571Y-43155090D01*
X57223318Y-43109361D01*
X57180465Y-43035138D01*
X57117508Y-42972181D01*
X57084023Y-42910858D01*
X57089007Y-42841166D01*
X57130879Y-42785233D01*
X57196343Y-42760816D01*
X57205189Y-42760500D01*
X58304676Y-42760500D01*
X58304677Y-42760499D01*
X58377740Y-42745966D01*
X58460601Y-42690601D01*
X58515966Y-42607740D01*
X58530500Y-42534674D01*
X58530500Y-41078995D01*
X59779499Y-41078995D01*
X59806418Y-41214322D01*
X59806421Y-41214332D01*
X59859221Y-41341804D01*
X59859228Y-41341817D01*
X59935885Y-41456541D01*
X59935888Y-41456545D01*
X60033454Y-41554111D01*
X60033458Y-41554114D01*
X60148182Y-41630771D01*
X60148195Y-41630778D01*
X60275667Y-41683578D01*
X60275672Y-41683580D01*
X60275676Y-41683580D01*
X60275677Y-41683581D01*
X60411004Y-41710500D01*
X60411007Y-41710500D01*
X60548995Y-41710500D01*
X60640041Y-41692389D01*
X60684328Y-41683580D01*
X60811811Y-41630775D01*
X60926542Y-41554114D01*
X61024114Y-41456542D01*
X61100775Y-41341811D01*
X61153580Y-41214328D01*
X61178453Y-41089284D01*
X61180500Y-41078995D01*
X61180500Y-40941004D01*
X61153581Y-40805677D01*
X61153580Y-40805676D01*
X61153580Y-40805672D01*
X61153578Y-40805667D01*
X61100778Y-40678195D01*
X61100771Y-40678182D01*
X61024114Y-40563458D01*
X61024111Y-40563454D01*
X60926545Y-40465888D01*
X60926541Y-40465885D01*
X60811817Y-40389228D01*
X60811804Y-40389221D01*
X60684332Y-40336421D01*
X60684322Y-40336418D01*
X60548995Y-40309500D01*
X60548993Y-40309500D01*
X60411007Y-40309500D01*
X60411005Y-40309500D01*
X60275677Y-40336418D01*
X60275667Y-40336421D01*
X60148195Y-40389221D01*
X60148182Y-40389228D01*
X60033458Y-40465885D01*
X60033454Y-40465888D01*
X59935888Y-40563454D01*
X59935885Y-40563458D01*
X59859228Y-40678182D01*
X59859221Y-40678195D01*
X59806421Y-40805667D01*
X59806418Y-40805677D01*
X59779500Y-40941004D01*
X59779500Y-40941007D01*
X59779500Y-41078993D01*
X59779500Y-41078995D01*
X59779499Y-41078995D01*
X58530500Y-41078995D01*
X58530500Y-40285326D01*
X58530500Y-40285323D01*
X58530499Y-40285321D01*
X58515967Y-40212264D01*
X58515966Y-40212260D01*
X58460601Y-40129399D01*
X58381907Y-40076818D01*
X58377739Y-40074033D01*
X58377735Y-40074032D01*
X58304677Y-40059500D01*
X58304674Y-40059500D01*
X57055326Y-40059500D01*
X57055323Y-40059500D01*
X56982264Y-40074032D01*
X56982260Y-40074033D01*
X56899399Y-40129399D01*
X56844033Y-40212260D01*
X56844032Y-40212264D01*
X56829500Y-40285321D01*
X56829500Y-42384811D01*
X56809815Y-42451850D01*
X56757011Y-42497605D01*
X56687853Y-42507549D01*
X56624297Y-42478524D01*
X56617819Y-42472492D01*
X56389864Y-42244537D01*
X56389862Y-42244535D01*
X56352750Y-42223108D01*
X56315640Y-42201682D01*
X56274246Y-42190591D01*
X56232853Y-42179500D01*
X56232852Y-42179500D01*
X54003612Y-42179500D01*
X53936573Y-42159815D01*
X53921386Y-42148316D01*
X53820184Y-42058661D01*
X53820185Y-42058661D01*
X53755267Y-42024589D01*
X53705055Y-41976004D01*
X53689081Y-41907985D01*
X53712417Y-41842127D01*
X53725207Y-41827118D01*
X57040007Y-38512319D01*
X57101330Y-38478834D01*
X57127688Y-38476000D01*
X65357192Y-38476000D01*
X65424231Y-38495685D01*
G37*
%TD.AperFunction*%
%TD*%
M02*
