%TF.GenerationSoftware,KiCad,Pcbnew,8.0.6*%
%TF.CreationDate,2024-11-01T17:42:55+02:00*%
%TF.ProjectId,gps_tracer,6770735f-7472-4616-9365-722e6b696361,rev?*%
%TF.SameCoordinates,Original*%
%TF.FileFunction,Legend,Bot*%
%TF.FilePolarity,Positive*%
%FSLAX46Y46*%
G04 Gerber Fmt 4.6, Leading zero omitted, Abs format (unit mm)*
G04 Created by KiCad (PCBNEW 8.0.6) date 2024-11-01 17:42:55*
%MOMM*%
%LPD*%
G01*
G04 APERTURE LIST*
%ADD10C,0.150000*%
%ADD11C,0.300000*%
%ADD12C,0.200000*%
%ADD13C,0.120000*%
G04 APERTURE END LIST*
D10*
X52083990Y-44409887D02*
X52036371Y-44267030D01*
X52036371Y-44267030D02*
X51988752Y-44219411D01*
X51988752Y-44219411D02*
X51893514Y-44171792D01*
X51893514Y-44171792D02*
X51750657Y-44171792D01*
X51750657Y-44171792D02*
X51655419Y-44219411D01*
X51655419Y-44219411D02*
X51607800Y-44267030D01*
X51607800Y-44267030D02*
X51560180Y-44362268D01*
X51560180Y-44362268D02*
X51560180Y-44743220D01*
X51560180Y-44743220D02*
X52560180Y-44743220D01*
X52560180Y-44743220D02*
X52560180Y-44409887D01*
X52560180Y-44409887D02*
X52512561Y-44314649D01*
X52512561Y-44314649D02*
X52464942Y-44267030D01*
X52464942Y-44267030D02*
X52369704Y-44219411D01*
X52369704Y-44219411D02*
X52274466Y-44219411D01*
X52274466Y-44219411D02*
X52179228Y-44267030D01*
X52179228Y-44267030D02*
X52131609Y-44314649D01*
X52131609Y-44314649D02*
X52083990Y-44409887D01*
X52083990Y-44409887D02*
X52083990Y-44743220D01*
X51845895Y-43790839D02*
X51845895Y-43314649D01*
X51560180Y-43886077D02*
X52560180Y-43552744D01*
X52560180Y-43552744D02*
X51560180Y-43219411D01*
X52560180Y-43028934D02*
X52560180Y-42457506D01*
X51560180Y-42743220D02*
X52560180Y-42743220D01*
D11*
X50635489Y-41719400D02*
X49492632Y-41719400D01*
X50064060Y-42290828D02*
X50064060Y-41147971D01*
X50705489Y-45749400D02*
X49562632Y-45749400D01*
D10*
X73270952Y-79301009D02*
X73128095Y-79348628D01*
X73128095Y-79348628D02*
X73080476Y-79396247D01*
X73080476Y-79396247D02*
X73032857Y-79491485D01*
X73032857Y-79491485D02*
X73032857Y-79634342D01*
X73032857Y-79634342D02*
X73080476Y-79729580D01*
X73080476Y-79729580D02*
X73128095Y-79777200D01*
X73128095Y-79777200D02*
X73223333Y-79824819D01*
X73223333Y-79824819D02*
X73604285Y-79824819D01*
X73604285Y-79824819D02*
X73604285Y-78824819D01*
X73604285Y-78824819D02*
X73270952Y-78824819D01*
X73270952Y-78824819D02*
X73175714Y-78872438D01*
X73175714Y-78872438D02*
X73128095Y-78920057D01*
X73128095Y-78920057D02*
X73080476Y-79015295D01*
X73080476Y-79015295D02*
X73080476Y-79110533D01*
X73080476Y-79110533D02*
X73128095Y-79205771D01*
X73128095Y-79205771D02*
X73175714Y-79253390D01*
X73175714Y-79253390D02*
X73270952Y-79301009D01*
X73270952Y-79301009D02*
X73604285Y-79301009D01*
X72604285Y-79824819D02*
X72604285Y-78824819D01*
X72604285Y-78824819D02*
X72270952Y-79539104D01*
X72270952Y-79539104D02*
X71937619Y-78824819D01*
X71937619Y-78824819D02*
X71937619Y-79824819D01*
X71461428Y-79301009D02*
X71128095Y-79301009D01*
X70985238Y-79824819D02*
X71461428Y-79824819D01*
X71461428Y-79824819D02*
X71461428Y-78824819D01*
X71461428Y-78824819D02*
X70985238Y-78824819D01*
X70604285Y-78920057D02*
X70556666Y-78872438D01*
X70556666Y-78872438D02*
X70461428Y-78824819D01*
X70461428Y-78824819D02*
X70223333Y-78824819D01*
X70223333Y-78824819D02*
X70128095Y-78872438D01*
X70128095Y-78872438D02*
X70080476Y-78920057D01*
X70080476Y-78920057D02*
X70032857Y-79015295D01*
X70032857Y-79015295D02*
X70032857Y-79110533D01*
X70032857Y-79110533D02*
X70080476Y-79253390D01*
X70080476Y-79253390D02*
X70651904Y-79824819D01*
X70651904Y-79824819D02*
X70032857Y-79824819D01*
X69461428Y-79253390D02*
X69556666Y-79205771D01*
X69556666Y-79205771D02*
X69604285Y-79158152D01*
X69604285Y-79158152D02*
X69651904Y-79062914D01*
X69651904Y-79062914D02*
X69651904Y-79015295D01*
X69651904Y-79015295D02*
X69604285Y-78920057D01*
X69604285Y-78920057D02*
X69556666Y-78872438D01*
X69556666Y-78872438D02*
X69461428Y-78824819D01*
X69461428Y-78824819D02*
X69270952Y-78824819D01*
X69270952Y-78824819D02*
X69175714Y-78872438D01*
X69175714Y-78872438D02*
X69128095Y-78920057D01*
X69128095Y-78920057D02*
X69080476Y-79015295D01*
X69080476Y-79015295D02*
X69080476Y-79062914D01*
X69080476Y-79062914D02*
X69128095Y-79158152D01*
X69128095Y-79158152D02*
X69175714Y-79205771D01*
X69175714Y-79205771D02*
X69270952Y-79253390D01*
X69270952Y-79253390D02*
X69461428Y-79253390D01*
X69461428Y-79253390D02*
X69556666Y-79301009D01*
X69556666Y-79301009D02*
X69604285Y-79348628D01*
X69604285Y-79348628D02*
X69651904Y-79443866D01*
X69651904Y-79443866D02*
X69651904Y-79634342D01*
X69651904Y-79634342D02*
X69604285Y-79729580D01*
X69604285Y-79729580D02*
X69556666Y-79777200D01*
X69556666Y-79777200D02*
X69461428Y-79824819D01*
X69461428Y-79824819D02*
X69270952Y-79824819D01*
X69270952Y-79824819D02*
X69175714Y-79777200D01*
X69175714Y-79777200D02*
X69128095Y-79729580D01*
X69128095Y-79729580D02*
X69080476Y-79634342D01*
X69080476Y-79634342D02*
X69080476Y-79443866D01*
X69080476Y-79443866D02*
X69128095Y-79348628D01*
X69128095Y-79348628D02*
X69175714Y-79301009D01*
X69175714Y-79301009D02*
X69270952Y-79253390D01*
X68461428Y-78824819D02*
X68366190Y-78824819D01*
X68366190Y-78824819D02*
X68270952Y-78872438D01*
X68270952Y-78872438D02*
X68223333Y-78920057D01*
X68223333Y-78920057D02*
X68175714Y-79015295D01*
X68175714Y-79015295D02*
X68128095Y-79205771D01*
X68128095Y-79205771D02*
X68128095Y-79443866D01*
X68128095Y-79443866D02*
X68175714Y-79634342D01*
X68175714Y-79634342D02*
X68223333Y-79729580D01*
X68223333Y-79729580D02*
X68270952Y-79777200D01*
X68270952Y-79777200D02*
X68366190Y-79824819D01*
X68366190Y-79824819D02*
X68461428Y-79824819D01*
X68461428Y-79824819D02*
X68556666Y-79777200D01*
X68556666Y-79777200D02*
X68604285Y-79729580D01*
X68604285Y-79729580D02*
X68651904Y-79634342D01*
X68651904Y-79634342D02*
X68699523Y-79443866D01*
X68699523Y-79443866D02*
X68699523Y-79205771D01*
X68699523Y-79205771D02*
X68651904Y-79015295D01*
X68651904Y-79015295D02*
X68604285Y-78920057D01*
X68604285Y-78920057D02*
X68556666Y-78872438D01*
X68556666Y-78872438D02*
X68461428Y-78824819D01*
D12*
X52754136Y-54199885D02*
X52868422Y-54142742D01*
X52868422Y-54142742D02*
X53039850Y-54142742D01*
X53039850Y-54142742D02*
X53211279Y-54199885D01*
X53211279Y-54199885D02*
X53325564Y-54314171D01*
X53325564Y-54314171D02*
X53382707Y-54428457D01*
X53382707Y-54428457D02*
X53439850Y-54657028D01*
X53439850Y-54657028D02*
X53439850Y-54828457D01*
X53439850Y-54828457D02*
X53382707Y-55057028D01*
X53382707Y-55057028D02*
X53325564Y-55171314D01*
X53325564Y-55171314D02*
X53211279Y-55285600D01*
X53211279Y-55285600D02*
X53039850Y-55342742D01*
X53039850Y-55342742D02*
X52925564Y-55342742D01*
X52925564Y-55342742D02*
X52754136Y-55285600D01*
X52754136Y-55285600D02*
X52696993Y-55228457D01*
X52696993Y-55228457D02*
X52696993Y-54828457D01*
X52696993Y-54828457D02*
X52925564Y-54828457D01*
X52182707Y-55342742D02*
X52182707Y-54142742D01*
X52182707Y-54142742D02*
X51496993Y-55342742D01*
X51496993Y-55342742D02*
X51496993Y-54142742D01*
X50925564Y-55342742D02*
X50925564Y-54142742D01*
X50925564Y-54142742D02*
X50639850Y-54142742D01*
X50639850Y-54142742D02*
X50468421Y-54199885D01*
X50468421Y-54199885D02*
X50354136Y-54314171D01*
X50354136Y-54314171D02*
X50296993Y-54428457D01*
X50296993Y-54428457D02*
X50239850Y-54657028D01*
X50239850Y-54657028D02*
X50239850Y-54828457D01*
X50239850Y-54828457D02*
X50296993Y-55057028D01*
X50296993Y-55057028D02*
X50354136Y-55171314D01*
X50354136Y-55171314D02*
X50468421Y-55285600D01*
X50468421Y-55285600D02*
X50639850Y-55342742D01*
X50639850Y-55342742D02*
X50925564Y-55342742D01*
X52696993Y-50242742D02*
X53096993Y-49671314D01*
X53382707Y-50242742D02*
X53382707Y-49042742D01*
X53382707Y-49042742D02*
X52925564Y-49042742D01*
X52925564Y-49042742D02*
X52811279Y-49099885D01*
X52811279Y-49099885D02*
X52754136Y-49157028D01*
X52754136Y-49157028D02*
X52696993Y-49271314D01*
X52696993Y-49271314D02*
X52696993Y-49442742D01*
X52696993Y-49442742D02*
X52754136Y-49557028D01*
X52754136Y-49557028D02*
X52811279Y-49614171D01*
X52811279Y-49614171D02*
X52925564Y-49671314D01*
X52925564Y-49671314D02*
X53382707Y-49671314D01*
X52296993Y-49042742D02*
X51496993Y-50242742D01*
X51496993Y-49042742D02*
X52296993Y-50242742D01*
X51039850Y-50242742D02*
X51039850Y-49042742D01*
X51039850Y-49042742D02*
X50754136Y-49042742D01*
X50754136Y-49042742D02*
X50582707Y-49099885D01*
X50582707Y-49099885D02*
X50468422Y-49214171D01*
X50468422Y-49214171D02*
X50411279Y-49328457D01*
X50411279Y-49328457D02*
X50354136Y-49557028D01*
X50354136Y-49557028D02*
X50354136Y-49728457D01*
X50354136Y-49728457D02*
X50411279Y-49957028D01*
X50411279Y-49957028D02*
X50468422Y-50071314D01*
X50468422Y-50071314D02*
X50582707Y-50185600D01*
X50582707Y-50185600D02*
X50754136Y-50242742D01*
X50754136Y-50242742D02*
X51039850Y-50242742D01*
X54042742Y-40355863D02*
X55242742Y-40755863D01*
X55242742Y-40755863D02*
X54042742Y-41155863D01*
X55128457Y-42241577D02*
X55185600Y-42184434D01*
X55185600Y-42184434D02*
X55242742Y-42013006D01*
X55242742Y-42013006D02*
X55242742Y-41898720D01*
X55242742Y-41898720D02*
X55185600Y-41727291D01*
X55185600Y-41727291D02*
X55071314Y-41613006D01*
X55071314Y-41613006D02*
X54957028Y-41555863D01*
X54957028Y-41555863D02*
X54728457Y-41498720D01*
X54728457Y-41498720D02*
X54557028Y-41498720D01*
X54557028Y-41498720D02*
X54328457Y-41555863D01*
X54328457Y-41555863D02*
X54214171Y-41613006D01*
X54214171Y-41613006D02*
X54099885Y-41727291D01*
X54099885Y-41727291D02*
X54042742Y-41898720D01*
X54042742Y-41898720D02*
X54042742Y-42013006D01*
X54042742Y-42013006D02*
X54099885Y-42184434D01*
X54099885Y-42184434D02*
X54157028Y-42241577D01*
X55128457Y-43441577D02*
X55185600Y-43384434D01*
X55185600Y-43384434D02*
X55242742Y-43213006D01*
X55242742Y-43213006D02*
X55242742Y-43098720D01*
X55242742Y-43098720D02*
X55185600Y-42927291D01*
X55185600Y-42927291D02*
X55071314Y-42813006D01*
X55071314Y-42813006D02*
X54957028Y-42755863D01*
X54957028Y-42755863D02*
X54728457Y-42698720D01*
X54728457Y-42698720D02*
X54557028Y-42698720D01*
X54557028Y-42698720D02*
X54328457Y-42755863D01*
X54328457Y-42755863D02*
X54214171Y-42813006D01*
X54214171Y-42813006D02*
X54099885Y-42927291D01*
X54099885Y-42927291D02*
X54042742Y-43098720D01*
X54042742Y-43098720D02*
X54042742Y-43213006D01*
X54042742Y-43213006D02*
X54099885Y-43384434D01*
X54099885Y-43384434D02*
X54157028Y-43441577D01*
X80802707Y-47682742D02*
X80802707Y-46482742D01*
X80802707Y-46482742D02*
X80516993Y-46482742D01*
X80516993Y-46482742D02*
X80345564Y-46539885D01*
X80345564Y-46539885D02*
X80231279Y-46654171D01*
X80231279Y-46654171D02*
X80174136Y-46768457D01*
X80174136Y-46768457D02*
X80116993Y-46997028D01*
X80116993Y-46997028D02*
X80116993Y-47168457D01*
X80116993Y-47168457D02*
X80174136Y-47397028D01*
X80174136Y-47397028D02*
X80231279Y-47511314D01*
X80231279Y-47511314D02*
X80345564Y-47625600D01*
X80345564Y-47625600D02*
X80516993Y-47682742D01*
X80516993Y-47682742D02*
X80802707Y-47682742D01*
X79774136Y-46482742D02*
X79088422Y-46482742D01*
X79431279Y-47682742D02*
X79431279Y-46482742D01*
X78002707Y-47682742D02*
X78402707Y-47111314D01*
X78688421Y-47682742D02*
X78688421Y-46482742D01*
X78688421Y-46482742D02*
X78231278Y-46482742D01*
X78231278Y-46482742D02*
X78116993Y-46539885D01*
X78116993Y-46539885D02*
X78059850Y-46597028D01*
X78059850Y-46597028D02*
X78002707Y-46711314D01*
X78002707Y-46711314D02*
X78002707Y-46882742D01*
X78002707Y-46882742D02*
X78059850Y-46997028D01*
X78059850Y-46997028D02*
X78116993Y-47054171D01*
X78116993Y-47054171D02*
X78231278Y-47111314D01*
X78231278Y-47111314D02*
X78688421Y-47111314D01*
X53454136Y-51692742D02*
X52768422Y-51692742D01*
X53111279Y-52892742D02*
X53111279Y-51692742D01*
X52482707Y-51692742D02*
X51682707Y-52892742D01*
X51682707Y-51692742D02*
X52482707Y-52892742D01*
X51225564Y-52892742D02*
X51225564Y-51692742D01*
X51225564Y-51692742D02*
X50939850Y-51692742D01*
X50939850Y-51692742D02*
X50768421Y-51749885D01*
X50768421Y-51749885D02*
X50654136Y-51864171D01*
X50654136Y-51864171D02*
X50596993Y-51978457D01*
X50596993Y-51978457D02*
X50539850Y-52207028D01*
X50539850Y-52207028D02*
X50539850Y-52378457D01*
X50539850Y-52378457D02*
X50596993Y-52607028D01*
X50596993Y-52607028D02*
X50654136Y-52721314D01*
X50654136Y-52721314D02*
X50768421Y-52835600D01*
X50768421Y-52835600D02*
X50939850Y-52892742D01*
X50939850Y-52892742D02*
X51225564Y-52892742D01*
X81802707Y-50282742D02*
X81802707Y-49082742D01*
X81802707Y-49082742D02*
X81402707Y-49939885D01*
X81402707Y-49939885D02*
X81002707Y-49082742D01*
X81002707Y-49082742D02*
X81002707Y-50282742D01*
X80431278Y-50282742D02*
X80431278Y-49082742D01*
X79174135Y-50168457D02*
X79231278Y-50225600D01*
X79231278Y-50225600D02*
X79402706Y-50282742D01*
X79402706Y-50282742D02*
X79516992Y-50282742D01*
X79516992Y-50282742D02*
X79688421Y-50225600D01*
X79688421Y-50225600D02*
X79802706Y-50111314D01*
X79802706Y-50111314D02*
X79859849Y-49997028D01*
X79859849Y-49997028D02*
X79916992Y-49768457D01*
X79916992Y-49768457D02*
X79916992Y-49597028D01*
X79916992Y-49597028D02*
X79859849Y-49368457D01*
X79859849Y-49368457D02*
X79802706Y-49254171D01*
X79802706Y-49254171D02*
X79688421Y-49139885D01*
X79688421Y-49139885D02*
X79516992Y-49082742D01*
X79516992Y-49082742D02*
X79402706Y-49082742D01*
X79402706Y-49082742D02*
X79231278Y-49139885D01*
X79231278Y-49139885D02*
X79174135Y-49197028D01*
X78659849Y-50282742D02*
X78659849Y-49082742D01*
X78659849Y-49082742D02*
X78202706Y-49082742D01*
X78202706Y-49082742D02*
X78088421Y-49139885D01*
X78088421Y-49139885D02*
X78031278Y-49197028D01*
X78031278Y-49197028D02*
X77974135Y-49311314D01*
X77974135Y-49311314D02*
X77974135Y-49482742D01*
X77974135Y-49482742D02*
X78031278Y-49597028D01*
X78031278Y-49597028D02*
X78088421Y-49654171D01*
X78088421Y-49654171D02*
X78202706Y-49711314D01*
X78202706Y-49711314D02*
X78659849Y-49711314D01*
X80916993Y-45182742D02*
X81316993Y-44611314D01*
X81602707Y-45182742D02*
X81602707Y-43982742D01*
X81602707Y-43982742D02*
X81145564Y-43982742D01*
X81145564Y-43982742D02*
X81031279Y-44039885D01*
X81031279Y-44039885D02*
X80974136Y-44097028D01*
X80974136Y-44097028D02*
X80916993Y-44211314D01*
X80916993Y-44211314D02*
X80916993Y-44382742D01*
X80916993Y-44382742D02*
X80974136Y-44497028D01*
X80974136Y-44497028D02*
X81031279Y-44554171D01*
X81031279Y-44554171D02*
X81145564Y-44611314D01*
X81145564Y-44611314D02*
X81602707Y-44611314D01*
X80402707Y-45182742D02*
X80402707Y-43982742D01*
X79831278Y-45182742D02*
X79831278Y-43982742D01*
X79831278Y-43982742D02*
X79145564Y-45182742D01*
X79145564Y-45182742D02*
X79145564Y-43982742D01*
X77945564Y-44039885D02*
X78059850Y-43982742D01*
X78059850Y-43982742D02*
X78231278Y-43982742D01*
X78231278Y-43982742D02*
X78402707Y-44039885D01*
X78402707Y-44039885D02*
X78516992Y-44154171D01*
X78516992Y-44154171D02*
X78574135Y-44268457D01*
X78574135Y-44268457D02*
X78631278Y-44497028D01*
X78631278Y-44497028D02*
X78631278Y-44668457D01*
X78631278Y-44668457D02*
X78574135Y-44897028D01*
X78574135Y-44897028D02*
X78516992Y-45011314D01*
X78516992Y-45011314D02*
X78402707Y-45125600D01*
X78402707Y-45125600D02*
X78231278Y-45182742D01*
X78231278Y-45182742D02*
X78116992Y-45182742D01*
X78116992Y-45182742D02*
X77945564Y-45125600D01*
X77945564Y-45125600D02*
X77888421Y-45068457D01*
X77888421Y-45068457D02*
X77888421Y-44668457D01*
X77888421Y-44668457D02*
X78116992Y-44668457D01*
X82259850Y-55225600D02*
X82088422Y-55282742D01*
X82088422Y-55282742D02*
X81802707Y-55282742D01*
X81802707Y-55282742D02*
X81688422Y-55225600D01*
X81688422Y-55225600D02*
X81631279Y-55168457D01*
X81631279Y-55168457D02*
X81574136Y-55054171D01*
X81574136Y-55054171D02*
X81574136Y-54939885D01*
X81574136Y-54939885D02*
X81631279Y-54825600D01*
X81631279Y-54825600D02*
X81688422Y-54768457D01*
X81688422Y-54768457D02*
X81802707Y-54711314D01*
X81802707Y-54711314D02*
X82031279Y-54654171D01*
X82031279Y-54654171D02*
X82145564Y-54597028D01*
X82145564Y-54597028D02*
X82202707Y-54539885D01*
X82202707Y-54539885D02*
X82259850Y-54425600D01*
X82259850Y-54425600D02*
X82259850Y-54311314D01*
X82259850Y-54311314D02*
X82202707Y-54197028D01*
X82202707Y-54197028D02*
X82145564Y-54139885D01*
X82145564Y-54139885D02*
X82031279Y-54082742D01*
X82031279Y-54082742D02*
X81745564Y-54082742D01*
X81745564Y-54082742D02*
X81574136Y-54139885D01*
X81059850Y-55282742D02*
X81059850Y-54082742D01*
X81059850Y-54082742D02*
X80602707Y-54082742D01*
X80602707Y-54082742D02*
X80488422Y-54139885D01*
X80488422Y-54139885D02*
X80431279Y-54197028D01*
X80431279Y-54197028D02*
X80374136Y-54311314D01*
X80374136Y-54311314D02*
X80374136Y-54482742D01*
X80374136Y-54482742D02*
X80431279Y-54597028D01*
X80431279Y-54597028D02*
X80488422Y-54654171D01*
X80488422Y-54654171D02*
X80602707Y-54711314D01*
X80602707Y-54711314D02*
X81059850Y-54711314D01*
X79859850Y-55282742D02*
X79859850Y-54082742D01*
X79174136Y-55282742D02*
X79688422Y-54597028D01*
X79174136Y-54082742D02*
X79859850Y-54768457D01*
X78659850Y-55282742D02*
X78659850Y-54082742D01*
X78659850Y-54082742D02*
X77974136Y-55282742D01*
X77974136Y-55282742D02*
X77974136Y-54082742D01*
X81802707Y-52782742D02*
X81802707Y-51582742D01*
X81802707Y-51582742D02*
X81402707Y-52439885D01*
X81402707Y-52439885D02*
X81002707Y-51582742D01*
X81002707Y-51582742D02*
X81002707Y-52782742D01*
X80431278Y-52782742D02*
X80431278Y-51582742D01*
X79174135Y-52668457D02*
X79231278Y-52725600D01*
X79231278Y-52725600D02*
X79402706Y-52782742D01*
X79402706Y-52782742D02*
X79516992Y-52782742D01*
X79516992Y-52782742D02*
X79688421Y-52725600D01*
X79688421Y-52725600D02*
X79802706Y-52611314D01*
X79802706Y-52611314D02*
X79859849Y-52497028D01*
X79859849Y-52497028D02*
X79916992Y-52268457D01*
X79916992Y-52268457D02*
X79916992Y-52097028D01*
X79916992Y-52097028D02*
X79859849Y-51868457D01*
X79859849Y-51868457D02*
X79802706Y-51754171D01*
X79802706Y-51754171D02*
X79688421Y-51639885D01*
X79688421Y-51639885D02*
X79516992Y-51582742D01*
X79516992Y-51582742D02*
X79402706Y-51582742D01*
X79402706Y-51582742D02*
X79231278Y-51639885D01*
X79231278Y-51639885D02*
X79174135Y-51697028D01*
X78659849Y-52782742D02*
X78659849Y-51582742D01*
X78659849Y-51582742D02*
X77974135Y-52782742D01*
X77974135Y-52782742D02*
X77974135Y-51582742D01*
X52596993Y-47742742D02*
X52996993Y-47171314D01*
X53282707Y-47742742D02*
X53282707Y-46542742D01*
X53282707Y-46542742D02*
X52825564Y-46542742D01*
X52825564Y-46542742D02*
X52711279Y-46599885D01*
X52711279Y-46599885D02*
X52654136Y-46657028D01*
X52654136Y-46657028D02*
X52596993Y-46771314D01*
X52596993Y-46771314D02*
X52596993Y-46942742D01*
X52596993Y-46942742D02*
X52654136Y-47057028D01*
X52654136Y-47057028D02*
X52711279Y-47114171D01*
X52711279Y-47114171D02*
X52825564Y-47171314D01*
X52825564Y-47171314D02*
X53282707Y-47171314D01*
X52139850Y-47685600D02*
X51968422Y-47742742D01*
X51968422Y-47742742D02*
X51682707Y-47742742D01*
X51682707Y-47742742D02*
X51568422Y-47685600D01*
X51568422Y-47685600D02*
X51511279Y-47628457D01*
X51511279Y-47628457D02*
X51454136Y-47514171D01*
X51454136Y-47514171D02*
X51454136Y-47399885D01*
X51454136Y-47399885D02*
X51511279Y-47285600D01*
X51511279Y-47285600D02*
X51568422Y-47228457D01*
X51568422Y-47228457D02*
X51682707Y-47171314D01*
X51682707Y-47171314D02*
X51911279Y-47114171D01*
X51911279Y-47114171D02*
X52025564Y-47057028D01*
X52025564Y-47057028D02*
X52082707Y-46999885D01*
X52082707Y-46999885D02*
X52139850Y-46885600D01*
X52139850Y-46885600D02*
X52139850Y-46771314D01*
X52139850Y-46771314D02*
X52082707Y-46657028D01*
X52082707Y-46657028D02*
X52025564Y-46599885D01*
X52025564Y-46599885D02*
X51911279Y-46542742D01*
X51911279Y-46542742D02*
X51625564Y-46542742D01*
X51625564Y-46542742D02*
X51454136Y-46599885D01*
X51111279Y-46542742D02*
X50425565Y-46542742D01*
X50768422Y-47742742D02*
X50768422Y-46542742D01*
X82359850Y-57925600D02*
X82188422Y-57982742D01*
X82188422Y-57982742D02*
X81902707Y-57982742D01*
X81902707Y-57982742D02*
X81788422Y-57925600D01*
X81788422Y-57925600D02*
X81731279Y-57868457D01*
X81731279Y-57868457D02*
X81674136Y-57754171D01*
X81674136Y-57754171D02*
X81674136Y-57639885D01*
X81674136Y-57639885D02*
X81731279Y-57525600D01*
X81731279Y-57525600D02*
X81788422Y-57468457D01*
X81788422Y-57468457D02*
X81902707Y-57411314D01*
X81902707Y-57411314D02*
X82131279Y-57354171D01*
X82131279Y-57354171D02*
X82245564Y-57297028D01*
X82245564Y-57297028D02*
X82302707Y-57239885D01*
X82302707Y-57239885D02*
X82359850Y-57125600D01*
X82359850Y-57125600D02*
X82359850Y-57011314D01*
X82359850Y-57011314D02*
X82302707Y-56897028D01*
X82302707Y-56897028D02*
X82245564Y-56839885D01*
X82245564Y-56839885D02*
X82131279Y-56782742D01*
X82131279Y-56782742D02*
X81845564Y-56782742D01*
X81845564Y-56782742D02*
X81674136Y-56839885D01*
X81159850Y-57982742D02*
X81159850Y-56782742D01*
X81159850Y-56782742D02*
X80702707Y-56782742D01*
X80702707Y-56782742D02*
X80588422Y-56839885D01*
X80588422Y-56839885D02*
X80531279Y-56897028D01*
X80531279Y-56897028D02*
X80474136Y-57011314D01*
X80474136Y-57011314D02*
X80474136Y-57182742D01*
X80474136Y-57182742D02*
X80531279Y-57297028D01*
X80531279Y-57297028D02*
X80588422Y-57354171D01*
X80588422Y-57354171D02*
X80702707Y-57411314D01*
X80702707Y-57411314D02*
X81159850Y-57411314D01*
X79959850Y-57982742D02*
X79959850Y-56782742D01*
X79274136Y-57982742D02*
X79788422Y-57297028D01*
X79274136Y-56782742D02*
X79959850Y-57468457D01*
X78759850Y-57982742D02*
X78759850Y-56782742D01*
X78759850Y-56782742D02*
X78359850Y-57639885D01*
X78359850Y-57639885D02*
X77959850Y-56782742D01*
X77959850Y-56782742D02*
X77959850Y-57982742D01*
X91857257Y-70776993D02*
X92428685Y-71176993D01*
X91857257Y-71462707D02*
X93057257Y-71462707D01*
X93057257Y-71462707D02*
X93057257Y-71005564D01*
X93057257Y-71005564D02*
X93000114Y-70891279D01*
X93000114Y-70891279D02*
X92942971Y-70834136D01*
X92942971Y-70834136D02*
X92828685Y-70776993D01*
X92828685Y-70776993D02*
X92657257Y-70776993D01*
X92657257Y-70776993D02*
X92542971Y-70834136D01*
X92542971Y-70834136D02*
X92485828Y-70891279D01*
X92485828Y-70891279D02*
X92428685Y-71005564D01*
X92428685Y-71005564D02*
X92428685Y-71462707D01*
X93057257Y-70376993D02*
X91857257Y-69576993D01*
X93057257Y-69576993D02*
X91857257Y-70376993D01*
X87830114Y-70754136D02*
X87887257Y-70868422D01*
X87887257Y-70868422D02*
X87887257Y-71039850D01*
X87887257Y-71039850D02*
X87830114Y-71211279D01*
X87830114Y-71211279D02*
X87715828Y-71325564D01*
X87715828Y-71325564D02*
X87601542Y-71382707D01*
X87601542Y-71382707D02*
X87372971Y-71439850D01*
X87372971Y-71439850D02*
X87201542Y-71439850D01*
X87201542Y-71439850D02*
X86972971Y-71382707D01*
X86972971Y-71382707D02*
X86858685Y-71325564D01*
X86858685Y-71325564D02*
X86744400Y-71211279D01*
X86744400Y-71211279D02*
X86687257Y-71039850D01*
X86687257Y-71039850D02*
X86687257Y-70925564D01*
X86687257Y-70925564D02*
X86744400Y-70754136D01*
X86744400Y-70754136D02*
X86801542Y-70696993D01*
X86801542Y-70696993D02*
X87201542Y-70696993D01*
X87201542Y-70696993D02*
X87201542Y-70925564D01*
X86687257Y-70182707D02*
X87887257Y-70182707D01*
X87887257Y-70182707D02*
X86687257Y-69496993D01*
X86687257Y-69496993D02*
X87887257Y-69496993D01*
X86687257Y-68925564D02*
X87887257Y-68925564D01*
X87887257Y-68925564D02*
X87887257Y-68639850D01*
X87887257Y-68639850D02*
X87830114Y-68468421D01*
X87830114Y-68468421D02*
X87715828Y-68354136D01*
X87715828Y-68354136D02*
X87601542Y-68296993D01*
X87601542Y-68296993D02*
X87372971Y-68239850D01*
X87372971Y-68239850D02*
X87201542Y-68239850D01*
X87201542Y-68239850D02*
X86972971Y-68296993D01*
X86972971Y-68296993D02*
X86858685Y-68354136D01*
X86858685Y-68354136D02*
X86744400Y-68468421D01*
X86744400Y-68468421D02*
X86687257Y-68639850D01*
X86687257Y-68639850D02*
X86687257Y-68925564D01*
X95487257Y-71514136D02*
X94287257Y-71114136D01*
X94287257Y-71114136D02*
X95487257Y-70714136D01*
X94401542Y-69628422D02*
X94344400Y-69685565D01*
X94344400Y-69685565D02*
X94287257Y-69856993D01*
X94287257Y-69856993D02*
X94287257Y-69971279D01*
X94287257Y-69971279D02*
X94344400Y-70142708D01*
X94344400Y-70142708D02*
X94458685Y-70256993D01*
X94458685Y-70256993D02*
X94572971Y-70314136D01*
X94572971Y-70314136D02*
X94801542Y-70371279D01*
X94801542Y-70371279D02*
X94972971Y-70371279D01*
X94972971Y-70371279D02*
X95201542Y-70314136D01*
X95201542Y-70314136D02*
X95315828Y-70256993D01*
X95315828Y-70256993D02*
X95430114Y-70142708D01*
X95430114Y-70142708D02*
X95487257Y-69971279D01*
X95487257Y-69971279D02*
X95487257Y-69856993D01*
X95487257Y-69856993D02*
X95430114Y-69685565D01*
X95430114Y-69685565D02*
X95372971Y-69628422D01*
X94401542Y-68428422D02*
X94344400Y-68485565D01*
X94344400Y-68485565D02*
X94287257Y-68656993D01*
X94287257Y-68656993D02*
X94287257Y-68771279D01*
X94287257Y-68771279D02*
X94344400Y-68942708D01*
X94344400Y-68942708D02*
X94458685Y-69056993D01*
X94458685Y-69056993D02*
X94572971Y-69114136D01*
X94572971Y-69114136D02*
X94801542Y-69171279D01*
X94801542Y-69171279D02*
X94972971Y-69171279D01*
X94972971Y-69171279D02*
X95201542Y-69114136D01*
X95201542Y-69114136D02*
X95315828Y-69056993D01*
X95315828Y-69056993D02*
X95430114Y-68942708D01*
X95430114Y-68942708D02*
X95487257Y-68771279D01*
X95487257Y-68771279D02*
X95487257Y-68656993D01*
X95487257Y-68656993D02*
X95430114Y-68485565D01*
X95430114Y-68485565D02*
X95372971Y-68428422D01*
X90437257Y-71484136D02*
X90437257Y-70798422D01*
X89237257Y-71141279D02*
X90437257Y-71141279D01*
X90437257Y-70512707D02*
X89237257Y-69712707D01*
X90437257Y-69712707D02*
X89237257Y-70512707D01*
D10*
X97692857Y-71374819D02*
X98026190Y-70898628D01*
X98264285Y-71374819D02*
X98264285Y-70374819D01*
X98264285Y-70374819D02*
X97883333Y-70374819D01*
X97883333Y-70374819D02*
X97788095Y-70422438D01*
X97788095Y-70422438D02*
X97740476Y-70470057D01*
X97740476Y-70470057D02*
X97692857Y-70565295D01*
X97692857Y-70565295D02*
X97692857Y-70708152D01*
X97692857Y-70708152D02*
X97740476Y-70803390D01*
X97740476Y-70803390D02*
X97788095Y-70851009D01*
X97788095Y-70851009D02*
X97883333Y-70898628D01*
X97883333Y-70898628D02*
X98264285Y-70898628D01*
X97311904Y-70470057D02*
X97264285Y-70422438D01*
X97264285Y-70422438D02*
X97169047Y-70374819D01*
X97169047Y-70374819D02*
X96930952Y-70374819D01*
X96930952Y-70374819D02*
X96835714Y-70422438D01*
X96835714Y-70422438D02*
X96788095Y-70470057D01*
X96788095Y-70470057D02*
X96740476Y-70565295D01*
X96740476Y-70565295D02*
X96740476Y-70660533D01*
X96740476Y-70660533D02*
X96788095Y-70803390D01*
X96788095Y-70803390D02*
X97359523Y-71374819D01*
X97359523Y-71374819D02*
X96740476Y-71374819D01*
X96264285Y-71374819D02*
X96073809Y-71374819D01*
X96073809Y-71374819D02*
X95978571Y-71327200D01*
X95978571Y-71327200D02*
X95930952Y-71279580D01*
X95930952Y-71279580D02*
X95835714Y-71136723D01*
X95835714Y-71136723D02*
X95788095Y-70946247D01*
X95788095Y-70946247D02*
X95788095Y-70565295D01*
X95788095Y-70565295D02*
X95835714Y-70470057D01*
X95835714Y-70470057D02*
X95883333Y-70422438D01*
X95883333Y-70422438D02*
X95978571Y-70374819D01*
X95978571Y-70374819D02*
X96169047Y-70374819D01*
X96169047Y-70374819D02*
X96264285Y-70422438D01*
X96264285Y-70422438D02*
X96311904Y-70470057D01*
X96311904Y-70470057D02*
X96359523Y-70565295D01*
X96359523Y-70565295D02*
X96359523Y-70803390D01*
X96359523Y-70803390D02*
X96311904Y-70898628D01*
X96311904Y-70898628D02*
X96264285Y-70946247D01*
X96264285Y-70946247D02*
X96169047Y-70993866D01*
X96169047Y-70993866D02*
X95978571Y-70993866D01*
X95978571Y-70993866D02*
X95883333Y-70946247D01*
X95883333Y-70946247D02*
X95835714Y-70898628D01*
X95835714Y-70898628D02*
X95788095Y-70803390D01*
X98003333Y-67334819D02*
X98003333Y-68049104D01*
X98003333Y-68049104D02*
X98050952Y-68191961D01*
X98050952Y-68191961D02*
X98146190Y-68287200D01*
X98146190Y-68287200D02*
X98289047Y-68334819D01*
X98289047Y-68334819D02*
X98384285Y-68334819D01*
X97527142Y-68334819D02*
X97527142Y-67334819D01*
X97527142Y-67334819D02*
X97146190Y-67334819D01*
X97146190Y-67334819D02*
X97050952Y-67382438D01*
X97050952Y-67382438D02*
X97003333Y-67430057D01*
X97003333Y-67430057D02*
X96955714Y-67525295D01*
X96955714Y-67525295D02*
X96955714Y-67668152D01*
X96955714Y-67668152D02*
X97003333Y-67763390D01*
X97003333Y-67763390D02*
X97050952Y-67811009D01*
X97050952Y-67811009D02*
X97146190Y-67858628D01*
X97146190Y-67858628D02*
X97527142Y-67858628D01*
X96003333Y-68334819D02*
X96574761Y-68334819D01*
X96289047Y-68334819D02*
X96289047Y-67334819D01*
X96289047Y-67334819D02*
X96384285Y-67477676D01*
X96384285Y-67477676D02*
X96479523Y-67572914D01*
X96479523Y-67572914D02*
X96574761Y-67620533D01*
X106098094Y-66294819D02*
X106098094Y-67104342D01*
X106098094Y-67104342D02*
X106050475Y-67199580D01*
X106050475Y-67199580D02*
X106002856Y-67247200D01*
X106002856Y-67247200D02*
X105907618Y-67294819D01*
X105907618Y-67294819D02*
X105717142Y-67294819D01*
X105717142Y-67294819D02*
X105621904Y-67247200D01*
X105621904Y-67247200D02*
X105574285Y-67199580D01*
X105574285Y-67199580D02*
X105526666Y-67104342D01*
X105526666Y-67104342D02*
X105526666Y-66294819D01*
X104526666Y-67294819D02*
X105098094Y-67294819D01*
X104812380Y-67294819D02*
X104812380Y-66294819D01*
X104812380Y-66294819D02*
X104907618Y-66437676D01*
X104907618Y-66437676D02*
X105002856Y-66532914D01*
X105002856Y-66532914D02*
X105098094Y-66580533D01*
X104193332Y-66294819D02*
X103574285Y-66294819D01*
X103574285Y-66294819D02*
X103907618Y-66675771D01*
X103907618Y-66675771D02*
X103764761Y-66675771D01*
X103764761Y-66675771D02*
X103669523Y-66723390D01*
X103669523Y-66723390D02*
X103621904Y-66771009D01*
X103621904Y-66771009D02*
X103574285Y-66866247D01*
X103574285Y-66866247D02*
X103574285Y-67104342D01*
X103574285Y-67104342D02*
X103621904Y-67199580D01*
X103621904Y-67199580D02*
X103669523Y-67247200D01*
X103669523Y-67247200D02*
X103764761Y-67294819D01*
X103764761Y-67294819D02*
X104050475Y-67294819D01*
X104050475Y-67294819D02*
X104145713Y-67247200D01*
X104145713Y-67247200D02*
X104193332Y-67199580D01*
X72714819Y-55967142D02*
X72238628Y-55633809D01*
X72714819Y-55395714D02*
X71714819Y-55395714D01*
X71714819Y-55395714D02*
X71714819Y-55776666D01*
X71714819Y-55776666D02*
X71762438Y-55871904D01*
X71762438Y-55871904D02*
X71810057Y-55919523D01*
X71810057Y-55919523D02*
X71905295Y-55967142D01*
X71905295Y-55967142D02*
X72048152Y-55967142D01*
X72048152Y-55967142D02*
X72143390Y-55919523D01*
X72143390Y-55919523D02*
X72191009Y-55871904D01*
X72191009Y-55871904D02*
X72238628Y-55776666D01*
X72238628Y-55776666D02*
X72238628Y-55395714D01*
X72714819Y-56919523D02*
X72714819Y-56348095D01*
X72714819Y-56633809D02*
X71714819Y-56633809D01*
X71714819Y-56633809D02*
X71857676Y-56538571D01*
X71857676Y-56538571D02*
X71952914Y-56443333D01*
X71952914Y-56443333D02*
X72000533Y-56348095D01*
X71714819Y-57538571D02*
X71714819Y-57633809D01*
X71714819Y-57633809D02*
X71762438Y-57729047D01*
X71762438Y-57729047D02*
X71810057Y-57776666D01*
X71810057Y-57776666D02*
X71905295Y-57824285D01*
X71905295Y-57824285D02*
X72095771Y-57871904D01*
X72095771Y-57871904D02*
X72333866Y-57871904D01*
X72333866Y-57871904D02*
X72524342Y-57824285D01*
X72524342Y-57824285D02*
X72619580Y-57776666D01*
X72619580Y-57776666D02*
X72667200Y-57729047D01*
X72667200Y-57729047D02*
X72714819Y-57633809D01*
X72714819Y-57633809D02*
X72714819Y-57538571D01*
X72714819Y-57538571D02*
X72667200Y-57443333D01*
X72667200Y-57443333D02*
X72619580Y-57395714D01*
X72619580Y-57395714D02*
X72524342Y-57348095D01*
X72524342Y-57348095D02*
X72333866Y-57300476D01*
X72333866Y-57300476D02*
X72095771Y-57300476D01*
X72095771Y-57300476D02*
X71905295Y-57348095D01*
X71905295Y-57348095D02*
X71810057Y-57395714D01*
X71810057Y-57395714D02*
X71762438Y-57443333D01*
X71762438Y-57443333D02*
X71714819Y-57538571D01*
X89314819Y-59657142D02*
X88838628Y-59323809D01*
X89314819Y-59085714D02*
X88314819Y-59085714D01*
X88314819Y-59085714D02*
X88314819Y-59466666D01*
X88314819Y-59466666D02*
X88362438Y-59561904D01*
X88362438Y-59561904D02*
X88410057Y-59609523D01*
X88410057Y-59609523D02*
X88505295Y-59657142D01*
X88505295Y-59657142D02*
X88648152Y-59657142D01*
X88648152Y-59657142D02*
X88743390Y-59609523D01*
X88743390Y-59609523D02*
X88791009Y-59561904D01*
X88791009Y-59561904D02*
X88838628Y-59466666D01*
X88838628Y-59466666D02*
X88838628Y-59085714D01*
X88314819Y-59990476D02*
X88314819Y-60609523D01*
X88314819Y-60609523D02*
X88695771Y-60276190D01*
X88695771Y-60276190D02*
X88695771Y-60419047D01*
X88695771Y-60419047D02*
X88743390Y-60514285D01*
X88743390Y-60514285D02*
X88791009Y-60561904D01*
X88791009Y-60561904D02*
X88886247Y-60609523D01*
X88886247Y-60609523D02*
X89124342Y-60609523D01*
X89124342Y-60609523D02*
X89219580Y-60561904D01*
X89219580Y-60561904D02*
X89267200Y-60514285D01*
X89267200Y-60514285D02*
X89314819Y-60419047D01*
X89314819Y-60419047D02*
X89314819Y-60133333D01*
X89314819Y-60133333D02*
X89267200Y-60038095D01*
X89267200Y-60038095D02*
X89219580Y-59990476D01*
X89314819Y-61561904D02*
X89314819Y-60990476D01*
X89314819Y-61276190D02*
X88314819Y-61276190D01*
X88314819Y-61276190D02*
X88457676Y-61180952D01*
X88457676Y-61180952D02*
X88552914Y-61085714D01*
X88552914Y-61085714D02*
X88600533Y-60990476D01*
X68139580Y-53447142D02*
X68187200Y-53399523D01*
X68187200Y-53399523D02*
X68234819Y-53256666D01*
X68234819Y-53256666D02*
X68234819Y-53161428D01*
X68234819Y-53161428D02*
X68187200Y-53018571D01*
X68187200Y-53018571D02*
X68091961Y-52923333D01*
X68091961Y-52923333D02*
X67996723Y-52875714D01*
X67996723Y-52875714D02*
X67806247Y-52828095D01*
X67806247Y-52828095D02*
X67663390Y-52828095D01*
X67663390Y-52828095D02*
X67472914Y-52875714D01*
X67472914Y-52875714D02*
X67377676Y-52923333D01*
X67377676Y-52923333D02*
X67282438Y-53018571D01*
X67282438Y-53018571D02*
X67234819Y-53161428D01*
X67234819Y-53161428D02*
X67234819Y-53256666D01*
X67234819Y-53256666D02*
X67282438Y-53399523D01*
X67282438Y-53399523D02*
X67330057Y-53447142D01*
X68234819Y-54399523D02*
X68234819Y-53828095D01*
X68234819Y-54113809D02*
X67234819Y-54113809D01*
X67234819Y-54113809D02*
X67377676Y-54018571D01*
X67377676Y-54018571D02*
X67472914Y-53923333D01*
X67472914Y-53923333D02*
X67520533Y-53828095D01*
X67234819Y-55256666D02*
X67234819Y-55066190D01*
X67234819Y-55066190D02*
X67282438Y-54970952D01*
X67282438Y-54970952D02*
X67330057Y-54923333D01*
X67330057Y-54923333D02*
X67472914Y-54828095D01*
X67472914Y-54828095D02*
X67663390Y-54780476D01*
X67663390Y-54780476D02*
X68044342Y-54780476D01*
X68044342Y-54780476D02*
X68139580Y-54828095D01*
X68139580Y-54828095D02*
X68187200Y-54875714D01*
X68187200Y-54875714D02*
X68234819Y-54970952D01*
X68234819Y-54970952D02*
X68234819Y-55161428D01*
X68234819Y-55161428D02*
X68187200Y-55256666D01*
X68187200Y-55256666D02*
X68139580Y-55304285D01*
X68139580Y-55304285D02*
X68044342Y-55351904D01*
X68044342Y-55351904D02*
X67806247Y-55351904D01*
X67806247Y-55351904D02*
X67711009Y-55304285D01*
X67711009Y-55304285D02*
X67663390Y-55256666D01*
X67663390Y-55256666D02*
X67615771Y-55161428D01*
X67615771Y-55161428D02*
X67615771Y-54970952D01*
X67615771Y-54970952D02*
X67663390Y-54875714D01*
X67663390Y-54875714D02*
X67711009Y-54828095D01*
X67711009Y-54828095D02*
X67806247Y-54780476D01*
X98080833Y-71934819D02*
X98080833Y-72649104D01*
X98080833Y-72649104D02*
X98128452Y-72791961D01*
X98128452Y-72791961D02*
X98223690Y-72887200D01*
X98223690Y-72887200D02*
X98366547Y-72934819D01*
X98366547Y-72934819D02*
X98461785Y-72934819D01*
X97604642Y-72934819D02*
X97604642Y-71934819D01*
X97604642Y-71934819D02*
X97223690Y-71934819D01*
X97223690Y-71934819D02*
X97128452Y-71982438D01*
X97128452Y-71982438D02*
X97080833Y-72030057D01*
X97080833Y-72030057D02*
X97033214Y-72125295D01*
X97033214Y-72125295D02*
X97033214Y-72268152D01*
X97033214Y-72268152D02*
X97080833Y-72363390D01*
X97080833Y-72363390D02*
X97128452Y-72411009D01*
X97128452Y-72411009D02*
X97223690Y-72458628D01*
X97223690Y-72458628D02*
X97604642Y-72458628D01*
X96699880Y-71934819D02*
X96080833Y-71934819D01*
X96080833Y-71934819D02*
X96414166Y-72315771D01*
X96414166Y-72315771D02*
X96271309Y-72315771D01*
X96271309Y-72315771D02*
X96176071Y-72363390D01*
X96176071Y-72363390D02*
X96128452Y-72411009D01*
X96128452Y-72411009D02*
X96080833Y-72506247D01*
X96080833Y-72506247D02*
X96080833Y-72744342D01*
X96080833Y-72744342D02*
X96128452Y-72839580D01*
X96128452Y-72839580D02*
X96176071Y-72887200D01*
X96176071Y-72887200D02*
X96271309Y-72934819D01*
X96271309Y-72934819D02*
X96557023Y-72934819D01*
X96557023Y-72934819D02*
X96652261Y-72887200D01*
X96652261Y-72887200D02*
X96699880Y-72839580D01*
X91969580Y-63257142D02*
X92017200Y-63209523D01*
X92017200Y-63209523D02*
X92064819Y-63066666D01*
X92064819Y-63066666D02*
X92064819Y-62971428D01*
X92064819Y-62971428D02*
X92017200Y-62828571D01*
X92017200Y-62828571D02*
X91921961Y-62733333D01*
X91921961Y-62733333D02*
X91826723Y-62685714D01*
X91826723Y-62685714D02*
X91636247Y-62638095D01*
X91636247Y-62638095D02*
X91493390Y-62638095D01*
X91493390Y-62638095D02*
X91302914Y-62685714D01*
X91302914Y-62685714D02*
X91207676Y-62733333D01*
X91207676Y-62733333D02*
X91112438Y-62828571D01*
X91112438Y-62828571D02*
X91064819Y-62971428D01*
X91064819Y-62971428D02*
X91064819Y-63066666D01*
X91064819Y-63066666D02*
X91112438Y-63209523D01*
X91112438Y-63209523D02*
X91160057Y-63257142D01*
X91160057Y-63638095D02*
X91112438Y-63685714D01*
X91112438Y-63685714D02*
X91064819Y-63780952D01*
X91064819Y-63780952D02*
X91064819Y-64019047D01*
X91064819Y-64019047D02*
X91112438Y-64114285D01*
X91112438Y-64114285D02*
X91160057Y-64161904D01*
X91160057Y-64161904D02*
X91255295Y-64209523D01*
X91255295Y-64209523D02*
X91350533Y-64209523D01*
X91350533Y-64209523D02*
X91493390Y-64161904D01*
X91493390Y-64161904D02*
X92064819Y-63590476D01*
X92064819Y-63590476D02*
X92064819Y-64209523D01*
X91064819Y-64542857D02*
X91064819Y-65209523D01*
X91064819Y-65209523D02*
X92064819Y-64780952D01*
X97762857Y-66844819D02*
X98096190Y-66368628D01*
X98334285Y-66844819D02*
X98334285Y-65844819D01*
X98334285Y-65844819D02*
X97953333Y-65844819D01*
X97953333Y-65844819D02*
X97858095Y-65892438D01*
X97858095Y-65892438D02*
X97810476Y-65940057D01*
X97810476Y-65940057D02*
X97762857Y-66035295D01*
X97762857Y-66035295D02*
X97762857Y-66178152D01*
X97762857Y-66178152D02*
X97810476Y-66273390D01*
X97810476Y-66273390D02*
X97858095Y-66321009D01*
X97858095Y-66321009D02*
X97953333Y-66368628D01*
X97953333Y-66368628D02*
X98334285Y-66368628D01*
X97381904Y-65940057D02*
X97334285Y-65892438D01*
X97334285Y-65892438D02*
X97239047Y-65844819D01*
X97239047Y-65844819D02*
X97000952Y-65844819D01*
X97000952Y-65844819D02*
X96905714Y-65892438D01*
X96905714Y-65892438D02*
X96858095Y-65940057D01*
X96858095Y-65940057D02*
X96810476Y-66035295D01*
X96810476Y-66035295D02*
X96810476Y-66130533D01*
X96810476Y-66130533D02*
X96858095Y-66273390D01*
X96858095Y-66273390D02*
X97429523Y-66844819D01*
X97429523Y-66844819D02*
X96810476Y-66844819D01*
X96239047Y-66273390D02*
X96334285Y-66225771D01*
X96334285Y-66225771D02*
X96381904Y-66178152D01*
X96381904Y-66178152D02*
X96429523Y-66082914D01*
X96429523Y-66082914D02*
X96429523Y-66035295D01*
X96429523Y-66035295D02*
X96381904Y-65940057D01*
X96381904Y-65940057D02*
X96334285Y-65892438D01*
X96334285Y-65892438D02*
X96239047Y-65844819D01*
X96239047Y-65844819D02*
X96048571Y-65844819D01*
X96048571Y-65844819D02*
X95953333Y-65892438D01*
X95953333Y-65892438D02*
X95905714Y-65940057D01*
X95905714Y-65940057D02*
X95858095Y-66035295D01*
X95858095Y-66035295D02*
X95858095Y-66082914D01*
X95858095Y-66082914D02*
X95905714Y-66178152D01*
X95905714Y-66178152D02*
X95953333Y-66225771D01*
X95953333Y-66225771D02*
X96048571Y-66273390D01*
X96048571Y-66273390D02*
X96239047Y-66273390D01*
X96239047Y-66273390D02*
X96334285Y-66321009D01*
X96334285Y-66321009D02*
X96381904Y-66368628D01*
X96381904Y-66368628D02*
X96429523Y-66463866D01*
X96429523Y-66463866D02*
X96429523Y-66654342D01*
X96429523Y-66654342D02*
X96381904Y-66749580D01*
X96381904Y-66749580D02*
X96334285Y-66797200D01*
X96334285Y-66797200D02*
X96239047Y-66844819D01*
X96239047Y-66844819D02*
X96048571Y-66844819D01*
X96048571Y-66844819D02*
X95953333Y-66797200D01*
X95953333Y-66797200D02*
X95905714Y-66749580D01*
X95905714Y-66749580D02*
X95858095Y-66654342D01*
X95858095Y-66654342D02*
X95858095Y-66463866D01*
X95858095Y-66463866D02*
X95905714Y-66368628D01*
X95905714Y-66368628D02*
X95953333Y-66321009D01*
X95953333Y-66321009D02*
X96048571Y-66273390D01*
X97943333Y-68844819D02*
X97943333Y-69559104D01*
X97943333Y-69559104D02*
X97990952Y-69701961D01*
X97990952Y-69701961D02*
X98086190Y-69797200D01*
X98086190Y-69797200D02*
X98229047Y-69844819D01*
X98229047Y-69844819D02*
X98324285Y-69844819D01*
X97467142Y-69844819D02*
X97467142Y-68844819D01*
X97467142Y-68844819D02*
X97086190Y-68844819D01*
X97086190Y-68844819D02*
X96990952Y-68892438D01*
X96990952Y-68892438D02*
X96943333Y-68940057D01*
X96943333Y-68940057D02*
X96895714Y-69035295D01*
X96895714Y-69035295D02*
X96895714Y-69178152D01*
X96895714Y-69178152D02*
X96943333Y-69273390D01*
X96943333Y-69273390D02*
X96990952Y-69321009D01*
X96990952Y-69321009D02*
X97086190Y-69368628D01*
X97086190Y-69368628D02*
X97467142Y-69368628D01*
X96514761Y-68940057D02*
X96467142Y-68892438D01*
X96467142Y-68892438D02*
X96371904Y-68844819D01*
X96371904Y-68844819D02*
X96133809Y-68844819D01*
X96133809Y-68844819D02*
X96038571Y-68892438D01*
X96038571Y-68892438D02*
X95990952Y-68940057D01*
X95990952Y-68940057D02*
X95943333Y-69035295D01*
X95943333Y-69035295D02*
X95943333Y-69130533D01*
X95943333Y-69130533D02*
X95990952Y-69273390D01*
X95990952Y-69273390D02*
X96562380Y-69844819D01*
X96562380Y-69844819D02*
X95943333Y-69844819D01*
X92908094Y-56334819D02*
X92908094Y-55334819D01*
X92908094Y-55334819D02*
X92669999Y-55334819D01*
X92669999Y-55334819D02*
X92527142Y-55382438D01*
X92527142Y-55382438D02*
X92431904Y-55477676D01*
X92431904Y-55477676D02*
X92384285Y-55572914D01*
X92384285Y-55572914D02*
X92336666Y-55763390D01*
X92336666Y-55763390D02*
X92336666Y-55906247D01*
X92336666Y-55906247D02*
X92384285Y-56096723D01*
X92384285Y-56096723D02*
X92431904Y-56191961D01*
X92431904Y-56191961D02*
X92527142Y-56287200D01*
X92527142Y-56287200D02*
X92669999Y-56334819D01*
X92669999Y-56334819D02*
X92908094Y-56334819D01*
X92003332Y-55334819D02*
X91384285Y-55334819D01*
X91384285Y-55334819D02*
X91717618Y-55715771D01*
X91717618Y-55715771D02*
X91574761Y-55715771D01*
X91574761Y-55715771D02*
X91479523Y-55763390D01*
X91479523Y-55763390D02*
X91431904Y-55811009D01*
X91431904Y-55811009D02*
X91384285Y-55906247D01*
X91384285Y-55906247D02*
X91384285Y-56144342D01*
X91384285Y-56144342D02*
X91431904Y-56239580D01*
X91431904Y-56239580D02*
X91479523Y-56287200D01*
X91479523Y-56287200D02*
X91574761Y-56334819D01*
X91574761Y-56334819D02*
X91860475Y-56334819D01*
X91860475Y-56334819D02*
X91955713Y-56287200D01*
X91955713Y-56287200D02*
X92003332Y-56239580D01*
X88584819Y-63086666D02*
X89299104Y-63086666D01*
X89299104Y-63086666D02*
X89441961Y-63039047D01*
X89441961Y-63039047D02*
X89537200Y-62943809D01*
X89537200Y-62943809D02*
X89584819Y-62800952D01*
X89584819Y-62800952D02*
X89584819Y-62705714D01*
X89584819Y-63562857D02*
X88584819Y-63562857D01*
X88584819Y-63562857D02*
X88584819Y-63943809D01*
X88584819Y-63943809D02*
X88632438Y-64039047D01*
X88632438Y-64039047D02*
X88680057Y-64086666D01*
X88680057Y-64086666D02*
X88775295Y-64134285D01*
X88775295Y-64134285D02*
X88918152Y-64134285D01*
X88918152Y-64134285D02*
X89013390Y-64086666D01*
X89013390Y-64086666D02*
X89061009Y-64039047D01*
X89061009Y-64039047D02*
X89108628Y-63943809D01*
X89108628Y-63943809D02*
X89108628Y-63562857D01*
X88918152Y-64991428D02*
X89584819Y-64991428D01*
X88537200Y-64753333D02*
X89251485Y-64515238D01*
X89251485Y-64515238D02*
X89251485Y-65134285D01*
X66036666Y-53819580D02*
X66084285Y-53867200D01*
X66084285Y-53867200D02*
X66227142Y-53914819D01*
X66227142Y-53914819D02*
X66322380Y-53914819D01*
X66322380Y-53914819D02*
X66465237Y-53867200D01*
X66465237Y-53867200D02*
X66560475Y-53771961D01*
X66560475Y-53771961D02*
X66608094Y-53676723D01*
X66608094Y-53676723D02*
X66655713Y-53486247D01*
X66655713Y-53486247D02*
X66655713Y-53343390D01*
X66655713Y-53343390D02*
X66608094Y-53152914D01*
X66608094Y-53152914D02*
X66560475Y-53057676D01*
X66560475Y-53057676D02*
X66465237Y-52962438D01*
X66465237Y-52962438D02*
X66322380Y-52914819D01*
X66322380Y-52914819D02*
X66227142Y-52914819D01*
X66227142Y-52914819D02*
X66084285Y-52962438D01*
X66084285Y-52962438D02*
X66036666Y-53010057D01*
X65084285Y-53914819D02*
X65655713Y-53914819D01*
X65369999Y-53914819D02*
X65369999Y-52914819D01*
X65369999Y-52914819D02*
X65465237Y-53057676D01*
X65465237Y-53057676D02*
X65560475Y-53152914D01*
X65560475Y-53152914D02*
X65655713Y-53200533D01*
X99518094Y-52974819D02*
X99518094Y-53784342D01*
X99518094Y-53784342D02*
X99470475Y-53879580D01*
X99470475Y-53879580D02*
X99422856Y-53927200D01*
X99422856Y-53927200D02*
X99327618Y-53974819D01*
X99327618Y-53974819D02*
X99137142Y-53974819D01*
X99137142Y-53974819D02*
X99041904Y-53927200D01*
X99041904Y-53927200D02*
X98994285Y-53879580D01*
X98994285Y-53879580D02*
X98946666Y-53784342D01*
X98946666Y-53784342D02*
X98946666Y-52974819D01*
X97946666Y-53974819D02*
X98518094Y-53974819D01*
X98232380Y-53974819D02*
X98232380Y-52974819D01*
X98232380Y-52974819D02*
X98327618Y-53117676D01*
X98327618Y-53117676D02*
X98422856Y-53212914D01*
X98422856Y-53212914D02*
X98518094Y-53260533D01*
X97089523Y-53308152D02*
X97089523Y-53974819D01*
X97327618Y-52927200D02*
X97565713Y-53641485D01*
X97565713Y-53641485D02*
X96946666Y-53641485D01*
X60412857Y-55084819D02*
X60746190Y-54608628D01*
X60984285Y-55084819D02*
X60984285Y-54084819D01*
X60984285Y-54084819D02*
X60603333Y-54084819D01*
X60603333Y-54084819D02*
X60508095Y-54132438D01*
X60508095Y-54132438D02*
X60460476Y-54180057D01*
X60460476Y-54180057D02*
X60412857Y-54275295D01*
X60412857Y-54275295D02*
X60412857Y-54418152D01*
X60412857Y-54418152D02*
X60460476Y-54513390D01*
X60460476Y-54513390D02*
X60508095Y-54561009D01*
X60508095Y-54561009D02*
X60603333Y-54608628D01*
X60603333Y-54608628D02*
X60984285Y-54608628D01*
X59460476Y-55084819D02*
X60031904Y-55084819D01*
X59746190Y-55084819D02*
X59746190Y-54084819D01*
X59746190Y-54084819D02*
X59841428Y-54227676D01*
X59841428Y-54227676D02*
X59936666Y-54322914D01*
X59936666Y-54322914D02*
X60031904Y-54370533D01*
X59079523Y-54180057D02*
X59031904Y-54132438D01*
X59031904Y-54132438D02*
X58936666Y-54084819D01*
X58936666Y-54084819D02*
X58698571Y-54084819D01*
X58698571Y-54084819D02*
X58603333Y-54132438D01*
X58603333Y-54132438D02*
X58555714Y-54180057D01*
X58555714Y-54180057D02*
X58508095Y-54275295D01*
X58508095Y-54275295D02*
X58508095Y-54370533D01*
X58508095Y-54370533D02*
X58555714Y-54513390D01*
X58555714Y-54513390D02*
X59127142Y-55084819D01*
X59127142Y-55084819D02*
X58508095Y-55084819D01*
X64725714Y-79901009D02*
X64582857Y-79948628D01*
X64582857Y-79948628D02*
X64535238Y-79996247D01*
X64535238Y-79996247D02*
X64487619Y-80091485D01*
X64487619Y-80091485D02*
X64487619Y-80234342D01*
X64487619Y-80234342D02*
X64535238Y-80329580D01*
X64535238Y-80329580D02*
X64582857Y-80377200D01*
X64582857Y-80377200D02*
X64678095Y-80424819D01*
X64678095Y-80424819D02*
X65059047Y-80424819D01*
X65059047Y-80424819D02*
X65059047Y-79424819D01*
X65059047Y-79424819D02*
X64725714Y-79424819D01*
X64725714Y-79424819D02*
X64630476Y-79472438D01*
X64630476Y-79472438D02*
X64582857Y-79520057D01*
X64582857Y-79520057D02*
X64535238Y-79615295D01*
X64535238Y-79615295D02*
X64535238Y-79710533D01*
X64535238Y-79710533D02*
X64582857Y-79805771D01*
X64582857Y-79805771D02*
X64630476Y-79853390D01*
X64630476Y-79853390D02*
X64725714Y-79901009D01*
X64725714Y-79901009D02*
X65059047Y-79901009D01*
X64201904Y-79424819D02*
X63630476Y-79424819D01*
X63916190Y-80424819D02*
X63916190Y-79424819D01*
X62773333Y-80424819D02*
X63344761Y-80424819D01*
X63059047Y-80424819D02*
X63059047Y-79424819D01*
X63059047Y-79424819D02*
X63154285Y-79567676D01*
X63154285Y-79567676D02*
X63249523Y-79662914D01*
X63249523Y-79662914D02*
X63344761Y-79710533D01*
X71030219Y-55967142D02*
X70554028Y-55633809D01*
X71030219Y-55395714D02*
X70030219Y-55395714D01*
X70030219Y-55395714D02*
X70030219Y-55776666D01*
X70030219Y-55776666D02*
X70077838Y-55871904D01*
X70077838Y-55871904D02*
X70125457Y-55919523D01*
X70125457Y-55919523D02*
X70220695Y-55967142D01*
X70220695Y-55967142D02*
X70363552Y-55967142D01*
X70363552Y-55967142D02*
X70458790Y-55919523D01*
X70458790Y-55919523D02*
X70506409Y-55871904D01*
X70506409Y-55871904D02*
X70554028Y-55776666D01*
X70554028Y-55776666D02*
X70554028Y-55395714D01*
X70125457Y-56348095D02*
X70077838Y-56395714D01*
X70077838Y-56395714D02*
X70030219Y-56490952D01*
X70030219Y-56490952D02*
X70030219Y-56729047D01*
X70030219Y-56729047D02*
X70077838Y-56824285D01*
X70077838Y-56824285D02*
X70125457Y-56871904D01*
X70125457Y-56871904D02*
X70220695Y-56919523D01*
X70220695Y-56919523D02*
X70315933Y-56919523D01*
X70315933Y-56919523D02*
X70458790Y-56871904D01*
X70458790Y-56871904D02*
X71030219Y-56300476D01*
X71030219Y-56300476D02*
X71030219Y-56919523D01*
X70363552Y-57776666D02*
X71030219Y-57776666D01*
X69982600Y-57538571D02*
X70696885Y-57300476D01*
X70696885Y-57300476D02*
X70696885Y-57919523D01*
X86919580Y-63237142D02*
X86967200Y-63189523D01*
X86967200Y-63189523D02*
X87014819Y-63046666D01*
X87014819Y-63046666D02*
X87014819Y-62951428D01*
X87014819Y-62951428D02*
X86967200Y-62808571D01*
X86967200Y-62808571D02*
X86871961Y-62713333D01*
X86871961Y-62713333D02*
X86776723Y-62665714D01*
X86776723Y-62665714D02*
X86586247Y-62618095D01*
X86586247Y-62618095D02*
X86443390Y-62618095D01*
X86443390Y-62618095D02*
X86252914Y-62665714D01*
X86252914Y-62665714D02*
X86157676Y-62713333D01*
X86157676Y-62713333D02*
X86062438Y-62808571D01*
X86062438Y-62808571D02*
X86014819Y-62951428D01*
X86014819Y-62951428D02*
X86014819Y-63046666D01*
X86014819Y-63046666D02*
X86062438Y-63189523D01*
X86062438Y-63189523D02*
X86110057Y-63237142D01*
X86110057Y-63618095D02*
X86062438Y-63665714D01*
X86062438Y-63665714D02*
X86014819Y-63760952D01*
X86014819Y-63760952D02*
X86014819Y-63999047D01*
X86014819Y-63999047D02*
X86062438Y-64094285D01*
X86062438Y-64094285D02*
X86110057Y-64141904D01*
X86110057Y-64141904D02*
X86205295Y-64189523D01*
X86205295Y-64189523D02*
X86300533Y-64189523D01*
X86300533Y-64189523D02*
X86443390Y-64141904D01*
X86443390Y-64141904D02*
X87014819Y-63570476D01*
X87014819Y-63570476D02*
X87014819Y-64189523D01*
X86443390Y-64760952D02*
X86395771Y-64665714D01*
X86395771Y-64665714D02*
X86348152Y-64618095D01*
X86348152Y-64618095D02*
X86252914Y-64570476D01*
X86252914Y-64570476D02*
X86205295Y-64570476D01*
X86205295Y-64570476D02*
X86110057Y-64618095D01*
X86110057Y-64618095D02*
X86062438Y-64665714D01*
X86062438Y-64665714D02*
X86014819Y-64760952D01*
X86014819Y-64760952D02*
X86014819Y-64951428D01*
X86014819Y-64951428D02*
X86062438Y-65046666D01*
X86062438Y-65046666D02*
X86110057Y-65094285D01*
X86110057Y-65094285D02*
X86205295Y-65141904D01*
X86205295Y-65141904D02*
X86252914Y-65141904D01*
X86252914Y-65141904D02*
X86348152Y-65094285D01*
X86348152Y-65094285D02*
X86395771Y-65046666D01*
X86395771Y-65046666D02*
X86443390Y-64951428D01*
X86443390Y-64951428D02*
X86443390Y-64760952D01*
X86443390Y-64760952D02*
X86491009Y-64665714D01*
X86491009Y-64665714D02*
X86538628Y-64618095D01*
X86538628Y-64618095D02*
X86633866Y-64570476D01*
X86633866Y-64570476D02*
X86824342Y-64570476D01*
X86824342Y-64570476D02*
X86919580Y-64618095D01*
X86919580Y-64618095D02*
X86967200Y-64665714D01*
X86967200Y-64665714D02*
X87014819Y-64760952D01*
X87014819Y-64760952D02*
X87014819Y-64951428D01*
X87014819Y-64951428D02*
X86967200Y-65046666D01*
X86967200Y-65046666D02*
X86919580Y-65094285D01*
X86919580Y-65094285D02*
X86824342Y-65141904D01*
X86824342Y-65141904D02*
X86633866Y-65141904D01*
X86633866Y-65141904D02*
X86538628Y-65094285D01*
X86538628Y-65094285D02*
X86491009Y-65046666D01*
X86491009Y-65046666D02*
X86443390Y-64951428D01*
X97752857Y-74364819D02*
X98086190Y-73888628D01*
X98324285Y-74364819D02*
X98324285Y-73364819D01*
X98324285Y-73364819D02*
X97943333Y-73364819D01*
X97943333Y-73364819D02*
X97848095Y-73412438D01*
X97848095Y-73412438D02*
X97800476Y-73460057D01*
X97800476Y-73460057D02*
X97752857Y-73555295D01*
X97752857Y-73555295D02*
X97752857Y-73698152D01*
X97752857Y-73698152D02*
X97800476Y-73793390D01*
X97800476Y-73793390D02*
X97848095Y-73841009D01*
X97848095Y-73841009D02*
X97943333Y-73888628D01*
X97943333Y-73888628D02*
X98324285Y-73888628D01*
X97419523Y-73364819D02*
X96800476Y-73364819D01*
X96800476Y-73364819D02*
X97133809Y-73745771D01*
X97133809Y-73745771D02*
X96990952Y-73745771D01*
X96990952Y-73745771D02*
X96895714Y-73793390D01*
X96895714Y-73793390D02*
X96848095Y-73841009D01*
X96848095Y-73841009D02*
X96800476Y-73936247D01*
X96800476Y-73936247D02*
X96800476Y-74174342D01*
X96800476Y-74174342D02*
X96848095Y-74269580D01*
X96848095Y-74269580D02*
X96895714Y-74317200D01*
X96895714Y-74317200D02*
X96990952Y-74364819D01*
X96990952Y-74364819D02*
X97276666Y-74364819D01*
X97276666Y-74364819D02*
X97371904Y-74317200D01*
X97371904Y-74317200D02*
X97419523Y-74269580D01*
X96181428Y-73364819D02*
X96086190Y-73364819D01*
X96086190Y-73364819D02*
X95990952Y-73412438D01*
X95990952Y-73412438D02*
X95943333Y-73460057D01*
X95943333Y-73460057D02*
X95895714Y-73555295D01*
X95895714Y-73555295D02*
X95848095Y-73745771D01*
X95848095Y-73745771D02*
X95848095Y-73983866D01*
X95848095Y-73983866D02*
X95895714Y-74174342D01*
X95895714Y-74174342D02*
X95943333Y-74269580D01*
X95943333Y-74269580D02*
X95990952Y-74317200D01*
X95990952Y-74317200D02*
X96086190Y-74364819D01*
X96086190Y-74364819D02*
X96181428Y-74364819D01*
X96181428Y-74364819D02*
X96276666Y-74317200D01*
X96276666Y-74317200D02*
X96324285Y-74269580D01*
X96324285Y-74269580D02*
X96371904Y-74174342D01*
X96371904Y-74174342D02*
X96419523Y-73983866D01*
X96419523Y-73983866D02*
X96419523Y-73745771D01*
X96419523Y-73745771D02*
X96371904Y-73555295D01*
X96371904Y-73555295D02*
X96324285Y-73460057D01*
X96324285Y-73460057D02*
X96276666Y-73412438D01*
X96276666Y-73412438D02*
X96181428Y-73364819D01*
X64934132Y-44011076D02*
X64934132Y-44468219D01*
X64934132Y-44468219D02*
X64964609Y-44559647D01*
X64964609Y-44559647D02*
X65025561Y-44620600D01*
X65025561Y-44620600D02*
X65116990Y-44651076D01*
X65116990Y-44651076D02*
X65177942Y-44651076D01*
X64324609Y-44011076D02*
X64629371Y-44011076D01*
X64629371Y-44011076D02*
X64659847Y-44315838D01*
X64659847Y-44315838D02*
X64629371Y-44285361D01*
X64629371Y-44285361D02*
X64568418Y-44254885D01*
X64568418Y-44254885D02*
X64416037Y-44254885D01*
X64416037Y-44254885D02*
X64355085Y-44285361D01*
X64355085Y-44285361D02*
X64324609Y-44315838D01*
X64324609Y-44315838D02*
X64294132Y-44376790D01*
X64294132Y-44376790D02*
X64294132Y-44529171D01*
X64294132Y-44529171D02*
X64324609Y-44590123D01*
X64324609Y-44590123D02*
X64355085Y-44620600D01*
X64355085Y-44620600D02*
X64416037Y-44651076D01*
X64416037Y-44651076D02*
X64568418Y-44651076D01*
X64568418Y-44651076D02*
X64629371Y-44620600D01*
X64629371Y-44620600D02*
X64659847Y-44590123D01*
D13*
%TO.C,R29*%
X99665276Y-70377500D02*
X100174724Y-70377500D01*
X99665276Y-71422500D02*
X100174724Y-71422500D01*
%TO.C,JP1*%
X99672776Y-67327500D02*
X100182224Y-67327500D01*
X99672776Y-68372500D02*
X100182224Y-68372500D01*
%TO.C,U13*%
X105340000Y-67640000D02*
X103390000Y-67640000D01*
X105340000Y-67640000D02*
X107290000Y-67640000D01*
X105340000Y-72760000D02*
X101890000Y-72760000D01*
X105340000Y-72760000D02*
X107290000Y-72760000D01*
%TO.C,R10*%
X72732500Y-53387776D02*
X72732500Y-53897224D01*
X71687500Y-53387776D02*
X71687500Y-53897224D01*
%TO.C,R31*%
X89667500Y-60652224D02*
X89667500Y-60142776D01*
X90712500Y-60652224D02*
X90712500Y-60142776D01*
%TO.C,C16*%
X68500000Y-53803767D02*
X68500000Y-53511233D01*
X69520000Y-53803767D02*
X69520000Y-53511233D01*
%TO.C,JP3*%
X99662776Y-71847500D02*
X100172224Y-71847500D01*
X99662776Y-72892500D02*
X100172224Y-72892500D01*
%TO.C,C27*%
X92150000Y-63983767D02*
X92150000Y-63691233D01*
X93170000Y-63983767D02*
X93170000Y-63691233D01*
%TO.C,R28*%
X99692776Y-65797500D02*
X100202224Y-65797500D01*
X99692776Y-66842500D02*
X100202224Y-66842500D01*
%TO.C,JP2*%
X99662776Y-68847500D02*
X100172224Y-68847500D01*
X99662776Y-69892500D02*
X100172224Y-69892500D01*
%TO.C,D3*%
X93240000Y-56610000D02*
X93240000Y-61020000D01*
X91020000Y-56610000D02*
X93240000Y-56610000D01*
X91020000Y-61020000D02*
X91020000Y-56610000D01*
%TO.C,JP4*%
X90752500Y-63577776D02*
X90752500Y-64087224D01*
X89707500Y-63577776D02*
X89707500Y-64087224D01*
%TO.C,C1*%
X63568752Y-54215000D02*
X63046248Y-54215000D01*
X63568752Y-52745000D02*
X63046248Y-52745000D01*
%TO.C,U14*%
X103200000Y-65285000D02*
X103200000Y-65030000D01*
X103200000Y-55020000D02*
X105015000Y-55020000D01*
X103200000Y-54765000D02*
X103200000Y-55020000D01*
X99340000Y-65285000D02*
X103200000Y-65285000D01*
X99340000Y-65285000D02*
X95480000Y-65285000D01*
X99340000Y-54765000D02*
X103200000Y-54765000D01*
X99340000Y-54765000D02*
X95480000Y-54765000D01*
X95480000Y-65285000D02*
X95480000Y-65030000D01*
X95480000Y-54765000D02*
X95480000Y-55020000D01*
%TO.C,R12*%
X60012224Y-53922500D02*
X59502776Y-53922500D01*
X60012224Y-52877500D02*
X59502776Y-52877500D01*
%TO.C,BT1*%
X51805000Y-60245000D02*
X53412090Y-60245000D01*
X51805000Y-62130000D02*
X51805000Y-60245000D01*
X51805000Y-68130000D02*
X51805000Y-70015000D01*
X51805000Y-70015000D02*
X53412090Y-70015000D01*
X72745000Y-60245000D02*
X71137910Y-60245000D01*
X72745000Y-62130000D02*
X72745000Y-60245000D01*
X72745000Y-68130000D02*
X72745000Y-70015000D01*
X72745000Y-70015000D02*
X71137910Y-70015000D01*
X53412090Y-60245000D02*
G75*
G02*
X71140021Y-60248832I8862910J-4884999D01*
G01*
X71137910Y-70015000D02*
G75*
G02*
X53412090Y-70015000I-8862910J4885000D01*
G01*
%TO.C,R24*%
X71072500Y-53387776D02*
X71072500Y-53897224D01*
X70027500Y-53387776D02*
X70027500Y-53897224D01*
%TO.C,C28*%
X88230000Y-63696233D02*
X88230000Y-63988767D01*
X87210000Y-63696233D02*
X87210000Y-63988767D01*
%TO.C,R30*%
X99662776Y-73307500D02*
X100172224Y-73307500D01*
X99662776Y-74352500D02*
X100172224Y-74352500D01*
D10*
%TO.C,J5*%
X72714968Y-42738145D02*
X72714968Y-49988145D01*
X72714968Y-39510000D02*
X72714968Y-39988145D01*
X72714968Y-37010000D02*
X72714968Y-39510000D01*
X71314968Y-39510000D02*
X72714968Y-39510000D01*
X71214968Y-51488145D02*
X68464968Y-51488145D01*
X69914968Y-37010000D02*
X72714968Y-37010000D01*
X64480000Y-38210000D02*
X64480000Y-37010000D01*
X64480000Y-37010000D02*
X69980000Y-37010000D01*
X59230000Y-39510000D02*
X57964968Y-39510000D01*
X58980000Y-37010000D02*
X64480000Y-37010000D01*
X57964968Y-42738145D02*
X57964968Y-49988145D01*
X57964968Y-39499072D02*
X57964968Y-39977217D01*
X57964968Y-37010000D02*
X58980000Y-37010000D01*
X57964968Y-37010000D02*
X57964968Y-39510000D01*
%TD*%
M02*
