M48
; DRILL file {KiCad 8.0.6} date 2024-11-01T17:43:07+0200
; FORMAT={-:-/ absolute / metric / decimal}
; #@! TF.CreationDate,2024-11-01T17:43:07+02:00
; #@! TF.GenerationSoftware,Kicad,Pcbnew,8.0.6
; #@! TF.FileFunction,Plated,1,2,PTH
FMAT,2
METRIC
; #@! TA.AperFunction,Plated,PTH,ComponentDrill
T1C0.200
; #@! TA.AperFunction,Plated,PTH,ViaDrill
T2C0.400
; #@! TA.AperFunction,Plated,PTH,ViaDrill
T3C0.500
; #@! TA.AperFunction,Plated,PTH,ComponentDrill
T4C0.600
; #@! TA.AperFunction,Plated,PTH,ComponentDrill
T5C0.650
; #@! TA.AperFunction,Plated,PTH,ComponentDrill
T6C0.800
; #@! TA.AperFunction,Plated,PTH,ComponentDrill
T7C0.900
; #@! TA.AperFunction,Plated,PTH,ViaDrill
T8C1.800
%
G90
G05
T1
X91.051Y-51.18
X91.051Y-52.705
X91.814Y-50.417
X91.814Y-51.942
X91.814Y-53.467
X92.576Y-51.18
X92.576Y-52.705
X93.339Y-50.417
X93.339Y-51.942
X93.339Y-53.467
X94.101Y-51.18
X94.101Y-52.705
T2
X49.11Y-45.56
X49.22Y-49.05
X49.38Y-70.37
X49.384Y-60.176
X49.404Y-47.55
X50.78Y-41.17
X50.98Y-47.55
X51.5Y-59.4
X52.1Y-50.45
X52.813Y-45.983
X52.83Y-71.97
X52.84Y-73.715
X53.448Y-42.598
X54.18Y-66.55
X55.35Y-38.15
X55.372Y-43.18
X58.166Y-46.736
X59.84Y-70.16
X60.0Y-61.0
X60.198Y-46.736
X60.38Y-43.53
X61.64Y-38.95
X62.247Y-48.023
X62.27Y-53.41
X63.33Y-44.24
X63.77Y-73.35
X64.1Y-57.45
X64.973Y-47.677
X65.33Y-67.74
X66.04Y-42.672
X66.1Y-38.825
X66.11Y-45.75
X66.15Y-40.55
X66.15Y-46.935
X66.523Y-73.767
X67.88Y-39.92
X67.92Y-73.767
X67.98Y-38.33
X69.04Y-52.74
X69.24Y-66.34
X69.9Y-57.3
X70.13Y-43.66
X70.28Y-59.515
X70.579Y-60.469
X71.6Y-57.35
X71.84Y-67.445
X71.91Y-65.37
X71.93Y-63.79
X71.99Y-49.26
X73.18Y-70.77
X73.621Y-54.245
X74.325Y-44.298
X74.422Y-46.736
X77.64Y-59.56
X78.2Y-44.51
X78.639Y-59.557
X79.49Y-52.354
X80.32Y-57.127
X80.684Y-52.354
X81.83Y-73.36
X82.525Y-54.508
X85.72Y-62.25
X86.12Y-52.17
X86.15Y-50.94
X86.17Y-56.707
X86.2Y-46.96
X86.208Y-57.706
X86.5Y-44.6
X87.12Y-56.19
X87.32Y-54.65
X87.33Y-46.66
X87.56Y-60.55
X87.87Y-58.82
X88.412Y-46.66
X88.67Y-50.56
X88.9Y-64.9
X89.67Y-50.57
X90.26Y-55.17
X90.95Y-46.66
X92.34Y-59.21
X92.5Y-44.99
X94.025Y-66.302
X96.52Y-63.754
X96.58Y-50.56
X96.71Y-54.35
X96.74Y-45.57
X97.7Y-60.74
X99.01Y-67.69
X99.679Y-50.95
X99.679Y-56.08
X99.68Y-59.01
X100.47Y-62.99
X100.5Y-47.13
X100.51Y-45.88
X100.54Y-48.34
X100.54Y-55.304
X100.56Y-49.65
X100.59Y-53.45
X100.741Y-59.012
X102.075Y-59.8
X103.28Y-66.66
X104.01Y-60.67
X104.035Y-54.331
X104.2Y-49.45
X104.62Y-63.17
X104.78Y-45.526
X104.8Y-53.025
X105.485Y-54.008
X105.54Y-50.194
X105.57Y-68.69
X106.62Y-53.59
X108.43Y-47.22
X108.99Y-49.81
X108.99Y-51.54
X109.15Y-60.2
X109.15Y-62.55
X109.86Y-44.61
X109.908Y-47.158
X110.01Y-55.91
X110.79Y-51.52
X110.82Y-49.84
X111.506Y-67.818
X111.506Y-70.612
X111.56Y-59.5
X111.56Y-63.21
X111.71Y-47.15
T3
X70.23Y-70.456
X70.39Y-73.4
T5
X49.65Y-51.5
X49.65Y-52.77
X49.65Y-54.04
X49.65Y-55.31
X49.65Y-56.58
X49.65Y-57.85
T6
X50.24Y-43.18
X50.24Y-44.45
X73.17Y-60.56
X74.44Y-60.56
T7
X54.62Y-44.58
X54.62Y-47.12
X54.62Y-49.66
X54.62Y-52.2
X54.62Y-54.74
X76.464Y-44.58
X76.464Y-47.12
X76.464Y-49.66
X76.464Y-52.2
X76.464Y-54.74
X76.464Y-57.28
X87.325Y-73.076
X89.865Y-73.076
X92.405Y-73.076
X94.945Y-73.076
T8
X50.24Y-39.03
X50.27Y-73.2
X111.1Y-39.05
X111.1Y-39.05
X111.1Y-73.18
T4
G00X106.967Y-57.351
M15
G01X108.067Y-57.351
M16
G05
G00X106.967Y-65.991
M15
G01X108.067Y-65.991
M16
G05
G00X111.317Y-57.351
M15
G01X112.117Y-57.351
M16
G05
G00X111.317Y-65.991
M15
G01X112.117Y-65.991
M16
G05
M30
